<?xml version="1.0" encoding="UTF-8"?>
<svg width="143px" height="72px" viewBox="0 0 143 72" version="1.1" xmlns="http://www.w3.org/2000/svg" xmlns:xlink="http://www.w3.org/1999/xlink">
    <!-- Generator: Sketch 42 (36781) - http://www.bohemiancoding.com/sketch -->
    <title>Artboard</title>
    <desc>Created with Sketch.</desc>
    <defs></defs>
    <g id="Page-1" stroke="none" stroke-width="1" fill="none" fill-rule="evenodd">
        <g id="Artboard" fill="#33C066">
            <g id="Logo" transform="translate(12.000000, 13.000000)">
                <path d="M70.5039466,18.6960923 C65.2055333,18.6960923 60.9060491,22.9416645 60.9060491,28.17364 L60.9060491,30.7348275 C60.9060491,35.9552661 65.2055333,40.2066067 70.5039466,40.2066067 C72.1162532,40.2066067 73.629251,39.8028159 74.9669981,39.1048346 L74.9669981,35.4476434 C73.7285597,36.4859627 72.2389287,37.0397329 70.5039466,37.0397329 C66.9755655,37.0397329 64.1072955,34.2131971 64.1072955,30.7348275 L64.1072955,28.17364 C64.1072955,24.6952704 66.9755655,21.8571977 70.5039466,21.8571977 C74.026486,21.8571977 76.894756,24.6952704 76.894756,28.17364 L76.894756,30.7348275 C76.894756,30.8675017 76.8830726,31.0059442 76.8772309,31.1386184 L76.8889143,31.1386184 L76.8889143,37.7838618 L76.894756,37.7780933 L76.894756,40.1719961 L76.894756,40.1777645 L76.8889143,43.811882 L76.894756,43.811882 L76.894756,45.3405187 L80.1076857,45.3405187 L80.1076857,30.7348275 L80.1076857,28.17364 C80.1076857,22.9416645 75.7906765,18.6960923 70.5039466,18.6960923" id="Fill-1"></path>
                <path d="M85.2028082,27.6492887 C84.922407,19.8791995 78.4381306,13.6435153 70.5051149,13.6435153 C62.3910069,13.6435153 55.7898966,20.161853 55.7898966,28.1742168 L55.7898966,30.7354044 C55.7898966,38.7477682 62.3910069,45.2603374 70.5051149,45.2603374 C72.0473212,45.2603374 73.5369523,45.0238314 74.9681665,44.5681246 L74.9681665,41.1993553 C73.5661607,41.7877363 72.0648463,42.099232 70.5051149,42.099232 C64.1610391,42.099232 58.9969847,37.0056991 58.9969847,30.7354044 L58.9969847,28.1742168 C58.9969847,21.9096905 64.1610391,16.8046207 70.5051149,16.8046207 C76.8491908,16.8046207 82.0074035,21.9096905 82.0074035,28.1742168 L82.0074035,45.3410956 L85.2203333,45.3410956 L85.2203333,27.6492887 L85.2028082,27.6492887 Z" id="Fill-3"></path>
                <path d="M96.2903367,14.0761484 C96.944606,13.5742941 97.6339255,13.141661 98.3524535,12.7724808 L98.3524535,0.589534613 L95.1453654,0.589534613 L95.1453654,14.9587198 C95.530917,14.6702977 95.8989435,14.3761073 96.2903367,14.0761484" id="Fill-5"></path>
                <path d="M93.2374693,16.5023544 L93.2374693,0.592995678 L90.0303812,0.592995678 L90.0303812,19.3577324 C91.0059435,18.4174767 92.0808146,17.4714524 93.2374693,16.5023544" id="Fill-7"></path>
                <path d="M53.4970331,22.1658093 C53.7540675,22.2350305 54.0286269,22.3157887 54.2856613,22.4023153 C54.7296298,21.3524591 55.2378569,20.4122034 55.7694507,19.5700111 C55.2261735,19.3565788 54.6770546,19.2065993 54.3616033,19.1200727 C53.4502996,18.8374191 52.5039457,18.6989765 51.5342251,18.6989765 C46.0664028,18.6989765 41.9421693,22.7714955 41.9421693,28.1765242 L41.9421693,45.3376345 L45.1434157,45.3376345 L45.1434157,28.1765242 C45.1434157,24.519333 47.8422767,21.8658503 51.5342251,21.8658503 C52.1884944,21.8658503 52.8252387,21.9581454 53.4386162,22.1485039 L53.4970331,22.1658093 Z" id="Fill-9"></path>
                <path d="M56.8116083,18.0719471 C57.5943948,17.0567015 58.3713396,16.237583 59.0139256,15.6318968 C58.4940151,15.3261694 57.5476613,14.8877679 55.7893124,14.2647764 L55.7075288,14.2359342 C54.36394,13.8436802 52.9560926,13.6417848 51.5365618,13.6417848 C43.0135354,13.6417848 36.8271851,19.7621001 36.8271851,28.1782547 L36.8271851,45.339365 L40.0284315,45.339365 L40.0284315,28.1782547 C40.0284315,21.4810954 44.7660425,16.8086586 51.5365618,16.8086586 C52.6347996,16.8086586 53.7155123,16.9644065 54.7553332,17.2643654 C55.5030696,17.5239452 56.2800144,17.835441 56.8116083,18.0719471" id="Fill-11"></path>
                <path d="M104.941296,18.6960923 C102.102235,18.6960923 99.5552575,19.9247701 97.791067,21.8629661 L97.7793836,21.8456608 C95.3784488,24.1241948 90.6466795,29.5580657 87.1299819,34.0516808 L87.1299819,39.2721194 C87.3928579,38.9202445 87.6674174,38.5568328 87.9595019,38.1818841 L87.9419768,38.1645788 C88.1347526,37.904999 90.8336136,34.368945 93.8712927,30.7463644 C94.3678364,30.1464466 94.8643801,29.5580657 95.337557,28.9869901 L95.337557,29.0216007 C97.1601644,26.91612 98.9710885,24.9606186 100.338044,23.8011621 C101.494699,22.6070949 103.130372,21.8629661 104.941296,21.8629661 C108.463836,21.8629661 111.332106,24.6952704 111.332106,28.17364 L111.332106,30.7348275 C111.332106,34.2131971 108.463836,37.0512698 104.941296,37.0512698 C101.412915,37.0512698 98.5446451,34.2131971 98.5446451,30.7348275 L98.5446451,28.6005046 C97.545716,29.7080451 96.4825283,30.9367229 95.4602325,32.1596323 C96.1612354,36.7109318 100.139427,40.2066067 104.941296,40.2066067 C110.233868,40.2066067 114.539194,35.9552661 114.539194,30.7348275 L114.539194,28.17364 C114.539194,22.9474329 110.233868,18.6960923 104.941296,18.6960923" id="Fill-13"></path>
                <g id="Group-17" transform="translate(86.842025, 12.849395)">
                    <path d="M10.7504248,2.89383258 C7.50244486,5.29350381 4.92625936,7.64702751 2.83493417,9.89671928 C1.91778876,10.9523439 1.06490195,12.0079685 0.287957117,13.0174456 L0.287957117,18.2609579 C3.27890264,13.9461645 7.32719415,9.16412735 11.0775594,6.32605465 C13.1163094,4.78011261 15.5464527,3.96099407 18.0992714,3.96099407 C24.4433473,3.96099407 29.6074016,9.06029542 29.6074016,15.3248217 L29.6074016,17.8860093 C29.6074016,24.1505356 24.4433473,29.249837 18.0992714,29.249837 C12.9060086,29.249837 8.5247407,25.8291518 7.10520991,21.156715 C6.24063972,22.2123396 5.44616981,23.2045114 4.7802171,24.0409353 C7.13441836,28.9902572 12.2108474,32.4109423 18.0992714,32.4109423 C26.2075378,32.4109423 32.8144897,25.8983731 32.8144897,17.8860093 L32.8144897,15.3248217 C32.8144897,7.31245796 26.2075378,0.794120261 18.0992714,0.794120261 C15.3828853,0.794120261 12.351048,1.71130229 10.7504248,2.89383258 Z" id="Fill-15"></path>
                </g>
                <polygon id="Fill-18" points="26.5154331 32.3263402 18.722618 32.3263402 18.722618 29.2863721 26.5154331 29.2863721"></polygon>
                <path d="M19.4329676,15.3411674 C24.5502884,15.3411674 28.2597619,16.2295072 29.8837518,17.8389021 L30.0005856,17.7235333 L30.0005856,14.066342 C27.5412339,12.808822 24.0070112,12.1742936 19.4329676,12.1742936 C11.6576775,12.1742936 5.09161742,18.5887993 5.09161742,26.1916038 L5.09161742,27.097249 C5.09161742,34.7058219 11.3422262,41.1203277 18.7494898,41.1203277 C25.0760406,41.1203277 27.5996508,38.9225519 27.8683686,38.674509 L28.3649123,38.2014968 L28.3649123,29.2777195 L25.1519825,29.2777195 L25.1519825,36.684397 C24.2874123,37.1516407 22.3012376,37.9476855 18.7494898,37.9476855 C13.0888917,37.9476855 8.2987055,32.9810582 8.2987055,27.097249 L8.2987055,26.1916038 C8.2987055,20.3077946 13.3985013,15.3411674 19.4329676,15.3411674" id="Fill-20"></path>
                <path d="M18.722618,27.4923872 L30.2424316,27.4923872 L30.2424316,39.0177312 C29.2551859,40.0445136 25.8319553,42.9748813 18.7518264,42.9748813 C10.3281088,42.9748813 3.21292976,35.7008779 3.21292976,27.1001332 L3.21292976,26.1944881 C3.21292976,17.5879749 10.6435601,10.31974 19.4353042,10.31974 C23.6004295,10.31974 27.3683199,11.040795 30.0029223,12.3271572 L30.0029223,8.86609296 C27.0879188,7.76432084 23.3901287,7.14132927 19.4353042,7.14132927 C8.8968946,7.14132927 0,15.8689797 0,26.1944881 L0,27.1001332 C0,37.4256416 8.58728501,46.1475236 18.7518264,46.1475236 C28.9046845,46.1475236 32.9821845,40.7598002 33.1457518,40.5290626 L33.4553614,40.1195033 L33.4553614,24.3139765 L18.722618,24.3139765 L18.722618,27.4923872 Z" id="Fill-21"></path>
            </g>
        </g>
    </g>
</svg>