<svg id="Layer_1" data-name="Layer 1" xmlns="http://www.w3.org/2000/svg" viewBox="0 0 512 512"><defs><style>.cls-1{fill:#ec1c24;}</style></defs><title>Logo_CRG_CFR-Tops</title><path class="cls-1" d="M415.57,161.35h-5V140.88h4.7v3.89c1.5-2.72,3.63-4.33,6-4.33,4.52-.09,6.87,2.39,6.87,6.72v14.19h-5.07V148.6c0-2-.61-4.11-3-4.11-2.68,0-4.55,3-4.55,5.54v11.33"/><path class="cls-1" d="M428.28,130.56v2.21H419.2c-.93,0-1.92.5-1.92,1.51a1.07,1.07,0,0,0,.48,1.12l3.17-1.51,2.12,1.16a2,2,0,0,0,1.4.2,1.75,1.75,0,0,0,1.14-1.43l2.62,1.14c.07,1.22-1,3.3-2.93,3.3a4.84,4.84,0,0,1-2.53-.79l-1.85-1-2.77,1.31a4.09,4.09,0,0,1-1.75.45,3.72,3.72,0,0,1-3.6-3.93,3.83,3.83,0,0,1,3.89-3.72h11.6"/><path class="cls-1" d="M430.72,150h9.49v3.19h-4.6c-.1,3.15,2.12,5.41,4.86,5.22,3.27-.19,4.71-2.56,4.71-6.69,0-4.34-1.38-7.41-5.3-7.41a4.89,4.89,0,0,0-4.51,3.45l-4.58-.67c1-3.41,4-6.67,9.43-6.67,6.52,0,10,4.68,10,10.77s-3.56,10.86-10.14,10.85c-6.77,0-9.87-5.41-9.38-12"/><path class="cls-1" d="M458.18,154.74c0,2.38,1.55,3.3,4,3.3,2.17,0,4-.92,4-3.3V132.3h5v22.12c0,4.41-2,7.47-8.84,7.47-7.18,0-9.13-3.06-9.13-7.47V140.88h5v13.85"/><path class="cls-1" d="M492.84,147.26v14.09h-5v-10c-2.74,0-8.42,0-8.42,4.11,0,2.78,3.8,3.45,6,2.06l.53,2.77c-1.33,1.38-2.92,1.6-5.22,1.6a6.32,6.32,0,0,1-6.69-6.36c0-8,13.75-7,13.75-7V147c0-2.42-2.43-2.95-4.22-2.95-2.23,0-3.83,1.17-4.24,2.8l-4.42-.62c1.11-4.55,5.58-6,9.55-5.89a13,13,0,0,1,4.47.76c.9-1.53,3.59-2.6,5.32-2.43l.41,4c-.73-.11-2.43-.28-2.93.47a6.64,6.64,0,0,1,1.1,4.16"/><path class="cls-1" d="M488.78,136.45c0-3.76.69-5.79,7.22-5.51V133c-2.83-.33-2.41,1.92-2.41,3.42h-4.81"/><path class="cls-1" d="M427,228.67c0-9.58,10.11-13.6,18.65-13.6,11,0,18.93,4.54,25.07,13.07L492,208.95c-10.41-14.13-28.55-19.45-45.58-19.45-25.88,0-51.48,12.79-51.48,41.32,0,48.76,69.07,28,69.07,54.37,0,10.13-12,14.66-21.35,14.66-13.59,0-22.12-6.67-30.37-15.72l-21.34,20c13.06,14.69,30.15,19.73,49.85,19.73,26.14,0,55.19-10.64,55.19-41.07C496,233,427,251.59,427,228.67Z"/><path class="cls-1" d="M330.29,189.5c-17.88,0-34.66,6.92-44,22.37h-.54V192.69H255.36V381.44h32V304.38h.77c6.7,8.26,19.5,19.46,43.48,19.46,36.54,0,61.84-29.32,61.84-67.19S369.75,189.5,330.29,189.5ZM323.9,295.05c-23.47,0-37.59-18.39-37.59-38.4s14.12-38.38,37.59-38.38,37.61,18.4,37.61,38.38S347.36,295.05,323.9,295.05Z"/><path class="cls-1" d="M117.41,192.68c5.39-.11,56.22-2.2,56.22-41.32,0,0-4.16,10.89-56.22,11v0H16v30.42H73.86V320.64h33.59V192.69h10Z"/><path class="cls-1" d="M181.42,189.5c-38.7,0-69.62,26.93-69.62,67.16s30.92,67.19,69.62,67.19S251,296.93,251,256.65,220.07,189.5,181.42,189.5Zm0,105.55c-23.47,0-37.58-18.39-37.58-38.4s14.11-38.38,37.58-38.38S219,236.67,219,256.65,204.87,295.05,181.42,295.05Z"/></svg>