<svg xmlns="http://www.w3.org/2000/svg" width="50" height="48" viewBox="0 0 50 48">
    <path fill="#CCC" fill-rule="nonzero" d="M48.957 8.043c-.9-1.099-2.264-1.71-3.68-1.71H14.545a4.64 4.64 0 0 0-2.44.694l-1.571-5.503A2.091 2.091 0 0 0 8.528 0H1.582C.713 0 0 .705 0 1.586v.166c0 .87.703 1.585 1.582 1.585h5.975l3.049 10.81 4.197 14.916a5.51 5.51 0 0 0-4.156 5.338c0 2.912 2.264 5.306 5.128 5.493a5.448 5.448 0 0 0-.29 2.218c.207 2.633 2.347 4.757 4.972 4.934 3.133.217 5.748-2.28 5.748-5.37 0-.621-.103-1.212-.3-1.772h6.285a5.428 5.428 0 0 0-.269 2.394c.29 2.55 2.388 4.561 4.952 4.748a5.384 5.384 0 0 0 5.758-5.37c0-2.995-2.481-5.389-5.458-5.389H16.178c-1.024 0-1.892-.798-1.933-1.814a1.882 1.882 0 0 1 1.881-1.959H41.173c2.13 0 3.99-1.461 4.507-3.534l4.177-16.853a4.642 4.642 0 0 0-.9-4.084zm-11.691 31.85c.971 0 1.767.799 1.767 1.773 0 .975-.796 1.773-1.767 1.773a1.776 1.776 0 0 1-1.768-1.773 1.77 1.77 0 0 1 1.768-1.772zm-16.426 0c.972 0 1.768.799 1.768 1.773 0 .975-.796 1.773-1.768 1.773a1.776 1.776 0 0 1-1.768-1.773 1.77 1.77 0 0 1 1.768-1.772zm-6.492-25.766l-.806-2.85a.996.996 0 0 1 .176-.912c.113-.156.382-.415.827-.415h3.37l.92 4.188h-4.487v-.01zm1.013 3.607h4.26l.847 3.876h-4.021l-1.086-3.876zm3.918 11.153a1.04 1.04 0 0 1-1.003-.767l-.816-2.903h3.793l.807 3.66h-2.781v.01zm9.004 0H25.74l-.807-3.66h3.34v3.66h.01zm0-7.277h-4.135l-.848-3.876h4.983v3.876zm0-7.483h-5.768l-.92-4.187h6.688v4.187zm6.45 14.76H31.89v-3.66h3.608l-.765 3.66zm1.53-7.277H31.89v-3.876h5.19l-.817 3.876zm-4.373-7.483V9.94h6.823l-.879 4.187H31.89zM42.197 28.1a1.041 1.041 0 0 1-1.013.798h-2.77l.775-3.659h3.72l-.712 2.86zm1.602-6.489h-3.856l.817-3.876h4L43.8 21.61zm2.564-10.375l-.714 2.882h-4.135l.88-4.188h2.956a.99.99 0 0 1 .816.405c.124.155.31.476.197.901z"/>
</svg>
