<svg xmlns="http://www.w3.org/2000/svg" width="99" height="50">
    <path fill="#F40405" fill-rule="evenodd" d="M98.834 3.161a1.16 1.16 0 0 1-.454.468c.065.105.115.222.15.352.035.129.052.275.052.436v3.438h-1.199V5.641a1.5 1.5 0 0 1-.399.18 4.936 4.936 0 0 1-.372.09l-.417.08a2.479 2.479 0 0 0-.376.096.832.832 0 0 0-.269.144.277.277 0 0 0-.103.224c0 .099.022.184.067.253a.509.509 0 0 0 .172.167.79.79 0 0 0 .236.092c.087.019.174.028.261.028.085 0 .185-.008.3-.025a3.56 3.56 0 0 0 .378-.081v.92a4.418 4.418 0 0 1-.452.105 2.43 2.43 0 0 1-.414.036c-.238 0-.463-.026-.675-.078a1.608 1.608 0 0 1-.561-.248 1.201 1.201 0 0 1-.382-.444 1.447 1.447 0 0 1-.141-.668c0-.254.052-.467.156-.636.105-.17.253-.311.445-.424.192-.114.425-.205.697-.277.272-.07.576-.135.91-.192.118-.021.233-.046.346-.075.113-.029.214-.064.302-.105a.695.695 0 0 0 .211-.145.276.276 0 0 0 .08-.196.468.468 0 0 0-.073-.276.461.461 0 0 0-.19-.152.826.826 0 0 0-.263-.065 3.614 3.614 0 0 0-.294-.013c-.132 0-.252.012-.361.035a.639.639 0 0 0-.478.374c-.049.105-.078.24-.086.405h-1.234a2.36 2.36 0 0 1 .099-.632c.057-.184.136-.345.236-.482.099-.137.216-.252.352-.345.135-.093.283-.169.444-.227.162-.058.334-.1.518-.125a4.208 4.208 0 0 1 1.036-.01c.155.018.304.048.447.09a.413.413 0 0 0 .109-.099.62.62 0 0 0 .116-.265.783.783 0 0 0 .013-.13h1.222a1.23 1.23 0 0 1-.162.616zm-.708-1.417a.702.702 0 0 0-.174.257c-.04.1-.059.21-.059.331h-1.154c0-.263.052-.496.154-.7.102-.204.245-.377.427-.519.183-.142.4-.25.651-.325.251-.075.525-.114.823-.118v.848c-.145 0-.274.02-.386.059a.774.774 0 0 0-.282.167zm-4.822 5.145c-.064.155-.15.298-.256.428a1.5 1.5 0 0 1-.4.34c-.16.096-.35.17-.569.224-.22.054-.473.081-.761.081a3.23 3.23 0 0 1-.765-.081 2.036 2.036 0 0 1-.569-.224 1.512 1.512 0 0 1-.399-.34 1.666 1.666 0 0 1-.253-.428 2.148 2.148 0 0 1-.134-.49 3.488 3.488 0 0 1-.039-.522V3.028h1.197v2.933c0 .114.015.229.046.343a.84.84 0 0 0 .158.309.821.821 0 0 0 .297.224c.124.058.277.087.461.087.182 0 .333-.029.455-.087a.806.806 0 0 0 .449-.533c.031-.114.046-.229.046-.343V.917h1.212v4.96c0 .176-.013.35-.04.522a2.008 2.008 0 0 1-.136.49zm4.871 7.812l-4.4 3.928c-1.264-1.746-2.91-2.676-5.169-2.676-1.763 0-3.847.823-3.847 2.784 0 4.689 14.237.876 14.237 11.071 0 6.229-5.991 8.406-11.382 8.406-4.064 0-7.588-1.033-10.281-4.04l4.402-4.09c1.7 1.852 3.46 3.218 6.263 3.218 1.928 0 4.404-.925 4.404-3 0-5.404-14.246-1.148-14.246-11.126 0-5.84 5.279-8.456 10.618-8.456 3.515 0 7.255 1.089 9.401 3.981zm-9.94-8.002a2.229 2.229 0 0 1-.296.511 1.82 1.82 0 0 1-.43.399 1.992 1.992 0 0 1-.577.261 2.702 2.702 0 0 1-.731.092c-.275 0-.521-.031-.739-.092a2.03 2.03 0 0 1-.577-.258 1.722 1.722 0 0 1-.424-.396 2.184 2.184 0 0 1-.287-.511 2.879 2.879 0 0 1-.164-.597 4.007 4.007 0 0 1-.052-.656v-.34h2.243v.978h-.971c.033.124.079.237.139.339.06.102.132.189.215.263a.912.912 0 0 0 .617.232c.16 0 .304-.033.43-.1a.899.899 0 0 0 .322-.287 1.39 1.39 0 0 0 .201-.462c.046-.182.07-.39.07-.623 0-.481-.085-.849-.255-1.103-.17-.254-.43-.381-.78-.381a1.058 1.058 0 0 0-.62.198.972.972 0 0 0-.353.532h-1.281c.066-.265.161-.506.285-.726.125-.219.281-.408.468-.565.188-.157.406-.279.655-.367.249-.087.531-.13.846-.13.416 0 .768.065 1.057.195.288.131.522.31.702.538.18.228.31.497.39.807.08.309.12.643.12 1.002 0 .224-.018.441-.054.652-.035.211-.092.41-.169.595zM80.739.819a.37.37 0 0 0-.139.104.288.288 0 0 0-.058.126.462.462 0 0 0-.003.196.304.304 0 0 0 .033.093.207.207 0 0 0 .193.111c.091 0 .157-.028.198-.085.042-.056.059-.15.051-.28h.762c-.005.13.011.224.051.28.04.057.102.085.187.085.083 0 .136-.03.158-.089a.614.614 0 0 0 .007-.276h.843c.029.224.024.412-.014.564a.826.826 0 0 1-.187.365.735.735 0 0 1-.313.198c-.123.04-.253.06-.39.06a.814.814 0 0 1-.224-.03.925.925 0 0 1-.486-.332.944.944 0 0 1-.323.256 1.054 1.054 0 0 1-.21.078.897.897 0 0 1-.226.028c-.137 0-.259-.017-.365-.051a1.006 1.006 0 0 1-.28-.14.88.88 0 0 1-.202-.202 1.207 1.207 0 0 1-.211-.483 1.308 1.308 0 0 1-.023-.231 1.067 1.067 0 0 1 .413-.891 1.29 1.29 0 0 1 .429-.214c.161-.047.328-.07.5-.07h2.419v.787h-2.338a.621.621 0 0 0-.252.043zm-1.834 7.036V3.028h1.162v.506c.092-.098.185-.185.279-.26a1.59 1.59 0 0 1 .3-.192c.107-.052.221-.091.344-.119.122-.028.258-.042.407-.042.353 0 .647.045.881.136.233.089.42.216.562.378a1.4 1.4 0 0 1 .298.58c.058.225.087.473.087.744v3.096h-1.2v-3.18a.717.717 0 0 0-.052-.28.61.61 0 0 0-.382-.352.93.93 0 0 0-.313-.049c-.195 0-.366.029-.512.087a.979.979 0 0 0-.581.617 1.483 1.483 0 0 0-.072.472v2.685h-1.208zm-13.81 30.359c-4.946 0-7.586-2.292-8.966-3.983h-.16v15.768h-6.603V11.372h6.274v3.927h.111c1.923-3.163 5.383-4.579 9.07-4.579 8.137 0 13.03 6.001 13.03 13.741 0 7.752-5.22 13.753-12.756 13.753zm-1.593-21.605c-4.841 0-7.751 3.764-7.751 7.852 0 4.096 2.91 7.859 7.751 7.859 4.837 0 7.757-3.763 7.757-7.859 0-4.088-2.92-7.852-7.757-7.852zM34.116 38.214c-7.977 0-14.356-5.51-14.356-13.753 0-8.232 6.379-13.741 14.356-13.741 7.974 0 14.351 5.509 14.351 13.741 0 8.243-6.377 13.753-14.351 13.753zm0-21.605c-4.839 0-7.749 3.764-7.749 7.852 0 4.096 2.91 7.859 7.749 7.859 4.84 0 7.752-3.763 7.752-7.859 0-4.088-2.912-7.852-7.752-7.852zM20.914 11.37v.002h-2.055v26.186h-6.924V11.372H.001V5.149h20.913v.01c10.738-.015 11.597-2.244 11.597-2.244 0 8.006-10.482 8.433-11.597 8.455z"/>
</svg>
