<svg height="36" viewBox="0 0 37 36" width="37" xmlns="http://www.w3.org/2000/svg" xmlns:xlink="http://www.w3.org/1999/xlink"><mask id="a" fill="#fff"><path d="m.729 18.0001c0 9.941 8.059 18 18 18s18-8.059 18-18-8.059-18-18-18-18 8.059-18 18z" fill="#fff" fill-rule="evenodd"/></mask><mask id="b" fill="#fff"><path d="m.729 18.0001c0 9.941 8.059 18 18 18s18-8.059 18-18-8.059-18-18-18-18 8.059-18 18z" fill="#fff" fill-rule="evenodd"/></mask><mask id="c" fill="#fff"><path d="m.729 18.0001c0 9.941 8.059 18 18 18s18-8.059 18-18-8.059-18-18-18-18 8.059-18 18z" fill="#fff" fill-rule="evenodd"/></mask><mask id="d" fill="#fff"><path d="m.729 18.0001c0 9.941 8.059 18 18 18s18-8.059 18-18-8.059-18-18-18-18 8.059-18 18z" fill="#fff" fill-rule="evenodd"/></mask><mask id="e" fill="#fff"><path d="m.729 18.0001c0 9.941 8.059 18 18 18s18-8.059 18-18-8.059-18-18-18-18 8.059-18 18z" fill="#fff" fill-rule="evenodd"/></mask><mask id="f" fill="#fff"><path d="m.729 18.0001c0 9.941 8.059 18 18 18s18-8.059 18-18-8.059-18-18-18-18 8.059-18 18" fill="#fff" fill-rule="evenodd"/></mask><mask id="g" fill="#fff"><path d="m.729 18.0001c0 9.941 8.059 18 18 18s18-8.059 18-18-8.059-18-18-18-18 8.059-18 18z" fill="#fff" fill-rule="evenodd"/></mask><mask id="h" fill="#fff"><path d="m.729 18.0001c0 9.941 8.059 18 18 18s18-8.059 18-18-8.059-18-18-18-18 8.059-18 18" fill="#fff" fill-rule="evenodd"/></mask><mask id="i" fill="#fff"><path d="m.729 18.0001c0 9.941 8.059 18 18 18s18-8.059 18-18-8.059-18-18-18-18 8.059-18 18z" fill="#fff" fill-rule="evenodd"/></mask><mask id="j" fill="#fff"><path d="m.729 18.0001c0 9.941 8.059 18 18 18s18-8.059 18-18-8.059-18-18-18-18 8.059-18 18" fill="#fff" fill-rule="evenodd"/></mask><mask id="k" fill="#fff"><path d="m.729 18.0001c0 9.941 8.059 18 18 18s18-8.059 18-18-8.059-18-18-18-18 8.059-18 18z" fill="#fff" fill-rule="evenodd"/></mask><mask id="l" fill="#fff"><path d="m.729 18.0001c0 9.941 8.059 18 18 18s18-8.059 18-18-8.059-18-18-18-18 8.059-18 18" fill="#fff" fill-rule="evenodd"/></mask><mask id="m" fill="#fff"><path d="m.729 18.0001c0 9.941 8.059 18 18 18s18-8.059 18-18-8.059-18-18-18-18 8.059-18 18z" fill="#fff" fill-rule="evenodd"/></mask><mask id="n" fill="#fff"><path d="m.729 18.0001c0 9.941 8.059 18 18 18s18-8.059 18-18-8.059-18-18-18-18 8.059-18 18z" fill="#fff" fill-rule="evenodd"/></mask><mask id="o" fill="#fff"><path d="m.729 18.0001c0 9.941 8.059 18 18 18s18-8.059 18-18-8.059-18-18-18-18 8.059-18 18z" fill="#fff" fill-rule="evenodd"/></mask><mask id="p" fill="#fff"><path d="m.729 18.0001c0 9.941 8.059 18 18 18s18-8.059 18-18-8.059-18-18-18-18 8.059-18 18z" fill="#fff" fill-rule="evenodd"/></mask><mask id="q" fill="#fff"><path d="m.729 18.0001c0 9.941 8.059 18 18 18s18-8.059 18-18-8.059-18-18-18-18 8.059-18 18z" fill="#fff" fill-rule="evenodd"/></mask><mask id="r" fill="#fff"><path d="m.729 18.0001c0 9.941 8.059 18 18 18s18-8.059 18-18-8.059-18-18-18-18 8.059-18 18z" fill="#fff" fill-rule="evenodd"/></mask><mask id="s" fill="#fff"><path d="m.729 18.0001c0 9.941 8.059 18 18 18s18-8.059 18-18-8.059-18-18-18-18 8.059-18 18z" fill="#fff" fill-rule="evenodd"/></mask><mask id="t" fill="#fff"><path d="m.729 18.0001c0 9.941 8.059 18 18 18s18-8.059 18-18-8.059-18-18-18-18 8.059-18 18z" fill="#fff" fill-rule="evenodd"/></mask><mask id="u" fill="#fff"><path d="m.729 18.0001c0 9.941 8.059 18 18 18s18-8.059 18-18-8.059-18-18-18-18 8.059-18 18z" fill="#fff" fill-rule="evenodd"/></mask><mask id="v" fill="#fff"><path d="m.729 18.0001c0 9.941 8.059 18 18 18s18-8.059 18-18-8.059-18-18-18-18 8.059-18 18z" fill="#fff" fill-rule="evenodd"/></mask><g fill="none" fill-rule="evenodd"><path d="m-2-2h40v40h-40z"/><g><path d="m.7292 17.9996c0-9.941 8.059-18 18-18 9.94 0 18 8.059 18 18s-8.06 18-18 18c-9.941 0-18-8.059-18-18" fill="#e4e4e4"/><path d="m29.7038 54.4786-21.927-.86 1.547-44.119 21.927.861z" fill="#999" mask="url(#a)"/><path d="m29.4596 53.2681-21.941-.132.201-44.149 21.941.133z" fill="#ccccce" mask="url(#b)"/><path d="m28.7057 54.5967-21.952.271-.547-44.159 21.953-.272z" fill="#fff" mask="url(#c)"/><path d="m27.2419 14.7183-19.886.246-.009-.741 19.886-.246z" fill="#78787a" mask="url(#d)"/><path d="m16.9391 19.4488-7.441.092-.01-.758 7.441-.092z" fill="#8d8d8e" mask="url(#e)"/><path d="m8.9157 19.1265c.004.265-.199.482-.454.485-.254.003-.462-.209-.466-.474-.003-.265.2-.482.454-.485.254-.004.463.209.466.474" fill="#f60403" mask="url(#f)"/><path d="m23.321 21.6758-13.805.17-.008-.757 13.804-.171z" fill="#8d8d8e" mask="url(#g)"/><path d="m8.9352 21.4976c.004.265-.199.482-.454.485-.254.004-.462-.209-.466-.474-.003-.264.2-.482.454-.485s.463.209.466.474" fill="#f60403" mask="url(#h)"/><path d="m27.1735 24.0181-17.639.218-.009-.783 17.638-.219z" fill="#8d8d8e" mask="url(#i)"/><path d="m8.9528 23.8184c.004.265-.199.482-.454.485-.254.003-.462-.209-.466-.474-.003-.265.2-.482.454-.485.254-.004.463.209.466.474" fill="#f60403" mask="url(#j)"/><path d="m23.4089 26.3531-13.854.171-.011-.809 13.855-.172z" fill="#8d8d8e" mask="url(#k)"/><path d="m8.9723 26.1461c.004.265-.199.482-.453.486-.255.003-.463-.21-.467-.474-.003-.265.2-.483.454-.486s.463.209.466.474" fill="#f60403" mask="url(#l)"/><g fill="#78787a"><path d="m8.0426 34.9966-.003-.252.752-.009.004.252z" mask="url(#m)"/><path d="m9.985 34.9727-.003-.252.752-.009.004.252z" mask="url(#n)"/><path d="m11.9264 34.9488-.003-.252.753-.009.003.251z" mask="url(#o)"/><path d="m13.8688 34.9244-.004-.251.753-.01.003.252z" mask="url(#p)"/><path d="m15.8102 34.9004-.003-.252.753-.009.003.252z" mask="url(#q)"/><path d="m17.7526 34.8765-.003-.252.753-.009.003.252z" mask="url(#r)"/><path d="m19.695 34.8526-.003-.252.752-.009.004.252z" mask="url(#s)"/><path d="m21.6374 34.8287-.004-.252.753-.009.003.251z" mask="url(#t)"/><path d="m23.5788 34.8043-.003-.251.753-.01.003.252z" mask="url(#u)"/><path d="m25.5212 34.7803-.003-.252.752-.009.003.252z" mask="url(#v)"/></g></g></g></svg>