<svg xmlns="http://www.w3.org/2000/svg" width="22" height="23" viewBox="0 0 22 23">
    <path fill="#404040" fill-rule="evenodd" d="M10.44 21.29L1.603 17.76V5.564l3.928 1.573v3.597a.49.49 0 0 0 .49.498h.007a.492.492 0 0 0 .485-.498V7.527L10.44 9.1v12.19zm.982 0V9.1l8.837-3.536v12.197l-8.837 3.528zm-.49-13.057L7.348 6.807l8.491-3.399 3.582 1.435-8.49 3.39zM6.021 6.27L2.44 4.843l8.492-3.399 3.582 1.435-8.49 3.39zM10.92.424a.464.464 0 0 0-.172.031L.928 4.383a.503.503 0 0 0-.307.46v13.255c.001.193.128.38.307.453l9.82 3.927a.483.483 0 0 0 .367 0l9.82-3.927a.505.505 0 0 0 .306-.453V4.843a.503.503 0 0 0-.307-.46L11.115.455a.738.738 0 0 0-.169-.03h-.027z"/>
</svg>
