<svg height="25" viewBox="0 0 26 25" width="26" xmlns="http://www.w3.org/2000/svg"><g fill="none"><path d="m0 6.3v16.667c0 1.121.911 2.033 2.031 2.033h21.939c1.12 0 2.031-.912 2.031-2.033v-16.666h-26.001z" fill="#ededed"/><path d="m23.969.61h-21.939c-1.119 0-2.03.912-2.03 2.032v3.659h26v-3.659c0-1.12-.911-2.032-2.031-2.032zm-20.719 4.065a1.22 1.22 0 1 1 0-2.438 1.22 1.22 0 0 1 0 2.438zm19.5 0a1.22 1.22 0 1 1 0-2.438 1.22 1.22 0 0 1 0 2.438z" fill="#ff4f19"/><path d="m13 9.96a1.627 1.627 0 0 0 0 3.251 1.627 1.627 0 0 0 0-3.252zm-4.062 0a1.627 1.627 0 0 0 0 3.251 1.627 1.627 0 0 0 0-3.252zm-4.063 0a1.627 1.627 0 0 0 0 3.251 1.627 1.627 0 0 0 0-3.252zm12.188 0a1.627 1.627 0 0 0 0 3.251 1.627 1.627 0 0 0 0-3.252zm4.062 3.251a1.627 1.627 0 0 0 0-3.252 1.627 1.627 0 0 0 0 3.252zm-8.125.813a1.627 1.627 0 0 0 0 3.252 1.627 1.627 0 0 0 0-3.252zm-4.062 0a1.627 1.627 0 0 0 0 3.252 1.627 1.627 0 0 0 0-3.252zm-4.063 0a1.627 1.627 0 0 0 0 3.252 1.627 1.627 0 0 0 0-3.252zm12.188 0a1.627 1.627 0 0 0 0 3.252 1.627 1.627 0 0 0 0-3.252zm4.062 0a1.627 1.627 0 0 0 0 3.252 1.627 1.627 0 0 0 0-3.252zm-8.125 4.066a1.627 1.627 0 0 0 0 3.251 1.627 1.627 0 0 0 0-3.252zm-4.062 0a1.627 1.627 0 0 0 0 3.251 1.627 1.627 0 0 0 0-3.252zm-4.063 0a1.627 1.627 0 0 0 0 3.251 1.627 1.627 0 0 0 0-3.252zm12.188 0a1.627 1.627 0 0 0 0 3.251 1.627 1.627 0 0 0 0-3.252zm4.062 0a1.627 1.627 0 0 0 0 3.251 1.627 1.627 0 0 0 0-3.252z" fill="#fff"/><path d="m3.25 4.065a.61.61 0 0 1 -.61-.61v-2.845a.61.61 0 1 1 1.22 0v2.845a.61.61 0 0 1 -.61.61zm19.5 0a.61.61 0 0 1 -.61-.61v-2.845a.61.61 0 1 1 1.22 0v2.845a.61.61 0 0 1 -.61.61z" fill="#5c546a"/><ellipse cx="4.875" cy="11.585" fill="#ffd200" rx="1.625" ry="1.626"/><ellipse cx="13" cy="19.715" fill="#ff9600" rx="1.625" ry="1.626"/><ellipse cx="17.063" cy="15.65" fill="#ff4f19" rx="1.625" ry="1.626"/></g></svg>