<svg height="15" viewBox="0 0 21 15" width="21" xmlns="http://www.w3.org/2000/svg"><path d="m18.718 3.764h-14.88l-.056-.055.056-.957 15.601.088zm-3.854 5.406-8.739.59-1.012-5h12.423zm-1.537 4.614a.507.507 0 1 1 .003-1.014.507.507 0 0 1 -.003 1.014zm-5.607 0a.507.507 0 1 1 .507-.507.508.508 0 0 1 -.507.507zm12.615-11.447a1.046 1.046 0 0 0 -.94-.581h-15.557c-.078 0-.147.028-.22.044l-.63-1.3c-.007-.011-.02-.02-.027-.032a.715.715 0 0 0 -.667-.468h-1.576a.72.72 0 0 0 -.718.719.72.72 0 0 0 .718.717h1.576c.013 0 .024-.006.036-.007l.507 1.042c.003.007.011.009.014.016a1.042 1.042 0 0 0 -.065.32v.902c0 .58.472 1.05 1.052 1.05h.259l1.138 5.626.001.002v.002l.331 1.557c.048.23.252.394.487.394h.502a1.485 1.485 0 0 0 -.338.937c0 .828.674 1.502 1.502 1.502.829 0 1.503-.674 1.503-1.502 0-.356-.13-.68-.338-.937h3.278a1.485 1.485 0 0 0 -.338.937c0 .828.674 1.502 1.502 1.502.829 0 1.503-.674 1.503-1.502 0-.356-.13-.68-.338-.937h1.059a.498.498 0 0 0 0-.996h-9.094l-.127-.6 8.859-.598a.498.498 0 0 0 .392-.238l3.12-5.148h.017c.329 0 .644-.157.841-.42l.677-.903c.24-.32.278-.742.099-1.1z" fill="#fff" fill-rule="evenodd"/></svg>