<svg height="27" width="33" xmlns="http://www.w3.org/2000/svg"><path d="m25.461 21.81v-2.232c.661-.533 1.25-1.237 1.735-2.08h-1.735v-1.068h2.261c.532-1.254.861-2.711.922-4.275h-3.316a3.217 3.217 0 0 0 -.554-1.068h3.87c-.061-1.564-.39-3.02-.922-4.274h-4.663v3.151a3.158 3.158 0 0 0 -.801-.106h-.267v-3.045h-4.663a11.736 11.736 0 0 0 -.808 3.045h-1.077c.131-1.084.379-2.11.737-3.045h-2.228a9.476 9.476 0 0 0 -1.122 3.045h-1.087c.84-5.061 5.222-8.922 10.515-8.922 5.895 0 10.674 4.784 10.674 10.685 0 4.784-3.142 8.827-7.471 10.189zm-10.789-16.066h1.986c.725-1.435 1.707-2.588 2.853-3.334a9.628 9.628 0 0 0 -4.839 3.334zm7.319-3.165c-1.653.212-3.119 1.396-4.137 3.165h4.137zm9.847 9.576h-2.127c-.057 1.54-.349 2.992-.84 4.275h1.694a9.553 9.553 0 0 0 1.273-4.275zm-3.445 5.343c-.606 1.199-1.39 2.203-2.301 2.936a9.642 9.642 0 0 0 3.753-2.936zm-5.334-14.919v3.165h4.137c-1.018-1.769-2.484-2.953-4.137-3.165zm3.033.229c.911.733 1.695 1.738 2.301 2.936h1.452a9.66 9.66 0 0 0 -3.753-2.936zm4.473 4.005h-1.694c.491 1.283.783 2.734.84 4.274h2.127a9.545 9.545 0 0 0 -1.273-4.274zm-7.506 4.254.049.02.005.003c.479.21.862.591 1.08 1.065l.001.001c.125.271.199.571.199.89v11.772c0 1.18-.955 2.137-2.135 2.137h-19.213a2.136 2.136 0 0 1 -2.134-2.137v-11.772c0-1.18.956-2.137 2.134-2.137h19.214c.283 0 .552.058.8.158zm-21.081 8.64v5.093c0 .589.479 1.068 1.067 1.068h19.214c.588 0 1.067-.479 1.067-1.068v-5.174l-21.331.161-.017-2.193zm0-6.661v2.431l21.331-.161.017 2.194v-4.464a1.07 1.07 0 0 0 -1.067-1.069h-19.214a1.07 1.07 0 0 0 -1.067 1.069zm1.423 10.57h4.697a.4.4 0 1 1 0 .801h-4.697a.4.4 0 0 1 0-.801zm6.654 0h1.565a.4.4 0 1 1 0 .801h-1.565a.4.4 0 0 1 0-.801z" fill="#515151" fill-rule="evenodd"/></svg>