<svg height="25" width="45" xmlns="http://www.w3.org/2000/svg"><path d="m42.799 20.473-3.902.042a2.107 2.107 0 0 1 -1.51-.612c-.23-.227-.4-.496-.508-.79l-.09.013a3.07 3.07 0 0 0 -1.733.879l-3.037 3.055a4.787 4.787 0 0 1 -2.887 1.389l-3.059.325a1.881 1.881 0 0 1 -.347.036l-.004.001h-.006c-.02 0-.041.003-.062.003l-4.933-.159a1.432 1.432 0 0 1 -.971-.424 1.485 1.485 0 0 1 -.422-1.063c.047-1.42 1.229-2.536 2.635-2.493l2.348.077 1.602-.398a1.87 1.87 0 0 1 .544-1.335l2.611-2.626.157-.91c.1-.595.378-1.137.804-1.566l1.798-1.809a2.875 2.875 0 0 1 1.981-.855l2.983-.067a2.134 2.134 0 0 1 1.992-1.468l3.901-.042a2.106 2.106 0 0 1 1.51.612c.408.401.635.937.641 1.507l.07 6.537a2.144 2.144 0 0 1 -2.106 2.141zm-6.117-8.198-2.848.064c-.468.011-.91.201-1.243.536l-1.798 1.809a1.837 1.837 0 0 0 -.504.982l-.186 1.082a.647.647 0 0 1 -.032.112l-.003.005a.542.542 0 0 1 -.113.171l-.003.004-2.732 2.747a.794.794 0 0 0 0 1.117.775.775 0 0 0 .555.229c.21 0 .407-.081.554-.229l3.138-3.157a.54.54 0 1 1 .92.384.54.54 0 0 1 -.158.384l-3.137 3.157a1.844 1.844 0 0 1 -1.317.548 1.846 1.846 0 0 1 -1.544-.827l-1.734.431-.018.003a.485.485 0 0 1 -.111.012l-.018.001-2.421-.079a1.484 1.484 0 0 0 -1.522 1.437.374.374 0 0 0 .106.265.353.353 0 0 0 .244.107l4.887.157.349-.037.034-.003 2.993-.318a3.716 3.716 0 0 0 2.237-1.076l3.036-3.056a4.14 4.14 0 0 1 2.341-1.185l.11-.016zm7.144 6.045-.07-6.513a1.054 1.054 0 0 0 -1.06-1.046l-3.902.042a1.057 1.057 0 0 0 -1.038 1.056l.069 6.525c.003.281.115.544.317.742.201.199.465.306.744.303l3.901-.042a1.057 1.057 0 0 0 1.039-1.056h.539zm-4.449.744a.921.921 0 0 1 -.918-.924c0-.51.411-.924.918-.924.508 0 .919.414.919.924s-.411.924-.919.924zm-16.653-1.747h-19.619a2.187 2.187 0 0 1 -2.18-2.193v-12.083c0-1.212.976-2.194 2.18-2.194h19.62c.289 0 .564.06.817.163v.02h.006a2.19 2.19 0 0 1 1.169 1.147c.029.064.047.133.069.2.024.073.051.144.068.22.021.099.028.203.034.307.004.052.016.102.016.155v12.065a2.187 2.187 0 0 1 -2.18 2.193zm1.09-14.276c0-.605-.489-1.097-1.089-1.097h-19.62c-.601 0-1.09.492-1.09 1.097v2.495l21.782-.165.017 2.251zm0 6.753-21.782.166-.017-2.27v7.415c0 .605.489 1.097 1.09 1.097h19.62c.6 0 1.089-.492 1.089-1.097zm-11.953 4.918h-1.599a.41.41 0 0 1 -.408-.411.41.41 0 0 1 .408-.411h1.599a.41.41 0 0 1 0 .822zm-3.597 0h-4.796a.41.41 0 0 1 0-.822h4.796a.41.41 0 0 1 .409.411.41.41 0 0 1 -.409.411z" fill="#515151" fill-rule="evenodd"/></svg>