<svg height="50" viewBox="0 0 50 50" width="50" xmlns="http://www.w3.org/2000/svg"><g fill="none"><path d="m50 25c0 8.64-4.384 16.258-11.049 20.749a25.008 25.008 0 0 1 -5.02 2.61 24.958 24.958 0 0 1 -8.931 1.641c-3.657 0-7.132-.786-10.262-2.196a25.036 25.036 0 0 1 -4.757-2.816c-6.062-4.562-9.981-11.818-9.981-19.988 0-2.568.387-5.046 1.106-7.378 3.148-10.206 12.655-17.622 23.894-17.622s20.746 7.416 23.894 17.622a24.985 24.985 0 0 1 1.106 7.378z" fill="#55d485"/><ellipse cx="37.5" cy="27.5" fill="#10995b" rx="6.5" ry="2.5"/><path d="m46.95 30.931c-.096.498-.322.96-.682 1.325-.35.355-.788.616-1.243.821-1.023.46-2.145.691-3.25.869a42.02 42.02 0 0 1 -3.48.386c-1.171.09-2.344.162-3.518.22-2.342.116-4.686.196-7.029.325-2.314.127-4.633.284-6.923.647-1.1.173-2.206.388-3.25.778-.47.175-1 .387-1.352.753-.129.134-.171.238-.125.418.055.217.172.42.293.608.295.454.672.856 1.062 1.233.11.107.223.212.337.315a.496.496 0 0 0 .178.106c.473.199 1.002.274 1.51.338a24.3 24.3 0 0 0 1.683.143c.996.055 1.993.073 2.99.101 2.24.064 4.487.143 6.704.49 2.129.334 4.289.95 6.05 2.212a8.3 8.3 0 0 1 2.24 2.366c.029.047.028.027-.003.066-.033.04-.11.073-.155.102a25.671 25.671 0 0 1 -2.453 1.405 25.324 25.324 0 0 1 -2.229.985c-.047.018-.152.076-.183.05-.036-.03-.062-.133-.085-.177-.06-.112-.13-.22-.206-.322-.61-.808-1.623-1.294-2.553-1.649-1.046-.4-2.138-.666-3.237-.88a51.594 51.594 0 0 0 -3.43-.528c-1.129-.141-2.26-.27-3.388-.419-1.105-.145-2.217-.307-3.291-.61-.893-.25-1.779-.617-2.45-1.264-.166-.16-.318-.337-.47-.51-.359-.41-.7-.84-1-1.294-.55-.828-.992-1.776-1.011-2.782-.022-1.085.5-2.073 1.35-2.748.847-.67 1.916-1.033 2.96-1.28 1.094-.26 2.217-.407 3.336-.512 2.305-.215 4.629-.25 6.942-.272 2.346-.022 4.692-.011 7.037-.049 2.317-.037 4.65-.095 6.946-.42.564-.08 1.125-.18 1.677-.318.514-.13 1.039-.286 1.495-.56.196-.117.395-.26.506-.463.103-.19.153-.44.123-.653-.068-.473-.536-.796-.927-1.013-.462-.257-.97-.432-1.48-.573-.043-.012-.604-.181-.623-.14 0-.08.035-.172.052-.25a156.759 156.759 0 0 1 .234-1.063c.003-.013.046-.244.057-.244.002.033.453.115.495.126.486.12.967.273 1.428.468.846.357 1.685.885 2.118 1.713.262.499.334 1.075.222 1.624z" fill="#10995b"/><path d="m49 18h-48c3.162-10.425 12.711-18 24-18s20.838 7.575 24 18z" fill="#bce6f5"/><path d="m24.304 31.838-9.236 16.109a24.897 24.897 0 0 1 -4.738-2.825l-7.616-13.284c-2.978-5.196-1.796-11.198 1.826-15.002 2.211-2.323 5.332-3.827 8.97-3.827 9.596 0 15.593 10.46 10.795 18.829z" fill="#f75454"/><path d="m20.003 25.561a6.533 6.533 0 0 1 -4.96 6.355 6.402 6.402 0 0 1 -1.535.185c-3.585 0-6.493-2.928-6.493-6.54 0-3.61 2.908-6.539 6.493-6.539.529 0 1.043.064 1.534.185a6.532 6.532 0 0 1 4.96 6.354z" fill="#bce6f5"/><path d="m20.003 25.561a6.533 6.533 0 0 1 -4.96 6.355 6.531 6.531 0 0 1 -4.96-6.355 6.531 6.531 0 0 1 4.96-6.354 6.532 6.532 0 0 1 4.96 6.354z" fill="#fff"/><path d="m37.966 27.91 7.727-13.955c3.434-6.202-.859-13.955-7.727-13.955s-11.16 7.753-7.726 13.955z" fill="#f75454"/><path d="m42.614 9.303c0 2.283-1.513 4.196-3.55 4.71-.352.09-.72.137-1.098.137-2.566 0-4.647-2.17-4.647-4.847 0-2.676 2.08-4.846 4.647-4.846.378 0 .746.047 1.098.136 2.037.515 3.55 2.429 3.55 4.71z" fill="#bce6f5"/><path d="m42.614 9.303c0 2.283-1.513 4.196-3.55 4.71-2.038-.514-3.55-2.427-3.55-4.71 0-2.281 1.512-4.195 3.55-4.71 2.037.515 3.55 2.429 3.55 4.71z" fill="#fff"/></g></svg>