<svg height="27" width="45" xmlns="http://www.w3.org/2000/svg"><path d="m42.791 22.743-3.901.041a2.133 2.133 0 0 1 -1.511-.599 2.107 2.107 0 0 1 -.507-.773l-.091.013c-.66.097-1.26.394-1.733.859l-3.036 2.99a4.837 4.837 0 0 1 -2.888 1.36l-3.058.317a1.993 1.993 0 0 1 -.348.036h-.009c-.021.001-.041.004-.062.003l-4.933-.155a1.446 1.446 0 0 1 -.971-.415 1.438 1.438 0 0 1 -.422-1.04c.046-1.39 1.228-2.481 2.634-2.439l2.348.075 1.602-.39a1.817 1.817 0 0 1 .544-1.306l2.612-2.57.156-.891a2.81 2.81 0 0 1 .804-1.532l1.798-1.77a2.907 2.907 0 0 1 1.982-.836l2.983-.066a2.128 2.128 0 0 1 1.991-1.437l3.901-.041a2.13 2.13 0 0 1 1.511.6c.407.392.634.916.641 1.474l.069 6.396c0 1.143-.944 2.083-2.106 2.096zm-6.116-8.023-2.848.063a1.827 1.827 0 0 0 -1.244.525l-1.798 1.77c-.263.259-.442.6-.504.961l-.185 1.058a.554.554 0 0 1 -.033.11l-.003.005a.523.523 0 0 1 -.113.168l-.002.003-2.733 2.689a.764.764 0 0 0 0 1.092.784.784 0 0 0 .555.225c.21 0 .408-.08.555-.225l3.137-3.089a.546.546 0 0 1 .763 0 .528.528 0 0 1 0 .752l-3.137 3.089a1.864 1.864 0 0 1 -1.318.536 1.864 1.864 0 0 1 -1.544-.809l-1.733.422-.018.003a.517.517 0 0 1 -.055.007.546.546 0 0 1 -.057.004l-.018.001-2.421-.077c-.812-.024-1.495.606-1.522 1.406.003.102.036.19.106.26.046.045.126.1.245.104l4.886.154.35-.036.034-.004 2.992-.31a3.747 3.747 0 0 0 2.237-1.054l3.037-2.99a4.168 4.168 0 0 1 2.34-1.159l.11-.016zm7.143 5.916-.069-6.374a1.016 1.016 0 0 0 -.317-.726 1.055 1.055 0 0 0 -.744-.297l-3.901.041a1.046 1.046 0 0 0 -1.039 1.034l.07 6.385c.003.274.115.532.316.726.202.194.466.299.744.296l3.902-.041a1.045 1.045 0 0 0 1.038-1.033h.54zm-4.448.728a.911.911 0 0 1 -.918-.904c0-.499.411-.904.918-.904s.918.405.918.904a.911.911 0 0 1 -.918.904zm-13.985-3.921v-1.446c.136-.01.265-.042.383-.096.104-.164.179-.347.179-.554v-11.805c0-.592-.488-1.074-1.089-1.074h-19.62c-.163 0-.314.041-.454.105a1.1 1.1 0 0 0 -.161.45h-1.498a2.15 2.15 0 0 1 .905-1.267c.4-.47.993-.776 1.665-.776h19.619c.29 0 .565.059.818.16v.019h.005c.523.21.943.614 1.17 1.122.028.063.047.131.069.197.024.071.051.141.068.215.021.097.028.198.035.3.003.051.015.1.015.151v11.806c0 .746-.386 1.401-.972 1.786a2.2 2.2 0 0 1 -1.137.707zm-1.851-13.746v.02h.006c.523.21.943.614 1.17 1.122.028.063.047.13.068.196.024.071.052.141.068.215.022.097.028.199.035.301.004.05.016.099.016.151v11.806c0 1.186-.976 2.147-2.18 2.147h-19.62c-1.203 0-2.18-.961-2.18-2.147v-11.824c0-1.185.977-2.146 2.18-2.146h19.62c.289 0 .564.058.817.159zm-21.527 1.987v11.806c0 .592.489 1.073 1.09 1.073h19.62c.601 0 1.09-.481 1.09-1.073v-11.806c0-.592-.489-1.073-1.09-1.073h-19.62c-.601 0-1.09.481-1.09 1.073zm10.121 4.466c.847.211 1.732.272 2.584.468 1.415.325 2.158 1.182 2.207 2.436.048 1.236-.724 2.326-2.025 2.676-.622.167-.94.396-.802 1.055.02.093-.026.2-.048.349h-1.847c-.042-.058-.089-.094-.084-.122.109-.741-.189-1.082-.962-1.261-1.076-.248-1.829-.972-2.258-2.08l1.775-.765c.679 1.233 1.8 1.401 3.035 1.228.528-.075 1.043-.299 1.079-.91.037-.635-.532-.776-1.001-.881-.688-.154-1.398-.204-2.091-.336-1.783-.34-2.651-1.477-2.306-3.026.233-1.044 1.014-1.57 1.966-1.905.22-.078.454-.118.709-.182l.062-1.015h1.976c-.293.958.394 1.146 1.063 1.401.691.264 1.14.802 1.457 1.536l-1.621.776c-.764-.943-1.779-1.091-2.893-.836-.382.087-.827.279-.689.746.078.268.429.577.714.648z" fill="#515151" fill-rule="evenodd"/></svg>