<svg xmlns="http://www.w3.org/2000/svg" width="106" height="57" viewBox="0 0 106 57">
    <g fill="none" fill-rule="evenodd">
        <rect width="95" height="57" fill="#D0DCE6" rx="11"/>
        <path fill="#5C5C5C" d="M0 12H95V24H0z"/>
        <path fill="#FFF" d="M4 28H90V46H4z"/>
        <path fill="#8D8D8D" d="M9 33H45V35H9zM58 33H71V35H58zM9 38H28V40H9z"/>
        <path fill="#F95047" d="M76.613 26L105.637 26 105.637 43 76.613 43 76.613 36.104 73 34 76.613 31.993z"/>
        <path fill="#FFF" d="M78.609 28H103.609V41H78.609z"/>
        <path fill="#000" d="M82.94 30L84.604 30 84.604 38.677 82.94 38.677 82.94 32.052 81.609 32.052 81.609 30.893zM99.935 30L99.935 38.677 95.394 38.677 95.394 37.006 98.272 37.006 98.272 35.38 97.012 35.38 97.012 33.728 98.272 33.728 98.272 31.664 95.394 31.664 95.394 30zM88.272 30L92.785 30 92.785 34.989 89.465 34.989 89.465 37.045 92.785 37.045 92.785 38.677 87.992 38.677 87.992 33.511 91.404 33.511 91.404 31.619 87.569 31.619 87.569 31.073z"/>
    </g>
</svg>
