<svg xmlns="http://www.w3.org/2000/svg" width="12" height="16" viewBox="0 0 12 16">
    <path fill="#333" fill-rule="evenodd" d="M4.154 3.163a.947.947 0 0 0-.852.543.932.932 0 0 0-.031.718.935.935 0 0 0 1.204.561.931.931 0 0 0 .53-.486.932.932 0 0 0 .03-.717.936.936 0 0 0-.881-.62zM4.152 6.04a1.92 1.92 0 0 1-.817-.183 1.918 1.918 0 0 1-1-1.093 1.92 1.92 0 0 1 .065-1.48 1.92 1.92 0 0 1 1.092-1 1.92 1.92 0 0 1 1.48.066c.469.217.824.605 1 1.091a1.92 1.92 0 0 1-.065 1.48 1.918 1.918 0 0 1-1.092 1c-.216.08-.44.119-.663.119zm-.967-4.647C2.81 1.8 1.684 3.83 1.313 5.284c-.167.618-.105.8-.102.808l2.77 7.619c.04.11.085.208.134.298.214.469.567.923 1.55.567l4.142-1.508c.8-.29 1.007-.736.717-1.535l-2.84-7.806c-.253-.694-3.641-2.253-4.5-2.335zm1.844 14.306c-.8 0-1.434-.428-1.805-1.245a3.004 3.004 0 0 1-.178-.402L.275 6.433c-.12-.327-.096-.771.075-1.4C.682 3.73 2.073.714 2.836.437c.584-.212 2.296.544 3.004.879 1.116.527 2.504 1.314 2.78 2.073l2.84 7.806c.476 1.309-.002 2.334-1.312 2.81l-4.142 1.508a2.862 2.862 0 0 1-.977.187z"/>
</svg>
