<svg height="22" viewBox="0 0 37 22" width="37" xmlns="http://www.w3.org/2000/svg"><g fill="#404040" fill-rule="evenodd"><path d="m26.321 4.429h-.007v9.745a.012.012 0 0 0 .005-.001z"/><path d="m26.881 14.125c.191 0 .377.02.56.048v-9.744h-1.12v9.744a3.69 3.69 0 0 1 .56-.048m-.566.674a1.863 1.863 0 0 1 -.14.66c.047-.014.092-.031.14-.043z"/><path d="m26.321 14.734v-.562l-.007.001v.625c.001-.022.007-.043.007-.064m1.042.658c.029.006.056.018.084.024v-1.242l-.006-.001v.562c0 .225-.03.444-.078.657"/><path d="m12.274 20.212a2.437 2.437 0 0 1 -2.435-2.435c0-.016.005-.032.005-.048.01-.408.122-.786.307-1.121a2.427 2.427 0 0 1 2.123-1.265c.917 0 1.707.515 2.122 1.265.186.335.3.713.307 1.12.001.017.005.033.005.049a2.436 2.436 0 0 1 -2.434 2.435zm24.303-9.922-4.233-5.861h-4.903v9.744h.006v-8.61h4.318l3.68 5.093v5.946h-5.11a3.658 3.658 0 0 0 -2.888-2.428v1.242a2.43 2.43 0 0 1 1.553 1.186c.188.339.304.72.311 1.133 0 .014.005.028.005.042a2.437 2.437 0 0 1 -2.435 2.435 2.437 2.437 0 0 1 -2.435-2.435c0-.017.005-.033.005-.05.01-.42.13-.81.326-1.152.305-.532.8-.933 1.397-1.116.087-.204.132-.428.141-.66v-.625a3.66 3.66 0 0 0 -2.89 2.434h-7.695a3.657 3.657 0 0 0 -3.457-2.483 3.654 3.654 0 0 0 -3.44 2.44 1.878 1.878 0 0 1 -1.478-1.831v-10.956c0-1.033.841-1.874 1.875-1.874h15.215c1.034 0 1.875.84 1.875 1.874v.65h1.12v-.65a2.999 2.999 0 0 0 -2.994-2.994h-15.215a2.999 2.999 0 0 0 -2.995 2.994v10.956a2.999 2.999 0 0 0 2.392 2.933c0 .037-.006.073-.006.11a3.656 3.656 0 0 0 3.652 3.652 3.656 3.656 0 0 0 3.652-3.652l-.003-.048h7.31c-.002.016-.004.032-.004.048a3.656 3.656 0 0 0 3.652 3.652 3.656 3.656 0 0 0 3.652-3.652l-.002-.042h6.046z"/><path d="m26.321 14.173v.562c0 .02-.006.042-.007.064v.617c.183-.044.371-.073.567-.073.165 0 .326.017.482.049.048-.213.078-.432.078-.657v-.562a3.69 3.69 0 0 0 -.56-.048c-.19 0-.377.02-.56.048m7.219-3.699h-4.224v-3.652h1.826zm-26.743 10.362h-2.435a.624.624 0 0 1 0-1.25h2.435a.625.625 0 0 1 0 1.25m-2.435-2.435h-3.652a.624.624 0 1 1 0-1.249h3.652a.624.624 0 0 1 0 1.25m21.911-6.392h-19.173a.624.624 0 0 1 0-1.248h19.172a.625.625 0 0 1 0 1.249"/></g></svg>