<svg height="50" viewBox="0 0 50 50" width="50" xmlns="http://www.w3.org/2000/svg"><g fill="none"><path d="m50 25c0 2.851-.478 5.592-1.357 8.144a24.936 24.936 0 0 1 -5.185 8.716 25.09 25.09 0 0 1 -6.3 4.989 24.882 24.882 0 0 1 -12.158 3.151 24.88 24.88 0 0 1 -12.16-3.152 25.075 25.075 0 0 1 -7.906-6.934 24.868 24.868 0 0 1 -1.656-2.531 24.78 24.78 0 0 1 -1.92-4.238v-.001a24.956 24.956 0 0 1 -1.358-8.144c0-1.708.171-3.376.498-4.987 2.311-11.418 12.403-20.013 24.502-20.013s22.19 8.595 24.502 20.013c.327 1.611.498 3.279.498 4.987z" fill="#3b9cb7"/><path d="m50 24.989c0 2.852-.478 5.594-1.357 8.147a24.948 24.948 0 0 1 -5.185 8.72 25.093 25.093 0 0 1 -6.3 4.992 24.873 24.873 0 0 1 -12.158 3.152 24.87 24.87 0 0 1 -12.16-3.153 25.077 25.077 0 0 1 -7.906-6.937 24.88 24.88 0 0 1 -1.656-2.533 24.796 24.796 0 0 1 -1.92-4.24 24.977 24.977 0 0 1 -1.358-8.149c0-1.708.171-3.376.498-4.988h49.004c.327 1.612.498 3.28.498 4.989z" fill="#304f75"/><path d="m30.996 36.109c-4.33-.145-8.661-.145-12.992 0-1.483.05-2.697.767-2.838 1.695a14.594 14.594 0 0 0 0 4.392c.14.928 1.355 1.646 2.838 1.695 4.33.145 8.661.145 12.992 0 1.483-.05 2.697-.767 2.838-1.695a14.594 14.594 0 0 0 0-4.392c-.14-.928-1.355-1.646-2.838-1.695z" fill="#151a1c"/><path d="m12.973 44.315a54.122 54.122 0 0 1 -.071 2.598 24.714 24.714 0 0 1 -7.866-6.63 2.098 2.098 0 0 1 1.726-1.116 28.818 28.818 0 0 1 4.186 0c1.044.075 1.877.875 1.934 1.88.064 1.09.095 2.178.09 3.268zm31.99-4.03a24.718 24.718 0 0 1 -7.867 6.63c-.1-1.956-.093-3.912.02-5.868.058-1.005.89-1.805 1.935-1.88a28.804 28.804 0 0 1 4.185 0c.761.054 1.41.494 1.727 1.118z" fill="#151a1c"/><path d="m47.676 17h-4.676v5h4.676c1.284 0 2.324-1.12 2.324-2.5s-1.04-2.5-2.324-2.5zm-14.039-11h-15.274a2.36 2.36 0 0 0 -2.363 2.358v.642h20v-.642a2.36 2.36 0 0 0 -2.363-2.358zm-31.313 11h4.676v5h-4.676c-1.284 0-2.324-1.12-2.324-2.5s1.04-2.5 2.324-2.5z" fill="#d12c50"/><path d="m42.887 24.441a270.714 270.714 0 0 1 -34.774 0c-.412-3.625.33-7.338 1.789-11.12.93-2.414 3.177-4.05 5.73-4.142a270.443 270.443 0 0 1 19.736 0c2.554.093 4.8 1.728 5.731 4.142 1.458 3.782 2.2 7.495 1.788 11.12z" fill="#fff"/><path d="m36.984 24.745a266.03 266.03 0 0 1 -28.872-.304c-.408-3.625.326-7.338 1.773-11.12.922-2.414 3.15-4.05 5.68-4.142a265.76 265.76 0 0 1 16.822-.085 8.313 8.313 0 0 1 2.218 3.23c1.61 4.215 2.528 8.36 2.38 12.421z" fill="#bce6f5"/><path d="m44.877 25-3.02-.35c.353-3.085-.2-6.449-1.692-10.284-.713-1.833-2.426-3.062-4.363-3.132-6.505-.235-13.1-.235-19.604 0-1.937.07-3.65 1.3-4.363 3.132-1.491 3.835-2.045 7.2-1.691 10.284l-3.02.35c-.412-3.593.203-7.436 1.88-11.748 1.155-2.968 3.936-4.96 7.085-5.074a275.585 275.585 0 0 1 19.822 0c3.15.114 5.93 2.106 7.085 5.074 1.677 4.312 2.292 8.155 1.88 11.748z" fill="#f75454"/><path d="m41.893 24-1.202-.138c.34-2.925-.198-6.13-1.647-9.799a4.254 4.254 0 0 0 -3.804-2.69c-6.463-.23-13.017-.23-19.48 0a4.254 4.254 0 0 0 -3.804 2.69c-1.449 3.668-1.988 6.874-1.647 9.8l-1.202.137c-.364-3.125.2-6.519 1.722-10.374a5.462 5.462 0 0 1 4.887-3.453 276.297 276.297 0 0 1 19.568 0 5.463 5.463 0 0 1 4.887 3.453c1.522 3.855 2.086 7.248 1.722 10.374z" fill="#d12c50"/><path d="m48.985 33.343a25.423 25.423 0 0 1 -3.554 6.883c-.317.437-.648.862-.992 1.276a360.448 360.448 0 0 1 -37.878 0 25.347 25.347 0 0 1 -2.638-3.85 25.48 25.48 0 0 1 -1.908-4.308v-.001a24.358 24.358 0 0 1 .72-6.762 4.074 4.074 0 0 1 .71-1.487 4.001 4.001 0 0 1 2.974-1.59 360.78 360.78 0 0 1 38.16 0 4.002 4.002 0 0 1 2.976 1.59c.327.432.572.934.71 1.487.56 2.254.8 4.508.72 6.762z" fill="#f75454"/><path d="m31.354 30.312a86.8 86.8 0 0 0 -14.708 0c-1.074.091-1.987.808-2.289 1.813-.643 2.137-.418 4.274.674 6.41 5.98.62 11.959.62 17.938 0 1.092-2.136 1.317-4.273.674-6.41-.303-1.005-1.215-1.722-2.29-1.813zm-24.614.363c-.193 3.441.339 6.883 1.594 10.325-.609-.029-1.217-.058-1.825-.091a24.97 24.97 0 0 1 -2.609-3.795 25.08 25.08 0 0 1 -1.886-4.246 23.934 23.934 0 0 1 .712-6.664 3.986 3.986 0 0 1 3.642-3.031c1.21-.064 2.42-.122 3.631-.173a4.212 4.212 0 0 0 -2.535 2.905 25.065 25.065 0 0 0 -.725 4.77z" fill="#d12c50"/><path d="m47 37.142a26.59 26.59 0 0 1 -3.31 4.755 1640.66 1640.66 0 0 1 -37.392-.007 26.518 26.518 0 0 1 -3.298-4.74 1650.822 1650.822 0 0 1 44-.009z" fill="#83bdd6"/><path d="m47 37.142a26.61 26.61 0 0 1 -3.296 4.755c-10.8.122-21.6.136-32.4.042a3.268 3.268 0 0 1 -1.818-1.18c-.648-.839-.648-1.678 0-2.518a3.263 3.263 0 0 1 1.822-1.18c11.897-.103 23.794-.076 35.692.081z" fill="#bce6f5"/><path d="m47 25a4.044 4.044 0 0 1 -2.966 1.518 375.753 375.753 0 0 1 -38.066 0 4.045 4.045 0 0 1 -2.968-1.518 4.044 4.044 0 0 1 2.966-1.518 375.753 375.753 0 0 1 38.066 0 4.044 4.044 0 0 1 2.968 1.518z" fill="#ff8d8d"/><path d="m12.16 32.335c0-1.794-1.586-3.248-3.542-3.248-1.957 0-3.543 1.454-3.543 3.248 0 1.793 1.586 1.57 3.543 1.57 1.956 0 3.542.223 3.542-1.57zm32.765 0c0-1.794-1.586-3.248-3.542-3.248-1.957 0-3.543 1.454-3.543 3.248 0 1.793 1.586 1.57 3.543 1.57 1.956 0 3.542.223 3.542-1.57z" fill="#ffe05c"/></g></svg>