<svg height="25" viewBox="0 0 23 25" width="23" xmlns="http://www.w3.org/2000/svg"><g fill="none"><path d="m20.08.862a.87.87 0 0 0 -.875-.862h-13.53v4.31c0 .476-.391.862-.873.862h-4.802v18.966a.87.87 0 0 0 .873.862h18.333a.87.87 0 0 0 .873-.862v-23.276z" fill="#fee191"/><path d="m6.571 22.857.626-4.286 2.816.919.94 2.755z" fill="#fff"/><path d="m20.224 13.177-.063.062-9.1 8.904-.688-1.342-.565-1.105 5.63-5.51-5.63 5.51-2.506-1.224 9.166-8.969-.04-.039 1.278-1.25 3.834 3.75-1.278 1.25zm-3.493-.257.626-.613zm3.356-6.12a2.641 2.641 0 0 0 -1.58.738l-.618.61 3.72 3.638.62-.605c.789-.772.995-1.946.514-2.931a2.644 2.644 0 0 0 -2.656-1.45z" fill="#f14742"/><path d="m5.841 4.167v-4.167l-5.841 5h4.943c.496 0 .898-.373.898-.833z" fill="#ffd24d"/><path d="m11.016 18.929a.429.429 0 0 1 -.396-.26.413.413 0 0 1 .093-.456l4.6-4.498a.434.434 0 0 1 .738.176.414.414 0 0 1 -.134.415l-4.598 4.5a.433.433 0 0 1 -.303.123zm5.842-5.715a.43.43 0 0 1 -.397-.26.413.413 0 0 1 .093-.457l.607-.593a.436.436 0 0 1 .602.005.413.413 0 0 1 .005.588l-.607.594a.432.432 0 0 1 -.303.123z" fill="#f1f2f2"/><path d="m12.333 11.429h-9.333c-.245 0-.444-.16-.444-.358 0-.197.199-.357.444-.357h9.333c.246 0 .445.16.445.357 0 .198-.2.358-.445.358zm-2.905 2.857h-6.443c-.237 0-.43-.16-.43-.357 0-.198.193-.358.43-.358h6.443c.237 0 .43.16.43.358 0 .197-.193.357-.43.357zm-2.558 2.5h-3.883c-.238 0-.431-.16-.431-.357 0-.198.193-.358.431-.358h3.883c.238 0 .432.16.432.358 0 .197-.194.357-.432.357zm8.029-7.857h-8.259c-.24 0-.435-.16-.435-.358 0-.197.195-.357.435-.357h8.258c.24 0 .434.16.434.357 0 .198-.194.358-.434.358zm-10.214 0h-1.704c-.235 0-.425-.16-.425-.358 0-.197.19-.357.425-.357h1.704c.235 0 .426.16.426.357 0 .198-.19.358-.426.358z" fill="#fff"/></g></svg>