<svg enable-background="new 0 0 26 26" viewBox="0 0 26 26" xmlns="http://www.w3.org/2000/svg"><g fill="#1d1d1b"><path d="m1.75 7.75h6.6803589c.3355713 1.2952271 1.5039063 2.2587891 2.9026489 2.2587891s2.5670776-.963562 2.9026489-2.2587891h10.0143433c.4140625 0 .75-.3359375.75-.75s-.3359375-.75-.75-.75h-10.0143433c-.3355713-1.2952271-1.5039063-2.2587891-2.9026489-2.2587891s-2.5670776.963562-2.9026489 2.2587891h-6.6803589c-.4140625 0-.75.3359375-.75.75s.3359375.75.75.75zm9.5830078-2.2587891c.8320313 0 1.5087891.6767578 1.5087891 1.5087891s-.6767578 1.5087891-1.5087891 1.5087891-1.508789-.6767578-1.508789-1.5087891.6767578-1.5087891 1.508789-1.5087891z"/><path d="m24.25 12.25h-1.6061401c-.3355713-1.2952271-1.5039063-2.2587891-2.9026489-2.2587891s-2.5670777.963562-2.902649 2.2587891h-15.088562c-.4140625 0-.75.3359375-.75.75s.3359375.75.75.75h15.088562c.3355713 1.2952271 1.5039063 2.2587891 2.9026489 2.2587891s2.5670776-.963562 2.9026489-2.2587891h1.6061402c.4140625 0 .75-.3359375.75-.75s-.3359375-.75-.75-.75zm-4.5087891 2.2587891c-.8320313 0-1.5087891-.6767578-1.5087891-1.5087891s.6767578-1.5087891 1.5087891-1.5087891 1.5087891.6767579 1.5087891 1.5087891-.6767578 1.5087891-1.5087891 1.5087891z"/><path d="m24.25 18.25h-14.5318604c-.3355103-1.2952271-1.5037842-2.2587891-2.9017334-2.2587891-1.3987427 0-2.5670776.963562-2.9026489 2.2587891h-2.1637573c-.4140625 0-.75.3359375-.75.75s.3359375.75.75.75h2.1637573c.3355713 1.2952271 1.5039063 2.2587891 2.9026489 2.2587891 1.3979492 0 2.5662231-.963562 2.9017334-2.2587891h14.5318604c.4140625 0 .75-.3359375.75-.75s-.3359375-.75-.75-.75zm-17.4335937 2.2587891c-.8320313 0-1.5087891-.6767578-1.5087891-1.5087891s.6767578-1.5087891 1.5087891-1.5087891c.8310547 0 1.5078125.6767578 1.5078125 1.5087891s-.6767579 1.5087891-1.5078125 1.5087891z"/></g></svg>