<svg height="24" viewBox="0 0 24 24" width="24" xmlns="http://www.w3.org/2000/svg"><g fill="none" fill-rule="evenodd"><path d="m23 12c0 6.075-4.925 11-11 11s-11-4.925-11-11 4.925-11 11-11 11 4.925 11 11z" stroke="#404040"/><path d="m13.19 16.721a1.326 1.326 0 0 1 -.396.941 1.298 1.298 0 0 1 -.903.338c-.328 0-.64-.113-.936-.338a1.278 1.278 0 0 1 -.372-.94 1.316 1.316 0 0 1 .365-.918 1.35 1.35 0 0 1 .416-.288c.16-.073.335-.11.527-.11.345 0 .645.134.902.398.264.234.396.54.396.917m2.811-7.585c0 .362-.036.679-.103.952a3.263 3.263 0 0 1 -.317.797 3.994 3.994 0 0 1 -.961.988l-.986.796c-.32.314-.516.692-.588 1.133v.616h-2.186v-.735c0-.596.144-1.13.433-1.604.04-.057.084-.116.136-.176.053-.06.124-.135.211-.223l.589-.518c.465-.345.697-.535.697-.567.345-.33.516-.744.516-1.242 0-.965-.46-1.448-1.381-1.448-.272 0-.512.057-.72.17a1.538 1.538 0 0 0 -.523.458 2.08 2.08 0 0 0 -.319.675c-.072.257-.107.531-.107.82h-2.391c0-.587.09-1.12.27-1.598.18-.479.451-.91.812-1.297a3.86 3.86 0 0 1 1.242-.838c.47-.196 1.006-.295 1.615-.295 1.355 0 2.411.362 3.172 1.085.592.596.889 1.279.889 2.05" fill="#404040"/></g></svg>