<svg height="24" viewBox="0 0 31 24" width="31" xmlns="http://www.w3.org/2000/svg"><g fill="none" fill-rule="evenodd"><path d="m1.393 10.36c2.653-2.296 8.136-3.871 14.472-3.871 6.038 0 11.3 1.43 14.08 3.55" stroke="#b8b8b7" stroke-width="2.23"/><path d="m20.617 11.74a4.949 4.949 0 1 1 -9.898 0 4.949 4.949 0 0 1 9.898 0z" stroke="#b8b8b7" stroke-width="1.725"/><path d="m17.363 11.74c0 2.732-1.107 4.95-2.475 4.95-1.366 0-2.474-2.218-2.474-4.95s1.108-4.949 2.474-4.949c1.368 0 2.475 2.217 2.475 4.95" fill="#b8b8b7"/><path d="m1.393 22.283 28.552-20.667" stroke="#b8b8b7" stroke-width="2.23"/></g></svg>