<svg xmlns="http://www.w3.org/2000/svg" width="14" height="14" viewBox="0 0 14 14">
    <g fill="none" fill-rule="evenodd">
        <path d="M-1-1h16v16H-1z"/>
        <path fill="#FFFFFF" fill-rule="nonzero" d="M7 .333A6.67 6.67 0 0 0 .333 7 6.67 6.67 0 0 0 7 13.667 6.67 6.67 0 0 0 13.667 7 6.67 6.67 0 0 0 7 .333zm0 12A5.34 5.34 0 0 1 1.667 7 5.34 5.34 0 0 1 7 1.667 5.34 5.34 0 0 1 12.333 7 5.34 5.34 0 0 1 7 12.333zm-.667-2.666h1.334V11H6.333V9.667zm1.074-6.64a2.668 2.668 0 0 0-2.954 1.86c-.12.386.174.78.58.78h.134c.273 0 .493-.194.586-.447.214-.593.847-1 1.534-.853.633.133 1.1.753 1.046 1.4-.066.893-1.08 1.086-1.633 1.92 0 .006-.007.006-.007.013-.006.013-.013.02-.02.033-.06.1-.12.214-.166.334-.007.02-.02.033-.027.053-.007.013-.007.027-.013.047-.08.226-.134.5-.134.833h1.334c0-.28.073-.513.186-.713.014-.02.02-.04.034-.06.053-.094.12-.18.186-.26.007-.007.014-.02.02-.027.067-.08.14-.153.22-.227.64-.606 1.507-1.1 1.327-2.373-.16-1.16-1.073-2.14-2.233-2.313z"/>
    </g>
</svg>
