<svg height="15" viewBox="0 0 17 15" width="17" xmlns="http://www.w3.org/2000/svg"><path d="m883.154 49.5h.108c.396002 0 .767998.101999 1.116.306s.623999.4799983.828.828.306.719998.306 1.116v.144zm-3.222.594c-.288001.5520028-.432 1.1039972-.432 1.656 0 .6840034.167998 1.3139971.504 1.89s.791997 1.0319983 1.368 1.368 1.205997.504 1.89.504c.552003 0 1.103997-.1439986 1.656-.432l-1.17-1.152c-.168001.0480002-.329999.072-.486.072-.396002 0-.767998-.101999-1.116-.306s-.623999-.4799983-.828-.828-.306-.719998-.306-1.116c0-.1560008.024-.3179992.072-.486zm-4.158-4.14.954-.954 13.284 13.284-.954.954c-1.128006-1.1040055-1.967997-1.9379972-2.52-2.502-.996005.4200021-2.087994.63-3.276.63-1.236006 0-2.411994-.2399976-3.528-.72-1.080005-.4680023-2.030996-1.1249958-2.853-1.971s-1.448998-1.8209945-1.881-2.925c.576003-1.4400072 1.511994-2.6819948 2.808-3.726zm7.488 2.034c-.468002 0-.923998.095999-1.368.288l-1.62-1.62c.924005-.3600018 1.919995-.54 2.988-.54 1.236006 0 2.405994.2399976 3.51.72 1.080005.4680023 2.027996 1.1279957 2.844 1.98s1.439998 1.8299945 1.872 2.934c-.552003 1.3800069-1.403994 2.5619951-2.556 3.546l-2.196-2.178c.192001-.4440022.288-.8999977.288-1.368 0-.6840034-.167998-1.3139971-.504-1.89s-.791997-1.0319983-1.368-1.368-1.205997-.504-1.89-.504z" fill="#cfcfcf" fill-rule="evenodd" transform="translate(-875 -45)"/></svg>