<svg height="24" viewBox="0 0 24 24" width="24" xmlns="http://www.w3.org/2000/svg"><g fill="none" transform="translate(1 1)"><path d="m11 .94c-5.55385763 0-10.06 4.50614237-10.06 10.06 0 5.5538576 4.50614237 10.06 10.06 10.06 5.5538576 0 10.06-4.5061424 10.06-10.06 0-5.55385763-4.5061424-10.06-10.06-10.06zm0-1.44c6.3261424 0 11.5 5.17385763 11.5 11.5 0 6.3261424-5.1738576 11.5-11.5 11.5-6.32614237 0-11.5-5.1738576-11.5-11.5 0-6.32614237 5.17385763-11.5 11.5-11.5z" fill="#666" stroke="#333"/><path d="m11 0c-3.3 0-6.16 1.43-8.14 3.63h16.28c-1.98-2.2-4.84-3.63-8.14-3.63zm8.14 18.37h-16.28c1.98 2.2 4.95 3.63 8.14 3.63 3.3 0 6.16-1.43 8.14-3.63z" fill="#ce1126"/><path d="m19.14 3.63h-16.28c-.99 1.1-1.76 2.42-2.2 3.85h20.79c-.55-1.54-1.32-2.75-2.31-3.85zm2.31 10.89h-20.9c.55 1.43 1.21 2.75 2.2 3.85h16.28c1.1-1.1 1.87-2.42 2.42-3.85z" fill="#fff"/><path d="m22 11c0-1.21-.22-2.42-.55-3.52h-20.9c-.33 1.1-.55 2.31-.55 3.52s.22 2.42.55 3.52h20.79c.44-1.1.66-2.31.66-3.52z" fill="#002b7f"/></g></svg>