<svg height="20" viewBox="0 0 20 20" width="20" xmlns="http://www.w3.org/2000/svg"><g fill="none" fill-rule="evenodd"><path d="m-2-2h24v24h-24z"/><path d="m18.571 10a8.571 8.571 0 0 1 -8.571 8.57 8.571 8.571 0 1 1 0-17.143 8.572 8.572 0 0 1 8.571 8.573z" stroke="#333" stroke-width=".9"/><path d="m10.885 13.664a.99.99 0 0 1 -.071.366 1 1 0 0 1 -.224.331.965.965 0 0 1 -.67.25c-.245 0-.477-.083-.698-.25a.944.944 0 0 1 -.277-.697.967.967 0 0 1 .975-.975c.255 0 .48.099.67.295.197.173.295.4.295.68m2.092-5.625c0 .268-.025.504-.076.707-.05.202-.13.4-.236.59a2.968 2.968 0 0 1 -.715.734l-.734.59a1.484 1.484 0 0 0 -.438.84v.456h-1.628v-.546c0-.441.108-.836.323-1.19a2.213 2.213 0 0 1 .258-.294l.44-.384c.345-.257.518-.396.518-.421.256-.245.384-.55.384-.92 0-.716-.343-1.074-1.028-1.074a1.105 1.105 0 0 0 -.926.465c-.105.144-.183.31-.237.5-.053.192-.08.394-.08.609h-1.78c0-.436.067-.83.202-1.185.133-.355.335-.675.603-.96.268-.27.577-.476.925-.623.35-.145.75-.219 1.203-.219 1.007 0 1.794.269 2.36.805.442.442.662.948.662 1.52" fill="#333"/></g></svg>