<svg xmlns="http://www.w3.org/2000/svg" width="35" height="20" viewBox="0 0 35 20">
    <g fill="none" fill-rule="nonzero">
        <path fill="#FFC350" d="M33.871.024H7.903v.554a.56.56 0 0 1-.564.554.56.56 0 0 1-.565-.554V.024H1.13C.506.024 0 .52 0 1.132v4.88c0 .279.14.544.382.691C1.507 7.386 2.258 8.606 2.258 10c0 1.394-.75 2.614-1.876 3.297a.807.807 0 0 0-.382.692v4.879c0 .612.506 1.108 1.129 1.108h5.645v-.554a.56.56 0 0 1 .565-.554.56.56 0 0 1 .564.554v.554h25.968c.623 0 1.129-.496 1.129-1.108V1.132C35 .52 34.494.024 33.871.024zM7.903 17.205a.56.56 0 0 1-.564.554.56.56 0 0 1-.565-.554v-1.108a.56.56 0 0 1 .565-.555.56.56 0 0 1 .564.555v1.108zm0-3.325a.56.56 0 0 1-.564.554.56.56 0 0 1-.565-.554V12.77a.56.56 0 0 1 .565-.554.56.56 0 0 1 .564.554v1.109zm0-3.326a.56.56 0 0 1-.564.554.56.56 0 0 1-.565-.554V9.446a.56.56 0 0 1 .565-.554.56.56 0 0 1 .564.554v1.108zm0-3.325a.56.56 0 0 1-.564.554.56.56 0 0 1-.565-.554V6.12a.56.56 0 0 1 .565-.554.56.56 0 0 1 .564.554V7.23zm0-3.326a.56.56 0 0 1-.564.555.56.56 0 0 1-.565-.555V2.795a.56.56 0 0 1 .565-.554.56.56 0 0 1 .564.554v1.108z"/>
        <path fill="#FFD164" d="M33.306 18.868H9.596a.56.56 0 0 1-.564-.555V1.687a.56.56 0 0 1 .565-.555h23.71a.56.56 0 0 1 .564.555v16.626a.56.56 0 0 1-.565.555z"/>
        <path fill="#FFF" d="M20.985 13.83l-2.927 1.804c-.644.397-1.454-.18-1.268-.905l.843-3.29-2.651-2.174c-.585-.48-.275-1.414.484-1.464l3.447-.23 1.288-3.147c.283-.694 1.284-.694 1.567 0l1.288 3.147 3.447.23c.76.05 1.069.984.484 1.464l-2.65 2.174.842 3.29c.186.725-.623 1.302-1.268.905l-2.926-1.804z"/>
        <path fill="#FFF6D8" d="M24.812 13.296c-3.658-.22-6.76-2.443-8.177-5.573l-1.169.078c-.76.05-1.069.984-.484 1.464l2.651 2.174-.843 3.29c-.186.725.624 1.302 1.268.905l2.926-1.804 2.926 1.804c.645.397 1.455-.18 1.269-.905l-.367-1.433z"/>
    </g>
</svg>
