<svg height="39" viewBox="0 0 49 39" width="49" xmlns="http://www.w3.org/2000/svg" xmlns:xlink="http://www.w3.org/1999/xlink"><defs><path id="a" d="m0 0h996v200h-996z"/><filter id="b" height="102%" width="100.4%" x="-.2%" y="-.5%"><feOffset dy="1" in="SourceAlpha" result="shadowOffsetOuter1"/><feGaussianBlur in="shadowOffsetOuter1" result="shadowBlurOuter1" stdDeviation=".5"/><feColorMatrix in="shadowBlurOuter1" values="0 0 0 0 0 0 0 0 0 0 0 0 0 0 0 0 0 0 0.35 0"/></filter></defs><g fill="none" fill-rule="evenodd"><g transform="translate(-428 -68)"><use fill="#000" filter="url(#b)" xlink:href="#a"/><use fill="#fff" xlink:href="#a"/></g><path d="m-179-18h249v75h-249z"/><path d="m45.834 0h-43.651a2.188 2.188 0 0 0 -2.183 2.189v34.218a2.19 2.19 0 0 0 2.183 2.19h43.651a2.19 2.19 0 0 0 2.183-2.19v-34.218a2.188 2.188 0 0 0 -2.183-2.189zm-43.651 1.642h43.651c.301 0 .546.246.546.547v21.128l-11.524-12.847-15.036 20.573-8.089-8.116-10.094 10.129v-30.867c0-.301.245-.547.546-.547zm38.608 17.899-1.718.862-4.256-2.846-2.785 2.795-1.732-.87 4.687-6.412zm5.043 17.413h-43.651a.547.547 0 0 1 -.546-.547v-1.029l10.094-10.128 8.281 8.308 9.305-12.731 3.038 1.523 2.671-2.68 3.929 2.628 2.972-1.49 4.453 4.964v10.635a.547.547 0 0 1 -.546.547z" fill="#d6d6d6"/><path d="m40-18h30v30h-22a8 8 0 0 1 -8-8z" fill="#e4e4e4"/><text fill="#404040" font-family="supermarket" font-size="14" font-weight="700" transform="translate(-179 -18)"><tspan x="227.229" y="19">43</tspan></text></g></svg>