<svg xmlns="http://www.w3.org/2000/svg" width="14" height="12" viewBox="0 0 14 12">
    <path fill="gray" fill-rule="evenodd" d="M14 6.53c-.051.282-.092.565-.155.843-.527 2.323-2.47 4.16-4.816 4.538-1.955.315-3.667-.21-5.131-1.543-.042-.038-.093-.067-.134-.097l.954-.954c1.044.998 2.296 1.465 3.747 1.332 1.102-.102 2.05-.558 2.837-1.34a4.672 4.672 0 0 0 .697-5.739C10.876 1.728 8.636.89 6.599 1.54c-2.102.675-3.286 2.635-3.25 4.455h1.93L2.63 8.637 0 6.004h1.988c.036-.338.055-.66.104-.977C2.476 2.528 4.487.497 6.98.084c3.12-.517 6.067 1.39 6.84 4.435.078.31.12.632.18.948V6.53zM7.01 3.343h.986v.176c0 .828.003 1.657-.002 2.487 0 .117.032.184.136.246.729.424 1.452.857 2.198 1.3l-.473.8c-.047-.024-.089-.044-.127-.067-.868-.515-1.738-1.03-2.603-1.55-.056-.033-.12-.11-.12-.168C6.998 5.512 7 4.459 7 3.406c0-.016.004-.03.01-.064z"/>
</svg>
