<svg xmlns="http://www.w3.org/2000/svg" width="21" height="20" viewBox="0 0 21 20">
    <g fill="none" fill-rule="nonzero">
        <path fill="#ECECF1" d="M18.056 4.666a1.913 1.913 0 0 0-1.912 1.912v10.71h3.824V6.578a1.912 1.912 0 0 0-1.912-1.912zM3.064 4.666a1.913 1.913 0 0 0-1.912 1.912v10.71h3.824V6.578a1.912 1.912 0 0 0-1.912-1.912z"/>
        <path fill="#98C164" d="M10.713 12.315h5.43v-4.59H5.894z"/>
        <path fill="#80C9E5" d="M4.976 10.02v7.268a1.912 1.912 0 1 0-3.824 0A1.97 1.97 0 0 0 3.173 19.2h1.803l4.82-4.59-4.82-4.59zM18.566 15.44a1.916 1.916 0 0 0-2.421 1.847V14.61h-3.29l-4.59 4.59h9.791a1.914 1.914 0 0 0 .51-3.76z"/>
        <path fill="#FED2A4" d="M16.144 12.315v2.294h-3.29L8.266 19.2H4.976l4.82-4.59-4.82-4.589V7.725h.918l4.82 4.59z"/>
        <path fill="#ED1C24" d="M10.56.382a3.442 3.442 0 0 1 3.442 3.443c0 .937-.834 2.527-1.682 3.9-.873 1.417-1.76 2.601-1.76 2.601s-.887-1.184-1.76-2.6C7.952 6.351 7.118 4.76 7.118 3.824A3.442 3.442 0 0 1 10.56.382z"/>
        <path fill="#ECECF1" d="M10.56 2.295a1.53 1.53 0 1 1 0 3.06 1.53 1.53 0 0 1 0-3.06z"/>
        <path fill="#000" d="M18.056 4.284a2.294 2.294 0 0 0-2.294 2.294v.765h-2.77c.926-1.574 1.393-2.758 1.393-3.518A3.83 3.83 0 0 0 10.56 0a3.83 3.83 0 0 0-3.825 3.825c0 .76.467 1.942 1.389 3.518h-2.77v-.765a2.297 2.297 0 0 0-2.29-2.294A2.294 2.294 0 0 0 .769 6.578V8.72a.385.385 0 0 0 .77 0V6.578a1.53 1.53 0 0 1 1.525-1.53c.844.001 1.529.686 1.53 1.53v9a2.285 2.285 0 0 0-3.06 0V11.78a.385.385 0 0 0-.77 0v5.508a2.358 2.358 0 0 0 2.404 2.294h14.888a2.297 2.297 0 0 0 2.295-2.294V6.578a2.297 2.297 0 0 0-2.295-2.294zm-1.53 2.294a1.53 1.53 0 1 1 3.06 0v8.99a2.235 2.235 0 0 0-.922-.498 2.308 2.308 0 0 0-2.135.506V6.578h-.002zm-.764 5.355h-4.896L6.851 8.108h1.737c.835 1.334 1.657 2.436 1.666 2.447a.385.385 0 0 0 .615 0c.009-.011.831-1.113 1.666-2.447h3.231l-.004 3.825zM10.56.765a3.063 3.063 0 0 1 3.06 3.06c0 1.42-2.24 4.703-3.06 5.851C9.728 8.51 7.5 5.231 7.5 3.825a3.063 3.063 0 0 1 3.06-3.06zM1.534 17.287c0-.845.685-1.53 1.53-1.53.844 0 1.529.685 1.53 1.53a.385.385 0 0 0 .77 0v-6.374l3.881 3.697-4.422 4.207h-1.65a1.588 1.588 0 0 1-1.64-1.53zm8.524-2.4a.385.385 0 0 0 0-.554l-4.7-4.476V8.108h.385l4.706 4.484a.385.385 0 0 0 .264.106h5.049v1.533h-2.907a.385.385 0 0 0-.271.112l-4.477 4.474H5.932l4.126-3.93zm8 3.93H9.19l3.825-3.825h2.748v2.295a.385.385 0 0 0 .764 0 1.534 1.534 0 0 1 1.944-1.476 1.506 1.506 0 0 1 1.116 1.476c0 .845-.685 1.53-1.53 1.53h.002z"/>
        <path fill="#000" d="M10.56 5.737a1.912 1.912 0 1 0 0-3.825 1.912 1.912 0 0 0 0 3.825zm0-3.06a1.148 1.148 0 1 1 0 2.295 1.148 1.148 0 0 1 0-2.295zM1.154 10.632a.385.385 0 1 0 0-.769.385.385 0 0 0 0 .77z"/>
    </g>
</svg>
