<svg height="25" viewBox="0 0 25 25" width="25" xmlns="http://www.w3.org/2000/svg"><g fill="none"><path d="m25 6.29v18.71l-6.25-2.222-1.667-9.355 1.667-9.355z" fill="#fee191"/><path d="m18.75 4.068v18.71l-6.25 2.222-1.111-9.355 1.111-9.355z" fill="#ffd24d"/><path d="m12.5 6.29v18.71l-6.25-2.222-1.667-9.355 1.667-9.355z" fill="#fee191"/><path d="m6.25 4.068v18.71l-6.25 2.222v-18.71z" fill="#ffd24d"/><path d="m21.27 5.645c0 4.52-5.103 8.707-5.103 8.707a.893.893 0 0 1 -1.084 0s-5.103-4.187-5.103-8.707a5.645 5.645 0 1 1 11.29 0z" fill="#f14742"/><path d="m15.625 8.485a2.843 2.843 0 0 1 -2.84-2.84 2.843 2.843 0 0 1 2.84-2.84 2.843 2.843 0 0 1 2.84 2.84 2.843 2.843 0 0 1 -2.84 2.84z" fill="#fff"/></g></svg>