<svg height="23" viewBox="0 0 32 23" width="32" xmlns="http://www.w3.org/2000/svg"><g fill="#404040" fill-rule="evenodd"><path d="m5.952 4.015a.337.337 0 0 0 -.338.336v1.4c0 .185.152.336.338.336h23.076c.105 0 .206-.05.269-.135l1.05-1.398a.33.33 0 0 0 .03-.353.328.328 0 0 0 -.3-.186h-24.127zm23.075 3.115h-23.076c-.76 0-1.38-.62-1.38-1.38v-1.4c0-.76.62-1.377 1.38-1.377h24.125c.525 0 .998.292 1.233.762a1.37 1.37 0 0 1 -.13 1.444l-1.05 1.399a1.386 1.386 0 0 1 -1.102.552z"/><path d="m8.876 16.47a.52.52 0 0 1 -.51-.418l-1.892-9.34a.522.522 0 0 1 1.022-.207l1.8 8.893 13.902-.938 4.923-8.122a.52.52 0 1 1 .89.54l-5.062 8.354a.523.523 0 0 1 -.411.25l-14.628.988-.035.001"/><path d="m24.117 18.884h-14.73a.521.521 0 0 1 -.51-.413l-.511-2.413a.521.521 0 1 1 1.02-.216l.425 2h14.306a.52.52 0 1 1 0 1.043"/><path d="m20.668 19.552a1.037 1.037 0 0 0 0 2.072c.571 0 1.036-.465 1.036-1.036s-.465-1.036-1.036-1.036m0 3.115a2.082 2.082 0 0 1 -2.079-2.079c0-1.146.933-2.078 2.08-2.078 1.145 0 2.078.932 2.078 2.078a2.082 2.082 0 0 1 -2.079 2.079m-8.695-3.115c-.571 0-1.036.465-1.036 1.036s.465 1.036 1.036 1.036c.57 0 1.036-.465 1.036-1.036s-.465-1.036-1.036-1.036m0 3.115a2.081 2.081 0 0 1 -2.078-2.079 2.08 2.08 0 0 1 2.078-2.078c1.146 0 2.079.932 2.079 2.078a2.082 2.082 0 0 1 -2.08 2.079m-10.859-20.441h2.445c.612 0 1.113-.501 1.113-1.113s-.501-1.113-1.113-1.113h-2.445c-.613 0-1.113.5-1.113 1.113 0 .612.5 1.113 1.113 1.113"/><path d="m5.094 4.015a.522.522 0 0 1 -.47-.293l-1.154-2.382a.522.522 0 0 1 .938-.455l1.156 2.38a.523.523 0 0 1 -.47.749"/></g></svg>