<svg height="46" viewBox="0 0 40 46" width="40" xmlns="http://www.w3.org/2000/svg" xmlns:xlink="http://www.w3.org/1999/xlink"><mask id="a" fill="#fff"><path d="m0 1.476h39.507v45.19h-39.507z" fill="#fff" fill-rule="evenodd"/></mask><g fill="none" fill-rule="evenodd"><path d="m-40-34h650v112h-650z" fill="#333"/><path d="m23.83 30.645c-.06-.095-.127-.2-.194-.313-.296-.498-.584.047-.793-1.098.017-.006.035-.01.057-.018 2.772-.837 4.225-4.26 4.825-6.655.064-.156.129-.311.191-.473 1.16-.256 2.407-2.147 2.407-3.738 0-1.182-.434-2.065-1.198-2.458.075-1.371.042-2.607-.096-3.722l-.02-.438c-.073-1.958-.337-3.273-1.577-5.456-1.243-2.18-5.456-3.27-6.17-3.27h-3.016c-.713 0-4.927 1.09-6.169 3.27-1.242 2.183-1.504 3.498-1.58 5.456l-.013.296c-.185 1.2-.187 2.486.013 3.813-.838.358-1.311 1.258-1.311 2.509 0 1.644 1.311 3.575 2.491 3.758.52 2.39 1.978 6.217 4.931 7.108l.056.018c-.21 1.145-.498.6-.794 1.098a6.065 6.065 0 0 1 -.193.313c-10.972 1.005-12.885 6.195-12.897 9.815 0 0 7.94 2.177 16.972 2.177 8.628 0 16.97-2.177 16.97-2.177-.008-3.62-1.922-8.81-12.893-9.814z" stroke="#fff"/><path d="m19.752 43.89c-9.032 0-16.972-2.177-16.972-2.177.012-3.62 1.925-8.81 12.896-9.814.062-.097.129-.202.193-.313.296-.498.585.044.794-1.098-.018-.006-.036-.013-.056-.018-2.953-.893-4.411-4.717-4.931-7.11-1.18-.18-2.491-2.112-2.491-3.756 0-1.254.473-2.151 1.311-2.511a12.687 12.687 0 0 1 -.013-3.814l.013-.295c.076-1.956.338-3.271 1.58-5.454 1.24-2.182 5.456-3.273 6.169-3.273h3.018c.713 0 4.924 1.091 6.169 3.273 1.24 2.183 1.504 3.498 1.577 5.454l.02.44c.138 1.113.171 2.35.096 3.722.764.391 1.198 1.276 1.198 2.458 0 1.589-1.247 3.48-2.407 3.738-.062.16-.127.317-.191.473-.6 2.393-2.053 5.815-4.825 6.655-.022.005-.04.012-.057.018.209 1.145.497.6.793 1.098.067.113.133.216.193.313 10.971 1.005 12.885 6.194 12.894 9.814 0 0-8.343 2.177-16.971 2.177m8.215-14.073c.92-1.389 1.56-3.018 2.198-4.642 2.864-2.105 3.782-6.116 1.767-8.987.077-3.898-.292-8.433-3.083-11.33-2.33-2.423-5.844-3.383-9.097-3.383-3.154 0-6.545.893-8.883 3.158-2.842 2.753-3.506 7.45-3.253 11.346-2.176 2.736-1.151 7.063 1.658 9.167.48 1.644 1.189 3.291 2.19 4.684-5.996 1.456-11.331 4.858-11.464 11.883-.022 1.21.88 2.366 2.043 2.682 11.47 3.102 23.937 2.955 35.422 0 .667-.173 1.151-.513 1.473-.942.36-.434.582-1.011.57-1.743-.136-7.048-5.514-10.45-11.54-11.893" fill="#fff" mask="url(#a)" transform="translate(0 -1.253)"/></g></svg>