<svg xmlns="http://www.w3.org/2000/svg" width="48" height="48" viewBox="0 0 48 48">
    <g fill="none" fill-rule="evenodd" transform="translate(-164 -388)">
        <path fill="#F7F7F7" d="M0 0h375v812H0z"/>
        <rect width="374" height="1211" x=".5" y="79.5" fill="#FFF" stroke="#F4F4F4" rx="5"/>
        <path fill="#CCC" fill-rule="nonzero" d="M207.315 398c1.34 0 2.43 1.09 2.442 2.442v21.453a2.438 2.438 0 0 1-2.442 2.442h-38.873a2.438 2.438 0 0 1-2.442-2.442v-5.897c0-.73.37-1.407.97-1.777a3.565 3.565 0 0 0 1.7-3.053 3.552 3.552 0 0 0-1.7-3.052 2.1 2.1 0 0 1-.97-1.777v-5.897a2.445 2.445 0 0 1 2.442-2.442zm-32.518 2.202h-6.355c-.131 0-.24.109-.24.24v5.82c1.679 1.08 2.682 2.89 2.682 4.885l-.006.259a5.753 5.753 0 0 1-2.676 4.624v5.843c0 .131.109.24.24.24h6.366a1.115 1.115 0 0 1 1.014-.665 1.134 1.134 0 0 1 1.003.676h30.49c.13 0 .24-.11.24-.24v-21.442c0-.131-.11-.24-.24-.24h-30.49a1.115 1.115 0 0 1-1.014.665c-.447 0-.84-.273-1.014-.665zm1.025 17.234c.56 0 1.033.428 1.094.981l.007.12v1.341c0 .61-.49 1.101-1.101 1.101-.57 0-1.035-.427-1.095-.98l-.006-.12v-1.342c0-.61.49-1.1 1.1-1.1zm16.46-15.642l.115.007c.3.037.556.22.692.472.049.098.086.209.101.322l.008.114v1.635h.174c.622 0 1.167.033 1.614.11.447.065.872.217 1.242.446.306.175.59.404.829.698.229.283.414.6.545.948.12.35.185.709.185 1.101 0 1.298-.621 2.224-1.875 2.846 1.646.555 2.475 1.624 2.497 3.172 0 .73-.197 1.395-.567 1.984a3.369 3.369 0 0 1-1.526 1.308 5.257 5.257 0 0 1-1.385.36c-.39.054-.857.086-1.399.095l-.334.003v2.202a.921.921 0 0 1-.916.915.922.922 0 0 1-.91-.81l-.005-.105v-2.202h-1.82c-.6 0-1.015-.131-1.265-.404-.223-.232-.351-.594-.377-1.07l-.005-.183V406c0-.577.13-1.003.393-1.264.232-.233.594-.362 1.07-.388l.183-.005h1.82v-1.635c0-.098.022-.185.044-.272a.906.906 0 0 1 .872-.643zm-16.46 11.62c.56 0 1.033.427 1.094.98l.007.121v1.34c0 .611-.49 1.102-1.101 1.102-.57 0-1.035-.428-1.095-.98l-.006-.121v-1.341c0-.61.49-1.101 1.1-1.101zm15.534-1.755h-1.123v3.695h1.123v-3.695zm1.831 0v3.684c1.624-.043 2.442-.675 2.442-1.875 0-.643-.218-1.1-.665-1.384-.414-.262-.992-.403-1.777-.425zm-17.365-2.267c.56 0 1.033.427 1.094.98l.007.12v1.341c0 .61-.49 1.101-1.101 1.101-.57 0-1.035-.427-1.095-.98l-.006-.12v-1.341c0-.61.49-1.101 1.1-1.101zm15.534-2.976h-1.123v3.259h1.123v-3.26zm1.831.032v3.205a4.23 4.23 0 0 0 .905-.163c.338-.12.61-.35.785-.676.141-.25.218-.523.218-.818 0-.643-.218-1.057-.665-1.264a3.21 3.21 0 0 0-.458-.153 5.86 5.86 0 0 0-.785-.13zm-17.365-1.079c.56 0 1.033.427 1.094.98l.007.121v1.34c0 .611-.49 1.102-1.101 1.102-.57 0-1.035-.427-1.095-.98l-.006-.121v-1.34c0-.611.49-1.102 1.1-1.102zm0-4.011c.56 0 1.033.427 1.094.98l.007.12v1.341c0 .61-.49 1.101-1.101 1.101-.57 0-1.035-.427-1.095-.98l-.006-.12v-1.341c0-.611.49-1.101 1.1-1.101z"/>
    </g>
</svg>
