<svg xmlns="http://www.w3.org/2000/svg" width="18" height="17" viewBox="0 0 18 17">
    <path fill="#333" fill-rule="evenodd" d="M4.763 7.59a.695.695 0 1 0 0 1.39.695.695 0 0 0 0-1.39m0 2.385a1.692 1.692 0 0 1 0-3.382c.932 0 1.69.76 1.69 1.691 0 .933-.758 1.691-1.69 1.691M8.886 7.59a.696.696 0 0 0 0 1.39.695.695 0 0 0 0-1.39m0 2.386a1.693 1.693 0 0 1-1.691-1.69c0-.933.759-1.692 1.69-1.692a1.692 1.692 0 0 1 0 3.382M13.01 7.59a.696.696 0 1 0 0 0m0 2.386a1.692 1.692 0 0 1 0-3.382c.932 0 1.69.76 1.69 1.691 0 .933-.758 1.691-1.69 1.691m-9.9 2.827c-.014 1.09-.465 2.172-.858 2.913 1.22-.313 2.849-1.007 3.522-1.32a.49.49 0 0 1 .365-.022 8.383 8.383 0 0 0 2.606.42c4.163 0 7.549-3.006 7.549-6.699s-3.386-6.698-7.55-6.698c-4.161 0-7.547 3.005-7.547 6.698 0 1.573.63 3.104 1.779 4.312a.497.497 0 0 1 .134.396M1.27 16.87a.497.497 0 0 1-.402-.79c.012-.017 1.152-1.606 1.24-3.143C.878 11.567.202 9.856.202 8.094.2 3.851 4.034.4 8.745.4c4.712 0 8.545 3.451 8.545 7.694s-3.833 7.694-8.545 7.694a9.342 9.342 0 0 1-2.728-.409c-.757.343-3.387 1.49-4.746 1.49"/>
</svg>
