<svg xmlns="http://www.w3.org/2000/svg" width="14" height="14" viewBox="0 0 14 14">
    <g fill="none" fill-rule="evenodd">
        <path d="M-1-1h16v16H-1z"/>
        <path fill="#FFFFFF" fill-rule="nonzero" d="M6.667 0A6.67 6.67 0 0 0 0 6.667a6.67 6.67 0 0 0 6.667 6.666 6.67 6.67 0 0 0 6.666-6.666A6.67 6.67 0 0 0 6.667 0zm0 2c1.106 0 2 .893 2 2s-.894 2-2 2c-1.107 0-2-.893-2-2s.893-2 2-2zm0 9.467a4.8 4.8 0 0 1-4-2.147c.02-1.327 2.666-2.053 4-2.053 1.326 0 3.98.726 4 2.053a4.8 4.8 0 0 1-4 2.147z"/>
    </g>
</svg>
