<svg height="33" viewBox="0 0 33 33" width="33" xmlns="http://www.w3.org/2000/svg"><g fill="none" fill-rule="evenodd"><path d="m-973-212h1380v693h-1380z" fill="#fff"/><path d="m26.226 21.387c-.717-.38-1.008-.361-1.208-.295-.203.068-.481.313-.883.762-.929 1.037-2.1 2.134-3.474 2.522-1.526.43-2.666-.67-3.792-1.591a53.252 53.252 0 0 1 -5.03-4.686c-1.16-1.23-3.282-3.126-3.257-4.957.024-1.687 1.385-3.22 2.565-4.277.449-.402.693-.68.761-.883.067-.2.086-.49-.294-1.208l-4.08-5.337c-.525-.525-.737-.51-1.136-.386-.4.125-.95.536-1.46 1.035-3.288 3.288-4.322 6.074-3.818 8.99.609 3.514 3.16 6.307 5.486 8.834a114.342 114.342 0 0 0 7.738 7.64c2.147 1.926 4.667 3.819 7.578 4.328 2.919.506 5.703-.527 8.99-3.815.5-.512.91-1.061 1.036-1.461.125-.4.14-.61-.385-1.137l-5.338-4.078z" stroke="#404040" stroke-width="2"/></g></svg>