<svg height="25" viewBox="0 0 25 25" width="25" xmlns="http://www.w3.org/2000/svg"><g fill="none" fill-rule="evenodd"><path d="m-3-3h30v30h-30z"/><path d="m12.429 0c-6.861 0-12.429 5.568-12.429 12.429 0 6.86 5.568 12.428 12.429 12.428 6.86 0 12.428-5.568 12.428-12.428 0-6.861-5.567-12.429-12.427-12.429zm4.971 13.671h-3.729v3.729c0 .684-.559 1.243-1.242 1.243-.684 0-1.243-.56-1.243-1.243v-3.729h-3.729c-.683 0-1.243-.559-1.243-1.242 0-.684.56-1.243 1.243-1.243h3.729v-3.729c0-.683.559-1.243 1.243-1.243.683 0 1.242.56 1.242 1.243v3.729h3.729c.684 0 1.243.559 1.243 1.243 0 .683-.56 1.242-1.243 1.242z" fill="#ec1d24" fill-rule="nonzero"/></g></svg>