<svg xmlns="http://www.w3.org/2000/svg" width="16" height="16" viewBox="0 0 16 16">
    <g fill="none" fill-rule="evenodd">
        <g fill="#EC1B23" fill-rule="nonzero">
            <path d="M203 115c4.418 0 8 3.582 8 8s-3.582 8-8 8-8-3.582-8-8 3.582-8 8-8zm3.369 4.78l-4.753 4.9-1.978-2.04c-.277-.285-.725-.285-1.002 0-.277.286-.277.748 0 1.033l2.492 2.543c.13.142.312.22.5.212.183-.008.356-.083.489-.212l5.24-5.403c.137-.135.214-.322.214-.517 0-.156-.049-.306-.139-.43l-.074-.086c-.275-.278-.715-.278-.99 0z" transform="translate(-195 -115)"/>
        </g>
    </g>
</svg>
