<svg xmlns="http://www.w3.org/2000/svg" width="18" height="18" viewBox="0 0 18 18">
    <g fill="none" fill-rule="evenodd">
        <path d="M-2-2h22v22H-2z"/>
        <path fill="#333" fill-rule="nonzero" d="M9 4.5c-.495 0-.9.405-.9.9v2.7H5.4c-.495 0-.9.405-.9.9s.405.9.9.9h2.7v2.7c0 .495.405.9.9.9s.9-.405.9-.9V9.9h2.7c.495 0 .9-.405.9-.9s-.405-.9-.9-.9H9.9V5.4c0-.495-.405-.9-.9-.9zM9 0C4.041 0 0 4.041 0 9s4.041 9 9 9 9-4.041 9-9-4.041-9-9-9zm0 16.2c-3.969 0-7.2-3.231-7.2-7.2 0-3.969 3.231-7.2 7.2-7.2 3.969 0 7.2 3.231 7.2 7.2 0 3.969-3.231 7.2-7.2 7.2z"/>
    </g>
</svg>
