<svg height="28" viewBox="0 0 24 28" width="24" xmlns="http://www.w3.org/2000/svg"><g fill="#404040" fill-rule="evenodd"><path d="m17.674 22.257-.47-.47a.677.677 0 0 1 -.002-.957.677.677 0 0 1 .955 0l5.221 5.221a.676.676 0 0 1 -.954.956l-3.732-3.732v1.238a2.869 2.869 0 0 1 -2.866 2.866h-12.96a2.869 2.869 0 0 1 -2.866-2.866v-18.256a2.868 2.868 0 0 1 2.866-2.865h2.153v1.018h-2.153a1.85 1.85 0 0 0 -1.848 1.848v18.256a1.85 1.85 0 0 0 1.848 1.848h12.96a1.85 1.85 0 0 0 1.848-1.848v-2.256zm1.018-7.907h-1.018v-8.093a1.85 1.85 0 0 0 -1.848-1.848h-2.152v-1.017h2.152a2.868 2.868 0 0 1 2.866 2.865zm-15.287-5.15v-1.018h11.882v1.018zm0 3.25v-1.018h11.882v1.018zm0 3.249v-1.019h6.172v1.018h-6.172zm0 3.248v-1.018h5.603v1.018zm0 3.249v-1.017h7.178v1.017z"/><path d="m14.112 12.07a5.558 5.558 0 0 0 -5.552 5.552 5.557 5.557 0 0 0 5.552 5.552 5.558 5.558 0 0 0 5.553-5.552 5.559 5.559 0 0 0 -5.553-5.552m0 1.018a4.535 4.535 0 1 1 0 9.07 4.535 4.535 0 0 1 0-9.07m-8.662-8.078h7.791v-1.562h-1.694l-.008-.423a2.207 2.207 0 0 0 -2.193-2.162 2.209 2.209 0 0 0 -2.195 2.16l-.007.424h-1.694zm8.655.864h-9.519v-3.29h1.74a3.078 3.078 0 0 1 3.019-2.584c1.512 0 2.787 1.125 3.02 2.584h1.74z"/></g></svg>