<svg height="44" viewBox="0 0 40 44" width="40" xmlns="http://www.w3.org/2000/svg" xmlns:xlink="http://www.w3.org/1999/xlink"><mask id="a" fill="#fff"><path d="m0 0h39.303v42.104h-39.303z" fill="#fff" fill-rule="evenodd"/></mask><g fill="none" fill-rule="evenodd"><path d="m-40-22h650v88h-650z" fill="#f0f1f1"/><path d="m1.871 9.798v23.248l16.845 6.724v-23.233l-7.487-2.996v6.111a.937.937 0 0 1 -.922.95.938.938 0 0 1 -.95-.924v-6.882l-7.485-2.998zm35.56 0-16.844 6.739v23.233l16.844-6.724zm-8.423-4.108-16.185 6.476 6.827 2.72 16.188-6.463zm-9.358-3.743-16.185 6.476 6.827 2.72 16.188-6.463zm.03-1.945c.12.006.23.03.322.057l18.716 7.488a.962.962 0 0 1 .585.876v25.267a.962.962 0 0 1 -.585.861l-18.716 7.487a.96.96 0 0 1 -.701 0l-18.716-7.488a.962.962 0 0 1 -.585-.86v-25.268a.959.959 0 0 1 .585-.876l18.716-7.486a.9.9 0 0 1 .379-.057z" fill="#333" mask="url(#a)"/></g></svg>