<svg height="37" viewBox="0 0 37 37" width="37" xmlns="http://www.w3.org/2000/svg"><g fill="none" fill-rule="evenodd"><path d="m-1063-337h1380v693h-1380z" fill="#fff"/><path d="m36 18.5c0 9.665-7.835 17.5-17.5 17.5s-17.5-7.835-17.5-17.5 7.835-17.5 17.5-17.5 17.5 7.835 17.5 17.5z" stroke="#404040" stroke-width="2"/><path d="m28.133 18.612c.044-.232.066-.428.076-.58a7.107 7.107 0 0 0 -.01-.747c-.231-4.055-4.439-7.285-9.593-7.285-5.306 0-9.606 3.421-9.606 7.64 0 3.877 3.633 7.08 8.34 7.574.288.03.495.29.463.577l-.2 1.803a.524.524 0 0 0 .749.53c3.976-1.92 6.354-3.895 7.774-5.605.259-.31 1.1-1.492 1.273-1.802a6.415 6.415 0 0 0 .734-2.105" fill="#404040"/><path d="m13.323 19.188v-3.218a.491.491 0 0 0 -.983 0v3.708c0 .272.22.491.492.491h1.965a.49.49 0 1 0 0-.982h-1.474zm3.031.982h-.215a.384.384 0 0 1 -.384-.384v-3.924c0-.212.172-.383.384-.383h.215c.212 0 .384.17.384.383v3.924a.384.384 0 0 1 -.384.384m3.97-4.2v2.266s-1.962-2.56-1.992-2.593a.486.486 0 0 0 -.385-.164.504.504 0 0 0 -.472.51v3.69a.491.491 0 0 0 .982 0v-2.252s1.992 2.58 2.021 2.609a.49.49 0 0 0 .333.134c.273.003.496-.238.496-.512v-3.688a.491.491 0 0 0 -.983 0m4.668 0a.491.491 0 0 0 -.491-.491h-1.966a.491.491 0 0 0 -.491.49v3.71c0 .27.22.49.49.49h1.967a.491.491 0 0 0 0-.981h-1.474v-.872h1.473a.491.491 0 0 0 0-.983h-1.474v-.872h1.474c.27 0 .49-.22.49-.491" fill="#fff"/></g></svg>