<svg height="37" viewBox="0 0 37 37" width="37" xmlns="http://www.w3.org/2000/svg"><g fill="none" fill-rule="evenodd"><path d="m-1152-337h1380v693h-1380z" fill="#fff"/><path d="m36 18.5c0 9.665-7.835 17.5-17.5 17.5s-17.5-7.835-17.5-17.5 7.835-17.5 17.5-17.5 17.5 7.835 17.5 17.5z" stroke="#404040" stroke-width="2"/><path d="m21.498 19.315-4.084 2.135a.638.638 0 0 1 -.616-.02.628.628 0 0 1 -.303-.537v-4.256a.626.626 0 0 1 .917-.556l4.085 2.12a.628.628 0 0 1 .001 1.114m6.21-6.14c-.702-.835-2-1.175-4.478-1.175h-8.993c-2.535 0-3.854.362-4.554 1.252-.683.867-.683 2.144-.683 3.913v3.37c0 3.426.81 5.165 5.237 5.165h8.993c2.149 0 3.34-.301 4.11-1.038.79-.756 1.127-1.991 1.127-4.127v-3.37c0-1.866-.053-3.151-.759-3.99" fill="#404040"/></g></svg>