<svg height="37" viewBox="0 0 37 37" width="37" xmlns="http://www.w3.org/2000/svg"><g fill="none" fill-rule="evenodd"><path d="m-974-337h1380v693h-1380z" fill="#fff"/><path d="m36 18.5c0 9.665-7.835 17.5-17.5 17.5s-17.5-7.835-17.5-17.5 7.835-17.5 17.5-17.5 17.5 7.835 17.5 17.5z" stroke="#404040" stroke-width="2"/><g fill="#404040"><path d="m24.66 15.008c-.218.217-.519.342-.828.342a1.18 1.18 0 0 1 -.827-.342 1.185 1.185 0 0 1 -.344-.828 1.176 1.176 0 0 1 1.171-1.172c.309 0 .611.124.829.343.218.217.343.52.343.829 0 .306-.125.609-.343.828m-5.661 8.63a4.643 4.643 0 0 1 -4.638-4.637 4.643 4.643 0 0 1 4.638-4.639 4.643 4.643 0 0 1 4.638 4.639 4.643 4.643 0 0 1 -4.638 4.638m4.033-13.639h-8.066a4.973 4.973 0 0 0 -4.967 4.967v8.066a4.972 4.972 0 0 0 4.967 4.967h8.066a4.973 4.973 0 0 0 4.967-4.967v-8.066a4.974 4.974 0 0 0 -4.967-4.967"/><path d="m18.5 16c-.657 0-1.303.266-1.766.731a2.515 2.515 0 0 0 -.734 1.77c0 .656.267 1.301.734 1.768a2.518 2.518 0 0 0 1.766.731c.66 0 1.303-.268 1.768-.731a2.52 2.52 0 0 0 .732-1.768c0-.66-.265-1.306-.732-1.77a2.515 2.515 0 0 0 -1.768-.731"/></g></g></svg>