<?xml version="1.0" standalone="no"?>
<!DOCTYPE svg PUBLIC "-//W3C//DTD SVG 1.1//EN" "http://www.w3.org/Graphics/SVG/1.1/DTD/svg11.dtd" >
<svg xmlns="http://www.w3.org/2000/svg" xmlns:xlink="http://www.w3.org/1999/xlink" version="1.1">
<metadata></metadata>
<defs>
<font id="superstoreregular" horiz-adv-x="0" >
<font-face units-per-em="1000" ascent="800" descent="-200" />
<missing-glyph horiz-adv-x="259" />
<glyph unicode="&#x3b;&#x3b;For&#x20;Education&#x20;Used&#x20;Only&#x3b;&#x3b;" horiz-adv-x="868" d="M434 707q74 0 139 -28t113.5 -76.5t76.5 -113.5t28 -139t-28 -139t-76.5 -113.5t-113.5 -76.5t-139 -28t-139 28t-113.5 76.5t-76.5 113.5t-28 139t28 139t76.5 113.5t113.5 76.5t139 28zM434 60q57 0 109.5 24t92.5 64t64 92.5t24 109.5t-24 109.5t-64 92.5t-92.5 64 t-109.5 24t-109.5 -24t-92.5 -64t-64 -92.5t-24 -109.5t24 -109.5t64 -92.5t92.5 -64t109.5 -24zM248 391q0 57 14.5 92t40.5 54t61 25t74 6q31 0 66.5 -3.5t83.5 -24.5l-17 -60q-35 20 -70.5 22.5t-51.5 2.5q-19 0 -42 -2t-43 -12.5t-33 -33.5t-13 -66v-87q0 -44 13 -67 t33 -33.5t43 -12.5t42 -2q16 0 51.5 3t70.5 22l17 -60q-48 -21 -83.5 -24.5t-66.5 -3.5q-39 0 -74 5.5t-61 24.5t-40.5 54t-14.5 94v87z" />
<glyph unicode="&#x3b;&#x3b;Registered&#x3b;&#x3b;" horiz-adv-x="868" d="M434 707q74 0 139 -28t113.5 -76.5t76.5 -113.5t28 -139t-28 -139t-76.5 -113.5t-113.5 -76.5t-139 -28t-139 28t-113.5 76.5t-76.5 113.5t-28 139t28 139t76.5 113.5t113.5 76.5t139 28zM434 60q57 0 109.5 24t92.5 64t64 92.5t24 109.5t-24 109.5t-64 92.5t-92.5 64 t-109.5 24t-109.5 -24t-92.5 -64t-64 -92.5t-24 -109.5t24 -109.5t64 -92.5t92.5 -64t109.5 -24zM287 564h206q54 0 80 -37t26 -101q0 -54 -18 -89t-50 -46l63 -144h-70l-61 139h-106v-139h-70v417zM357 343h123q34 0 41.5 24.5t7.5 58.5q0 32 -7.5 55.5t-41.5 23.5h-123 v-162z" />
<glyph unicode="&#x3b;&#x3b;Multiply&#x3b;&#x3b;" horiz-adv-x="581" d="M505 424l-152 -151l150 -150l-65 -64l-148 150l-153 -152l-64 63l152 153l-149 148l64 65l150 -149l151 152z" />
<glyph unicode="&#x3b;&#x3b;Divide&#x3b;&#x3b;" horiz-adv-x="673" d="M596 314v-82h-519v82h519zM284 112q0 21 15.5 37t35.5 16q21 0 37 -16t16 -37q0 -20 -16 -35t-37 -15q-20 0 -35.5 15t-15.5 35zM284 431q0 21 15.5 37t35.5 16q21 0 37 -16t16 -37q0 -19 -16 -34.5t-37 -15.5q-20 0 -35.5 15.5t-15.5 34.5z" />
<glyph unicode="&#x2018;&#x2018;" horiz-adv-x="421" d="M155 753h55l-53 -158h-80zM290 753h54l-53 -158h-80z" />
<glyph unicode="&#x2019;&#x2019;" horiz-adv-x="421" d="M132 595h-55l53 158h80zM266 595h-55l54 158h79z" />
<glyph unicode="&#x3b;&#x3b;Trademark&#x3b;&#x3b;" horiz-adv-x="960" d="M399 643h-126v-377h-70v377h-126v57h322v-57zM616 266l-104 396v-396h-70v434h122l98 -379l100 379h121v-434h-70v396l-102 -396h-95z" />
<glyph unicode="&#xe24;&#xe32;" horiz-adv-x="943" d="M279 567q81 0 126.5 -26t66.5 -59t25 -61.5t4 -34.5v-660h-91v660q0 38 -19 57.5t-42 29.5t-44.5 11.5t-25.5 1.5q-31 0 -54 -8.5t-38.5 -17.5t-22.5 -17.5l-7 -8.5v-353h60v-81h-151v462q26 39 57.5 61t61 31.5t55 11t39.5 1.5zM787 -274v663q0 31 -10 50t-25.5 29.5 t-34 14t-35.5 3.5q-10 0 -25.5 -1t-31.5 -3.5t-32 -8t-27 -17.5l-42 59q26 28 65.5 40t92.5 12q87 0 141.5 -42t54.5 -136v-663h-91z" />
<glyph unicode="&#xe26;&#xe32;" horiz-adv-x="954" d="M290 567q81 0 126.5 -26t66.5 -59t25 -61.5t4 -34.5v-660h-91v660q0 38 -18.5 57.5t-42 29.5t-45 11.5t-25.5 1.5q-31 0 -54 -8.5t-38.5 -17.5t-22.5 -17.5l-7 -8.5v-434h-147v81h56v381q27 39 58.5 61t60.5 31.5t54.5 11t39.5 1.5zM798 -274v663q0 31 -10 50t-25 29.5 t-34 14t-36 3.5q-10 0 -25.5 -1t-31.5 -3.5t-32 -8t-27 -17.5l-42 59q26 28 65.5 40t92.5 12q87 0 141.5 -42t54.5 -136v-663h-91z" />
<glyph unicode="&#xd;" horiz-adv-x="396" />
<glyph unicode=" "  horiz-adv-x="259" />
<glyph unicode="&#x09;" horiz-adv-x="259" />
<glyph unicode="&#xa0;" horiz-adv-x="259" />
<glyph unicode="!" horiz-adv-x="244" d="M84 161q0 77 -0.5 142t-1.5 128t-2.5 128t-2.5 141h91q-1 -76 -2.5 -141t-2.5 -128t-1.5 -128t-0.5 -142h-77zM70 43q0 21 15.5 37.5t34.5 16.5q21 0 37.5 -16.5t16.5 -37.5q0 -19 -16.5 -34.5t-37.5 -15.5q-19 0 -34.5 15.5t-15.5 34.5z" />
<glyph unicode="&#x22;" horiz-adv-x="380" d="M77 753h91l-18 -158h-55zM213 753h91l-18 -158h-55z" />
<glyph unicode="#" horiz-adv-x="863" d="M496 189h-250l-64 -189h-91l64 189h-78v81h105l60 175h-88v81h115l59 174h91l-59 -174h249l59 174h91l-59 -174h87v-81h-114l-60 -175h97v-81h-123l-65 -189h-91zM273 270h249l60 175h-249z" />
<glyph unicode="$" horiz-adv-x="658" d="M265 -7q-58 6 -109 24.5t-85 62.5l69 52q29 -24 60.5 -36.5t64.5 -17.5v243q-37 9 -70.5 24t-60 36t-42 51.5t-15.5 72.5q0 44 15.5 79t41.5 61t59.5 41t71.5 21v77h91v-77q50 -3 99.5 -12.5t82.5 -28.5l-40 -70q-26 13 -65.5 19.5t-76.5 8.5v-225q40 -13 80.5 -28 t73 -37.5t52 -55t19.5 -76.5q0 -59 -19 -98.5t-50.5 -63t-72 -35t-83.5 -12.5v-70h-91v70zM490 202q0 39 -39 58.5t-95 34.5v-219q25 2 48.5 10.5t42.5 24.5t31 38.5t12 52.5zM168 505q0 -29 27.5 -46.5t69.5 -32.5v196q-41 -7 -69 -35t-28 -82z" />
<glyph unicode="%" horiz-adv-x="823" d="M203 378q-53 0 -89.5 23t-36.5 82v120q0 54 38.5 79.5t87.5 25.5t87.5 -25.5t38.5 -79.5v-120q0 -59 -36.5 -82t-89.5 -23zM203 645q-20 0 -30.5 -4t-15 -10.5t-5.5 -13.5t-1 -14v-120q0 -20 6.5 -30.5t45.5 -10.5t45.5 10.5t6.5 30.5v120q0 7 -1 14t-5.5 13.5t-15 10.5 t-30.5 4zM211 0l516 700h-115l-515 -700h114zM620 0q-53 0 -89.5 23t-36.5 82v120q0 54 38.5 79.5t87.5 25.5t87.5 -25.5t38.5 -79.5v-120q0 -59 -36.5 -82t-89.5 -23zM620 267q-19 0 -29.5 -4t-15.5 -10.5t-6 -13.5t-1 -14v-120q0 -20 6.5 -30.5t45.5 -10.5t45.5 10.5 t6.5 30.5v120q0 7 -0.5 14t-5.5 13.5t-15.5 10.5t-30.5 4z" />
<glyph unicode="&#x26;" horiz-adv-x="739" d="M77 206q0 33 12 58.5t33 44.5t47.5 32t55.5 24q-22 38 -34 77.5t-12 79.5q0 46 8.5 80.5t29.5 57.5t56 35t88 12t88 -12t56 -35t29.5 -57.5t8.5 -80.5q0 -40 -16.5 -69t-44 -50t-62.5 -36.5t-70 -27.5q35 -44 82 -89.5t103 -99.5q17 26 26.5 64.5t9.5 93.5h91 q0 -77 -18 -130t-46 -90l85 -88h-102l-39 38q-45 -28 -92.5 -36.5t-88.5 -8.5q-50 0 -101 6.5t-92 28t-66 63.5t-25 115zM360 74q31 0 61 3.5t58 19.5q-56 49 -111.5 101.5t-100.5 108.5q-43 -19 -71 -42t-28 -59q0 -49 12.5 -75.5t37 -39.5t60.5 -15t82 -2zM270 522 q0 -33 10 -64t29 -63q30 10 56 21t45.5 25.5t30.5 34.5t11 46q0 32 -1.5 52.5t-10.5 31.5t-27 15.5t-52 4.5q-33 0 -51.5 -4.5t-27.5 -15.5t-10.5 -31.5t-1.5 -52.5z" />
<glyph unicode="'" horiz-adv-x="244" d="M77 753h91l-18 -158h-55z" />
<glyph unicode="(" horiz-adv-x="317" d="M150 -74q-18 45 -31.5 101.5t-22.5 115.5t-14 115t-5 100q0 42 4 97t13.5 111.5t22.5 111t33 96.5h91q-16 -43 -29 -98.5t-23 -112t-15.5 -112t-5.5 -98.5q0 -45 5.5 -100.5t15.5 -113.5t23 -114t29 -99h-91z" />
<glyph unicode=")" horiz-adv-x="317" d="M77 -74q15 43 28.5 99t23.5 114t15.5 113.5t5.5 100.5q0 43 -5.5 98.5t-15.5 112t-23.5 112t-28.5 98.5h91q18 -42 32 -96.5t23 -111t13.5 -111.5t4.5 -97q0 -44 -5 -100t-14 -115t-22.5 -115.5t-31.5 -101.5h-91z" />
<glyph unicode="*" horiz-adv-x="525" d="M288 557l114 -113l-69 -51l-70 132l-71 -132l-69 51l114 113l-160 7l17 84l150 -53l-24 158h85l-24 -158l150 53l17 -84z" />
<glyph unicode="+" horiz-adv-x="673" d="M596 232h-214v-217h-91v217h-214v82h214v217h91v-217h214v-82z" />
<glyph unicode="," horiz-adv-x="244" d="M77 81h91v-158l-91 -38v196z" />
<glyph unicode="-" horiz-adv-x="582" d="M505 314v-82h-428v82h428z" />
<glyph unicode="." horiz-adv-x="257" d="M77 43q0 21 15.5 37.5t34.5 16.5q21 0 37.5 -16.5t16.5 -37.5q0 -19 -16.5 -34.5t-37.5 -15.5q-19 0 -34.5 15.5t-15.5 34.5z" />
<glyph unicode="/" horiz-adv-x="526" d="M393 774h91l-351 -774h-91z" />
<glyph unicode="0" horiz-adv-x="646" d="M323 626q-32 0 -61.5 -3t-51.5 -15t-35.5 -35t-13.5 -63v-287q0 -51 13.5 -80.5t35.5 -44.5t51.5 -19.5t61.5 -4.5q33 0 62 4.5t51.5 19.5t36 44.5t13.5 80.5v287q0 40 -13.5 63t-36 35t-51.5 15t-62 3zM323 -7q-128 0 -190.5 52.5t-62.5 177.5v287q0 106 63 151.5 t190 45.5q128 0 191 -45.5t63 -151.5v-287q0 -125 -63 -177.5t-191 -52.5z" />
<glyph unicode="1" horiz-adv-x="411" d="M244 700h91v-700h-91v612l-152 -80l-36 74z" />
<glyph unicode="2" horiz-adv-x="595" d="M525 81v-81h-462v81q0 53 26.5 95t66.5 78t87 66.5t87 58.5t66.5 56t26.5 59v55q0 26 -11.5 41.5t-30 23.5t-43 10t-50.5 2q-25 0 -49.5 -2t-43.5 -10t-30 -23.5t-11 -41.5v-20h-91v20q0 85 61.5 121.5t163.5 36.5q103 0 164.5 -36.5t61.5 -121.5v-55q0 -45 -26.5 -82.5 t-66.5 -72t-87 -66t-87 -63t-66.5 -63t-26.5 -66.5h371z" />
<glyph unicode="3" horiz-adv-x="583" d="M207 391h84q49 0 87 25t38 78v55q0 26 -11.5 41.5t-30 23.5t-43 10t-50.5 2q-25 0 -49.5 -2t-43.5 -10t-30 -23.5t-11 -41.5v-20h-91v20q0 85 61.5 121.5t163.5 36.5q103 0 164.5 -36.5t61.5 -121.5v-55q0 -94 -62 -140q62 -39 62 -122v-54q0 -97 -61 -141t-165 -44 q-114 0 -169.5 49t-55.5 136v14h91v-14q0 -28 11 -47.5t30 -32.5t43 -18.5t50 -5.5q27 0 51 5.5t42.5 18.5t30 32.5t11.5 47.5v54q0 26 -10.5 40.5t-28 23t-40 11t-46.5 2.5h-84v82z" />
<glyph unicode="4" horiz-adv-x="578" d="M337 700h103v-427h96v-81h-96v-192h-91v192h-328v81zM349 273v301l-226 -301h226z" />
<glyph unicode="5" horiz-adv-x="597" d="M161 178q0 -28 11 -47.5t30 -32.5t43 -18.5t50 -5.5q27 0 51 5.5t42.5 18.5t30 32.5t11.5 47.5v120q0 27 -11.5 42.5t-30 23t-43 9.5t-50.5 2q-25 0 -49.5 -2t-43.5 -9.5t-30 -23t-11 -42.5h-91v402h434v-81h-343v-185q53 22 134 22q103 0 164.5 -36t61.5 -122v-120 q0 -97 -61 -141t-165 -44q-114 0 -169.5 49t-55.5 136h91z" />
<glyph unicode="6" horiz-adv-x="576" d="M288 427q103 0 164.5 -36.5t61.5 -121.5v-91q0 -97 -61 -141t-165 -44q-114 0 -169.5 49t-55.5 136v91q0 33 10 57l143 374h96l-108 -283q21 6 39.5 8t44.5 2zM423 269q0 26 -11.5 41.5t-30 23.5t-43 10t-50.5 2q-25 0 -49.5 -2t-43.5 -10t-30 -23.5t-11 -41.5v-91 q0 -28 11 -47.5t30 -32.5t43 -18.5t50 -5.5q27 0 51 5.5t42.5 18.5t30 32.5t11.5 47.5v91z" />
<glyph unicode="7" horiz-adv-x="503" d="M21 700h427v-81l-231 -619h-95l231 619h-332v81z" />
<glyph unicode="8" horiz-adv-x="604" d="M77 549q0 85 61.5 121.5t163.5 36.5q103 0 164.5 -36.5t61.5 -121.5v-55q0 -94 -62 -140q62 -39 62 -122v-54q0 -97 -61 -141t-165 -44q-114 0 -169.5 49t-55.5 136v54q0 83 60 122q-60 48 -60 140v55zM168 494q0 -28 11 -47.5t30 -32t43 -18t50 -5.5q27 0 51 5.5 t42.5 18t30 32t11.5 47.5v55q0 26 -11.5 41.5t-30 23.5t-43 10t-50.5 2q-25 0 -49.5 -2t-43.5 -10t-30 -23.5t-11 -41.5v-55zM168 178q0 -28 11 -47.5t30 -32.5t43 -18.5t50 -5.5q27 0 51 5.5t42.5 18.5t30 32.5t11.5 47.5v54q0 26 -10.5 40.5t-28 23t-40 11t-46.5 2.5h-10 q-25 0 -49.5 -2t-43.5 -9.5t-30 -23t-11 -42.5v-54z" />
<glyph unicode="9" horiz-adv-x="548" d="M260 273q-102 0 -163.5 36.5t-61.5 121.5v91q0 97 61 141t164 44q115 0 170.5 -49t55.5 -136v-91q0 -33 -10 -57l-143 -374h-96l107 283q-21 -6 -39 -8t-45 -2zM126 431q0 -26 11 -41.5t30 -23.5t43.5 -10t49.5 -2q26 0 50.5 2t43 10t30 23.5t11.5 41.5v91 q0 28 -11.5 47.5t-30 32.5t-42.5 18.5t-51 5.5q-26 0 -50 -5.5t-43 -18.5t-30 -32.5t-11 -47.5v-91z" />
<glyph unicode=":" horiz-adv-x="257" d="M77 43q0 21 15.5 37.5t34.5 16.5q21 0 37.5 -16.5t16.5 -37.5q0 -19 -16.5 -34.5t-37.5 -15.5q-19 0 -34.5 15.5t-15.5 34.5zM77 469q0 21 15.5 37t34.5 16q21 0 37.5 -16t16.5 -37q0 -20 -16.5 -35t-37.5 -15q-19 0 -34.5 15t-15.5 35z" />
<glyph unicode=";" horiz-adv-x="257" d="M77 469q0 21 15.5 37t34.5 16q21 0 37.5 -16t16.5 -37q0 -20 -16.5 -35t-37.5 -15q-19 0 -34.5 15t-15.5 35zM83 81h91v-158l-91 -38v196z" />
<glyph unicode="&#x3c;" horiz-adv-x="599" d="M77 221v100l445 211v-92l-347 -168l347 -170v-92z" />
<glyph unicode="=" horiz-adv-x="583" d="M507 395v-81h-429v81h429zM507 211v-81h-429v81h429z" />
<glyph unicode="&#x3e;" horiz-adv-x="599" d="M77 10v92l347 170l-347 168v92l445 -211v-100z" />
<glyph unicode="?" horiz-adv-x="525" d="M182 301q0 41 13.5 68t32 46t42 32.5t42 26.5t32 29t13.5 42q0 43 -34.5 62t-77.5 19q-35 0 -71.5 -5t-64.5 -19l-32 73q32 18 76 25t92 7q109 0 156 -40.5t47 -121.5q0 -55 -27.5 -83.5t-60 -51t-60 -45t-27.5 -64.5v-146h-91v146zM176 43q0 21 15.5 37.5t35.5 16.5 q21 0 37 -16.5t16 -37.5q0 -19 -16 -34.5t-37 -15.5q-20 0 -35.5 15.5t-15.5 34.5z" />
<glyph unicode="@" horiz-adv-x="785" d="M434 707q127 0 200.5 -45.5t73.5 -151.5v-510h-91v55q-15 -24 -38 -36t-47 -18.5t-43 -7t-23 -0.5q-56 0 -95 13.5t-63.5 38.5t-36 60t-11.5 78v121q0 85 59 121.5t161 36.5q3 0 19 -0.5t37 -3.5t43 -10.5t38 -20.5v83q0 40 -16.5 63t-42.5 35t-59 15t-65 3h-83 q-32 0 -65 -3t-58.5 -15t-42.5 -35t-17 -63v-328q0 -21 0.5 -40t5 -34.5t13 -24.5t23.5 -9h29v-74h-29q-49 0 -76.5 17.5t-40 44t-14.5 59t-2 61.5v328q0 106 73.5 151.5t200.5 45.5h83zM617 336q-8 15 -22 24.5t-33 13.5t-40 5.5t-42 1.5q-25 0 -49 -2t-41.5 -10t-28 -23.5 t-10.5 -41.5v-121q0 -54 32.5 -81.5t88.5 -27.5q31 0 57.5 7t46 18.5t30.5 25.5t11 28v183z" />
<glyph unicode="A" horiz-adv-x="669" d="M486 190h-303l-70 -190h-92l263 700h100l264 -700h-92zM455 272l-122 330l-120 -330h242z" />
<glyph unicode="B" horiz-adv-x="652" d="M77 700h347q86 0 122 -48.5t36 -150.5q0 -109 -42 -152q42 -44 42 -152q0 -102 -36 -149.5t-122 -47.5h-347v700zM168 619v-228h256q52 0 64.5 29t12.5 81q0 25 -2 47t-9.5 38t-23 24.5t-42.5 8.5h-256zM168 309v-228h256q27 0 42.5 8.5t23 24t9.5 37t2 46.5 q0 49 -11 79.5t-56 32.5h-266z" />
<glyph unicode="C" horiz-adv-x="669" d="M70 421q0 94 24 150t66 86t98 40t119 10q50 0 109 -5.5t134 -39.5l-28 -77q-28 16 -57.5 24t-56.5 11.5t-49.5 4.5t-35.5 1q-32 0 -72 -3.5t-75.5 -22.5t-60 -60.5t-24.5 -118.5v-142q0 -77 24.5 -118.5t60 -60.5t75.5 -22.5t72 -3.5q13 0 35.5 1t49.5 4.5t56.5 11.5 t57.5 24l28 -77q-75 -34 -134 -39.5t-109 -5.5q-63 0 -119 10t-98 40t-66 86t-24 150v142z" />
<glyph unicode="D" horiz-adv-x="680" d="M77 700h227q63 0 119 -10t98 -40t65.5 -86t23.5 -150v-128q0 -94 -23.5 -150t-65.5 -86t-98 -40t-119 -10h-227v700zM168 619v-538h119q32 0 72 3.5t75.5 22.5t60 60.5t24.5 118.5v128q0 77 -24.5 118.5t-60 60.5t-75.5 22.5t-72 3.5h-119z" />
<glyph unicode="E" horiz-adv-x="603" d="M77 700h463v-81h-372v-223h372v-81h-372v-234h372v-81h-463v700z" />
<glyph unicode="F" horiz-adv-x="571" d="M77 700h459v-81h-368v-198h325v-81h-325v-340h-91v700z" />
<glyph unicode="G" horiz-adv-x="683" d="M396 368h224v-330q-75 -34 -134 -39.5t-109 -5.5q-63 0 -119 10t-98 40t-66 86t-24 150v142q0 94 24 150t66 86t98 40t119 10q50 0 109 -5.5t134 -39.5l-28 -77q-28 16 -57.5 24t-56.5 11.5t-49.5 4.5t-35.5 1q-32 0 -72 -3.5t-75.5 -22.5t-60 -60.5t-24.5 -118.5v-142 q0 -77 24.5 -118.5t60 -60.5t75.5 -22.5t72 -3.5q20 0 57 2t79 14v197h-133v81z" />
<glyph unicode="H" horiz-adv-x="691" d="M524 315h-356v-315h-91v700h91v-304h356v304h91v-700h-91v315z" />
<glyph unicode="I" horiz-adv-x="244" d="M77 700h91v-700h-91v700z" />
<glyph unicode="J" horiz-adv-x="509" d="M349 700h91v-477q0 -76 -15.5 -121t-45 -69.5t-71 -32t-91.5 -7.5q-41 0 -88.5 4t-107.5 32l22 77q23 -12 46.5 -18.5t45.5 -9t39.5 -3.5t28.5 -1q25 0 51 2t47 16t34.5 44.5t13.5 86.5v477z" />
<glyph unicode="K" horiz-adv-x="695" d="M363 447l-195 -154v-293h-91v700h91v-301l371 301h127l-235 -199l223 -501h-94z" />
<glyph unicode="L" horiz-adv-x="555" d="M77 700h91v-619h346v-81h-437v700z" />
<glyph unicode="M" horiz-adv-x="842" d="M364 0l-196 640v-640h-91v700h162l182 -612l182 612h163v-700h-91v640l-196 -640h-115z" />
<glyph unicode="N" horiz-adv-x="719" d="M168 640v-640h-91v700h155l318 -612v612h93v-700h-139z" />
<glyph unicode="O" horiz-adv-x="688" d="M344 626q-32 0 -65 -3t-58.5 -15t-42.5 -35t-17 -63v-287q0 -51 16 -80.5t42.5 -44.5t59.5 -19.5t65 -4.5q33 0 65.5 4.5t58.5 19.5t43 44.5t17 80.5v287q0 40 -17 63t-43 35t-58.5 15t-65.5 3zM344 -7q-128 0 -201 52.5t-73 177.5v287q0 106 73.5 151.5t200.5 45.5 q128 0 201.5 -45.5t73.5 -151.5v-287q0 -63 -19 -106.5t-54.5 -71t-86 -40t-115.5 -12.5z" />
<glyph unicode="P" horiz-adv-x="609" d="M77 700h325q85 0 121.5 -59t36.5 -161t-36.5 -161t-121.5 -59h-234v-260h-91v700zM168 342h234q26 0 41.5 11.5t23.5 31.5t10 45t2 50t-2 50.5t-10 45t-23.5 31.5t-41.5 12h-234v-277z" />
<glyph unicode="Q" horiz-adv-x="690" d="M344 -7q-128 0 -201 52.5t-73 177.5v287q0 106 73.5 151.5t200.5 45.5q128 0 201.5 -45.5t73.5 -151.5v-287q0 -82 -30 -131.5t-89 -73.5q43 -39 120 -39v-81q-11 0 -38.5 7t-58 20t-58.5 32t-38 42q-20 -3 -40 -4.5t-43 -1.5zM344 626q-32 0 -65 -3t-58.5 -15t-42.5 -35 t-17 -63v-287q0 -51 16 -80.5t42.5 -44.5t59.5 -19.5t65 -4.5q33 0 65.5 4.5t58.5 19.5t43 44.5t17 80.5v287q0 40 -17 63t-43 35t-58.5 15t-65.5 3z" />
<glyph unicode="R" horiz-adv-x="625" d="M77 700h325q85 0 121.5 -59t36.5 -161q0 -82 -23 -137t-76 -74l137 -269h-91l-133 260h-206v-260h-91v700zM168 342h234q26 0 41.5 11.5t23.5 31.5t10 45t2 50t-2 50.5t-10 45t-23.5 31.5t-41.5 12h-234v-277z" />
<glyph unicode="S" horiz-adv-x="621" d="M153 505q0 -30 30.5 -48.5t76 -33t99.5 -30t99.5 -38.5t76.5 -59.5t31 -93.5q0 -62 -21 -102.5t-55.5 -64.5t-78.5 -33t-90 -9q-37 0 -74.5 3t-72.5 12.5t-65.5 26.5t-52.5 45l69 52q44 -37 93 -47.5t101 -10.5q27 0 55 8t50.5 23t36.5 39t14 58q0 35 -31 53.5 t-76.5 32.5t-99.5 27t-99.5 35t-76 58.5t-30.5 96.5q0 51 19.5 88.5t51.5 63t72.5 38t84.5 12.5q29 0 61.5 -2t64 -7t59.5 -12.5t47 -19.5l-39 -70q-18 9 -42.5 14.5t-50.5 9t-52.5 5t-47.5 1.5q-27 0 -52 -6.5t-44 -20.5t-30 -37t-11 -57z" />
<glyph unicode="T" horiz-adv-x="597" d="M559 619h-215v-619h-91v619h-214v81h520v-81z" />
<glyph unicode="U" horiz-adv-x="688" d="M619 700v-477q0 -63 -19 -106.5t-54.5 -71t-86 -40t-115.5 -12.5q-128 0 -201 52.5t-73 177.5v477h91v-477q0 -51 16 -80.5t42.5 -44.5t59.5 -19.5t65 -4.5q33 0 65.5 4.5t58.5 19.5t43 44.5t17 80.5v477h91z" />
<glyph unicode="V" horiz-adv-x="669" d="M384 0h-100l-263 700h92l220 -602l223 602h92z" />
<glyph unicode="W" horiz-adv-x="814" d="M794 700l-146 -700h-103l-138 365l-130 -365h-110l-146 700h92l119 -602l129 388h93l128 -388l119 602h93z" />
<glyph unicode="X" horiz-adv-x="656" d="M381 353l255 -353h-100l-208 283l-208 -283h-99l255 353l-255 347h108l199 -276l200 276h108z" />
<glyph unicode="Y" horiz-adv-x="665" d="M21 700h108l203 -298l204 298h108l-266 -382v-318h-91v318z" />
<glyph unicode="Z" horiz-adv-x="620" d="M63 700h493v-74l-385 -552h386v-74h-494v74l391 552h-391v74z" />
<glyph unicode="[" horiz-adv-x="308" d="M168 700v-700h63v-74h-154v848h154v-74h-63z" />
<glyph unicode="\" horiz-adv-x="526" d="M484 0h-91l-351 774h91z" />
<glyph unicode="]" horiz-adv-x="308" d="M77 700v74h154v-848h-154v74h63v700h-63z" />
<glyph unicode="^" horiz-adv-x="537" d="M461 330h-93l-99 272l-100 -272h-92l143 370h99z" />
<glyph unicode="_" horiz-adv-x="519" d="M519 -70v-67h-519v67h519z" />
<glyph unicode="`" horiz-adv-x="302" d="M80 753h91l54 -161h-54z" />
<glyph unicode="a" horiz-adv-x="586" d="M419 409q0 26 -10.5 41.5t-28 23.5t-41.5 10t-49 2t-49 -2t-41.5 -10t-28 -23.5t-10.5 -41.5v-16h-91v16q0 85 59 121.5t161 36.5t161 -36.5t59 -121.5v-409h-91v55q-17 -24 -41.5 -36t-47.5 -18.5t-41.5 -7t-22.5 -0.5q-76 0 -117 15.5t-60 40.5t-22.5 56t-3.5 63 q0 87 54.5 122t148.5 35q17 0 38 -1t42.5 -2t41 -4t31.5 -9v100zM267 74q66 0 109 23t43 56v40q0 18 -15.5 28.5t-38.5 15.5t-49 6t-49 1t-45 -3t-38.5 -11.5t-27 -22.5t-10.5 -36q0 -28 2 -47t13 -30t35.5 -15.5t70.5 -4.5z" />
<glyph unicode="b" horiz-adv-x="588" d="M168 532q17 13 38.5 20.5t42.5 10.5t37 3.5t19 0.5q102 0 161 -36.5t59 -121.5v-226q0 -86 -47.5 -138t-158.5 -52q-4 0 -23 0.5t-42.5 7t-47.5 18.5t-38 36v-55h-91v753h91v-221zM305 486q-21 0 -42 -1.5t-40 -5.5t-33 -13.5t-22 -24.5v-288q0 -14 11 -28t31 -25.5 t46.5 -18.5t57.5 -7q56 0 88 27.5t32 81.5v226q0 26 -10.5 41.5t-28 23.5t-41.5 10t-49 2z" />
<glyph unicode="c" horiz-adv-x="540" d="M63 337q0 76 19.5 121t53 69.5t78.5 32t95 7.5q41 0 88 -5t108 -31l-22 -77q-22 12 -46 18.5t-45.5 9t-40 3.5t-28.5 1q-25 0 -55 -2t-55 -16t-42 -44.5t-17 -86.5v-114q0 -56 17 -86.5t42 -44.5t55 -16t55 -2q10 0 28.5 1t40 3.5t45.5 9t46 18.5l22 -77q-30 -14 -57 -21 t-50.5 -10.5t-45.5 -4t-43 -0.5q-50 0 -95 7.5t-78.5 32t-53 69.5t-19.5 121v114z" />
<glyph unicode="d" horiz-adv-x="588" d="M420 753h91v-753h-91v55q-15 -24 -38.5 -36t-47 -18.5t-42.5 -7t-23 -0.5q-56 0 -95.5 13.5t-64 38.5t-35.5 60t-11 78v226q0 85 59 121.5t161 36.5q3 0 19 -0.5t37 -3.5t42.5 -10.5t38.5 -20.5v221zM283 486q-25 0 -49 -2t-41.5 -10t-28 -23.5t-10.5 -41.5v-226 q0 -54 32 -81.5t88 -27.5q31 0 57.5 7t46.5 18.5t31 25.5t11 28v288q-8 15 -22 24.5t-33 13.5t-40 5.5t-42 1.5z" />
<glyph unicode="e" horiz-adv-x="578" d="M519 29q-61 -28 -111.5 -32t-91.5 -4q-50 0 -96 7.5t-81 32t-55.5 69.5t-20.5 121v159q0 97 61.5 141t165.5 44q115 0 171 -49t56 -136v-122h-363v-37q0 -56 18 -86.5t45 -44.5t57.5 -16t55.5 -2q10 0 29.5 1t43 3.5t48 9t46.5 18.5zM154 342h272v40q0 28 -11.5 47.5 t-30.5 32.5t-43.5 18.5t-50.5 5.5q-27 0 -51.5 -5.5t-43.5 -18.5t-30 -32.5t-11 -47.5v-40z" />
<glyph unicode="f" horiz-adv-x="392" d="M269 689q-17 0 -27.5 -4.5t-15.5 -16t-6.5 -31.5t-1.5 -50v-27h149v-81h-149v-479h-91v479h-91v81h91v27q0 47 6 81.5t22 57t43 33.5t71 11q8 0 22 -0.5t30 -3.5t33 -9.5t31 -18.5l-34 -65q-28 12 -45.5 14t-36.5 2z" />
<glyph unicode="g" horiz-adv-x="588" d="M420 28q-17 -13 -38.5 -20.5t-42.5 -10.5t-37 -3.5t-19 -0.5q-102 0 -161 36.5t-59 121.5v226q0 85 47 137.5t159 52.5q4 0 23 -0.5t42.5 -7t47 -19t38.5 -35.5v55h91v-589q0 -76 -15.5 -121t-45 -69.5t-70.5 -32t-92 -7.5q-40 0 -87.5 4t-108.5 32l23 77 q22 -12 46 -18.5t45.5 -9t39 -3.5t28.5 -1q26 0 51.5 2t46.5 16t34.5 44.5t13.5 86.5v57zM283 74q21 0 42 1.5t40 5.5t33 13.5t22 24.5v288q0 14 -11 28t-31 25.5t-46.5 18.5t-57.5 7q-56 0 -88 -27.5t-32 -81.5v-226q0 -26 10.5 -41.5t28 -23.5t41.5 -10t49 -2z" />
<glyph unicode="h" horiz-adv-x="588" d="M434 0v370q0 54 -32 81.5t-88 27.5q-63 0 -104.5 -29t-41.5 -80v-370h-91v753h91v-269q15 28 36 43.5t43 22.5t41.5 8.5t30.5 1.5q56 0 95.5 -13.5t64 -38.5t35.5 -60t11 -78v-370h-91z" />
<glyph unicode="i" horiz-adv-x="244" d="M77 560h91v-560h-91v560zM70 707q0 21 15.5 37t34.5 16q21 0 37.5 -16t16.5 -37q0 -20 -16.5 -35t-37.5 -15q-19 0 -34.5 15t-15.5 35z" />
<glyph unicode="j" horiz-adv-x="244" d="M168 560v-641q0 -48 -6.5 -81.5t-22.5 -55t-44 -31.5t-71 -10q-27 0 -45 2t-33 7t-27.5 13.5t-24.5 20.5l43 62q24 -17 45.5 -20.5t41.5 -3.5q17 0 27.5 3.5t16 14t7.5 29.5t2 50v641h91zM70 707q0 21 15.5 37t34.5 16q21 0 37.5 -16t16.5 -37q0 -20 -16.5 -35t-37.5 -15 q-19 0 -34.5 15t-15.5 35z" />
<glyph unicode="k" horiz-adv-x="582" d="M279 328l-111 -98v-230h-91v753h91v-413l258 220h119l-202 -176l211 -384h-91z" />
<glyph unicode="l" horiz-adv-x="244" d="M77 753h91v-753h-91v753z" />
<glyph unicode="m" horiz-adv-x="824" d="M388 0v377q0 54 -19 81.5t-75 27.5q-31 0 -54.5 -10t-39 -25.5t-24 -35t-8.5 -38.5v-377h-91v560h91v-69q7 28 27.5 43.5t41.5 22.5t38.5 8.5t18.5 1.5q105 0 147 -49q11 18 33 28t44 15t39 5.5t18 0.5q56 0 92 -13.5t57 -38.5t29.5 -60t8.5 -78v-377h-91v377 q0 54 -20 81.5t-76 27.5q-12 0 -27.5 -1.5t-31 -4.5t-28 -7t-19.5 -10q10 -35 10 -86v-377h-91z" />
<glyph unicode="n" horiz-adv-x="588" d="M434 0v370q0 54 -32 81.5t-88 27.5q-63 0 -104.5 -29t-41.5 -80v-370h-91v553h91v-69q15 28 36 43.5t43 22.5t41.5 8.5t30.5 1.5q56 0 95.5 -13.5t64 -38.5t35.5 -60t11 -78v-370h-91z" />
<glyph unicode="o" horiz-adv-x="576" d="M154 178q0 -28 11 -47.5t30 -32.5t43 -18.5t50 -5.5q27 0 51 5.5t42.5 18.5t30 32.5t11.5 47.5v231q0 26 -11.5 41.5t-30 23.5t-43 10t-50.5 2q-25 0 -49.5 -2t-43.5 -10t-30 -23.5t-11 -41.5v-231zM63 409q0 85 61.5 121.5t163.5 36.5q103 0 164.5 -36.5t61.5 -121.5 v-231q0 -97 -61 -141t-165 -44q-114 0 -169.5 49t-55.5 136v231z" />
<glyph unicode="p" horiz-adv-x="588" d="M168 -259h-91v819h91v-55q14 23 38 35.5t47.5 19t42.5 7t23 0.5q56 0 95.5 -13.5t64 -38.5t35.5 -60t11 -78v-226q0 -85 -59 -121.5t-161 -36.5q-3 0 -19 0.5t-37 3.5t-42.5 10.5t-38.5 20.5v-287zM305 74q25 0 49 2t41.5 10t28 23.5t10.5 41.5v226q0 54 -32 81.5 t-88 27.5q-31 0 -57.5 -7t-46.5 -18.5t-31 -25.5t-11 -28v-288q8 -15 22 -24.5t33 -13.5t40 -5.5t42 -1.5z" />
<glyph unicode="q" horiz-adv-x="588" d="M420 28q-17 -13 -38.5 -20.5t-42.5 -10.5t-37 -3.5t-19 -0.5q-102 0 -161 36.5t-59 121.5v226q0 85 47 137.5t159 52.5q4 0 23 -0.5t42.5 -7t47 -19t38.5 -35.5v55h91v-819h-91v287zM283 74q21 0 42 1.5t40 5.5t33 13.5t22 24.5v288q0 14 -11 28t-31 25.5t-46.5 18.5 t-57.5 7q-56 0 -88 -27.5t-32 -81.5v-226q0 -26 10.5 -41.5t28 -23.5t41.5 -10t49 -2z" />
<glyph unicode="r" horiz-adv-x="329" d="M319 486q-63 0 -107 -29t-44 -80v-377h-91v560h91v-69q15 28 36 43.5t43 22.5t41.5 8.5t30.5 1.5v-81z" />
<glyph unicode="s" horiz-adv-x="480" d="M130 405q0 -26 23 -39t58 -24.5t76.5 -22.5t76.5 -30t58 -49t23 -79q0 -50 -16.5 -82.5t-44.5 -51.5t-63 -26.5t-73 -7.5q-30 0 -60 3t-58 10t-52.5 21t-42.5 36l55 57q36 -29 76 -37.5t80 -8.5q44 0 76 22t32 65q0 28 -23 43.5t-58 26t-76.5 21t-76.5 28.5t-58 47 t-23 78q0 40 15.5 70t41.5 50.5t59 31t68 10.5q23 0 49 -1.5t51.5 -5.5t47.5 -10.5t39 -14.5l-32 -73q-14 7 -33.5 11t-40.5 7t-43 4.5t-38 1.5q-44 0 -68.5 -19t-24.5 -62z" />
<glyph unicode="t" horiz-adv-x="355" d="M14 560h97v168h91v-168h123v-81h-123v-297q0 -21 0.5 -40t4.5 -34.5t12.5 -24.5t24.5 -9h81v-74h-81q-49 0 -76.5 17.5t-40 44t-14.5 59t-2 61.5v297h-97v81z" />
<glyph unicode="u" horiz-adv-x="602" d="M168 560v-377q0 -54 32 -81.5t88 -27.5q63 0 104.5 29t41.5 80v377h91v-560h-91v69q-15 -28 -36 -43.5t-43 -22.5t-41.5 -8.5t-30.5 -1.5q-56 0 -95.5 13.5t-64 38.5t-35.5 60t-11 78v377h91z" />
<glyph unicode="v" horiz-adv-x="550" d="M325 0h-100l-211 560h92l168 -462l170 462h92z" />
<glyph unicode="w" horiz-adv-x="744" d="M706 560l-107 -560h-103l-124 365l-116 -365h-110l-107 560h93l79 -462l115 388h93l114 -388l80 462h93z" />
<glyph unicode="x" horiz-adv-x="585" d="M346 280l204 -280h-108l-149 206l-150 -206h-108l203 280l-203 280h108l150 -206l149 206h108z" />
<glyph unicode="y" horiz-adv-x="564" d="M241 -259h-93l91 252l-218 567h92l168 -462l170 462h92z" />
<glyph unicode="z" horiz-adv-x="506" d="M49 560h407v-74l-299 -412h301v-74h-409v74l305 412h-305v74z" />
<glyph unicode="{" horiz-adv-x="387" d="M190 349q62 -41 62 -154v-170q0 -25 22 -25h37v-74h-91q-27 0 -43 19.5t-16 62.5v187q0 22 -1.5 43t-9 38t-25 26.5t-48.5 9.5v74q31 0 48.5 10t25 27t9 38t1.5 43v188q0 43 16 62.5t43 19.5h91v-74h-37q-22 0 -22 -25v-171q0 -115 -62 -155z" />
<glyph unicode="|" horiz-adv-x="244" d="M77 774h91v-848h-91v848z" />
<glyph unicode="}" horiz-adv-x="387" d="M197 349q-61 40 -61 155v171q0 25 -23 25h-36v74h91q27 0 43 -19.5t16 -62.5v-188q0 -22 1.5 -43t9 -38t24.5 -27t49 -10v-74q-32 0 -49 -9.5t-24.5 -26.5t-9 -38t-1.5 -43v-187q0 -43 -16 -62.5t-43 -19.5h-91v74h36q23 0 23 25v170q0 113 61 154z" />
<glyph unicode="~" horiz-adv-x="665" d="M206 363q-28 0 -47 -11.5t-43 -30.5l-39 58q31 27 61 42.5t68 15.5q35 0 65.5 -12t61.5 -26t62 -26t64 -12q28 0 47 11.5t43 30.5l39 -59q-31 -26 -61 -41.5t-68 -15.5q-32 0 -62 12t-60 26t-62.5 26t-68.5 12z" />
<glyph unicode="&#xbc;" horiz-adv-x="833" d="M526 700h77l-336 -700h-77zM179 700h65v-424h-65v362l-91 -49l-22 54zM630 424h78v-259h59v-57h-59v-108h-64v108h-206v57zM644 165v182l-136 -182h136z" />
<glyph unicode="&#xbd;" horiz-adv-x="866" d="M526 700h77l-336 -700h-77zM179 700h65v-424h-65v362l-91 -49l-22 54zM801 57v-57h-282v57q0 35 16.5 61t41 45.5t53 36t53 30.5t40.5 29t16 34v33q0 32 -25 40t-57 8q-33 0 -57.5 -8t-24.5 -40v-11h-64v11q0 52 41.5 78.5t104.5 26.5t104 -26.5t41 -78.5v-33 q0 -27 -16 -49.5t-40.5 -41.5t-52.5 -35.5t-52.5 -34t-40.5 -36t-16 -39.5h217z" />
<glyph unicode="&#xbe;" horiz-adv-x="908" d="M266 0h77l336 700h-77zM514 165v-57h206v-108h64v108h59v57h-59v259h-78zM584 165l136 182v-182h-136zM167 521h50q31 0 53.5 12.5t22.5 44.5v25q0 16 -7 25t-18.5 14t-26 6.5t-30.5 1.5q-30 0 -55.5 -8t-25.5 -39v-12h-64v12q0 52 42 78t103 26q63 0 104.5 -26t41.5 -78 v-25q0 -29 -14 -50t-32 -34q18 -11 32 -30t14 -44v-24q0 -59 -41.5 -89.5t-104.5 -30.5q-70 0 -107.5 33.5t-37.5 86.5v9h64v-9q0 -35 24.5 -49t56.5 -14q33 0 57.5 14t24.5 49v24q0 31 -23.5 36.5t-52.5 5.5h-50v59z" />
<glyph unicode="&#xbf;" horiz-adv-x="525" d="M343 259q0 -41 -13.5 -68t-32 -46t-42 -32.5t-42 -26.5t-32 -30t-13.5 -41q0 -43 34.5 -62t77.5 -19q35 0 71.5 5t64.5 19l32 -73q-32 -18 -76 -25t-92 -7q-109 0 -156 40.5t-47 121.5q0 55 27.5 83.5t60 51t60 45t27.5 64.5v146h91v-146zM349 517q0 -21 -15.5 -37.5 t-35.5 -16.5q-21 0 -37 16.5t-16 37.5q0 19 16 34.5t37 15.5q20 0 35.5 -15.5t15.5 -34.5z" />
<glyph unicode="&#xff;" horiz-adv-x="1327" />
<glyph unicode="&#xe01;" horiz-adv-x="562" d="M153 434v-434h-91v462q26 39 57.5 61t61 31.5t54.5 11t39 1.5q82 0 127.5 -26t66.5 -59t25 -61.5t4 -34.5v-386h-91v386q0 38 -19 57.5t-42 29.5t-44.5 11.5t-26.5 1.5q-30 0 -53.5 -8.5t-38.5 -17.5t-22 -17.5z" />
<glyph unicode="&#xe02;" horiz-adv-x="512" d="M256 74q38 0 59 8.5t31.5 23t12.5 33.5t2 43v378h91v-377q0 -43 -7.5 -78t-29.5 -60t-60.5 -38.5t-98.5 -13.5q-70 0 -109 17.5t-58.5 46t-24 63.5t-4.5 69v45q0 36 11.5 62t25.5 47t25 40t11 43q0 21 -0.5 33.5t-3.5 18t-9.5 7t-18.5 1.5h-48v74h48q46 0 70.5 -2 t36.5 -14.5t14 -40t2 -77.5q0 -38 -11 -61t-25 -42t-25.5 -38.5t-11.5 -50.5v-45q0 -24 2 -44t12.5 -35.5t31.5 -25.5t59 -10z" />
<glyph unicode="&#xe03;" horiz-adv-x="519" d="M459 560v-377q0 -43 -7.5 -78t-29.5 -60t-60.5 -38.5t-98.5 -13.5q-70 0 -109 17.5t-58.5 46t-24 63.5t-4.5 69v45q0 36 11.5 62t25.5 47t25 40t11 43q0 28 -0.5 39.5t-7.5 17.5l-47 -34l-78 63l46 48l32 -27q12 10 19.5 15.5t10.5 8.5l4 3q42 0 64.5 -7.5t33 -24 t12.5 -41.5t2 -61q0 -38 -11 -61t-25 -42t-25.5 -38.5t-11.5 -50.5v-45q0 -24 2 -44t12.5 -36.5t31.5 -25.5t59 -9t59 8.5t31.5 22.5t12.5 33.5t2 43.5v378h91z" />
<glyph unicode="&#xe04;" horiz-adv-x="575" d="M283 567q113 0 170 -40t57 -138v-389h-91v409q0 26 -12 41.5t-31 23.5t-43.5 10t-49.5 2t-49.5 -2t-43.5 -10t-31 -23.5t-12 -41.5v-102q20 11 48.5 12.5t55.5 1.5h61v-83h-61q-33 0 -64.5 -5t-39.5 -19v-214h-91v389q0 98 56.5 138t170.5 40z" />
<glyph unicode="&#xe05;" horiz-adv-x="575" d="M374 559q64 -13 100 -53.5t36 -116.5v-389h-91v409q0 28 -13 44t-32 23l-91 -35l-91 35q-20 -7 -32.5 -23t-12.5 -44v-102q20 11 48.5 12.5t55.5 1.5h61v-83h-61q-33 0 -64.5 -5t-39.5 -19v-213h-91v388q0 76 35.5 116.5t100.5 53.5l91 -42l91 42v0z" />
<glyph unicode="&#xe06;" horiz-adv-x="574" d="M133 426q0 28 -0.5 39.5t-7.5 17.5l-47 -34l-78 63l46 48l32 -27q12 10 19.5 15.5t10.5 8.5l4 3q42 0 64.5 -7.5t33 -24t12.5 -41.5t2 -61q0 -38 -11 -61t-25 -42t-25.5 -38.5t-11.5 -50.5v-51q0 -51 41.5 -80t104.5 -29q56 0 88 27.5t32 81.5v377h91v-377 q0 -86 -47.5 -138t-158.5 -52q-11 0 -30.5 1.5t-41 8.5t-42.5 22.5t-37 43.5v-69h-91v234q0 36 11.5 62t25.5 47t25 40t11 43z" />
<glyph unicode="&#xe07;" horiz-adv-x="413" d="M190 560h157v-419q0 -71 -42 -109.5t-130 -38.5q-56 0 -101 17.5t-67 46.5l56 59q27 -24 58.5 -33t53.5 -9q35 0 58 15.5t23 51.5v345h-66v74z" />
<glyph unicode="&#xe08;" horiz-adv-x="526" d="M379 409q0 26 -10.5 41.5t-28 23.5t-41 10t-48.5 2q-26 0 -49.5 -2t-41 -10t-28 -23.5t-10.5 -41.5v-28h-91v28q0 85 58.5 121.5t161.5 36.5q102 0 160.5 -36.5t58.5 -121.5v-248q0 -70 -39 -115.5t-106 -45.5h-139l-38 190h-57v75h139l32 -184h61q37 3 45.5 25.5 t10.5 54.5v248z" />
<glyph unicode="&#xe09;" horiz-adv-x="557" d="M400 409q0 26 -10.5 41.5t-28 23.5t-41 10t-48.5 2q-26 0 -49.5 -2t-41 -10t-28 -23.5t-10.5 -41.5v-28h-91v28q0 85 58.5 121.5t161.5 36.5q102 0 160.5 -36.5t58.5 -121.5v-409h-91v69q-8 -28 -27 -43.5t-40 -22.5t-40.5 -8.5t-27.5 -1.5q-56 0 -90.5 13.5t-53.5 38.5 t-26 60t-7 78v7h-39v75h130v-82q0 -54 17.5 -81.5t73.5 -27.5q63 0 96.5 29t33.5 80v226z" />
<glyph unicode="&#xe0a;" horiz-adv-x="518" d="M452 183q0 -43 -7.5 -78t-29.5 -60t-60.5 -38.5t-98.5 -13.5q-70 0 -109 17.5t-58.5 46t-24 63.5t-4.5 69v45q0 36 11.5 62t25.5 47t25 40t11 43q0 21 -0.5 33.5t-3.5 18t-9.5 7t-18.5 1.5h-48v74h48q46 0 70.5 -2t36.5 -14.5t14 -40t2 -77.5q0 -38 -11 -61t-25 -42 t-25.5 -38.5t-11.5 -50.5v-45q0 -24 2 -44t12.5 -36.5t31.5 -25.5t59 -9t59 8.5t31.5 22.5t12.5 33.5t2 43.5v132q0 39 -23.5 56.5t-65.5 17.5h-10v78h14q39 0 65 26.5t26 67.5h91q0 -21 -6.5 -42.5t-17.5 -40.5t-28 -34t-39 -19q45 -19 65 -47t20 -63v-131z" />
<glyph unicode="&#xe0b;" horiz-adv-x="525" d="M140 426q0 28 -0.5 39.5t-7.5 17.5l-47 -34l-78 63l46 48l32 -27q12 10 19.5 15.5t10.5 8.5l4 3q42 0 64.5 -7.5t33 -24t12.5 -41.5t2 -61q0 -38 -11 -61t-25 -42t-25.5 -38.5t-11.5 -50.5v-45q0 -24 2 -44t12.5 -36.5t31.5 -25.5t59 -9t59 8.5t31.5 22.5t12.5 33.5 t2 43.5v132q0 39 -23.5 56.5t-65.5 17.5h-10v78h14q39 0 65 26.5t26 67.5h91q0 -21 -6.5 -42.5t-17.5 -40.5t-28 -34t-39 -19q45 -19 65 -47t20 -63v-131q0 -43 -7.5 -78t-29.5 -60t-60.5 -38.5t-98.5 -13.5q-70 0 -109 17.5t-58.5 46t-24 63.5t-4.5 69v45q0 36 11.5 62 t25.5 47t25 40t11 43z" />
<glyph unicode="&#xe0c;" horiz-adv-x="873" d="M808 560v-377q0 -86 -39.5 -138t-130.5 -52q-11 0 -28.5 1.5t-37 8.5t-40 22.5t-35.5 43.5v-69h-91v386q0 38 -19 57.5t-42 29.5t-44.5 11.5t-26.5 1.5q-30 0 -53.5 -8.5t-38.5 -17.5t-22 -17.5l-7 -8.5v-353h60v-81h-151v462q26 39 57.5 61t61 31.5t54.5 11t39 1.5 q82 0 127.5 -26t66.5 -59t25 -61.5t4 -34.5v-203q0 -51 28 -80t91 -29q56 0 78.5 27.5t22.5 81.5v377h91z" />
<glyph unicode="&#xe0d;" horiz-adv-x="873" d="M808 560v-545q0 -98 -52 -137.5t-154 -39.5q-17 0 -37 0.5t-41 2.5t-39.5 5.5t-30.5 7.5l23 77q9 -4 25 -6t34 -3.5t35.5 -2t30.5 -0.5q25 0 47 2t36.5 9.5t23 23t8.5 42.5v73q-16 -28 -36 -43.5t-40.5 -22.5t-38 -8.5t-27.5 -1.5q-91 0 -130 52t-39 138v203 q0 38 -19 57.5t-42 29.5t-44.5 11.5t-26.5 1.5q-30 0 -53.5 -8.5t-38.5 -17.5t-22 -17.5l-7 -8.5v-353h60v-81h-151v462q26 39 57.5 61t61 31.5t54.5 11t39 1.5q82 0 127.5 -26t66.5 -59t25 -61.5t4 -34.5v-203q0 -54 22.5 -81.5t78.5 -27.5q63 0 91 29t28 80v377h91z" />
<glyph unicode="&#xe0e;" horiz-adv-x="578" d="M512 -98q0 -13 -4 -42t-24.5 -58.5t-61.5 -52.5t-117 -23h-228v82h230q4 0 23 1.5t39 11.5t36 29.5t16 57.5v478q0 38 -18.5 57.5t-42 29.5t-45 11.5t-25.5 1.5q-31 0 -54 -8.5t-38.5 -17.5t-22.5 -17.5l-7 -8.5v-434h-147v81h56v381q27 39 58.5 61t60.5 31.5t54.5 11 t39.5 1.5q81 0 126.5 -26t66.5 -59t25 -61.5t4 -34.5v-484z" />
<glyph unicode="&#xe0f;" horiz-adv-x="578" d="M290 567q81 0 126.5 -26t66.5 -59t25 -61.5t4 -34.5v-491q0 -76 -35.5 -116.5t-99.5 -52.5l-84 42l-84 -42h-132v82h132l84 35l84 -35q19 7 31.5 23t12.5 44v511q0 38 -18.5 57.5t-42 29.5t-45 11.5t-25.5 1.5q-31 0 -54 -8.5t-38.5 -17.5t-22.5 -17.5l-7 -8.5v-434h-147 v81h56v381q27 39 58.5 61t60.5 31.5t54.5 11t39.5 1.5z" />
<glyph unicode="&#xe10;" horiz-adv-x="526" d="M470 -24v-14q0 -75 -35 -100.5t-100 -25.5h-226v83h226q21 0 32.5 7.5t11.5 35.5v14h91zM379 409q0 26 -10.5 41.5t-28 23.5t-41 10t-48.5 2q-26 0 -49.5 -2t-41 -10t-28 -23.5t-10.5 -41.5v-28h-91v28q0 85 58.5 121.5t161.5 36.5h23l175 49l21 -67l-63 -17 q63 -39 63 -123v-248q0 -70 -39 -115.5t-106 -45.5h-139l-38 190h-57v75h139l32 -184h61q37 3 45.5 25.5t10.5 54.5v248z" />
<glyph unicode="&#xe11;" horiz-adv-x="588" d="M74 224q0 63 11.5 112.5t30.5 89.5q0 28 -0.5 39.5t-7.5 17.5l-46 -34l-79 63l46 48l33 -27q11 10 18.5 15t10.5 8l4 3q27 0 47 -1t33.5 -7t20 -19t6.5 -36q11 23 28.5 37t37.5 22t41 10t38 2q56 0 90.5 -13.5t53.5 -38.5t25 -60t6 -78v-377h-91v377q0 54 -19 81.5 t-75 27.5q-33 0 -64 -17t-54.5 -50t-38.5 -82t-15 -113v-224h-91v224z" />
<glyph unicode="&#xe12;" horiz-adv-x="872" d="M56 389q0 76 35.5 116.5t100.5 53.5l84 -42l84 42q64 -13 100 -53.5t36 -116.5v-206q0 -51 28 -80t91 -29q56 0 78 27.5t22 81.5v377h91v-377q0 -86 -39 -138t-130 -52q-11 0 -28.5 1.5t-37 8.5t-40 22.5t-35.5 43.5v-69h-91v409q0 28 -13 44t-32 23l-84 -35l-84 35 q-20 -7 -32.5 -23t-12.5 -44v-227q0 -21 1.5 -39t7 -31.5t18 -22t35.5 -8.5h33v-81h-53q-49 0 -76.5 17.5t-40 44t-14.5 59t-2 61.5v207z" />
<glyph unicode="&#xe13;" horiz-adv-x="873" d="M808 560v-560h-91v69q-16 -28 -36 -43.5t-40.5 -22.5t-38 -8.5t-27.5 -1.5q-91 0 -130 52t-39 138v203q0 38 -19 57.5t-42 29.5t-44.5 11.5t-26.5 1.5q-30 0 -53.5 -8.5t-38.5 -17.5t-22 -17.5l-7 -8.5v-353h60v-81h-151v462q26 39 57.5 61t61 31.5t54.5 11t39 1.5 q82 0 127.5 -26t66.5 -59t25 -61.5t4 -34.5v-203q0 -54 22.5 -81.5t78.5 -27.5q63 0 91 29t28 80v377h91z" />
<glyph unicode="&#xe14;" horiz-adv-x="575" d="M56 389q0 98 56.5 138t170.5 40q113 0 170 -40t57 -138v-389h-91v409q0 26 -12 41.5t-31 23.5t-43.5 10t-49.5 2t-49.5 -2t-43.5 -10t-31 -23.5t-12 -41.5v-227q0 -21 1.5 -39t7 -31.5t18 -22t35.5 -8.5h33v-81h-53q-49 0 -76.5 17.5t-40 44t-14.5 59t-2 61.5v207z" />
<glyph unicode="&#xe15;" horiz-adv-x="575" d="M374 559q64 -13 100 -53.5t36 -116.5v-389h-91v409q0 28 -13 44t-32 23l-91 -35l-91 35q-20 -7 -32.5 -23t-12.5 -44v-227q0 -21 1.5 -39t7 -31.5t18 -22t35.5 -8.5h33v-81h-53q-49 0 -76.5 17.5t-40 44t-14.5 59t-2 61.5v207q0 76 35.5 116.5t100.5 53.5l91 -42l91 42v0 z" />
<glyph unicode="&#xe16;" horiz-adv-x="562" d="M274 567q82 0 127.5 -26t66.5 -59t25 -61.5t4 -34.5v-386h-91v386q0 38 -19 57.5t-42 29.5t-44.5 11.5t-26.5 1.5q-30 0 -53.5 -8.5t-38.5 -17.5t-22 -17.5l-7 -8.5v-353h60v-81h-151v462q26 39 57.5 61t61 31.5t54.5 11t39 1.5z" />
<glyph unicode="&#xe17;" horiz-adv-x="579" d="M423 0v377q0 54 -32.5 81.5t-88.5 27.5q-63 0 -104 -29t-41 -80v-377h-91v560h91v-69q15 28 36 43.5t43 22.5t41.5 8.5t30.5 1.5q56 0 95 -13.5t63.5 -38.5t36 -60t11.5 -78v-377h-91z" />
<glyph unicode="&#xe18;" horiz-adv-x="484" d="M232 567q24 0 51.5 -1.5t54 -5.5t50.5 -10.5t40 -14.5l-32 -73q-14 7 -35 11t-43.5 7t-44.5 4.5t-41 1.5q-43 0 -70.5 -13.5t-27.5 -56.5q0 -20 23.5 -32t58.5 -22.5t76 -21t76 -27t58 -42t23 -62.5v-70q0 -42 -16 -70t-42.5 -45t-61 -24t-71.5 -7q-30 0 -60.5 3 t-59.5 10t-53.5 21t-42.5 36v179h91v-147q25 -12 58.5 -16.5t64.5 -4.5q44 0 73 10.5t29 54.5v77q0 12 -23 22t-58 19t-76 21t-76 30t-58.5 44t-23.5 64q0 40 17 69t43.5 47t60 26.5t68.5 8.5z" />
<glyph unicode="&#xe19;" horiz-adv-x="569" d="M147 560v-377q0 -54 32 -81.5t88 -27.5q63 0 104.5 29t41.5 80v377h91v-560h-91v69q-15 -28 -36 -43.5t-43 -22.5t-41.5 -8.5t-30.5 -1.5q-56 0 -95.5 13.5t-64 38.5t-35.5 60t-11 78v377h91z" />
<glyph unicode="&#xe1a;" horiz-adv-x="557" d="M491 560v-378q0 -27 -4 -59.5t-25 -61.5t-66 -48.5t-126 -19.5q-82 0 -127 19.5t-66 48.5t-24.5 61.5t-3.5 59.5v378h91v-378q0 -21 5.5 -40.5t20.5 -34.5t40 -24t64 -9q27 0 50.5 3.5t42 15t28 32.5t9.5 57v378h91z" />
<glyph unicode="&#xe1b;" horiz-adv-x="557" d="M491 742v-560q0 -27 -4 -59.5t-25 -61.5t-66 -48.5t-126 -19.5q-82 0 -127 19.5t-66 48.5t-24.5 61.5t-3.5 59.5v378h91v-378q0 -21 5.5 -40.5t20.5 -34.5t40 -24t64 -9q27 0 50.5 3.5t42 15t28 32.5t9.5 57v560h91z" />
<glyph unicode="&#xe1c;" horiz-adv-x="655" d="M589 560v-414q0 -54 -14 -84.5t-36 -46t-50 -19t-58 -3.5q-25 3 -46 8q-18 6 -34 16t-23 28q-7 -18 -24 -28t-35 -16q-21 -5 -45 -8q-29 0 -57 3.5t-50.5 19t-36.5 46t-14 84.5v414h180v-74h-89v-340q0 -42 17.5 -57t49.5 -15q38 0 48.5 21t10.5 51v232h89v-232 q0 -30 10.5 -51t48.5 -21q32 0 49.5 15t17.5 57v414h91z" />
<glyph unicode="&#xe1d;" horiz-adv-x="655" d="M589 742v-596q0 -54 -14 -84.5t-36 -46t-50 -19t-58 -3.5q-25 3 -46 8q-18 6 -34 16t-23 28q-7 -18 -24 -28t-35 -16q-21 -5 -45 -8q-29 0 -57 3.5t-50.5 19t-36.5 46t-14 84.5v414h180v-74h-89v-340q0 -42 17.5 -57t49.5 -15q38 0 48.5 21t10.5 51v232h89v-232 q0 -30 10.5 -51t48.5 -21q32 0 49.5 15t17.5 57v596h91z" />
<glyph unicode="&#xe1e;" horiz-adv-x="674" d="M609 560v-414q0 -54 -14 -84.5t-36.5 -46t-50.5 -19t-57 -3.5q-27 3 -51 8q-19 6 -37.5 16t-25.5 28q-7 -18 -25 -28t-38 -16q-23 -5 -50 -8q-29 0 -57 3.5t-50.5 19t-36.5 46t-14 84.5v414h91v-414q0 -42 17.5 -57t49.5 -15q38 0 53.5 21t15.5 51v364h89v-364 q0 -30 15.5 -51t53.5 -21q32 0 49.5 15t17.5 57v414h91z" />
<glyph unicode="&#xe1f;" horiz-adv-x="674" d="M609 742v-596q0 -54 -14 -84.5t-36.5 -46t-50.5 -19t-57 -3.5q-27 3 -51 8q-19 6 -37.5 16t-25.5 28q-7 -18 -25 -28t-38 -16q-23 -5 -50 -8q-29 0 -57 3.5t-50.5 19t-36.5 46t-14 84.5v414h91v-414q0 -42 17.5 -57t49.5 -15q38 0 53.5 21t15.5 51v364h89v-364 q0 -30 15.5 -51t53.5 -21q32 0 49.5 15t17.5 57v596h91z" />
<glyph unicode="&#xe20;" horiz-adv-x="578" d="M290 567q81 0 126.5 -26t66.5 -59t25 -61.5t4 -34.5v-386h-91v386q0 38 -18.5 57.5t-42 29.5t-45 11.5t-25.5 1.5q-31 0 -54 -8.5t-38.5 -17.5t-22.5 -17.5l-7 -8.5v-434h-147v81h56v381q27 39 58.5 61t60.5 31.5t54.5 11t39.5 1.5z" />
<glyph unicode="&#xe21;" horiz-adv-x="579" d="M514 560v-377q0 -86 -47.5 -138t-158.5 -52q-11 0 -30.5 1.5t-41.5 8.5t-43 22.5t-36 43.5v-69h-91v560h91v-377q0 -51 41 -80t104 -29q56 0 88.5 27.5t32.5 81.5v377h91z" />
<glyph unicode="&#xe22;" horiz-adv-x="576" d="M511 560v-406q0 -35 -12.5 -64.5t-33.5 -51t-50 -33.5t-62 -12h-139q-46 0 -77.5 13.5t-50.5 36.5t-27.5 55t-8.5 69q0 35 20.5 69t65.5 54q-45 10 -68 45.5t-23 76.5q0 67 35.5 107.5t101.5 40.5h111v-74h-59q-53 0 -75.5 -12.5t-22.5 -61.5q0 -44 27 -62t64 -18h66v-79 h-62q-42 0 -66 -23.5t-24 -62.5q0 -19 2.5 -35.5t10 -29t23 -20.5t43.5 -8h131q37 3 51.5 25.5t17.5 54.5v406h91z" />
<glyph unicode="&#xe23;" horiz-adv-x="467" d="M136 405q0 -26 21.5 -39t54 -24.5t69.5 -22.5t69 -30t54 -49t22 -79q0 -42 -17 -73.5t-45 -52.5t-63 -31.5t-73 -10.5q-59 0 -111.5 12.5t-88.5 57.5l55 57q36 -29 69.5 -37.5t74.5 -8.5q43 0 75.5 22t32.5 65q0 28 -22 43.5t-54 26t-69 21t-69.5 28.5t-54 47t-21.5 78 q0 40 15.5 70t41 50.5t58.5 31t68 10.5q48 0 95.5 -7t79.5 -25l-32 -73q-28 14 -68 19t-75 5q-43 0 -67.5 -19t-24.5 -62z" />
<glyph unicode="&#xe24;" horiz-adv-x="562" d="M274 567q82 0 127.5 -26t66.5 -59t25 -61.5t4 -34.5v-660h-91v660q0 38 -19 57.5t-42 29.5t-44.5 11.5t-26.5 1.5q-30 0 -53.5 -8.5t-38.5 -17.5t-22 -17.5l-7 -8.5v-353h60v-81h-151v462q26 39 57.5 61t61 31.5t54.5 11t39 1.5z" />
<glyph unicode="&#xe25;" horiz-adv-x="554" d="M42 168q0 87 54.5 122t148.5 35q17 0 38 -1t42.5 -2t41 -4t31.5 -9v100q0 26 -10.5 41.5t-28 23.5t-41.5 10t-49 2t-49 -2t-41.5 -10t-28 -23.5t-10.5 -41.5v-28h-91v28q0 85 59 121.5t161 36.5t161 -36.5t59 -121.5v-409h-91v193q0 18 -15.5 28.5t-38.5 15.5t-49 6 t-49 1t-45 -3t-38.5 -11.5t-27 -22.5t-10.5 -36q0 -28 1 -45.5t11 -27.5t30.5 -13.5t57.5 -3.5h20v-81h-46q-59 0 -90.5 14.5t-46 38t-17.5 53.5t-3 62z" />
<glyph unicode="&#xe26;" horiz-adv-x="578" d="M290 567q81 0 126.5 -26t66.5 -59t25 -61.5t4 -34.5v-660h-91v660q0 38 -18.5 57.5t-42 29.5t-45 11.5t-25.5 1.5q-31 0 -54 -8.5t-38.5 -17.5t-22.5 -17.5l-7 -8.5v-434h-147v81h56v381q27 39 58.5 61t60.5 31.5t54.5 11t39.5 1.5z" />
<glyph unicode="&#xe27;" horiz-adv-x="494" d="M337 409q0 26 -8 41.5t-23 23.5t-36.5 10t-46.5 2q-52 0 -78 -12.5t-26 -64.5v-28h-91v28q0 85 46 121.5t149 36.5q102 0 153.5 -36.5t51.5 -121.5v-234q0 -98 -46 -140t-148 -42q-9 0 -25.5 0.5t-36 3t-40 7t-35.5 13.5l29 71q14 -5 31 -8t31.5 -4.5t27 -1.5h18.5 q25 0 44.5 3t33 11.5t19.5 24.5t6 42v254z" />
<glyph unicode="&#xe28;" horiz-adv-x="575" d="M283 567h14t14 -1l178 50l21 -67l-65 -17q65 -42 65 -143v-389h-91v409q0 26 -12 41.5t-31 23.5t-43.5 10t-49.5 2t-49.5 -2t-43.5 -10t-31 -23.5t-12 -41.5v-102q20 11 48.5 12.5t55.5 1.5h61v-83h-61q-33 0 -64.5 -5t-39.5 -19v-214h-91v389q0 98 56.5 138t170.5 40z " />
<glyph unicode="&#xe29;" horiz-adv-x="567" d="M539 356v-82h-48v-92q0 -6 -4 -36t-25 -64t-66 -61.5t-126 -27.5q-54 0 -92 12.5t-62.5 33t-38 43.5t-19.5 44t-7.5 36.5t-1.5 19.5v378h91v-378q0 -21 5.5 -40.5t20.5 -34.5t40 -24t64 -9q27 0 50.5 3.5t42 15t28 32.5t9.5 57v92h-161v38v86h91v-42h70v204h91v-204h48z " />
<glyph unicode="&#xe2a;" horiz-adv-x="554" d="M398 409q0 26 -10.5 41.5t-28 23.5t-41.5 10t-49 2t-49 -2t-41.5 -10t-28 -23.5t-10.5 -41.5v-28h-91v28q0 85 59 121.5t161 36.5h24l175 49l21 -67l-63 -17q63 -39 63 -123v-409h-91v193q0 18 -15.5 28.5t-38.5 15.5t-49 6t-49 1t-45 -3t-38.5 -11.5t-27 -22.5 t-10.5 -36q0 -28 1 -45.5t11 -27.5t30.5 -13.5t57.5 -3.5h20v-81h-46q-59 0 -90.5 14.5t-46 38t-17.5 53.5t-3 62q0 87 54.5 122t148.5 35q17 0 38 -1t42.5 -2t41 -4t31.5 -9v100z" />
<glyph unicode="&#xe2b;" horiz-adv-x="571" d="M66 560h91v-143h201q30 0 43 22t13 47v74h91v-74q0 -28 -11 -60.5t-32 -48.5q27 -24 35 -65.5t8 -73.5v-238h-91v238q0 14 -2.5 31.5t-9 32t-17 24.5t-27.5 10h-201v-336h-91v560z" />
<glyph unicode="&#xe2c;" horiz-adv-x="680" d="M609 146q0 -54 -14 -84.5t-36.5 -46t-50.5 -19t-57 -3.5q-27 3 -51 8q-19 6 -37.5 16t-25.5 28q-7 -18 -25 -28t-38 -16q-23 -5 -50 -8q-29 0 -57 3.5t-50.5 19t-36.5 46t-14 84.5v414h91v-414q0 -42 17.5 -57t49.5 -15q38 0 53.5 21t15.5 51v291h89v-291q0 -30 15.5 -51 t53.5 -21q32 0 49.5 15t17.5 57v350q0 39 -24 56.5t-66 17.5h-9v78h14q39 0 65 26.5t26 67.5h91q0 -21 -6.5 -42.5t-17.5 -40.5t-28 -34t-39 -19q44 -19 64.5 -47t20.5 -63v-350z" />
<glyph unicode="&#xe2d;" horiz-adv-x="547" d="M491 178q0 -97 -58 -141t-161 -44q-115 0 -167.5 49t-52.5 136v122h157v-82h-66v-40q0 -28 10.5 -47.5t28 -32.5t40.5 -18.5t50 -5.5q26 0 49 5.5t40.5 18.5t28 32.5t10.5 47.5v231q0 26 -10.5 41.5t-28 23.5t-41 10t-48.5 2q-26 0 -49.5 -2t-41 -10t-28 -23.5 t-10.5 -41.5v-41h-91v41q0 85 58.5 121.5t161.5 36.5q102 0 160.5 -36.5t58.5 -121.5v-231z" />
<glyph unicode="&#xe2e;" horiz-adv-x="547" d="M430 532q61 -39 61 -123v-231q0 -97 -58 -141t-161 -44q-115 0 -167.5 49t-52.5 136v122h157v-82h-66v-40q0 -28 10.5 -47.5t28 -32.5t40.5 -18.5t50 -5.5q26 0 49 5.5t40.5 18.5t28 32.5t10.5 47.5v231q0 26 -10.5 41.5t-28 23.5t-41 10t-48.5 2q-26 0 -49.5 -2t-41 -10 t-28 -23.5t-10.5 -41.5v-41h-91v41q0 85 58.5 121.5t161.5 36.5h23l177 49l21 -67l-63 -17v0z" />
<glyph unicode="&#xe2f;" horiz-adv-x="478" d="M322 361q-25 -15 -49 -20.5t-56 -5.5q-60 0 -98.5 13t-60.5 38.5t-29.5 60.5t-7.5 78v35h91v-36q0 -24 2 -43.5t12.5 -33.5t31.5 -22.5t59 -8.5t59 9t31.5 25t12.5 36.5t2 44.5v29h91v-651h-91v452z" />
<glyph unicode="&#xe30;" horiz-adv-x="336" d="M154 476v-42h120v-81h-175q-36 3 -36 38v85h91zM154 228v-42h120v-81h-175q-36 3 -36 38v85h91z" />
<glyph unicode="&#xe31;" d="M-350 679v137h91v-63h262v-74h-353z" />
<glyph unicode="&#xe32;" horiz-adv-x="420" d="M263 0v389q0 31 -9.5 50t-25 29.5t-34.5 14t-36 3.5q-10 0 -25 -1t-31.5 -3.5t-32.5 -8t-27 -17.5l-42 59q27 28 66 40t92 12q87 0 141.5 -42t54.5 -136v-389h-91z" />
<glyph unicode="&#xe33;" horiz-adv-x="420" d="M-162 837q40 0 68 -28.5t28 -69.5q0 -39 -28 -67t-68 -28q-41 0 -68.5 28t-27.5 67q0 41 27.5 69.5t68.5 28.5zM-162 708q14 0 22 9.5t8 21.5q0 14 -8 23t-22 9q-13 0 -22 -9t-9 -23q0 -12 9 -21.5t22 -9.5zM263 0v389q0 31 -9.5 50t-25 29.5t-34.5 14t-36 3.5 q-10 0 -25 -1t-31.5 -3.5t-32.5 -8t-27 -17.5l-42 59q27 28 66 40t92 12q87 0 141.5 -42t54.5 -136v-389h-91z" />
<glyph unicode="&#xe34;" d="M-476 753h410v-74h-410v74z" />
<glyph unicode="&#xe35;" d="M-476 679v74h319v63h91v-137h-410z" />
<glyph unicode="&#xe36;" d="M-151 844q35 0 60 -25t25 -60q0 -37 -25 -58.5t-62 -21.5h-323v74h238v6q0 35 25 60t62 25zM-151 727q12 0 21.5 9t9.5 23q0 12 -9.5 21.5t-21.5 9.5q-14 0 -23 -9.5t-9 -21.5q0 -14 9 -23t23 -9z" />
<glyph unicode="&#xe37;" d="M-476 679v74h164v63h91v-63h64v63h91v-137h-410z" />
<glyph unicode="&#xe38;" d="M-140 -248v90h-45v67h119v-157h-74z" />
<glyph unicode="&#xe39;" d="M-66 -158q0 -27 -1.5 -48.5t-12 -37t-32 -24t-60.5 -8.5q-41 0 -62 8.5t-31.5 24t-12 37t-1.5 48.5h-32v67h107v-74q0 -31 4 -36.5t28 -5.5t28 5.5t4 36.5v74h74v-67z" />
<glyph unicode="&#xe3a;" d="M-118 -91q20 0 36 -15.5t16 -36.5q0 -19 -16 -34.5t-36 -15.5q-19 0 -34.5 15.5t-15.5 34.5q0 21 15.5 36.5t34.5 15.5z" />
<glyph unicode="&#xe3b;" />
<glyph unicode="&#xe3c;" />
<glyph unicode="&#xe3d;" />
<glyph unicode="&#xe3e;" />
<glyph unicode="&#xe3f;" horiz-adv-x="652" d="M77 700h188v84h91v-84h68q86 0 122 -48.5t36 -150.5q0 -109 -42 -152q42 -44 42 -152q0 -102 -36 -149.5t-122 -47.5h-68v-77h-91v77h-188v700zM356 619v-228h68q52 0 64.5 29t12.5 81q0 25 -2 47t-9.5 38t-23 24.5t-42.5 8.5h-68zM356 309v-228h68q27 0 42.5 8.5t23 24 t9.5 37t2 46.5q0 49 -11 79.5t-56 32.5h-78zM168 81h97v228h-97v-228zM168 391h97v228h-97v-228z" />
<glyph unicode="&#xe40;" horiz-adv-x="222" d="M66 560h91v-560h-91v560z" />
<glyph unicode="&#xe41;" horiz-adv-x="450" d="M70 560h91v-560h-91v560zM294 560h91v-560h-91v560z" />
<glyph unicode="&#xe42;" horiz-adv-x="250" d="M90 568q0 31 -14 50t-31 36.5t-31 40t-14 60.5q0 18 2 38t14 37t36.5 28t70.5 11h189v-81h-189q-24 0 -28 -15.5t-4 -24.5q0 -24 14 -41t31 -36t31 -42.5t14 -60.5v-568h-91v568z" />
<glyph unicode="&#xe43;" horiz-adv-x="250" d="M232 745q0 -39 -8 -63t-17.5 -43.5t-17.5 -40t-8 -51.5v-547h-91v547q0 37 8 63.5t18 49t18.5 42t8.5 43.5q-4 19 -17 31t-41 12q-19 0 -38 -7.5t-43 -30.5l-56 59q23 30 58.5 45t78.5 15q38 0 65.5 -10.5t45.5 -28.5t27 -40.5t9 -44.5z" />
<glyph unicode="&#xe44;" horiz-adv-x="250" d="M181 0h-91v568q0 37 14 60.5t30.5 42.5t30.5 36t14 41q0 9 -4 24.5t-28 15.5h-192v81h192q46 0 70.5 -11t36.5 -28t14 -37t2 -38q0 -38 -14 -60.5t-30.5 -40t-30.5 -36.5t-14 -50v-568z" />
<glyph unicode="&#xe45;" horiz-adv-x="420" d="M263 -274v663q0 31 -9.5 50t-25 29.5t-34.5 14t-36 3.5q-10 0 -25 -1t-31.5 -3.5t-32.5 -8t-27 -17.5l-42 59q27 28 66 40t92 12q87 0 141.5 -42t54.5 -136v-663h-91z" />
<glyph unicode="&#xe46;" horiz-adv-x="510" d="M55 398q0 75 28.5 115.5t92.5 53.5l70 -42l70 42q65 -13 97 -53.5t32 -115.5v-489h-91v508q0 53 -38 67l-70 -35l-70 35q-19 -7 -24.5 -23t-5.5 -44v-22h67v-76h-158v79z" />
<glyph unicode="&#xe47;" d="M-330 805q0 -28 5.5 -36.5t24.5 -15.5l61 35l60 -35q19 7 25 22t6 43h82q-3 -66 -28 -97t-85 -42l-60 42l-61 -42q-30 6 -51 14t-34.5 23t-20 37.5t-6.5 55.5q0 72 22.5 94t81.5 22h279v-74h-271q-21 0 -25.5 -6t-4.5 -29v-11z" />
<glyph unicode="&#xe48;" d="M-143 1040h77v-151h-77v151z" />
<glyph unicode="&#xe49;" d="M-234 966h-50v74h127v-81h130v-70h-207v77z" />
<glyph unicode="&#xe4a;" d="M-20 952v-63h-127v73q0 28 -7.5 35.5t-27.5 14.5l-53 -35l-53 35q-20 -7 -27.5 -14.5t-7.5 -35.5v-10h47v-63h-129v63q0 36 6.5 59.5t20.5 38t35.5 22t54.5 14.5l53 -42l53 42q32 -7 54.5 -14.5t36 -22t19.5 -38t6 -59.5h46z" />
<glyph unicode="&#xe4b;" d="M-11 953h-55v-64h-73v64h-56v56h56v63h73v-63h55v-56z" />
<glyph unicode="&#xe4c;" d="M-234 1012h221v-70h-144v-53h-77v123z" />
<glyph unicode="&#xe4d;" d="M-162 837q40 0 68 -28.5t28 -69.5q0 -39 -28 -67t-68 -28q-41 0 -68.5 28t-27.5 67q0 41 27.5 69.5t68.5 28.5zM-162 708q14 0 22 9.5t8 21.5q0 14 -8 23t-22 9q-13 0 -22 -9t-9 -23q0 -12 9 -21.5t22 -9.5z" />
<glyph unicode="&#xe4e;" />
<glyph unicode="&#xe4f;" horiz-adv-x="625" d="M311 532q50 0 93.5 -18t75.5 -50.5t50.5 -76t18.5 -93.5q0 -49 -18.5 -91.5t-50.5 -74t-75.5 -50t-93.5 -18.5q-49 0 -92 18.5t-74.5 50t-49.5 74t-18 91.5q0 50 18 93.5t49.5 76t74.5 50.5t92 18zM311 92q43 0 80 15.5t65 43t44.5 64.5t16.5 79q0 43 -16.5 80.5 t-44.5 65.5t-65 44t-80 16q-42 0 -79 -16t-64.5 -44t-43 -65.5t-15.5 -80.5q0 -42 15.5 -79t43 -64.5t64.5 -43t79 -15.5zM172 294q0 59 40 99.5t99 40.5q28 0 53 -11t44 -30t29.5 -44.5t10.5 -54.5q0 -57 -40 -97t-97 -40q-59 0 -99 40t-40 97z" />
<glyph unicode="&#xe50;" horiz-adv-x="562" d="M507 178q0 -97 -61 -141t-165 -44q-114 0 -169.5 49t-55.5 136v85q0 97 61 141t164 44q115 0 170.5 -49t55.5 -136v-85zM416 263q0 28 -11.5 47.5t-30 32.5t-42.5 18.5t-51 5.5q-26 0 -50 -5.5t-43 -18.5t-30 -32.5t-11 -47.5v-85q0 -28 11 -47.5t30 -32.5t43 -18.5 t50 -5.5q27 0 51 5.5t42.5 18.5t30 32.5t11.5 47.5v85z" />
<glyph unicode="&#xe51;" horiz-adv-x="527" d="M223 109q-58 0 -96.5 6.5t-62 22t-33.5 40.5t-10 64v21q0 97 61 141t164 44q115 0 170.5 -49t55.5 -136v-89q0 -98 -52 -154t-154 -56q-17 0 -37 0.5t-41 2.5t-39.5 5.5t-30.5 7.5l23 77q9 -4 25 -6t34 -3.5t35.5 -2t30.5 -0.5q52 0 83.5 28t31.5 81v109q0 28 -11.5 47.5 t-30 32.5t-42.5 18.5t-51 5.5q-26 0 -50 -5.5t-43 -18.5t-30 -32.5t-11 -47.5v-21q0 -39 28.5 -45.5t82.5 -6.5v-81z" />
<glyph unicode="&#xe52;" horiz-adv-x="616" d="M182 279q0 75 31 115.5t95 53.5l63 -42l53 42q65 -13 100.5 -53.5t35.5 -115.5v-97q0 -29 -2 -61.5t-14.5 -59t-40 -44t-76.5 -17.5h-238q-49 0 -76.5 17.5t-40 44t-14.5 59t-2 61.5v367h91v-367q0 -21 0.5 -40t5 -34.5t13 -24.5t23.5 -9h238q15 0 23.5 9t13 24.5t5 34.5 t0.5 40v116q0 28 -12.5 44t-32.5 23l-53 -35l-63 35q-20 -7 -27.5 -23t-7.5 -44v-49h-91v30z" />
<glyph unicode="&#xe53;" horiz-adv-x="565" d="M374 448q64 -13 100 -53.5t36 -115.5v-279h-91v298q0 28 -13 44t-32 23l-91 -35l-91 35q-20 -7 -32.5 -23t-12.5 -44v-116q0 -21 0.5 -40t5 -34.5t13 -24.5t23.5 -9h53v-74h-53q-49 0 -76.5 17.5t-40 44t-14.5 59t-2 61.5v97q0 75 35.5 115.5t100.5 53.5l91 -42l91 42v0z " />
<glyph unicode="&#xe54;" horiz-adv-x="582" d="M258 367q-54 0 -82.5 -23t-28.5 -81v-85q0 -58 28.5 -81t82.5 -23q32 0 56.5 2t39.5 16q-7 23 -8.5 48t-1.5 49v81h157v-81h-66q0 -24 2.5 -44t13 -35.5t31.5 -25.5t58 -10v-81q-54 0 -89 10.5t-58 30.5q-39 -41 -135 -41q-58 0 -96.5 12.5t-62 36.5t-33.5 58t-10 78v85 q0 97 49 141t153 44h78q21 0 40 0.5t34.5 5t24.5 13t9 23.5v59h84v-59q0 -46 -19 -71.5t-47.5 -36.5t-62.5 -13t-63 -2h-78z" />
<glyph unicode="&#xe55;" horiz-adv-x="582" d="M305 581q41 0 69 -28.5t28 -69.5q0 -8 -1.5 -16.5t-4.5 -17.5q21 3 34.5 12t13.5 29v59h84v-59q0 -46 -19 -71.5t-47.5 -36.5t-62.5 -13t-63 -2h-78q-54 0 -82.5 -23t-28.5 -81v-85q0 -58 28.5 -81t82.5 -23q32 0 56.5 2t39.5 16q-7 23 -8.5 48t-1.5 49v81h157v-81h-66 q0 -24 2.5 -44t13 -35.5t31.5 -25.5t58 -10v-81q-54 0 -89 10.5t-58 30.5q-39 -41 -135 -41q-58 0 -96.5 12.5t-62 36.5t-33.5 58t-10 78v85q0 167 161 184q-7 18 -7 36q0 41 27.5 69.5t67.5 28.5zM305 448q16 0 26.5 10.5t10.5 24.5q0 15 -10.5 26.5t-26.5 11.5 q-15 0 -25 -11.5t-10 -26.5q0 -13 8.5 -23.5t21.5 -11.5h5z" />
<glyph unicode="&#xe56;" horiz-adv-x="541" d="M165 189v-11q0 -28 4.5 -47.5t18.5 -32.5t39 -18.5t67 -5.5q53 0 77 23t24 81v80q0 53 -27.5 81t-79.5 28q-9 0 -26 -1t-34.5 -5.5t-34.5 -14.5t-26 -28h-87l-52 231h92l33 -147q9 17 28 26.5t40 14t40 5t27 0.5q103 0 150.5 -56t47.5 -154v-60q0 -44 -8.5 -78t-30 -58 t-59 -36.5t-94.5 -12.5q-83 0 -127.5 14.5t-65.5 40.5t-24.5 62t-3.5 79h92z" />
<glyph unicode="&#xe57;" horiz-adv-x="704" d="M648 549v-402q0 -29 -5.5 -56t-21.5 -47t-46 -32t-79 -12h-91v298q0 28 -13 44t-32 23l-84 -35l-84 35q-20 -7 -32.5 -23t-12.5 -44v-116q0 -21 0.5 -40t5 -34.5t13 -24.5t23.5 -9h53v-74h-53q-49 0 -76.5 17.5t-40 44t-14.5 59t-2 61.5v97q0 75 35.5 115.5t100.5 53.5 l84 -42l84 42q64 -13 100 -53.5t36 -115.5v-205q15 0 27 1.5t19.5 8t11 21t3.5 42.5v402h91z" />
<glyph unicode="&#xe58;" horiz-adv-x="569" d="M339 182v81h157v-101q0 -43 -8 -72.5t-23.5 -49t-39 -30.5t-55.5 -17l-84 42l-84 -42q-33 6 -59.5 17t-46 30.5t-30 49t-10.5 72.5v101q0 97 49 141t153 44h78q21 0 40 0.5t34.5 5t24.5 13t9 23.5v59h84v-59q0 -46 -19 -71.5t-47.5 -36.5t-62.5 -13t-63 -2h-78 q-54 0 -82.5 -23t-28.5 -81v-120q0 -28 17.5 -44t37.5 -23l84 35l84 -35q19 7 27 23t8 44v39h-66z" />
<glyph unicode="&#xe59;" horiz-adv-x="574" d="M574 549v-59q0 -46 -12 -71.5t-33 -36.5t-47.5 -13t-55.5 -2q-20 0 -35.5 -5.5t-15.5 -24.5q0 -4 3 -15q24 -56 47 -136t51 -186h-81q-37 126 -62.5 199t-46.5 110t-38.5 47.5t-37.5 10.5q-43 0 -53 -20.5t-10 -48.5v-116q0 -21 0.5 -40t5 -34.5t13 -24.5t23.5 -9h53v-74 h-53q-49 0 -76.5 17.5t-40 44t-14.5 59t-2 61.5v116q0 76 41.5 113t112.5 37q34 0 65.5 -9t49.5 -29q11 18 33.5 28t67.5 10q21 0 33.5 0.5t19.5 5t9 13t2 23.5v59h84z" />
<glyph unicode="&#xe5a;" horiz-adv-x="660" d="M322 361q-25 -15 -49 -20.5t-56 -5.5q-60 0 -98.5 13t-60.5 38.5t-29.5 60.5t-7.5 78v35h91v-36q0 -24 2 -43.5t12.5 -33.5t31.5 -22.5t59 -8.5t59 9t31.5 25t12.5 36.5t2 44.5v29h91v-651h-91v452zM504 560h91v-651h-91v651z" />
<glyph unicode="&#xe5b;" />
<glyph unicode="&#x200b;" />
<glyph unicode="&#x2013;" horiz-adv-x="693" d="M616 314v-82h-539v82h539z" />
<glyph unicode="&#x2014;" horiz-adv-x="806" d="M729 314v-82h-652v82h652z" />
<glyph unicode="&#x2018;" horiz-adv-x="287" d="M155 753h55l-53 -158h-80z" />
<glyph unicode="&#x2019;" horiz-adv-x="287" d="M132 595h-55l53 158h80z" />
<glyph unicode="&#x2022;" horiz-adv-x="400" d="M98 273q0 43 30 72.5t72 29.5t72 -29.5t30 -72.5q0 -42 -30 -71.5t-72 -29.5t-72 29.5t-30 71.5z" />
<glyph unicode="&#x2026;" horiz-adv-x="672" d="M77 43q0 21 15.5 37.5t34.5 16.5q21 0 37.5 -16.5t16.5 -37.5q0 -19 -16.5 -34.5t-37.5 -15.5q-19 0 -34.5 15.5t-15.5 34.5zM284 43q0 21 15.5 37.5t35.5 16.5q21 0 37 -16.5t16 -37.5q0 -19 -16 -34.5t-37 -15.5q-20 0 -35.5 15.5t-15.5 34.5zM491 43q0 21 15.5 37.5 t35.5 16.5q21 0 37 -16.5t16 -37.5q0 -19 -16 -34.5t-37 -15.5q-20 0 -35.5 15.5t-15.5 34.5z" />
<glyph unicode="&#x25cc;" horiz-adv-x="716" />
<glyph unicode="&#x25fc;" horiz-adv-x="560" d="M0 560h560v-560h-560v560z" />
<glyph unicode="&#xf700;" horiz-adv-x="540" d="M393 409q0 26 -10.5 41.5t-28 23.5t-41 10t-48.5 2q-26 0 -49.5 -2t-41 -10t-28 -23.5t-10.5 -41.5v-28h-91v28q0 85 58.5 121.5t161.5 36.5h23l175 49l21 -67l-63 -17q63 -39 63 -123v-248q0 -70 -39 -115.5t-106 -45.5h-139l-38 190h-57v75h139l32 -184h61 q37 3 45.5 25.5t10.5 54.5v248z" />
<glyph unicode="&#xf701;" d="M-532 753h322v-74h-322v74z" />
<glyph unicode="&#xf702;" d="M-532 679v74h231v63h91v-137h-322z" />
<glyph unicode="&#xf703;" d="M-294 844q35 0 60 -25t25 -60q0 -37 -25 -58.5t-61 -21.5h-237v74h151v6q0 35 25.5 60t61.5 25zM-294 727q13 0 22 9t9 23q0 12 -9 21.5t-22 9.5q-14 0 -23 -9.5t-9 -21.5q0 -14 9 -23t23 -9z" />
<glyph unicode="&#xf704;" d="M-532 679v74h95v63h91v-63h45v63h91v-137h-322z" />
<glyph unicode="&#xf705;" d="M-291 834h81v-155h-81v155z" />
<glyph unicode="&#xf706;" d="M-421 760h-51v74h132v-81h130v-74h-211v81z" />
<glyph unicode="&#xf707;" d="M-186 753v-74h-105v90q0 28 -8 35.5t-27 14.5l-53 -35l-54 35q-19 -7 -27 -14.5t-8 -35.5v-16h48v-74h-129v74q0 37 6.5 61.5t20.5 39.5t35.5 23.5t53.5 15.5l54 -42l53 42q32 -7 54.5 -15.5t35.5 -23.5t19.5 -39.5t6.5 -61.5h24z" />
<glyph unicode="&#xf708;" d="M-210 748h-59v-69h-81v69h-60v64h60v67h81v-67h59v-64z" />
<glyph unicode="&#xf709;" d="M-448 806h238v-74h-157v-53h-81v127z" />
<glyph unicode="&#xf70a;" d="M-147 834h81v-155h-81v155z" />
<glyph unicode="&#xf70b;" d="M-238 760h-50v74h131v-81h130v-74h-211v81z" />
<glyph unicode="&#xf70c;" d="M-18 753v-74h-129v90q0 28 -7.5 35.5t-27.5 14.5l-53 -35l-53 35q-20 -7 -27.5 -14.5t-7.5 -35.5v-16h47v-74h-129v74q0 37 6.5 61.5t20.5 39.5t35.5 23.5t54.5 15.5l53 -42l53 42q32 -7 54.5 -15.5t36 -23.5t19.5 -39.5t6 -61.5h48z" />
<glyph unicode="&#xf70d;" d="M-7 748h-59v-69h-81v69h-60v64h60v67h81v-67h59v-64z" />
<glyph unicode="&#xf70e;" d="M-238 806h238v-74h-157v-53h-81v127z" />
<glyph unicode="&#xf70f;" horiz-adv-x="873" d="M808 560v-377q0 -54 -14 -90.5t-40 -59t-62.5 -31.5t-82.5 -9t-83 9t-64 31.5t-41.5 59t-14.5 90.5v203q0 38 -19 57.5t-42 29.5t-44.5 11.5t-26.5 1.5q-30 0 -53.5 -8.5t-38.5 -17.5t-22 -17.5l-7 -8.5v-353h60v-81h-151v462q26 39 57.5 61t61 31.5t54.5 11t39 1.5 q82 0 127.5 -26t66.5 -59t25 -61.5t4 -34.5v-203q0 -109 112 -109q108 0 108 109v377h91z" />
<glyph unicode="&#xf710;" d="M-494 679v137h91v-63h193v-74h-284z" />
<glyph unicode="&#xf711;" d="M-293 837q41 0 69 -28.5t28 -69.5q0 -39 -28 -67t-69 -28q-40 0 -67.5 28t-27.5 67q0 41 27.5 69.5t67.5 28.5zM-293 708q14 0 22.5 9.5t8.5 21.5q0 14 -8.5 23t-22.5 9q-12 0 -21 -9t-9 -23q0 -12 9 -21.5t21 -9.5z" />
<glyph unicode="&#xf712;" d="M-447 805q0 -28 6 -36.5t25 -15.5l60 35l61 -35q19 7 24.5 22t5.5 43h83q-3 -66 -28 -97t-85 -42l-61 42l-60 -42q-31 6 -52 14t-34 23t-19.5 37.5t-6.5 55.5q0 72 22.5 94t81.5 22h278v-74h-270q-21 0 -26 -6t-5 -29v-11z" />
<glyph unicode="&#xf713;" d="M-287 1040h77v-151h-77v151z" />
<glyph unicode="&#xf714;" d="M-378 966h-50v74h127v-81h130v-70h-207v77z" />
<glyph unicode="&#xf715;" d="M-109 952v-63h-128v73q0 28 -7.5 35.5t-27.5 14.5l-53 -35l-53 35q-20 -7 -27.5 -14.5t-7.5 -35.5v-10h48v-63h-129v63q0 36 6 59.5t20 38t36 22t54 14.5l53 -42l53 42q33 -7 55 -14.5t35.5 -22t20 -38t6.5 -59.5h46z" />
<glyph unicode="&#xf716;" d="M-155 953h-55v-64h-73v64h-56v56h56v63h73v-63h55v-56z" />
<glyph unicode="&#xf717;" d="M-378 1012h221v-70h-144v-53h-77v123z" />
<glyph unicode="&#xf718;" d="M-140 -497v90h-45v67h119v-157h-74z" />
<glyph unicode="&#xf719;" d="M-66 -407q0 -27 -1.5 -48.5t-12 -37t-32 -24t-60.5 -8.5q-41 0 -62 8.5t-31.5 24t-12 37t-1.5 48.5h-32v67h107v-74q0 -31 4 -36.5t28 -5.5t28 5.5t4 36.5v74h74v-67z" />
<glyph unicode="&#xf71a;" d="M-118 -340q20 0 36 -15.5t16 -36.5q0 -20 -16 -35t-36 -15q-19 0 -34.5 15t-15.5 35q0 21 15.5 36.5t34.5 15.5z" />
<glyph unicode="&#xf71d;" horiz-adv-x="674" d="M609 146q0 -54 -14 -84.5t-36.5 -46t-50.5 -19t-57 -3.5q-27 3 -51 8q-19 6 -37.5 16t-25.5 28q-7 -18 -25 -28t-38 -16q-23 -5 -50 -8q-29 0 -57 3.5t-50.5 19t-36.5 46t-14 84.5v414h91v-414q0 -42 17.5 -57t49.5 -15q38 0 53.5 21t15.5 51v177h89v-177q0 -30 15.5 -51 t53.5 -21q32 0 49.5 15t17.5 57v168q0 39 -24 56.5t-66 17.5h-9v78h14q39 0 65 26.5t26 67.5h91q0 -21 -6.5 -42.5t-17.5 -40.5t-28 -34t-39 -19q44 -19 64.5 -47t20.5 -63v-168z" />
<glyph horiz-adv-x="420" d="M263 0v389q0 31 -9.5 50t-25 29.5t-34.5 14t-36 3.5q-10 0 -25 -1t-31.5 -3.5t-32.5 -8t-27 -17.5l-42 59q27 28 66 40t92 12q87 0 141.5 -42t54.5 -136v-389h-91zM-293 837q41 0 69 -28.5t28 -69.5q0 -39 -28 -67t-69 -28q-40 0 -67.5 28t-27.5 67q0 41 27.5 69.5 t67.5 28.5zM-293 708q14 0 22.5 9.5t8.5 21.5q0 14 -8.5 23t-22.5 9q-12 0 -21 -9t-9 -23q0 -12 9 -21.5t21 -9.5z" />
<glyph />
<glyph />
<glyph />
<glyph horiz-adv-x="859" d="M428 707q75 0 139 -28t112.5 -76.5t76.5 -112.5t28 -139q0 -72 -28 -136t-76.5 -111.5t-112.5 -75.5t-139 -28q-72 0 -136 28t-111.5 75.5t-75.5 111.5t-28 136q0 75 28 139t75.5 112.5t111.5 76.5t136 28zM578 126q20 0 32.5 7.5t12.5 30.5q0 24 -7.5 33t-26.5 9v186 q0 36 -13 60t-31 39q7 3 13 3h13h13.5t13.5 -3h15v91q-43 -5 -86 -15.5t-75 -28.5q-12 2 -23.5 2h-28.5q-32 0 -61.5 -4t-61.5 -15v-88h9q26 8 55 15t51 7q13 0 30.5 -0.5t34 -6.5t28 -18.5t11.5 -34.5l-115 -11q-25 -3 -50.5 -8.5t-46.5 -19.5t-33.5 -38t-12.5 -63 q0 -59 40 -94t103 -35q15 0 30.5 0.5t29.5 3.5v76l-8 5q-10 -4 -17 -4.5t-16 -0.5q-22 0 -42.5 12.5t-20.5 44.5q0 11 5 19t22 13.5t48.5 11t83.5 14.5v-100q0 -50 14 -72.5t56 -22.5h12z" />
</font>
</defs>
</svg>
