<svg height="60" viewBox="0 0 59 60" width="59" xmlns="http://www.w3.org/2000/svg"><g fill="none" fill-rule="evenodd"><path d="m-43-20h318v102h-318z" fill="#fff"/><path d="m31.946 29.774a2.372 2.372 0 1 1 -4.744 0 2.372 2.372 0 0 1 4.744 0" fill="#404040"/><g stroke="#404040" stroke-linecap="round" stroke-linejoin="round" stroke-width="2.4"><path d="m57.748 29.774c0 15.56-12.613 28.175-28.174 28.175-15.56 0-28.175-12.615-28.175-28.175s12.615-28.174 28.175-28.174 28.174 12.615 28.174 28.175z"/><path d="m52.447 29.774c0 12.632-10.24 22.873-22.873 22.873-12.632 0-22.873-10.24-22.873-22.873-.001-12.632 10.239-22.874 22.873-22.874 12.632 0 22.873 10.242 22.873 22.874zm-22.873 0 9.964-14.83m-9.964 14.83 12.055 13.184"/></g></g></svg>