<svg height="48" viewBox="0 0 51 48" width="51" xmlns="http://www.w3.org/2000/svg"><g fill="none" fill-rule="evenodd"><path d="m-49-22h318v102h-318z" fill="#fff"/><path d="m1.4 46.018h14.285v-27.845h-14.285z" stroke="#404040" stroke-linecap="round" stroke-linejoin="round" stroke-width="2.4"/><path d="m12.495 41.33a1.74 1.74 0 1 1 -3.482 0 1.74 1.74 0 0 1 3.482 0" fill="#404040"/><g stroke="#404040" stroke-width="2.4"><path d="m15.685 41.597s1.595 2.948 3.481 2.948h20.739"/><path d="m39.912 44.515a3.644 3.644 0 0 0 1.833-.456c1.074-.613 2.05-2.218 1.597-3.47-.314-.875-1.157-1.464-1.861-2.011a12.782 12.782 0 0 1 -.545-.438c.912.06 1.942-.228 2.776-.595.96-.42 1.791-1.253 1.969-2.286.367-2.153-1.777-3.56-3.273-4.632 2.162.231 4.601-.396 5.378-2.68.17-.5.232-1.04.133-1.559-.331-1.735-2.704-3.356-4.389-3.597 2.398.343 5.374.468 5.51-2.648.046-1.057-.17-2.176-.86-2.98-1.31-1.527-3.95-1.571-5.81-1.479h-11.892l.464-4.967c.22-2.34 1.029-5.13-.072-7.328-.243-.486-.577-.953-1.06-1.2-.81-.415-1.81-.096-2.46.472-2.548 2.224-4.01 6.891-5.375 9.908a111.01 111.01 0 0 0 -2.374 5.604" stroke-linecap="round" stroke-linejoin="round"/></g></g></svg>