<svg height="47" viewBox="0 0 47 47" width="47" xmlns="http://www.w3.org/2000/svg" xmlns:xlink="http://www.w3.org/1999/xlink"><mask id="a" fill="#fff"><path d="m0 46.9982786h46.9982767v-46.94611434h-46.9982767z" fill="#fff" fill-rule="evenodd"/></mask><g fill="none" fill-rule="evenodd"><path d="m0 46.9982786h46.9983289v-46.9461665h-46.9983289z" fill="#231f20"/><g fill="#fff"><path d="m3.71239422 20.7446524h3.84569667v11.7282475h1.57068778v-11.7282475h3.84564443v-1.4587214h-9.26202888z"/><path d="m18.937287 23.3810394c-1.31506 0-2.3943367.6028624-2.8892467 1.479222v-5.5743252h-1.5137655v13.1869689h1.5137655v-5.1828324c.1553611-1.70598 1.3421634-2.5434251 2.6104323-2.5434251 1.6644266 0 2.2885344 1.0759401 2.2885344 2.4272553v5.2990022h1.5138178v-4.9700022c0-1.3766671-.1457-1.7975283-.2985545-2.1935594-.4494766-1.1644106-1.6866211-1.9283041-3.2249833-1.9283041"/><path d="m28.2100737 27.5801321h-2.73399c.0694555-.8111021.3166755-1.4957059.7268289-1.9980999.4771022-.5842919 1.1521266-.8946171 2.0071611-.9246637v-.0019301c.9180666.0110067 1.6143977.3216448 2.0689922.9252897.3679055.4885183.5875 1.1741654.6446311 1.999404zm4.2776789.4814239c0-1.3010288-.3747467-2.4316892-1.0836112-3.2697081-.7697033-.9100055-1.8736288-1.3955505-3.1940677-1.4076004v.0020344c-1.2420534.0322897-2.2952711.4981165-3.0516578 1.3546537-.7442711.8430267-1.1377656 1.9913186-1.1377656 3.3206204 0 1.295343.3803345 2.4188569 1.0998523 3.2492076.7531488.8692131 1.8196311 1.3416126 3.0895711 1.3736937v.0020344c1.2972522-.0116327 2.3869211-.4698435 3.1529689-1.3286759.3063877-.3435539.5523544-.7418802.7351844-1.1859024l-1.2669111-.4606104c-.1271089.2909722-.2910867.5525239-.4917245.7787603-.5172088.5834051-1.25302.8960777-2.1295177.9076581v-.0017214c-.8870989-.0285339-1.5734556-.3328602-2.0406356-.9071365-.3644067-.4479345-.5941322-1.0577348-.6778444-1.7851654h2.71848 4.24504.0011489l-.0008878-.0025039c.0207844-.2078746.0323778-.4208612.0323778-.6396382z"/><path d="m34.3081879 10.2325886v3.2298024h2.4143378v19.010535h3.2333911v-22.2403374z"/></g><path d="m33.3936567 36.7353252h9.89115v-2.5459811h-9.89115z" fill="#dd1a22" mask="url(#a)"/></g></svg>