<svg height="47" viewBox="0 0 46 47" width="46" xmlns="http://www.w3.org/2000/svg"><g fill="none" fill-rule="evenodd"><path d="m-42-27h130v102h-130z"/><path d="m1.083 45.745h44.434v-44.435h-44.434z" fill="#1d1d1b"/><path d="m1.083 45.745h44.434v-44.435h-44.434z" stroke="#1d1d1b" stroke-width=".726"/><g fill="#fefefe"><path d="m12.5 21.304c-.2-2.084-.311-2.058-2.818-2.044l.004 9.245c0 .07.041.111.14.126.366.028.699.028 1.067 0 .182-.015.182.223 0 .223-1.263-.029-2.495-.01-3.782.003-.183 0-.211-.238 0-.224.388.028.715.028 1.105-.002.07 0 .1-.055.097-.112l-.003-9.271c-2.421 0-2.634-.026-2.786 2.058-.015.184-.25.184-.236 0l.277-2.322c2.129.04 4.748.01 6.877-.003l.265 2.323c.017.183-.195.183-.206 0m4.384 7.536c-.212 0-.212-.257 0-.212.276.029.506.014.742-.014.168-.016.168-.056.168-.126l-.003-4.03c0-.772-.278-1.01-.716-1.01-1.118.015-1.552.98-2.027 1.597v3.417c0 .084.043.136.154.153.269.029.463.029.684 0 .226-.032.214.225 0 .225-.965-.03-1.844-.03-2.842.002-.21.001-.21-.256 0-.226.268.028.48.028.717 0 .154-.016.155-.057.154-.126l-.004-9.005c0-.14-.04-.242-.227-.252a3.627 3.627 0 0 0 -.517 0c-.269.012-.269-.24 0-.226.28.016.549.03.8.016.24-.016.603-.114.853-.326.194-.163.224-.194.224.016l.004 5.91c0 .085.015.028.056-.028.477-.687 1.118-1.385 2.213-1.374 1.444.014 1.596.747 1.596 1.57l.002 3.67c0 .085.041.137.155.151.266.03.53.03.77 0 .21-.03.193.226 0 .226a50.031 50.031 0 0 0 -2.956.002m6.891-3.69c-.002-.837-.113-1.834-1.121-1.806-.94.03-1.22.97-1.22 1.808v.263c0 .06.017.115.087.115h2.083c.128 0 .17-.139.17-.183v-.196zm-.95 3.825c-1.583.003-2.693-1.187-2.693-2.924-.001-1.275 1.05-2.885 2.522-2.914 2.183-.056 2.407 1.904 2.407 2.449 0 .084-.108.154-.252.154h-3.303c-.043 0-.072.028-.072.07l.003.963c0 .942.112 1.99 1.388 1.99 1.12 0 2.016-.724 2.266-1.718.017-.145.236-.158.212 0-.338 1.12-1.248 1.93-2.478 1.93zm-11.62 10.594c-2.56 0-4.214-1.775-4.216-3.982 0-2.561 1.984-4.63 4.133-4.63 1.382 0 2.85.595 2.851 1.792a.95.95 0 0 1 -.95.972c-.6 0-.953-.432-.953-.826 0-.804.499-.763.499-1.029 0-.438-.91-.619-1.614-.658-1.736.057-2.021 1.384-2.021 3.242v1.591c0 1.71.188 3.194 2.417 3.18 1.855-.023 2.872-1.492 2.789-2.481.037-.333.332-.333.31 0 .145 1.276-1.28 2.829-3.245 2.829m9.109-4.342c-.001-.1-.065-.144-.332-.122-.97.06-2.664.309-2.662 2.068 0 1.093.187 1.899 1.447 1.898.743 0 1.401-.928 1.547-1.138zm1.778 4.338c-.95 0-1.59-.494-1.736-1.22 0-.04-.04-.04-.064.002-.389.68-1.193 1.219-2.267 1.22-1.553 0-2.482-.745-2.482-2.084 0-1.966 2.768-2.63 4.399-2.668.307 0 .37-.042.37-.122v-2.338c0-.719-.37-1.073-.993-1.073-.89.002-1.918.209-1.917.829 0 .455.658.018.658.912 0 .45-.413.76-.928.823-.495.061-.91-.455-.868-1.099.062-.883 1.424-1.732 3.16-1.776 1.424-.02 2.559.853 2.559 2.211l.002 5.082c0 .393.068.845.603.844.27 0 .497-.06.622-.248.181-.246.41-.04.204.188-.33.267-.722.517-1.322.517zm8.569-6.306c-.248.02-.91-.042-1.116-.636-.289-.765.288-1.013.104-1.157-.085-.063-.188-.063-.292-.063-.843 0-2.267 1.339-2.267 4.027l.002 3.386c0 .126.06.207.225.23.413.042.972.041 1.3 0 .31-.045.293.333.024.333a79.214 79.214 0 0 0 -4.61.002c-.309 0-.309-.377 0-.333.4.042.788.042 1.16 0 .224-.025.224-.084.224-.188l.022-6.628c0-.227-.085-.372-.355-.39a9.277 9.277 0 0 0 -1.031 0c-.371.018-.371-.354 0-.335.413.02.95.02 1.32 0 .374-.02.87-.185 1.26-.453.269-.188.312-.208.355.06.103.619.124 1.53.104 2.456l.037-.06c.229-.927.932-2.44 2.562-2.44.663 0 1.012.267 1.343.893.247.473.104 1.254-.371 1.296m7.705.993c0-1.219-1.282-2.978-2.934-2.935-1.738.065-1.901 1.409-1.9 4.05.001 2.893.373 4.01 2.318 3.923 1.363-.042 2.518-1.22 2.518-2.83zm.231 5.124c-.228.015-.248-.068-.248-.274v-1.112c0-.065-.024-.065-.047 0-.285.617-1.214 1.607-2.577 1.608-2.48.003-4.093-2.041-4.093-4.315-.003-1.898 1.568-4.296 3.944-4.296 1.421 0 2.27 1.092 2.724 1.982.023.017.047 0 .047 0l-.005-7.583c0-.21-.063-.348-.331-.37a5.61 5.61 0 0 0 -.913 0c-.37.022-.37-.354 0-.33.416.017.954.04 1.304.017.353-.017.886-.16 1.279-.474.292-.249.33-.292.33.018l.008 14.38c0 .209.228.33.54.39.205.043.35.023.533 0 .293-.037.293.355 0 .333a18.516 18.516 0 0 0 -2.495.026z"/><path d="m35.857 28.719c0 .168-.22.252-.664.252h-3.823l-2.645.002h-.902c-.483 0-.723-.091-.723-.27 0-.181.138-.272.423-.272.444-.003.917-.013 1.422-.03.625-.02.962-.175 1.013-.466.05-.294.074-.922.074-1.889l-.006-14.165c0-.645-.023-1.022-.061-1.145-.044-.125-.183-.184-.429-.184-.104 0-.764.056-1.99.151a5.658 5.658 0 0 1 -.486.033c-.249 0-.37-.07-.37-.209 0-.162.121-.255.36-.273.943-.1 1.895-.387 2.857-.859.963-.468 1.732-1.026 2.312-1.665.222-.183.375-.273.455-.273.16 0 .238.103.238.3v.574l.002.542.007 18.086c0 .722.037 1.144.106 1.27.072.119.318.187.742.204h1.663c.284 0 .424.1.424.286"/></g></g></svg>