<svg height="30" viewBox="0 0 30 30" width="30" xmlns="http://www.w3.org/2000/svg"><g fill="none" fill-rule="evenodd"><path d="m-1258-384h1440v815h-1440z" fill="#e2e2e2"/><path d="m-997.5-202.5h1089v617h-1089z" fill="#fff" fill-rule="nonzero" stroke="#d8d8d8"/><path d="m30 15c0 8.284-6.716 15-15 15s-15-6.716-15-15 6.716-15 15-15 15 6.716 15 15zm-15.182 2.265-2.1-1.856-6.001 5.199c.218.204.512.332.837.332h14.527c.324 0 .617-.128.834-.332l-5.998-5.2-2.1 1.857zm8.097-8.252a1.236 1.236 0 0 0 -.837-.321h-14.526a1.23 1.23 0 0 0 -.835.324l8.098 6.788 8.1-6.79zm-16.594.864v10.273l5.927-5.078-5.928-5.195zm11.063 5.196 5.926 5.077v-10.273z" fill="#666"/></g></svg>