<svg height="30" viewBox="0 0 30 30" width="30" xmlns="http://www.w3.org/2000/svg"><g fill="none" fill-rule="evenodd"><path d="m-1123-384h1440v815h-1440z" fill="#e2e2e2"/><path d="m-862.5-202.5h1089v617h-1089z" fill="#fff" fill-rule="nonzero" stroke="#d8d8d8"/><path d="m15.002 0c-8.285 0-15.002 6.717-15.002 15.002 0 8.281 6.717 14.998 15.002 14.998 8.281 0 14.998-6.717 14.998-14.998 0-8.285-6.717-15.002-14.998-15.002zm7.297 21.343c0 .443-.217.731-.655.731h-3.69v-5.531h1.876l.285-2.37h-2.162v-1.233c0-.633.17-1.138 1.079-1.138h1.292v-1.885c-.395-.028-1.008-.087-1.81-.087-1.667 0-2.931 1.02-2.931 2.892v1.45h-1.976v2.37h1.976v5.532h-6.843c-.443 0-.664-.288-.664-.73v-12.906c0-.442.221-.983.664-.983h12.904c.438 0 .655.54.655.983v12.904z" fill="#666"/></g></svg>