<svg height="30" viewBox="0 0 30 30" width="30" xmlns="http://www.w3.org/2000/svg"><g fill="none" fill-rule="evenodd"><path d="m-1168-384h1440v815h-1440z" fill="#e2e2e2"/><path d="m-907.5-202.5h1089v617h-1089z" fill="#fff" fill-rule="nonzero" stroke="#d8d8d8"/><path d="m30 15c0 8.284-6.716 15-15 15s-15-6.716-15-15 6.716-15 15-15 15 6.716 15 15zm-8.191-6.021a5.969 5.969 0 0 1 -1.93.754 2.994 2.994 0 0 0 -2.215-.982c-1.675 0-3.035 1.394-3.035 3.113 0 .244.026.48.078.709-2.523-.13-4.76-1.368-6.258-3.254-.261.461-.41.997-.41 1.567 0 1.08.535 2.032 1.35 2.59a2.976 2.976 0 0 1 -1.376-.388v.038c0 1.51 1.047 2.768 2.437 3.053a2.958 2.958 0 0 1 -1.371.055c.386 1.236 1.506 2.136 2.835 2.16a5.993 5.993 0 0 1 -4.495 1.29 8.45 8.45 0 0 0 4.654 1.398c5.585 0 8.638-4.743 8.638-8.857 0-.135-.003-.27-.008-.403a6.234 6.234 0 0 0 1.514-1.611 5.946 5.946 0 0 1 -1.743.49 3.108 3.108 0 0 0 1.335-1.722z" fill="#666"/></g></svg>