<svg height="30" viewBox="0 0 30 30" width="30" xmlns="http://www.w3.org/2000/svg"><g fill="none" fill-rule="evenodd"><path d="m-1213-384h1440v815h-1440z" fill="#e2e2e2"/><path d="m-952.5-202.5h1089v617h-1089z" fill="#fff" fill-rule="nonzero" stroke="#d8d8d8"/><path d="m22.84 19.081h-.001c1.446-1.586 2.138-3.195 2.138-4.982 0-4.464-4.476-8.097-9.977-8.097s-9.977 3.634-9.977 8.098c0 4.003 3.55 7.355 8.344 7.988.325.07.767.215.879.492.1.253.066.648.032.903l-.142.854c-.044.252-.2.987.864.538 1.065-.449 5.746-3.383 7.84-5.793zm-7.84-19.081c8.284 0 15 6.716 15 15s-6.716 15-15 15-15-6.716-15-15 6.716-15 15-15zm-2.027 11.942c.107 0 .194.087.194.194v4.347a.194.194 0 0 1 -.194.194h-.7a.194.194 0 0 1 -.194-.194v-4.347c0-.107.087-.194.194-.194zm4.817 0c.107 0 .194.087.194.194v4.347a.194.194 0 0 1 -.194.194h-.7a.188.188 0 0 1 -.05-.006l-.003-.001-.013-.004-.006-.002-.01-.004-.008-.005-.006-.003-.012-.007-.002-.002a.197.197 0 0 1 -.05-.048l-1.994-2.694v2.582a.194.194 0 0 1 -.194.194h-.7a.194.194 0 0 1 -.195-.194v-4.347c0-.107.088-.194.195-.194h.716l.01.002.009.001a.181.181 0 0 0 .011.003l.007.001.011.004.007.002.01.005.007.003.01.006.006.003.01.007.005.004a.109.109 0 0 1 .014.012l.012.012.001.002c.006.006.01.012.015.02l1.993 2.69v-2.583c0-.107.087-.194.194-.194zm-6.504 3.647c.107 0 .194.087.194.194v.7a.194.194 0 0 1 -.194.194h-2.796c-.052 0-.1-.02-.134-.054l-.003-.003-.003-.003a.192.192 0 0 1 -.054-.134v-4.347c0-.107.087-.194.194-.194h.7c.107 0 .194.087.194.194v3.453zm10.369-2.559h-1.902v.735h1.902c.107 0 .194.087.194.195v.7a.194.194 0 0 1 -.194.194h-1.902v.734h1.902c.107 0 .194.088.194.195v.7a.194.194 0 0 1 -.194.194h-2.796a.193.193 0 0 1 -.14-.06.193.193 0 0 1 -.055-.134v-4.347c0-.052.021-.099.054-.134l.004-.003c0-.001 0-.002.002-.002a.193.193 0 0 1 .134-.055h2.797c.107 0 .194.087.194.194v.7a.194.194 0 0 1 -.194.194z" fill="#666"/></g></svg>