<svg xmlns="http://www.w3.org/2000/svg" xmlns:xlink="http://www.w3.org/1999/xlink" width="38" height="25" viewBox="0 0 38 25">
    <defs>
        <path id="ecxg2o96wa" d="M22.346.071h1.536v.685h-1.654c-.85 0-1.18.543-1.18 1.04 0 1.11.968 1.062 1.748 1.086.141 0 .212.024.283.07.047.048.094.142.094.237 0 .118-.047.189-.094.236-.071.071-.166.095-.331.095h-1.606v.756h1.606c.543 0 .921-.142 1.134-.45h.023v.922c-.354.142-.779.213-1.228.213h-2.15v-.307c-.26.188-.708.307-1.133.307h-6.78V3.85c0-.143 0-.143-.142-.143h-.117v1.253H10.11v-1.3c-.378.166-.803.166-1.157.166h-.26V4.96H5.977l-.662-.756-.709.756H.213V.118H4.7l.638.732.684-.779H9c.354 0 .921.047 1.181.283V.071h2.693c.236 0 .78.047 1.11.283V.071h4.063v.283c.213-.189.638-.283.992-.283h2.268v.283c.236-.165.567-.283 1.04-.283zM17.882 3.52v.732h1.63c.827 0 1.299-.33 1.299-1.087 0-.354-.095-.567-.26-.732-.189-.19-.472-.26-.944-.307h-.45c-.141 0-.236-.024-.33-.047-.118-.048-.19-.118-.19-.26 0-.118.024-.213.119-.26.07-.07.165-.07.33-.07h1.512V.755h-1.653c-.874 0-1.181.543-1.181 1.04 0 1.11.969 1.062 1.748 1.086.165 0 .236.024.307.07.047.048.094.142.094.237 0 .118-.047.189-.094.236-.071.071-.166.095-.33.095h-1.607zM14.622.803V4.3h2.764v-.732h-1.937v-.685h1.89v-.709h-1.89v-.638h1.937V.803h-2.764zm-3.803 0v3.449h.827V2.976h.897c.307 0 .496.048.614.166.166.165.142.472.142.685v.425h.827v-.685c0-.307-.024-.473-.142-.638-.07-.094-.212-.213-.401-.284.212-.07.567-.354.567-.897 0-.402-.166-.614-.426-.78-.26-.141-.567-.165-.992-.165H10.82zm-4.441 0L5.315 1.937 4.299.803H.97v3.449h3.283l1.063-1.158 1.016 1.158h1.606V3.094h1.04c.732 0 1.44-.188 1.44-1.157 0-.945-.732-1.134-1.393-1.134H6.378zm-.543 1.748l1.275-1.37v2.788L5.835 2.55zm5.81-1.04h1.016c.142 0 .308 0 .402.071.118.048.166.166.166.308.023.141-.048.26-.166.33-.118.071-.26.071-.402.071h-1.015v-.78zm-9.85 0h2.079l.898 1.017-.945 1.015H1.795v-.685h1.82V2.15h-1.82v-.638zm20.575.024h1.512v1.016c-.024-.047-.047-.07-.071-.094-.189-.19-.496-.26-.945-.284h-.449c-.118 0-.212-.023-.307-.047-.118-.047-.189-.118-.189-.26 0-.118.024-.213.118-.26.071-.07.19-.07.331-.07zm-14.433 0h1.087c.307 0 .496.118.496.426.023.283-.19.448-.496.448H7.937v-.874z"/>
        <path id="yp4xmqcvkc" d="M26.103.047h2.314V4.89H26.08l-.45-.733v.733h-2.905l-.307-.78h-.708l-.331.78h-1.512c-.59 0-1.04-.142-1.323-.307v.307h-3.59V3.78c0-.142-.024-.166-.118-.166h-.142V4.89H7.748v-.591l-.236.59H6.07l-.26-.59v.59H3l-.307-.779h-.709l-.33.78H.236V2.339L1.228.047h2.174l.283.567V.047h2.551l.544 1.252.543-1.252h8.055c.378 0 .709.071.945.284V.047h2.197v.284c.378-.213.85-.284 1.393-.284h3.19l.306.567V.047h2.363l.33.567V.047zm.732.685v2.41L25.37.732h-1.276V4.04L22.701.756h-1.252l-1.181 2.74h-.378c-.213 0-.45-.047-.567-.189-.166-.189-.236-.449-.236-.827 0-.354.094-.637.236-.78.165-.165.33-.212.638-.212h.78V.756h-.804c-.567 0-.992.118-1.252.401-.354.355-.449.827-.449 1.347 0 .638.166 1.016.449 1.323.284.283.803.378 1.205.378h.968l.307-.78h1.701l.33.78h1.702V1.606l1.582 2.599h1.205V.732h-.85zm-13.678 0v3.425h.827V2.906h.898c.307 0 .496.023.614.141.165.166.142.473.142.685v.45h.826v-.686c0-.307-.023-.473-.141-.638-.071-.094-.213-.212-.402-.283.213-.071.59-.378.59-.921 0-.378-.165-.615-.424-.757-.284-.141-.59-.165-1.016-.165h-1.914zm-3.33 0v3.473h2.764v-.733h-1.937v-.685h1.89V2.08h-1.89v-.614h1.937V.732H9.827zm-2.008 0l-.992 2.362L5.74.732H4.394v3.284L2.976.732H1.748L.26 4.205h.897l.331-.78h1.725l.33.78H5.22V1.488l1.205 2.717h.732l1.205-2.717v2.717h.85-.023V.732h-1.37zm13.677 1.96l.567-1.393.567 1.394h-1.134zm-19.724 0L2.339 1.3l.567 1.394H1.772zm12.236-1.251h1.016c.141 0 .307 0 .401.07.118.048.166.166.166.308 0 .165-.071.283-.166.33-.118.071-.26.071-.401.071h-1.016v-.78z"/>
    </defs>
    <g fill="none" fill-rule="evenodd">
        <path fill="#E2E2E2" d="M36 25H2c-1.1 0-2-.9-2-2V2C0 .9.9 0 2 0h34c1.1 0 2 .9 2 2v21c0 1.1-.9 2-2 2"/>
        <path fill="#0078A9" d="M35.97 23.429H2.03c-.824 0-1.5-.676-1.5-1.5V2.099c0-.823.676-1.5 1.5-1.5h33.94c.824 0 1.5.677 1.5 1.5v19.83c0 .824-.676 1.5-1.5 1.5"/>
        <g>
            <g transform="translate(3 7) translate(5.906 6.094)">
                <mask id="84hbfclu5b" fill="#fff">
                    <use xlink:href="#ecxg2o96wa"/>
                </mask>
                <path fill="#FFFFFE" d="M-0.969 6.142L25.063 6.142 25.063 -1.063 -0.969 -1.063z" mask="url(#84hbfclu5b)"/>
            </g>
            <g transform="translate(3 7) translate(0 .189)">
                <mask id="e1i61mtted" fill="#fff">
                    <use xlink:href="#yp4xmqcvkc"/>
                </mask>
                <path fill="#FFFFFE" d="M-0.945 6.071L29.575 6.071 29.575 -1.134 -0.945 -1.134z" mask="url(#e1i61mtted)"/>
            </g>
            <path fill="#246EA9" d="M16.984 4.394L17.835 4.394 17.835 0.921 16.984 0.921z" transform="translate(3 7)"/>
        </g>
    </g>
</svg>
