<svg xmlns="http://www.w3.org/2000/svg" xmlns:xlink="http://www.w3.org/1999/xlink" width="32" height="20" viewBox="0 0 32 20">
    <defs>
        <path id="kxqlkv30ia" d="M18.818.06h1.293v.57H18.72c-.717 0-.995.453-.995.866 0 .925.815.886 1.472.905.12 0 .18.02.239.06.04.039.08.118.08.196 0 .099-.04.158-.08.197-.06.06-.14.08-.279.08h-1.352v.629h1.352c.458 0 .776-.118.955-.374h.02v.768c-.298.118-.656.177-1.034.177h-1.81v-.256c-.22.157-.597.256-.955.256h-5.71v-.925c0-.119 0-.119-.119-.119h-.1v1.044h-1.89V3.05c-.317.138-.675.138-.974.138H7.32v.945H5.033l-.557-.63-.597.63h-3.7V.098h3.78l.537.61.576-.649H7.58c.298 0 .776.04.995.236V.06h2.267c.2 0 .657.04.935.236V.06h3.422v.236c.179-.157.537-.236.835-.236h1.91v.236c.199-.138.477-.236.875-.236zm-3.76 2.873v.61h1.373c.696 0 1.094-.275 1.094-.905 0-.295-.08-.473-.219-.61-.159-.158-.398-.217-.795-.256h-.378c-.12 0-.2-.02-.28-.04-.098-.04-.158-.098-.158-.216 0-.099.02-.177.1-.217.059-.059.139-.059.278-.059h1.273V.63h-1.392c-.736 0-.995.453-.995.866 0 .925.816.886 1.472.905.14 0 .199.02.259.06.04.039.08.118.08.196 0 .099-.04.158-.08.197-.06.06-.14.08-.279.08h-1.353zM12.313.67v2.914h2.328v-.61H13.01V2.4h1.59v-.59h-1.59V1.28h1.63V.67h-2.327zm-3.202 0v2.874h.696V2.48h.756c.258 0 .418.04.517.138.14.138.12.394.12.571v.354h.696v-.57c0-.256-.02-.394-.12-.532-.06-.079-.179-.177-.338-.236.18-.06.477-.296.477-.748 0-.335-.139-.512-.358-.65C11.34.69 11.08.67 10.722.67H9.11zm-3.74 0l-.895.945L3.62.67H.816v2.874H3.58l.895-.964.855.964h1.353V2.58h.875c.617 0 1.213-.158 1.213-.965C8.772.827 8.156.67 7.6.67H5.37zm-.458 1.457L5.988.984v2.323l-1.075-1.18zm4.894-.866h.855c.12 0 .259 0 .338.059.1.04.14.138.14.256.02.118-.04.216-.14.275-.099.06-.218.06-.338.06h-.855v-.65zm-8.295 0h1.75l.756.846-.795.847H1.512v-.571h1.532v-.59H1.512V1.26zm17.326.02h1.273v.846c-.02-.04-.04-.06-.06-.079-.159-.157-.418-.216-.795-.236h-.378c-.1 0-.18-.02-.259-.04-.1-.039-.159-.098-.159-.216 0-.098.02-.177.1-.216.06-.06.159-.06.278-.06zm-12.154 0h.915c.258 0 .418.098.418.354.02.236-.16.374-.418.374h-.915V1.28z"/>
        <path id="n85n6asjlc" d="M21.981.04h1.95v4.035h-1.97l-.378-.61v.61h-2.447l-.258-.65h-.597l-.279.65H16.73c-.497 0-.875-.118-1.114-.256v.256h-3.023V3.15c0-.119-.02-.138-.1-.138h-.119v1.063H6.525v-.493l-.2.493H5.113l-.219-.493v.493H2.526l-.258-.65H1.67l-.279.65H.2V1.949l.835-1.91h1.83l.24.473V.039h2.148l.457 1.044.458-1.044h6.783c.318 0 .597.06.796.237V.039h1.85v.237c.318-.178.716-.237 1.173-.237h2.686l.258.473V.039h1.99l.278.473V.039zm.617.57v2.008L21.364.61H20.29v2.756L19.116.63h-1.054l-.994 2.283h-.319c-.179 0-.378-.039-.477-.157-.14-.158-.2-.374-.2-.69 0-.294.08-.53.2-.649.14-.137.278-.177.537-.177h.656V.63h-.676c-.477 0-.835.098-1.054.335-.299.295-.378.689-.378 1.122 0 .531.14.846.378 1.102.238.236.676.315 1.014.315h.816l.258-.65h1.433l.278.65h1.432V1.339L22.3 3.504h1.015V.61h-.716zM11.08.61v2.855h.696V2.42h.756c.259 0 .418.02.517.118.14.138.12.394.12.571v.374h.696v-.57c0-.257-.02-.395-.12-.532-.06-.079-.178-.177-.338-.236.18-.06.498-.315.498-.768 0-.315-.14-.512-.358-.63-.24-.118-.498-.138-.856-.138H11.08zm-2.805 0v2.894h2.328v-.61H8.97v-.571h1.592v-.59H8.97V1.22h1.632V.61H8.275zm-1.69 0L5.748 2.58 4.834.61H3.7v2.736L2.506.61H1.472L.219 3.504h.756l.278-.65h1.452l.279.65h1.412V1.24l1.015 2.264h.616L7.042 1.24v2.264h.716-.02V.61H6.584zm11.517 1.634l.477-1.161.478 1.161h-.955zm-16.61 0l.477-1.161.478 1.161h-.955zm10.304-1.043h.855c.12 0 .26 0 .339.059.1.04.139.138.139.256 0 .138-.06.236-.14.275-.099.06-.218.06-.338.06h-.855V1.2z"/>
        <path id="wda6uwiwce" d="M18.818.059h1.293v.565H18.72c-.717 0-.995.449-.995.858 0 .917.815.878 1.472.897.12 0 .18.02.239.059.04.039.08.117.08.195 0 .097-.04.156-.08.195-.06.059-.14.078-.279.078h-1.352v.624h1.352c.458 0 .776-.117.955-.37h.02v.76c-.298.117-.656.176-1.034.176h-1.81v-.254c-.22.156-.597.254-.955.254h-5.71v-.917c0-.117 0-.117-.119-.117h-.1v1.034h-1.89V3.023c-.317.137-.675.137-.974.137H7.32v.936H5.033l-.557-.624-.597.624h-3.7V.097h3.78l.537.605.576-.643H7.58c.298 0 .776.038.995.233V.06h2.267c.2 0 .657.038.935.233V.06h3.422v.233c.179-.155.537-.233.835-.233h1.91v.233c.199-.136.477-.233.875-.233zm-3.76 2.847v.605h1.373c.696 0 1.094-.273 1.094-.898 0-.292-.08-.468-.219-.604-.159-.156-.398-.215-.795-.254h-.378c-.12 0-.2-.02-.28-.039-.098-.039-.158-.097-.158-.214 0-.098.02-.176.1-.215.059-.058.139-.058.278-.058h1.273V.624h-1.392c-.736 0-.995.449-.995.858 0 .917.816.878 1.472.897.14 0 .199.02.259.059.04.039.08.117.08.195 0 .097-.04.156-.08.195-.06.059-.14.078-.279.078h-1.353zM12.313.663V3.55h2.328v-.605H13.01v-.566h1.59v-.585h-1.59v-.526h1.63V.663h-2.327zm-3.202 0v2.848h.696V2.457h.756c.258 0 .418.04.517.137.14.136.12.39.12.566v.35h.696v-.565c0-.253-.02-.39-.12-.527-.06-.078-.179-.175-.338-.234.18-.058.477-.292.477-.74 0-.332-.139-.508-.358-.644-.218-.117-.477-.137-.835-.137H9.11zm-3.74 0l-.895.936L3.62.663H.816v2.848H3.58l.895-.956.855.956h1.353v-.956h.875c.617 0 1.213-.156 1.213-.956 0-.78-.616-.936-1.173-.936H5.37zm-.458 1.444L5.988.975v2.302l-1.075-1.17zm4.894-.859h.855c.12 0 .259 0 .338.059.1.039.14.136.14.253.02.117-.04.215-.14.273-.099.059-.218.059-.338.059h-.855v-.644zm-8.295 0h1.75l.756.839-.795.838H1.512V2.36h1.532v-.585H1.512v-.527zm17.326.02h1.273v.839c-.02-.04-.04-.06-.06-.079-.159-.156-.418-.214-.795-.234h-.378c-.1 0-.18-.02-.259-.039-.1-.039-.159-.097-.159-.214 0-.098.02-.176.1-.215.06-.058.159-.058.278-.058zm-12.154 0h.915c.258 0 .418.097.418.351.02.234-.16.37-.418.37h-.915v-.721z"/>
        <path id="j1niu3e8mg" d="M21.981.039h1.95v3.998h-1.97l-.378-.604v.604h-2.447l-.258-.643h-.597l-.279.643H16.73c-.497 0-.875-.117-1.114-.253v.253h-3.023v-.916c0-.117-.02-.137-.1-.137h-.119v1.053H6.525V3.55l-.2.488H5.113l-.219-.488v.488H2.526l-.258-.643H1.67l-.279.643H.2V1.931L1.034.039h1.83l.24.468V.04h2.148l.457 1.034.458-1.034h6.783c.318 0 .597.059.796.234V.039h1.85v.234c.318-.175.716-.234 1.173-.234h2.686l.258.468V.04h1.99l.278.468V.04zm.617.566v1.989L21.364.604H20.29v2.731L19.116.625h-1.054l-.994 2.262h-.319c-.179 0-.378-.04-.477-.157-.14-.156-.2-.37-.2-.682 0-.293.08-.527.2-.644.14-.136.278-.175.537-.175h.656V.624h-.676c-.477 0-.835.098-1.054.332-.299.292-.378.682-.378 1.111 0 .527.14.839.378 1.093.238.234.676.312 1.014.312h.816l.258-.644h1.433l.278.644h1.432V1.326L22.3 3.472h1.015V.605h-.716zm-11.518 0v2.828h.696V2.399h.756c.259 0 .418.02.517.117.14.136.12.39.12.566v.37h.696v-.565c0-.254-.02-.39-.12-.527-.06-.078-.178-.176-.338-.234.18-.059.498-.312.498-.76 0-.313-.14-.508-.358-.625-.24-.117-.498-.136-.856-.136H11.08zm-2.805 0v2.867h2.328v-.605H8.97V2.3h1.592v-.585H8.97V1.21h1.632V.605H8.275zm-1.69 0l-.836 1.95-.915-1.95H3.7v2.71L2.506.606H1.472L.219 3.472h.756l.278-.644h1.452l.279.644h1.412V1.229l1.015 2.243h.616l1.015-2.243v2.243h.716-.02V.605H6.584zm11.517 1.618l.477-1.15.478 1.15h-.955zm-16.61 0l.477-1.15.478 1.15h-.955zM11.796 1.19h.855c.12 0 .26 0 .339.058.1.04.139.137.139.254 0 .136-.06.234-.14.273-.099.058-.218.058-.338.058h-.855V1.19z"/>
    </defs>
    <g fill="none" fill-rule="evenodd">
        <path fill="#0078A9" d="M30.29 19.524H1.71c-.695 0-1.263-.563-1.263-1.25V1.75C.447 1.063 1.015.5 1.71.5h28.58c.694 0 1.263.563 1.263 1.25v16.524c0 .687-.569 1.25-1.263 1.25"/>
        <g>
            <g transform="translate(2.526 5.833) translate(4.973 5.079)">
                <mask id="is7fgdd1xb" fill="#fff">
                    <use xlink:href="#kxqlkv30ia"/>
                </mask>
                <path fill="#FFFFFE" d="M-0.816 5.118L21.106 5.118 21.106 -0.886 -0.816 -0.886z" mask="url(#is7fgdd1xb)"/>
            </g>
            <g transform="translate(2.526 5.833) translate(0 .157)">
                <mask id="w627boh5od" fill="#fff">
                    <use xlink:href="#n85n6asjlc"/>
                </mask>
                <path fill="#FFFFFE" d="M-0.796 5.059L24.905 5.059 24.905 -0.945 -0.796 -0.945z" mask="url(#w627boh5od)"/>
            </g>
            <path fill="#246EA9" d="M14.303 3.661L15.019 3.661 15.019 0.768 14.303 0.768z" transform="translate(2.526 5.833)"/>
        </g>
        <g>
            <g transform="translate(2.526 5.833) translate(4.973 5.032)">
                <mask id="m4ntfe7o9f" fill="#fff">
                    <use xlink:href="#wda6uwiwce"/>
                </mask>
                <path fill="#FFFFFE" d="M-0.816 5.071L21.106 5.071 21.106 -0.878 -0.816 -0.878z" mask="url(#m4ntfe7o9f)"/>
            </g>
            <g transform="translate(2.526 5.833) translate(0 .156)">
                <mask id="duisebceoh" fill="#fff">
                    <use xlink:href="#j1niu3e8mg"/>
                </mask>
                <path fill="#FFFFFE" d="M-0.796 5.012L24.905 5.012 24.905 -0.936 -0.796 -0.936z" mask="url(#duisebceoh)"/>
            </g>
            <path fill="#246EA9" d="M14.303 3.628L15.019 3.628 15.019 0.761 14.303 0.761z" transform="translate(2.526 5.833)"/>
        </g>
    </g>
</svg>
