<svg xmlns="http://www.w3.org/2000/svg" xmlns:xlink="http://www.w3.org/1999/xlink" width="38" height="25" viewBox="0 0 38 25">
    <defs>
        <path id="0j18rhabva" d="M22.346.071h1.536v.683h-1.654c-.85 0-1.18.543-1.18 1.038 0 1.108.968 1.06 1.748 1.084.141 0 .212.024.283.071.047.047.094.142.094.236 0 .118-.047.188-.094.236-.071.07-.166.094-.331.094h-1.606v.754h1.606c.543 0 .921-.141 1.134-.448h.023v.92c-.354.141-.779.212-1.228.212h-2.15v-.306c-.26.188-.708.306-1.133.306h-6.78V3.843c0-.142 0-.142-.142-.142h-.117v1.25H10.11V3.654c-.378.165-.803.165-1.157.165h-.26v1.132H5.977l-.662-.754-.709.754H.213V.118H4.7l.638.73.684-.777H9c.354 0 .921.047 1.181.282V.071h2.693c.236 0 .78.047 1.11.282V.071h4.063v.282c.213-.188.638-.282.992-.282h2.268v.282c.236-.164.567-.282 1.04-.282zm-4.464 3.442v.73h1.63c.827 0 1.299-.33 1.299-1.084 0-.353-.095-.566-.26-.73-.189-.19-.472-.26-.944-.307h-.45c-.141 0-.236-.024-.33-.047-.118-.047-.19-.118-.19-.26 0-.117.024-.212.119-.259.07-.07.165-.07.33-.07h1.512V.754h-1.653c-.874 0-1.181.543-1.181 1.038 0 1.108.969 1.06 1.748 1.084.165 0 .236.024.307.071.047.047.094.142.094.236 0 .118-.047.188-.094.236-.071.07-.166.094-.33.094h-1.607zM14.622.802V4.29h2.764v-.73h-1.937v-.685h1.89V2.17h-1.89v-.637h1.937v-.73h-2.764zm-3.803 0v3.442h.827V2.97h.897c.307 0 .496.047.614.165.166.165.142.471.142.683v.425h.827V3.56c0-.306-.024-.471-.142-.636-.07-.095-.212-.213-.401-.284.212-.07.567-.353.567-.895 0-.401-.166-.613-.426-.778-.26-.142-.567-.165-.992-.165H10.82zm-4.441 0L5.315 1.933 4.299.802H.97v3.442h3.283l1.063-1.155 1.016 1.155h1.606V3.089h1.04c.732 0 1.44-.19 1.44-1.156 0-.943-.732-1.131-1.393-1.131H6.378zm-.543 1.745L7.11 1.179V3.96L5.835 2.547zm5.81-1.038h1.016c.142 0 .308 0 .402.07.118.048.166.166.166.307.023.142-.048.26-.166.33-.118.07-.26.07-.402.07h-1.015V1.51zm-9.85 0h2.079l.898 1.014-.945 1.013H1.795v-.683h1.82v-.708h-1.82V1.51zm20.575.023h1.512v1.015c-.024-.048-.047-.072-.071-.095-.189-.189-.496-.26-.945-.283h-.449c-.118 0-.212-.024-.307-.047-.118-.047-.189-.118-.189-.26 0-.117.024-.212.118-.259.071-.07.19-.07.331-.07zm-14.433 0h1.087c.307 0 .496.118.496.425.023.283-.19.448-.496.448H7.937v-.873z"/>
        <path id="0kg0knk3fc" d="M26.103.047h2.314V4.88H26.08l-.45-.73v.73h-2.905l-.307-.778h-.708l-.331.778h-1.512c-.59 0-1.04-.141-1.323-.306v.306h-3.59V3.772c0-.141-.024-.165-.118-.165h-.142V4.88H7.748v-.59l-.236.59H6.07l-.26-.59v.59H3l-.307-.778h-.709l-.33.778H.236V2.334L1.228.047h2.174l.283.566V.047h2.551l.544 1.25.543-1.25h8.055c.378 0 .709.07.945.283V.047h2.197V.33c.378-.212.85-.283 1.393-.283h3.19l.306.566V.047h2.363l.33.566V.047zm.732.684v2.405L25.37.73h-1.276v3.3L22.701.755h-1.252L20.268 3.49h-.378c-.213 0-.45-.047-.567-.188-.166-.189-.236-.448-.236-.825 0-.354.094-.637.236-.778.165-.166.33-.213.638-.213h.78v-.73h-.804c-.567 0-.992.117-1.252.4-.354.354-.449.825-.449 1.344 0 .637.166 1.014.449 1.32.284.283.803.378 1.205.378h.968l.307-.778h1.701l.33.778h1.702V1.603l1.582 2.594h1.205V.73h-.85zm-13.678 0V4.15h.827V2.9h.898c.307 0 .496.024.614.141.165.165.142.472.142.684v.448h.826V3.49c0-.306-.023-.471-.141-.636-.071-.095-.213-.212-.402-.283.213-.07.59-.377.59-.92 0-.377-.165-.613-.424-.754-.284-.142-.59-.165-1.016-.165h-1.914zm-3.33 0v3.466h2.764v-.731h-1.937v-.684h1.89v-.707h-1.89v-.613h1.937V.73H9.827zm-2.008 0l-.992 2.358L5.74.73H4.394v3.277L2.976.731H1.748L.26 4.197h.897l.331-.778h1.725l.33.778H5.22V1.485l1.205 2.712h.732l1.205-2.712v2.712h.85-.023V.73h-1.37zm13.677 1.957l.567-1.391.567 1.39h-1.134zm-19.724 0l.567-1.391.567 1.39H1.772zm12.236-1.25h1.016c.141 0 .307 0 .401.07.118.048.166.166.166.307 0 .165-.071.283-.166.33-.118.071-.26.071-.401.071h-1.016v-.778z"/>
    </defs>
    <g fill="none" fill-rule="evenodd">
        <path fill="#E2E2E2" d="M36 24.952H2c-1.1 0-2-.898-2-1.996V1.996C0 .898.9 0 2 0h34c1.1 0 2 .898 2 1.996v20.96c0 1.098-.9 1.996-2 1.996"/>
        <path fill="#B0B0B0" d="M35.97 23.384H2.03c-.824 0-1.5-.675-1.5-1.497V2.096c0-.823.676-1.497 1.5-1.497h33.94c.824 0 1.5.674 1.5 1.497v19.79c0 .823-.676 1.498-1.5 1.498"/>
        <g>
            <g transform="translate(3 6.987) translate(5.906 6.083)">
                <mask id="gnp3boaheb" fill="#fff">
                    <use xlink:href="#0j18rhabva"/>
                </mask>
                <path fill="#FFFFFE" d="M-0.969 6.13L25.063 6.13 25.063 -1.061 -0.969 -1.061z" mask="url(#gnp3boaheb)"/>
            </g>
            <g transform="translate(3 6.987) translate(0 .189)">
                <mask id="upnhhtabqd" fill="#fff">
                    <use xlink:href="#0kg0knk3fc"/>
                </mask>
                <path fill="#FFFFFE" d="M-0.945 6.059L29.575 6.059 29.575 -1.132 -0.945 -1.132z" mask="url(#upnhhtabqd)"/>
            </g>
            <path fill="#B0B0B0" d="M16.984 4.385L17.835 4.385 17.835 0.919 16.984 0.919z" transform="translate(3 6.987)"/>
        </g>
    </g>
</svg>
