<svg xmlns="http://www.w3.org/2000/svg" xmlns:xlink="http://www.w3.org/1999/xlink" width="38" height="25" viewBox="0 0 38 25">
    <defs>
        <path id="3nvyywjd1a" d="M.055 17.99H.024v-6.112H4.752c.009-.002.019-.002.029-.002h.03l.029-.002h.028l.029-.004.03-.003.028-.002c.01 0 .02 0 .029-.002.01 0 .02-.003.029-.004l.029-.003.029-.004.03-.005c.01 0 .019-.003.027-.004l.03-.005.03-.006c.009 0 .019-.003.028-.004l.029-.007.029-.006.029-.006.029-.007.03-.008.027-.008.03-.008.029-.009.029-.009c.01-.002.019-.005.029-.01.01-.002.019-.005.029-.01.01-.002.02-.006.029-.009l.029-.012.029-.01.029-.013.028-.011c.01-.005.02-.008.03-.014.01-.003.02-.01.03-.013l.028-.014.029-.014.029-.016.029-.017.029-.017.029-.017c.01-.006.019-.011.028-.02.01-.004.02-.011.03-.017l.029-.02.029-.022.028-.022.03-.023c.01-.008.02-.015.028-.024l.03-.026.029-.027.028-.028.029-.03.03-.032.03-.035.027-.036.03-.037.029-.044.029-.046.029-.051c.009-.02.019-.037.029-.056l.028-.066c.011-.026.021-.05.03-.078.011-.033.02-.065.029-.099.011-.05.021-.098.028-.151.009-.062.013-.126.013-.192 0-.065-.004-.127-.013-.188-.007-.05-.017-.097-.028-.145-.009-.032-.018-.064-.029-.096-.009-.025-.019-.05-.03-.074l-.028-.064-.029-.055-.029-.049-.029-.045-.029-.04-.03-.038-.027-.035-.03-.033-.03-.031-.029-.03c-.009-.01-.019-.017-.028-.026l-.029-.026c-.01-.01-.02-.017-.03-.025l-.028-.023-.03-.023-.028-.02c-.009-.008-.019-.015-.029-.02l-.029-.02-.03-.02-.028-.017-.029-.018c-.01-.004-.02-.01-.029-.015-.009-.007-.019-.01-.029-.016l-.029-.016c-.01-.004-.019-.01-.029-.013l-.028-.015-.03-.012-.03-.013-.028-.012-.029-.01-.029-.012-.029-.011-.029-.01c-.01-.002-.019-.007-.029-.01-.01-.002-.019-.007-.029-.01-.009-.002-.019-.005-.029-.01l-.029-.006-.03-.01c-.009-.001-.017-.004-.027-.007l-.03-.006c-.01-.004-.02-.005-.029-.007l-.029-.008-.029-.005c-.009-.002-.019-.005-.029-.006l-.028-.006-.03-.005c-.01-.002-.02-.004-.03-.004l-.027-.005c-.01-.003-.02-.004-.03-.004l-.029-.004-.029-.004-.029-.004-.029-.003-.028-.002-.03-.002-.027-.003v-.035l.027-.004.03-.004.028-.006.029-.005.029-.006.029-.006.029-.007c.01-.003.02-.004.03-.008l.027-.006.03-.009.03-.009c.009-.002.019-.005.028-.009l.029-.008c.01-.005.019-.008.029-.01l.029-.012.029-.01.03-.013.027-.012.03-.013.029-.014c.01-.005.02-.008.029-.014.01-.004.019-.01.029-.015l.029-.016.029-.016.029-.017.029-.019.029-.019.028-.019.03-.021.03-.022.028-.024.029-.024.029-.027.029-.028.029-.03.029-.03.028-.033.03-.037.029-.039.029-.042c.01-.016.02-.03.028-.046l.03-.052c.01-.019.02-.037.028-.057.011-.021.021-.043.03-.066.01-.025.02-.051.029-.08.01-.032.02-.067.028-.101.014-.056.024-.114.029-.172.006-.045.008-.092.008-.138 0-.05-.002-.098-.008-.145-.005-.061-.015-.12-.029-.176-.008-.035-.018-.07-.028-.103l-.029-.079c-.009-.022-.019-.042-.03-.064-.008-.02-.018-.04-.028-.057l-.03-.05c-.008-.015-.018-.03-.028-.044-.009-.015-.019-.028-.029-.042l-.029-.037c-.01-.012-.019-.024-.03-.035l-.028-.033-.029-.03-.029-.028-.029-.027-.029-.026-.029-.023-.028-.023-.03-.021-.03-.02-.028-.02-.029-.018-.029-.017-.029-.017-.029-.016-.029-.014-.029-.016c-.009-.004-.019-.01-.029-.013l-.029-.014c-.01-.003-.02-.01-.03-.012l-.027-.012-.03-.012-.029-.011-.029-.01-.029-.01-.029-.01-.028-.009-.03-.008c-.01-.004-.02-.007-.03-.008-.008-.003-.017-.007-.027-.008l-.03-.008-.029-.007-.029-.006-.029-.006-.029-.007-.028-.004-.03-.007c-.01 0-.019-.002-.029-.004l-.028-.004-.029-.004-.03-.004-.029-.003-.029-.004-.028-.003h-.03l-.028-.004-.03-.002-.029-.003H4.55l-.03-.002-.029-.002h-.029l-.028-.003h-.03l-.028-.002h-.03l-.028-.002H.024V3.003c0-.21.021-.414.062-.612l.029-.125.028-.106.03-.094c.01-.027.018-.055.029-.083l.029-.078.029-.07.029-.065c.009-.022.018-.043.028-.063l.03-.06.029-.054.028-.053.029-.05.03-.049.028-.047.03-.045.029-.042.029-.041.029-.04.029-.04.029-.036c.008-.012.018-.024.028-.036l.03-.035.029-.034.028-.033L.81.98.84.95l.028-.03.03-.03.028-.028.029-.029.029-.027.03-.025.028-.027.029-.025c.01-.01.02-.016.03-.025L1.129.68l.03-.024.028-.022.029-.023c.009-.008.019-.014.029-.021l.03-.022.028-.021.029-.019.029-.02.03-.019c.009-.006.018-.013.028-.018l.029-.019.029-.017.029-.018.029-.016c.01-.007.02-.01.029-.017l.028-.016.03-.016.03-.015.028-.014.029-.016.029-.013c.01-.005.02-.008.029-.014l.029-.013.03-.011c.009-.005.018-.01.027-.013.01-.005.02-.01.03-.012l.029-.012.03-.012.027-.01c.01-.005.02-.008.03-.011.01-.005.02-.007.029-.01l.029-.011.029-.01.029-.01.028-.008.03-.008.029-.01.028-.007.03-.007.029-.008.029-.008.029-.007.029-.006.028-.006.03-.007.029-.004c.01-.002.019-.005.029-.006L2.52.048l.03-.005.028-.005.03-.003.028-.005.029-.003.029-.003.03-.004.029-.002.028-.003.029-.002.03-.002.029-.003h.028l.03-.001.028-.001h.03l.029-.001H7.431v14.986c0 .091-.004.179-.012.266-.007.077-.017.153-.03.23-.007.05-.017.099-.028.149l-.029.12c-.008.036-.018.07-.029.103l-.029.091-.029.082-.029.074-.028.07-.03.065c-.01.02-.019.042-.029.06l-.029.06-.028.053-.03.052-.028.051-.03.047-.028.046-.03.044-.028.044-.03.04-.029.04-.028.038-.03.038-.029.036-.029.033-.028.035-.03.031-.028.033-.03.031-.029.031-.028.028-.029.029-.03.028-.028.026-.029.027-.029.026-.029.025-.029.024-.03.023-.027.024c-.01.008-.02.016-.03.022l-.03.023c-.009.007-.019.015-.029.02-.009.009-.019.015-.028.022l-.029.02-.03.02c-.008.007-.018.013-.028.02l-.03.018c-.01.006-.018.013-.028.018l-.029.02-.029.017-.03.016-.028.018-.029.016-.029.016-.029.015-.029.015-.029.015c-.01.005-.019.01-.028.013l-.03.016-.03.012-.028.014c-.01.003-.019.009-.029.012l-.029.013-.029.012-.029.01c-.01.006-.019.009-.029.012l-.029.012-.029.01c-.01.003-.019.008-.029.01-.01.004-.02.008-.03.01l-.027.01-.03.01-.029.008-.029.009c-.01.003-.019.007-.029.008l-.029.008-.028.008-.03.008-.03.006-.027.007-.03.007-.029.006-.029.006-.029.006c-.009 0-.019.002-.029.004l-.028.005-.03.004-.029.005-.028.004-.029.004-.03.003-.029.004-.029.002-.028.004-.03.002-.028.002-.03.002-.029.001-.028.001-.03.001-.029.002h-.029l-.028.001H.055zM3.071 7.01h.013l.017.002c.01 0 .019 0 .029.002.009 0 .019 0 .028.002.011 0 .021 0 .029.002l.03.002.021.003.007.001.03.006.028.007.029.007.029.01c.01.005.02.007.03.011l.028.013c.009.004.019.008.029.014l.03.014.028.017c.01.007.02.012.03.02l.028.02.029.023.029.026.03.03c.009.01.019.02.028.032l.029.038.029.042.029.053c.011.022.021.044.029.067.011.032.021.063.029.097.012.054.017.11.017.17 0 .058-.005.114-.017.168-.008.034-.018.067-.029.098-.008.023-.018.045-.029.066l-.029.052-.029.044-.029.037-.028.033-.03.028c-.01.01-.018.018-.029.026l-.029.024-.028.02c-.01.008-.02.013-.03.019l-.028.016c-.01.007-.02.01-.03.017l-.029.013-.028.012c-.01.003-.02.008-.03.01l-.029.01-.029.008-.028.008-.03.005-.007.002-.021.003c-.009 0-.019 0-.03.002l-.029.003c-.009.002-.019.003-.028.003-.01 0-.019 0-.029.002H1.492V7.01h1.579zM3.24 9.36h.005l.03.002.028.002.029.002.029.002.03.005.028.003.018.004.011.003.03.007.028.009.03.01.028.01.029.013.029.014.03.015.028.018.029.019.029.02.029.023.029.026.029.028c.01.01.02.02.028.031.011.01.02.022.03.035l.029.038.029.046c.01.018.02.036.028.055.011.023.021.045.03.069.012.031.022.065.028.099.014.057.021.119.021.182 0 .065-.007.127-.021.186-.006.034-.016.066-.028.098-.009.023-.019.046-.03.068-.008.019-.018.038-.028.055l-.029.046-.029.04-.03.034-.028.03-.029.03-.029.024-.029.023-.029.021-.029.018c-.009.007-.019.012-.028.018l-.03.015-.029.013c-.01.006-.019.01-.029.013l-.028.013-.03.009-.028.008c-.01.002-.02.004-.03.008l-.011.001-.018.004-.028.005-.03.003-.029.003-.029.002-.028.002-.03.001-.015.001H1.492V9.361H3.24z"/>
        <path id="xa03t55sac" d="M1.407.77l-.012.01-.029.027c-.009.01-.019.018-.028.026-.01.01-.019.02-.029.028l-.03.03-.028.03-.03.03-.027.03-.03.033c-.01.01-.02.021-.029.033l-.029.034-.029.035-.029.035-.028.038-.03.04-.028.038-.029.042-.03.043-.028.045-.03.046-.029.048-.028.051-.029.053-.029.056c-.011.019-.019.038-.029.058l-.029.06-.028.067c-.011.023-.02.048-.03.071l-.029.077-.029.084-.028.094-.029.105c-.011.042-.021.084-.029.125-.039.187-.06.378-.063.576v7.437l.063.03.029.014.029.013.028.013.029.014.029.012.03.014.028.013.029.013.029.013.029.012.029.013.028.012.029.012.03.012.028.01.03.013.029.012.028.011.03.01.028.012.029.011.029.011.029.01.029.011.03.011.027.01.03.011.028.01.03.01.029.01.028.01.029.008.012.004V.77zm0 11.106l-.012-.002-.029-.005-.028-.005-.029-.004-.03-.005-.028-.006-.03-.005-.027-.005-.03-.004-.029-.006-.029-.005-.029-.005-.029-.006-.028-.006-.03-.004-.028-.007-.029-.005-.03-.007-.028-.005-.03-.006-.029-.006-.028-.006-.029-.006-.029-.007-.029-.007-.029-.005-.028-.007-.03-.007-.029-.007-.029-.006-.028-.007-.029-.007-.029-.006-.063-.017v6.317h1v-6.113z"/>
        <path id="n9d7i0762e" d="M7.79.005H3.391l-.028.001h-.029l-.029.001-.029.001-.029.001-.028.003-.029.002-.03.002-.028.002-.03.002-.029.005-.028.002-.03.004c-.009 0-.019.003-.028.004-.01 0-.02.002-.029.004-.009 0-.019.003-.029.005L2.9.049c-.009 0-.019.003-.029.004l-.029.006-.028.005-.03.007-.029.006c-.009.003-.019.004-.029.006L2.697.09l-.028.007c-.01 0-.019.005-.029.008l-.03.007-.028.008-.029.009c-.01.003-.02.005-.029.009l-.029.008-.029.01-.029.009-.028.01c-.01.004-.02.008-.03.01l-.028.012-.03.01-.029.013-.028.012-.03.01-.028.014-.03.012c-.009.003-.018.01-.028.013-.01.005-.019.01-.029.013L2.09.31l-.03.014-.028.015-.029.014-.028.016-.03.017-.029.016-.029.017-.028.017-.03.018-.028.018-.03.018-.028.02-.029.02-.029.02-.029.02-.029.02c-.01.009-.019.015-.029.022l-.029.023-.029.023-.03.023c-.008.009-.018.016-.028.024l-.029.024-.028.025-.03.026-.029.027c-.009.01-.019.018-.028.026-.01.01-.019.02-.029.028l-.03.03-.028.03-.03.03-.027.03-.03.033c-.01.01-.02.021-.029.033l-.029.034-.029.035-.029.035-.028.038-.03.04-.028.038-.029.042-.03.043-.028.045-.03.046-.029.048-.028.051-.029.053-.029.056c-.011.019-.019.038-.029.058l-.029.06-.028.067c-.011.023-.02.048-.03.071l-.029.077-.029.084-.028.094-.029.105c-.011.042-.021.084-.029.125-.041.198-.063.4-.063.611v7.402l.063.03.029.014.029.013.028.013.029.014.029.012.03.014.028.013.029.013.029.013.029.012.029.013.028.012.029.012.03.012.028.01.03.013.029.012.028.011.03.01.028.012.029.011.029.011.029.01.029.011.03.011.027.01.03.011.028.01.03.01.029.01.028.01.029.008.03.01.028.008.029.01.028.008.03.01.029.007.029.01.029.008.029.008.029.007.029.008.029.008.028.007.03.007.028.007.03.008.028.007.029.006.029.007.03.006.028.006.029.006.028.006.03.006.029.006.029.004.028.007.03.004.028.005.03.004.028.005.029.005.03.003.028.005.03.004.028.003.029.004.029.003.029.003.029.003.029.003.028.002.03.003.029.002h.028l.029.004.029.002h.029l.03.003h.057l.029.002H3.073l.029-.001h.03l.028-.002.03-.002.029-.003c.009-.002.019-.002.028-.003l.029-.003.029-.004c.01 0 .019-.001.029-.004l.029-.004.028-.004.03-.006.029-.005c.01-.004.019-.005.029-.007l.029-.007.028-.007.029-.008.03-.01c.01-.001.02-.003.028-.007l.029-.01c.01-.002.02-.006.029-.01.01-.002.019-.007.029-.01l.03-.011.028-.012.029-.013c.009-.003.019-.009.029-.012l.029-.015.029-.015c.01-.004.02-.01.029-.015.01-.007.018-.01.028-.016l.03-.018.028-.019.03-.019c.009-.006.019-.015.028-.02l.029-.022.029-.024.03-.023.028-.026.029-.027.029-.03.029-.031.029-.033.029-.036c.01-.013.019-.025.028-.04l.03-.041c.01-.014.02-.031.028-.045l.03-.05.029-.056.028-.064c.011-.024.021-.049.03-.073l.028-.088c.012-.038.021-.077.03-.116.013-.064.023-.129.028-.195.004-.054.008-.107.008-.161V6.115H7.197v3.478c0 .101-.005.2-.015.298-.007.07-.016.14-.029.207-.009.045-.018.091-.029.136-.008.036-.018.071-.028.107l-.03.09c-.008.026-.018.052-.029.078l-.029.07-.028.062c-.009.02-.019.04-.029.057l-.029.054-.03.05-.027.045-.03.043c-.01.015-.018.029-.029.042l-.029.038-.029.037-.028.035-.029.033-.03.033-.028.03-.029.029-.03.028-.028.026-.03.026c-.009.01-.019.017-.028.026l-.029.024-.029.023-.029.023-.029.022-.03.02-.027.021-.03.019-.029.019-.029.019-.028.018-.029.017c-.01.007-.019.01-.029.018l-.03.016-.028.015-.029.016-.029.015c-.009.006-.019.01-.029.015l-.029.014-.029.014-.028.013-.03.013-.028.013-.03.012-.029.013-.028.01c-.01.005-.02.008-.03.011-.009.005-.018.008-.028.012l-.03.011-.028.01c-.01.004-.019.008-.029.01-.009.004-.019.008-.029.01l-.03.01-.028.01-.029.01-.028.008-.03.01-.029.008-.028.008-.029.008-.03.008-.028.008-.03.007-.027.008-.03.007-.03.006c-.009.002-.019.004-.028.008l-.029.005-.029.007-.029.006-.029.006-.03.006-.027.006-.03.005-.028.005-.03.006-.029.005-.028.005c-.01.001-.019.002-.029.005l-.03.005-.028.003-.029.005-.028.004-.03.004-.029.004-.029.004-.028.003-.03.004-.028.004-.03.002-.028.004-.029.003-.03.002-.028.004-.03.003-.028.002-.029.002-.029.003-.029.002-.029.002-.029.003-.028.002-.03.002h-.029l-.029.002-.028.003h-.03l-.028.003h-.03l-.028.002h-.029l-.029.002h-.029l-.029.002h-.029l-.028.002h-.059l-.029.002H3.305l-.029-.001h-.029l-.028-.001-.029-.002h-.03l-.028-.001-.03-.001-.029-.001-.028-.001h-.03l-.028-.001-.029-.002-.029-.001-.029-.001-.029-.003h-.029l-.028-.002-.03-.001-.029-.002-.029-.002-.029-.002-.028-.002-.029-.002-.03-.002-.028-.002-.029-.001-.029-.002-.029-.003-.029-.003L2.437 12l-.028-.002-.03-.002-.028-.004-.03-.002-.029-.002-.028-.003-.03-.003-.028-.003-.03-.003-.028-.002-.029-.004-.029-.003-.03-.002-.028-.005-.029-.003-.028-.003-.03-.003-.029-.005-.029-.002-.028-.004-.03-.004-.028-.004-.03-.004-.028-.003-.029-.004-.029-.004-.029-.005-.029-.003-.029-.004-.029-.005-.029-.004-.03-.004-.028-.005-.029-.004-.028-.005-.03-.004-.029-.005-.028-.005-.029-.004-.03-.005-.028-.006-.03-.005-.027-.005-.03-.004-.029-.006-.029-.005-.029-.005-.029-.006-.028-.006-.03-.004-.028-.007-.029-.005-.03-.007-.028-.005-.03-.006-.029-.006-.028-.006-.029-.006-.029-.007-.029-.007-.029-.005-.028-.007-.03-.007-.029-.007-.029-.006-.028-.007-.029-.007-.029-.006-.063-.017v6.317H4.867c.01 0 .019 0 .029-.003h.03c.009 0 .018 0 .028-.002h.03l.027-.002c.01 0 .02 0 .03-.002l.029-.003.029-.003.029-.002c.009 0 .019-.002.029-.004l.028-.003c.01 0 .02-.003.03-.004l.03-.004.027-.003.03-.006c.009 0 .019-.002.028-.004l.03-.005.029-.005.028-.006.029-.006.03-.007.028-.006.029-.007c.01-.002.019-.004.028-.008l.03-.007.029-.008.029-.008.028-.008.03-.01c.009-.002.019-.006.028-.01l.03-.008.028-.011.029-.01c.01-.002.02-.006.03-.011.009-.002.018-.006.028-.01l.03-.01.028-.012.029-.012.029-.013.029-.013.029-.012.029-.014c.01-.003.019-.009.028-.013l.03-.014.029-.015.029-.015.028-.015.029-.016.029-.016.03-.015.027-.018.03-.018.029-.018c.009-.005.019-.01.029-.019.01-.005.02-.012.029-.018l.029-.019.028-.02.03-.02.028-.02.03-.021.029-.022.028-.022.03-.024.029-.022c.009-.01.018-.016.028-.024.009-.01.019-.017.029-.025l.029-.026c.009-.01.019-.017.029-.026l.03-.027.027-.027.03-.029c.01-.01.019-.02.029-.028l.029-.03.028-.03.029-.032.029-.033c.01-.01.02-.02.03-.033l.028-.034.029-.034.029-.037.029-.038.029-.04c.01-.012.02-.026.029-.04l.029-.042.029-.043.029-.046.029-.047.029-.048.028-.05.03-.056.028-.054.03-.061.028-.062c.01-.023.02-.045.029-.069.011-.023.019-.048.029-.072l.03-.079.028-.086.029-.096.029-.112.029-.135c.012-.06.022-.119.029-.18.016-.125.025-.255.025-.385V.005H7.79z"/>
        <path id="2fafaguk1g" d="M1.716.77L1.703.78l-.028.026-.029.027c-.01.01-.02.018-.028.028l-.03.028-.03.03-.028.031-.029.03-.029.033-.029.033-.029.034-.029.035-.028.036-.03.037-.028.04-.03.039-.029.041-.028.043-.029.045-.03.046-.028.048-.029.051c-.01.018-.02.035-.028.053l-.03.056-.029.058c-.01.02-.02.04-.029.062l-.028.065-.03.071c-.01.025-.02.052-.028.077l-.03.084-.029.094-.028.107c-.011.04-.021.082-.03.125-.04.197-.061.4-.061.61v3.923l.061-.051.03-.023c.01-.01.02-.016.028-.023l.029-.022.03-.021.028-.022.03-.02.028-.019.029-.02.029-.019.03-.018.028-.018.029-.017.028-.018.03-.016.029-.017.028-.016.029-.016.03-.015.028-.015.03-.016.028-.012.029-.015c.01-.003.02-.01.029-.013l.029-.013.029-.014.029-.013.028-.012.03-.013.03-.012.028-.011.029-.012.028-.012.013-.005V.77zm0 10.876l-.013-.004-.028-.011-.029-.012-.028-.012-.03-.011-.03-.014-.028-.012-.029-.013-.029-.014-.029-.012-.029-.014-.029-.014-.028-.015-.03-.014-.028-.015-.03-.016-.029-.016-.028-.015-.029-.017-.03-.016c-.009-.007-.018-.012-.028-.018l-.029-.017-.028-.018-.03-.018-.029-.019-.029-.02-.028-.02-.03-.02-.028-.02-.03-.022c-.01-.007-.02-.013-.029-.022l-.028-.022c-.01-.008-.02-.014-.03-.023l-.061-.051v6.92h1v-6.343z"/>
        <path id="ke6n2q1wvi" d="M8.098.005H3.7l-.029.001h-.028l-.03.001-.029.001-.029.001-.028.003-.03.002-.028.002-.03.002-.028.002-.029.005-.029.002-.029.004c-.01 0-.019.003-.029.004-.01 0-.02.002-.029.004-.009 0-.019.003-.028.005l-.03.005-.028.004-.03.006-.028.005-.029.007-.029.006-.03.006-.028.008-.029.007c-.01 0-.02.005-.03.008l-.028.007-.03.008-.028.009-.029.009-.029.008-.029.01-.029.01-.029.01-.028.01-.03.01L2.63.21 2.6.22l-.028.012c-.01.003-.019.008-.029.01l-.029.014-.03.012c-.01.005-.019.01-.028.013-.009.005-.019.01-.029.013L2.399.31l-.03.014-.03.015-.028.016-.029.014-.029.017-.029.016-.029.017-.029.018-.028.017-.03.018-.028.02c-.01.005-.02.011-.029.018l-.029.02-.029.02-.029.02-.03.022-.028.02-.029.023c-.01.008-.02.015-.028.023l-.03.024-.029.023-.028.024-.029.025-.03.027-.028.026-.029.027c-.01.01-.02.018-.028.028l-.03.028-.03.03-.028.031-.029.03-.029.033-.029.033-.029.034-.029.035-.028.036-.03.037-.028.04-.03.039-.029.041-.028.043-.029.045-.03.046-.028.048-.029.051c-.01.018-.02.035-.028.053l-.03.056-.029.058c-.01.02-.02.04-.029.062l-.028.065-.03.071c-.01.025-.02.052-.028.077l-.03.084-.029.094-.028.107c-.011.04-.021.082-.03.125-.04.197-.061.4-.061.61v3.923l.061-.051.03-.023c.01-.01.02-.016.028-.023l.029-.022.03-.021.028-.022.03-.02.028-.019.029-.02.029-.019.03-.018.028-.018.029-.017.028-.018.03-.016.029-.017.028-.016.029-.016.03-.015.028-.015.03-.016.028-.012.029-.015c.01-.003.02-.01.029-.013l.029-.013.029-.014.029-.013.028-.012.03-.013.03-.012.028-.011.029-.012.028-.012.03-.011.029-.01.028-.011.029-.011.03-.01.028-.01.029-.01.028-.01.03-.009.029-.009.029-.008.029-.01.029-.008.028-.009.03-.007.028-.009.029-.008.029-.008.029-.006.029-.009.029-.006.028-.008.03-.007.03-.006.028-.007.029-.006.028-.007.03-.006.029-.006.029-.006L2.6 6.1l.03-.006.028-.004.03-.006.028-.005.029-.005.029-.005.029-.005.029-.005.029-.004.028-.005.03-.004.028-.004.03-.005.029-.004.028-.004.03-.004.029-.003.029-.004.028-.004.03-.003.028-.002.03-.004L3.266 6l.029-.002.029-.003.029-.003.029-.002.029-.003.028-.002.03-.003h.028l.03-.004.028-.002.029-.002.029-.001.03-.002.028-.001.029-.003.028-.002.03-.001.03-.001.027-.001.03-.001.029-.002.029-.001.029-.002h.029l.028-.001.03-.001h.028l.029-.001.029-.001h.029l.029-.001h.087l.028-.001H4.481l.029.002h.087l.029.002h.029l.029.002h.058l.028.002h.03l.028.002.03.002h.028l.029.002H4.944l.03.002h.028l.029.004.028.002h.03l.03.003.027.002.03.002.029.002.029.001.029.003.028.002.029.003.03.002.028.003.03.003.028.002.029.004.029.003.029.002.028.004.03.004.028.002.03.004.029.003.028.004.029.004.03.003.028.004.029.004.028.004.03.004.03.003.028.006.029.003.029.004.029.005.029.004.029.003.028.006.03.004.028.005.03.004.028.005.029.005.029.005.029.005.029.005.029.005.028.004.03.005.029.006.029.005.028.006.03.005.029.006.029.004.028.007.029.005.03.006.028.005.03.006.028.006.029.006.029.005.029.007.029.005.029.007.028.006.03.006.029.007.028.006.029.007.029.005.029.007.03.007.027.007.03.006.03.007.028.007.029.007v1.268l-.029-.014-.028-.015-.03-.014-.03-.013-.027-.014-.03-.013-.029-.015-.029-.013-.029-.013-.028-.014-.029-.013-.03-.013-.028-.014-.029-.012-.029-.013-.029-.011-.029-.013-.029-.012-.028-.012-.03-.012-.028-.011-.03-.012-.029-.011-.028-.011-.029-.011-.029-.011-.03-.01-.028-.01-.029-.01-.029-.01-.03-.01-.028-.01-.029-.01-.029-.01-.029-.01-.029-.008-.029-.009-.028-.009-.03-.009-.028-.007-.03-.009-.028-.008-.029-.007-.029-.008-.029-.009-.029-.006-.029-.008-.028-.007-.03-.006-.03-.008-.028-.007-.029-.005-.028-.007-.03-.006-.029-.006-.028-.004-.029-.006-.03-.005-.028-.006-.03-.005-.028-.005-.029-.004-.029-.005-.029-.005-.028-.004-.03-.003-.028-.006-.03-.003-.029-.003-.028-.004-.029-.003-.029-.004-.029-.003-.03-.003-.027-.003-.03-.002-.03-.002-.028-.003-.018-.002-.011-.001-.028-.001-.03-.002-.029-.001-.029-.002-.028-.002-.03-.001H4.8l-.03-.001h-.201c-.01 0-.02 0-.03.002l-.029.002-.029.002h-.029l-.028.004h-.03c-.009.002-.019.002-.029.003-.01 0-.019.003-.028.004l-.029.002-.03.004-.028.003-.03.004-.027.004-.03.005c-.01 0-.019.003-.029.005-.01 0-.02.002-.029.004l-.029.006-.029.005-.028.006-.03.006-.028.007L3.932 7l-.029.006-.029.009-.029.007-.03.008-.027.01-.03.008c-.01.002-.02.005-.03.01-.008.002-.018.005-.028.01-.01.002-.02.006-.029.01l-.028.01-.03.011-.029.012-.029.012-.028.012-.03.014-.028.014-.03.014-.028.015-.029.016c-.01.004-.019.011-.029.015l-.029.017-.029.017-.029.019-.028.018-.03.02-.028.02-.03.022c-.01.007-.02.015-.028.023l-.029.022-.029.025-.03.025-.028.026-.029.028-.03.029-.028.03-.03.032-.028.034-.029.035-.029.037-.029.04-.029.042-.029.045-.028.048-.03.053c-.01.018-.019.037-.028.057-.011.019-.021.04-.03.06l-.028.07-.029.076c-.011.03-.021.06-.029.09-.011.034-.021.07-.03.106-.011.045-.02.089-.028.136-.012.07-.022.14-.029.212-.008.084-.012.17-.012.26 0 .089.004.174.012.26.007.072.017.142.029.21.008.047.017.093.028.138l.03.105c.008.03.018.06.029.088l.029.079.028.068.03.06.028.058.03.053.028.047.029.045.029.042.029.04.029.038.029.035.028.033.03.032.028.03.03.03.029.027.028.027.03.025c.009.009.019.016.029.024l.029.023c.008.008.018.015.028.022l.03.022.028.02.03.02.028.017c.009.008.019.013.029.02l.029.016c.009.007.019.011.029.017l.029.017.029.014.028.015.03.015.028.013.03.014.028.012.029.012.029.012.03.012.028.01.029.01.028.01.03.01.03.009.027.008.03.009.029.008.029.008.029.007.029.007.028.006.03.006.028.006.029.006.029.005c.009 0 .019.004.029.005l.029.005c.01 0 .02.002.03.005l.027.004.03.003.028.003.03.004.029.003.028.003h.029l.03.004.028.003h.029l.029.003h.059l.028.002.029.002H4.77l.03-.002.028-.001.03-.001h.028l.029-.002.029-.001.03-.002.028-.002.011-.002.018-.001.028-.002.03-.003.03-.002.027-.003.03-.003.029-.003.029-.003.029-.004.028-.003.029-.004.03-.005.028-.003.03-.004.028-.005.029-.005.029-.004.029-.005.028-.004.03-.006.028-.005.03-.006.029-.005.028-.006.029-.006.03-.007.028-.005.029-.007.028-.007.03-.007.03-.007.028-.006.029-.007.029-.008.029-.008.029-.008.029-.008.028-.007.03-.008.028-.009.03-.009.028-.008.029-.009.029-.009.029-.01.029-.008.029-.01.028-.01.03-.01.029-.01.029-.01.028-.01.03-.01.029-.012.029-.012.028-.01.029-.01.03-.012.028-.012.03-.011.028-.012.029-.012.029-.013.029-.011.029-.013.029-.012.028-.013.03-.013.029-.012.028-.014.029-.014.029-.013.029-.013.03-.014.027-.014.03-.015.03-.014.028-.014.029-.014v1.268l-.029.007-.028.007-.03.007-.03.006-.027.006-.03.007-.029.008-.029.005-.029.007-.028.006-.029.007-.03.005-.028.007-.029.006-.029.006-.029.005-.029.007-.029.005-.028.006-.03.006-.028.006-.03.006-.029.005-.028.005-.029.007-.029.004-.03.006-.028.005-.029.005-.029.006-.03.005-.028.005-.029.005-.029.005-.029.004-.029.005-.029.005-.028.005-.03.005-.028.003-.03.006-.028.004-.029.005-.029.004-.029.004-.029.004-.029.005-.028.004-.03.004-.03.004-.028.003-.029.005-.028.003-.03.004-.029.004-.028.003-.029.004-.03.003-.028.003-.03.004-.028.003-.029.003-.029.003-.029.002-.028.004-.03.003L5.35 12l-.03.003-.029.002-.028.004h-.029l-.029.004-.029.002-.03.003h-.027l-.03.003-.03.002-.028.002h-.029l-.028.002-.03.002H4.93l-.015.002h-.029l-.028.002h-.03l-.028.002H4.742l-.029.002h-.029l-.029.002-.029.002h-.087l-.029.002H4.134l-.029-.001h-.029l-.029-.001-.028-.002h-.03l-.028-.001-.029-.001-.029-.001-.029-.001-.029-.001-.03-.001-.027-.001-.03-.002-.03-.001-.028-.002-.029-.002-.028-.002-.03-.002-.029-.002-.029-.001-.028-.003-.03-.002-.028-.002-.03-.002-.028-.002-.029-.004L3.353 12 3.324 12l-.029-.003-.029-.004-.028-.003-.03-.003-.028-.003-.03-.004-.028-.003-.029-.003-.029-.005-.03-.004-.028-.002-.029-.006-.03-.003-.028-.004-.03-.005-.028-.004-.029-.005-.029-.005-.029-.004-.029-.006-.029-.004-.028-.006-.03-.005-.028-.005-.03-.006-.028-.006-.029-.006-.029-.006-.03-.006-.028-.006-.029-.007-.028-.006-.03-.007-.03-.007-.028-.008-.029-.006-.029-.008-.029-.007-.029-.007-.029-.009-.028-.009-.03-.007-.028-.009-.029-.009-.029-.009-.029-.009-.029-.008-.03-.01c-.01-.002-.018-.006-.028-.01l-.029-.009-.028-.01c-.01-.002-.02-.006-.03-.01l-.029-.01-.028-.01-.029-.011-.03-.011-.028-.011-.029-.012-.028-.012-.03-.011-.03-.014-.028-.012-.029-.013-.029-.014-.029-.012-.029-.014-.029-.014-.028-.015-.03-.014-.028-.015-.03-.016-.029-.016-.028-.015-.029-.017-.03-.016c-.009-.007-.018-.012-.028-.018l-.029-.017-.028-.018-.03-.018-.029-.019-.029-.02-.028-.02-.03-.02-.028-.02-.03-.022c-.01-.007-.02-.013-.029-.022l-.028-.022c-.01-.008-.02-.014-.03-.023l-.061-.051v6.92H5.176c.009 0 .019 0 .029-.003h.029c.009 0 .019 0 .029-.002h.028l.029-.002c.01 0 .02 0 .03-.002.01 0 .018-.002.028-.003l.03-.003.028-.002c.01 0 .019-.002.029-.004l.029-.003c.01 0 .02-.003.029-.004l.028-.004.03-.003.028-.006c.01 0 .02-.002.03-.004l.029-.005.028-.005.029-.006.03-.006.028-.007.029-.006.028-.007c.01-.002.02-.004.03-.008l.03-.007.028-.008.029-.008.029-.008.029-.01c.009-.002.019-.006.029-.01l.029-.008.028-.011.03-.01.028-.011c.01-.002.02-.006.03-.01l.028-.01.029-.012.029-.012.029-.013.029-.013c.01-.003.019-.007.029-.012l.028-.014c.01-.003.02-.009.03-.013l.029-.014.029-.015.028-.015.03-.015.029-.016.029-.016.028-.016.029-.017.03-.018c.009-.006.018-.01.028-.018.01-.005.02-.01.03-.019l.028-.018.029-.019.029-.02.029-.02.029-.02.029-.021.028-.022.03-.022.029-.024c.009-.008.019-.014.028-.023l.029-.023.029-.026.029-.025c.01-.01.02-.017.03-.026.01-.008.019-.018.027-.027l.03-.027.03-.029.028-.029.029-.029.029-.032.029-.03.029-.033.029-.033.028-.034.03-.035.028-.036.03-.04.029-.038c.01-.012.019-.026.028-.04l.029-.042.029-.044.029-.045.029-.047c.01-.015.02-.032.028-.048l.03-.052c.01-.017.02-.035.029-.054l.029-.055c.01-.02.02-.04.028-.06l.029-.063c.011-.022.02-.045.029-.068l.03-.072c.01-.027.02-.053.028-.079.011-.029.02-.058.029-.086l.03-.096.028-.112c.011-.044.021-.09.03-.135.011-.06.02-.119.028-.18.017-.125.025-.255.025-.385V.005h-.025z"/>
        <path id="td4l4zw98k" d="M.055 18.024H.024v-6.123H4.695l.028-.001h.029l.029-.001.03-.001.029-.001.028-.001.029-.003.03-.003.028-.002.029-.002.029-.004.029-.003.029-.004.03-.005c.01 0 .019-.003.027-.004l.03-.005.03-.006.028-.004.029-.007.029-.006.029-.006.029-.007.03-.008.027-.008.03-.008.029-.009.029-.009c.01-.002.019-.005.029-.01.01-.002.019-.005.029-.01.01-.002.02-.006.029-.009l.029-.012.029-.01c.01-.005.019-.008.029-.014l.028-.011c.01-.005.02-.008.03-.014.01-.003.02-.009.03-.013l.028-.014.029-.014.029-.016.029-.017.029-.017.029-.017c.01-.006.019-.011.028-.019l.03-.018.029-.02.029-.022.028-.022.03-.023c.01-.008.02-.015.028-.024l.03-.026.029-.027.028-.028c.011-.01.02-.02.029-.031l.03-.031.03-.035.027-.036.03-.038.029-.044.029-.046.029-.051.029-.056.028-.066c.011-.026.021-.051.03-.078.011-.033.02-.065.029-.099.011-.05.021-.099.028-.152.009-.062.013-.126.013-.192 0-.065-.004-.127-.013-.188-.007-.051-.017-.098-.028-.146-.009-.032-.018-.064-.029-.096-.009-.025-.019-.05-.03-.074l-.028-.064-.029-.055-.029-.049-.029-.045-.029-.041-.03-.038-.027-.035-.03-.033-.03-.031-.029-.029-.028-.027-.029-.026-.03-.025-.028-.023-.03-.023-.028-.02c-.009-.008-.019-.015-.029-.021l-.029-.02c-.01-.005-.02-.013-.03-.019l-.028-.017-.029-.018c-.01-.004-.02-.011-.029-.015-.009-.007-.019-.011-.029-.016l-.029-.016c-.01-.004-.019-.01-.029-.013l-.028-.015-.03-.012-.03-.013-.028-.012-.029-.011-.029-.012-.029-.011-.029-.01c-.01-.002-.019-.007-.029-.01-.01-.002-.019-.007-.029-.01l-.029-.009-.029-.007-.03-.009-.027-.008-.03-.006c-.01-.004-.02-.005-.029-.007l-.029-.008-.029-.005c-.009-.002-.019-.005-.029-.006l-.028-.006-.03-.005c-.01-.002-.02-.004-.03-.004l-.027-.005c-.01-.003-.02-.004-.03-.004l-.029-.004-.029-.004-.029-.004-.029-.003-.028-.002-.03-.002-.027-.003v-.035l.027-.004.03-.004.028-.006.029-.005.029-.006.029-.006.029-.007c.01-.003.02-.004.03-.008l.027-.006.03-.009.03-.009c.009-.002.019-.005.028-.009l.029-.008c.01-.005.019-.008.029-.011l.029-.011.029-.011.03-.012.027-.012.03-.013.029-.014c.01-.005.02-.008.029-.014.01-.004.019-.01.029-.015l.029-.016.029-.016.029-.017.029-.019.029-.019.028-.019c.01-.008.02-.016.03-.022l.03-.022.028-.024.029-.024.029-.027.029-.028.029-.03.029-.03.028-.033.03-.037.029-.039.029-.042.028-.046.03-.052c.01-.019.02-.037.028-.057.011-.022.021-.044.03-.067.01-.025.02-.051.029-.079.01-.033.02-.068.028-.102.014-.056.024-.114.029-.172.006-.045.008-.092.008-.139 0-.05-.002-.098-.008-.145-.005-.061-.015-.12-.029-.176-.008-.035-.018-.07-.028-.103l-.029-.079c-.009-.023-.019-.043-.03-.065-.008-.019-.018-.039-.028-.057l-.03-.05c-.008-.015-.018-.03-.028-.044-.009-.015-.019-.028-.029-.042L5.97 6.74c-.01-.012-.019-.024-.03-.035l-.028-.033-.029-.031c-.01-.009-.02-.017-.029-.027l-.029-.027-.029-.026-.029-.023-.028-.023-.03-.022c-.01-.006-.02-.014-.03-.019l-.028-.02-.029-.019-.029-.017-.029-.017-.029-.016-.029-.014-.029-.016c-.009-.004-.019-.01-.029-.013l-.029-.014-.03-.012-.027-.012-.03-.012-.029-.011-.029-.01-.029-.01-.029-.01-.028-.009-.03-.008c-.01-.004-.02-.007-.03-.008-.008-.003-.017-.007-.027-.008l-.03-.008-.029-.007-.029-.006-.029-.006-.029-.007-.028-.004-.03-.007c-.01 0-.019-.002-.029-.004l-.028-.004-.029-.004-.03-.004-.029-.003-.029-.004-.028-.003-.03-.001-.028-.003-.03-.002-.029-.003h-.01l-.018-.001-.03-.001-.029-.002-.029-.001-.028-.002-.03-.001-.028-.001-.03-.001-.028-.001H.024V3.009c0-.211.021-.415.062-.613l.029-.126.028-.106.03-.094c.01-.027.018-.055.029-.083l.029-.078.029-.07.029-.066c.009-.022.018-.043.028-.063l.03-.059.029-.055.028-.053.029-.05.03-.049.028-.047.03-.045.029-.042c.009-.014.018-.028.029-.042l.029-.039.029-.04.029-.037c.008-.012.018-.024.028-.036l.03-.035.029-.034.028-.033L.81.981.84.95.868.92l.03-.029.028-.028.029-.029.029-.027.03-.026.028-.027.029-.025.03-.025.028-.023.03-.024.028-.022.029-.023c.009-.008.019-.014.029-.021l.03-.022.028-.021.029-.019.029-.02.03-.019c.009-.006.018-.013.028-.018l.029-.019.029-.017.029-.018.029-.016.029-.017.028-.016.03-.016.03-.015.028-.014.029-.016.029-.013c.01-.005.02-.008.029-.014l.029-.013.03-.012.027-.013.03-.012.029-.012.03-.012.027-.01c.01-.005.02-.008.03-.011.01-.005.02-.007.029-.01l.029-.011.029-.01.029-.009.028-.009.03-.008.029-.009.028-.008.03-.007.029-.008.029-.008.029-.007.029-.006.028-.006.03-.007.029-.004c.01-.002.019-.005.029-.006L2.52.048l.03-.005.028-.005.03-.003.028-.005.029-.003.029-.003.03-.004.029-.002.028-.003.029-.002.03-.002.029-.003h.028l.03-.001.028-.001h.03l.029-.001H7.431V15.02c0 .091-.004.179-.012.266-.007.077-.017.154-.03.23-.007.051-.017.1-.028.15l-.029.12c-.008.036-.018.07-.029.103l-.029.092-.029.082-.029.074-.028.07-.03.065-.029.061-.029.059-.028.054-.03.052-.028.051-.03.047-.028.046-.03.044-.028.044-.03.041-.029.04-.028.037-.03.038-.029.036-.029.034-.028.035-.03.031-.028.033-.03.031-.029.031-.028.028-.029.029-.03.028-.028.026-.029.027-.029.026-.029.025-.029.024-.03.023-.027.024c-.01.008-.02.016-.03.022l-.03.023c-.009.007-.019.015-.029.021l-.028.022-.029.02-.03.02c-.008.007-.018.013-.028.019l-.03.019c-.01.006-.018.013-.028.018-.009.007-.019.014-.029.019l-.029.018-.03.016-.028.018-.029.016-.029.016-.029.015-.029.015-.029.015c-.01.005-.019.01-.028.013l-.03.016-.03.012-.028.014c-.01.003-.019.009-.029.012l-.029.013-.029.012-.029.011c-.01.005-.019.008-.029.011l-.029.012-.029.011c-.01.002-.019.007-.029.009-.01.004-.02.008-.03.01l-.027.01-.03.01-.029.008-.029.009c-.01.003-.019.007-.029.008l-.029.008-.028.008-.03.008-.03.006-.027.007-.03.007-.029.006-.029.006-.029.006-.029.005-.028.005-.03.004-.029.005-.028.004-.029.004-.03.003-.029.004-.029.002-.028.004-.03.002-.028.002-.03.002-.029.001-.028.001-.03.001-.029.002h-.029l-.028.001H.055zM3.071 7.023h.013l.017.002.029.002.028.002.029.002.03.003.021.003.007.001.03.006.028.007.029.007.029.01c.01.005.02.007.03.011l.028.013c.009.004.019.008.029.014l.03.014.028.017.03.019.028.021.029.023.029.026.03.029.028.033.029.038.029.042.029.053c.011.022.021.044.029.067.011.032.021.063.029.098.012.054.017.109.017.169 0 .059-.005.115-.017.169-.008.034-.018.067-.029.098-.008.023-.018.045-.029.067l-.029.052-.029.044-.029.037-.028.033-.03.028c-.01.009-.018.018-.029.026l-.029.024-.028.02c-.01.008-.02.013-.03.019l-.028.016c-.01.007-.02.011-.03.017l-.029.013-.028.012-.03.011-.029.01-.029.007-.028.008-.03.005-.007.002-.021.003-.03.002-.029.003c-.009.002-.019.003-.028.003l-.029.002H1.492V7.023h1.579zm.169 2.356h.005l.03.002.028.002.029.002.029.002.03.005.028.003.018.004.011.003.03.007.028.009.03.01.028.011c.01.003.019.007.029.012l.029.014.03.015.028.018.029.019.029.02.029.023.029.026.029.028c.01.01.02.021.028.032.011.01.02.022.03.035l.029.038.029.046c.01.018.02.036.028.055.011.023.021.045.03.069.012.031.022.065.028.099.014.057.021.119.021.183 0 .065-.007.127-.021.186-.006.034-.016.066-.028.098-.009.023-.019.046-.03.068-.008.019-.018.038-.028.055l-.029.046-.029.041-.03.034-.028.03-.029.029-.029.025-.029.023-.029.021-.029.018c-.009.007-.019.012-.028.018l-.03.015-.029.013c-.01.006-.019.009-.029.013l-.028.013-.03.009-.028.008c-.01.002-.02.004-.03.008l-.011.001-.018.004-.028.005-.03.003-.029.003-.029.002-.028.002-.03.001-.015.001H1.492V9.379H3.24z"/>
        <path id="e9lffd49hl" d="M1.407.771l-.012.011-.029.027-.028.026-.029.028-.03.029-.028.03-.03.031c-.009.009-.019.019-.027.03l-.03.033c-.01.01-.02.021-.029.033l-.029.034-.029.035-.029.035-.028.038-.03.04-.028.038-.029.043-.03.043-.028.045-.03.046-.029.048-.028.051-.029.053-.029.056c-.011.019-.019.038-.029.058l-.029.061-.028.067c-.011.023-.02.048-.03.071l-.029.077-.029.084-.028.094-.029.105c-.011.042-.021.085-.029.126-.039.187-.06.379-.063.577v7.451l.063.03.029.014.029.013.028.013.029.014.029.012.03.014.028.013.029.013.029.013.029.012.029.013.028.012.029.012.03.012.028.011.03.012.029.012.028.012.03.01.028.012.029.011.029.011.029.01.029.011.03.011.027.01.03.011.028.009.03.01.029.01.028.01.029.009.012.004V.77zm0 11.128l-.012-.002-.029-.005-.028-.005-.029-.004-.03-.005-.028-.006-.03-.005-.027-.005-.03-.004-.029-.006-.029-.005-.029-.005-.029-.006-.028-.006-.03-.004-.028-.007-.029-.005-.03-.007-.028-.005-.03-.006-.029-.006-.028-.006-.029-.006-.029-.007-.029-.007-.029-.005-.028-.007-.03-.007-.029-.007-.029-.006-.028-.007-.029-.008-.029-.006-.063-.017v6.33h1v-6.125z"/>
        <path id="cg5kkwwd9n" d="M7.79.005H3.391l-.028.001h-.029l-.029.001-.029.001-.029.001-.028.003-.029.002-.03.002-.028.002-.03.002-.029.005-.028.002-.03.004-.028.004-.029.004-.029.005L2.9.049l-.029.004-.029.006-.028.005-.03.007-.029.006c-.009.003-.019.004-.029.006l-.029.008-.028.007c-.01.001-.019.005-.029.008l-.03.007-.028.008-.029.009c-.01.003-.02.005-.029.009l-.029.008-.029.01-.029.009-.028.011-.03.01-.028.011-.03.011-.029.012-.028.012-.03.011-.028.013c-.01.003-.02.008-.03.013-.009.003-.018.009-.028.013l-.029.013-.029.015-.03.014-.028.015-.029.014-.028.016-.03.017-.029.016-.029.017-.028.017-.03.018-.028.018-.03.018-.028.02-.029.02-.029.02-.029.02-.029.021-.029.021-.029.023-.029.023-.03.023c-.008.009-.018.016-.028.024L1.453.73l-.028.025-.03.027-.029.027-.028.026-.029.028-.03.029-.028.03-.03.031c-.009.009-.019.019-.027.03l-.03.033c-.01.01-.02.021-.029.033l-.029.034-.029.035-.029.035-.028.038-.03.04-.028.038-.029.043-.03.043-.028.045-.03.046-.029.048-.028.051-.029.053-.029.056c-.011.019-.019.038-.029.058l-.029.061-.028.067c-.011.023-.02.048-.03.071l-.029.077-.029.084-.028.094-.029.105c-.011.042-.021.085-.029.126-.041.198-.063.401-.063.612v7.416l.063.03.029.014.029.013.028.013.029.014.029.012.03.014.028.013.029.013.029.013.029.012.029.013.028.012.029.012.03.012.028.011.03.012.029.012.028.012.03.01.028.012.029.011.029.011.029.01.029.011.03.011.027.01.03.011.028.009.03.01.029.01.028.01.029.009.03.009.028.009.029.009.028.009.03.009.029.008.029.009.029.009.029.008.029.007.029.008.029.008.028.007.03.007.028.007.03.008.028.007.029.006.029.007.03.006.028.006.029.006.028.006.03.006.029.006.029.004.028.007.03.004.028.005.03.004.028.005.029.005.03.003.028.005.03.004.028.003.029.004.029.003.029.003.029.003.029.003.028.002.03.003.029.002.028.001.029.003.029.002.029.001.03.002.028.001h.029l.029.001h.029l.029.001h.087l.028-.001.029-.001h.03l.028-.002.03-.002.029-.003c.009-.002.019-.002.028-.003l.029-.003.029-.004c.01 0 .019-.001.029-.004l.029-.004.028-.004.03-.006.029-.005c.01-.004.019-.005.029-.007l.029-.007.028-.007.029-.008.03-.009c.01-.002.02-.004.028-.008l.029-.009.029-.01.029-.011.03-.011.028-.012.029-.013c.009-.003.019-.009.029-.012l.029-.015.029-.015c.01-.004.02-.011.029-.015.01-.007.018-.011.028-.016l.03-.018.028-.019.03-.019.028-.021c.01-.007.02-.013.029-.021l.029-.024.03-.023.028-.026.029-.028.029-.029.029-.032.029-.033.029-.036.028-.039.03-.042c.01-.014.02-.031.028-.045l.03-.05.029-.056.028-.064c.011-.024.021-.049.03-.073l.028-.089c.012-.038.021-.077.03-.116.013-.064.023-.129.028-.195.004-.054.008-.107.008-.162V6.127H7.197v3.484c0 .102-.005.201-.015.299-.007.07-.016.14-.029.207-.009.046-.018.092-.029.137-.008.036-.018.071-.028.107l-.03.09c-.008.026-.018.052-.029.078l-.029.07-.028.062-.029.058-.029.054-.03.049-.027.046-.03.043c-.01.015-.018.029-.029.042l-.029.038-.029.037-.028.035-.029.033-.03.033-.028.031-.029.028-.03.029-.028.026-.03.026-.028.026-.029.024-.029.023-.029.023-.029.022-.03.02-.027.021-.03.019-.029.019-.029.019-.028.018-.029.017-.029.018-.03.016-.028.015-.029.016-.029.015c-.009.006-.019.01-.029.015l-.029.014-.029.014-.028.013-.03.013-.028.013-.03.012-.029.013-.028.011c-.01.005-.02.008-.03.011-.009.005-.018.008-.028.012l-.03.011-.028.01c-.01.004-.019.008-.029.01-.009.004-.019.008-.029.01l-.03.01-.028.01-.029.01-.028.008-.03.009-.029.009-.028.008-.029.008-.03.008-.028.008-.03.007-.027.008-.03.007-.03.006c-.009.002-.019.004-.028.008l-.029.005-.029.007-.029.006-.029.006-.03.006-.027.006-.03.005-.028.005-.03.006-.029.005-.028.005c-.01.001-.019.002-.029.005l-.03.005-.028.003-.029.005-.028.004-.03.004-.029.004-.029.004-.028.003-.03.004-.028.004-.03.002-.028.004-.029.003-.03.002-.028.004-.03.003-.028.002-.029.002-.029.003-.029.002-.029.002-.029.003-.028.002-.03.002-.029.001-.029.001-.028.003-.03.001-.028.002-.03.001-.028.001-.029.001-.029.001-.029.001-.029.001h-.029l-.028.002-.03.001h-.029l-.029.001h-.029l-.028.001h-.204l-.028-.001h-.058l-.029-.001h-.029l-.028-.001-.029-.002h-.03l-.028-.001-.03-.001-.029-.001-.028-.001h-.03l-.028-.001-.029-.002-.029-.001-.029-.001-.029-.003h-.029l-.028-.002-.03-.001-.029-.002-.029-.002-.029-.002-.028-.002-.029-.002-.03-.002-.028-.002-.029-.001-.029-.002-.029-.003-.029-.003-.029-.002-.028-.002-.03-.002-.028-.004-.03-.002-.029-.002-.028-.003-.03-.003-.028-.003-.03-.003-.028-.002-.029-.004-.029-.003-.03-.002-.028-.005-.029-.003-.028-.003-.03-.003-.029-.005-.029-.002-.028-.004-.03-.004-.028-.004-.03-.004-.028-.003-.029-.004-.029-.004-.029-.005-.029-.003-.029-.004-.029-.005-.029-.004-.03-.004-.028-.005-.029-.004-.028-.005-.03-.004-.029-.005-.028-.005-.029-.004-.03-.005-.028-.006-.03-.005-.027-.005-.03-.004-.029-.006-.029-.005-.029-.005-.029-.006-.028-.006-.03-.004-.028-.007-.029-.005-.03-.007-.028-.005-.03-.006-.029-.006-.028-.006-.029-.006-.029-.007-.029-.007-.029-.005-.028-.007-.03-.007-.029-.007-.029-.006-.028-.007-.029-.008-.029-.006-.063-.017v6.33H4.812l.027-.001h.028c.01 0 .019 0 .029-.002l.03-.001.028-.001.03-.001.027-.001.03-.002.029-.003.029-.003.029-.002.029-.004.028-.003.03-.004.03-.004.027-.003.03-.006.028-.004.03-.006.029-.005.028-.006.029-.006.03-.007.028-.006.029-.007c.01-.002.019-.004.028-.008l.03-.007.029-.008.029-.008.028-.008.03-.009.028-.01.03-.009.028-.011.029-.01c.01-.002.02-.006.03-.011l.028-.009c.01-.005.02-.008.03-.011l.028-.012.029-.012.029-.013.029-.013.029-.012.029-.014c.01-.003.019-.009.028-.013l.03-.014.029-.015.029-.015.028-.015.029-.016.029-.016.03-.015.027-.018.03-.018.029-.018c.009-.005.019-.011.029-.019.01-.005.02-.012.029-.018l.029-.019.028-.02.03-.02.028-.021.03-.021.029-.022.028-.022.03-.024.029-.022.028-.024.029-.025.029-.026.029-.026.03-.027.027-.027.03-.029c.01-.01.019-.02.029-.028.009-.011.019-.02.029-.03l.028-.031.029-.031.029-.033.03-.033.028-.034.029-.035.029-.037.029-.038.029-.04c.01-.012.02-.026.029-.04l.029-.042.029-.043.029-.046.029-.047.029-.048.028-.051.03-.055.028-.055.03-.061.028-.062c.01-.023.02-.045.029-.069.011-.023.019-.048.029-.072l.03-.079.028-.086.029-.097.029-.112.029-.135c.012-.06.022-.119.029-.18.016-.126.025-.256.025-.386V.005H7.79z"/>
        <path id="k2t8ft4cqo" d="M1.716.771l-.013.012-.028.026-.029.027c-.01.009-.02.018-.028.028l-.03.028-.03.03-.028.031c-.01.009-.02.019-.029.03l-.029.033-.029.033-.029.034-.029.035-.028.036-.03.037-.028.04-.03.039-.029.042-.028.043-.029.045-.03.046-.028.048-.029.051c-.01.018-.02.035-.028.053l-.03.056-.029.058-.029.062-.028.066-.03.071c-.01.025-.02.052-.028.077l-.03.084-.029.094-.028.107c-.011.041-.021.083-.03.126-.04.197-.061.401-.061.61V6.94l.061-.051.03-.023.028-.023.029-.022.03-.021.028-.022.03-.02.028-.019.029-.02.029-.019.03-.018.028-.018.029-.017.028-.018.03-.016.029-.017.028-.016.029-.016.03-.015.028-.015.03-.016.028-.013.029-.015c.01-.003.02-.009.029-.013l.029-.013.029-.014.029-.013.028-.012.03-.013.03-.012.028-.011.029-.012.028-.012.013-.004V.77zm0 10.898l-.013-.005-.028-.011-.029-.012-.028-.012-.03-.011-.03-.014-.028-.012-.029-.013-.029-.014-.029-.012-.029-.014-.029-.014-.028-.015-.03-.014-.028-.015-.03-.016-.029-.016-.028-.015-.029-.017-.03-.016c-.009-.007-.018-.012-.028-.018l-.029-.017-.028-.018-.03-.018-.029-.019-.029-.02-.028-.02-.03-.02-.028-.02-.03-.022c-.01-.008-.02-.014-.029-.023l-.028-.022c-.01-.008-.02-.014-.03-.023l-.061-.051v6.934h1v-6.355z"/>
        <path id="lrh1v67kcq" d="M8.098.005H3.7l-.029.001h-.028l-.03.001-.029.001-.029.001-.028.003-.03.002-.028.002-.03.002-.028.002-.029.005-.029.002-.029.004-.029.004-.029.004-.028.005-.03.005-.028.004-.03.006-.028.005-.029.007-.029.006-.03.006-.028.008-.029.007c-.01.001-.02.005-.03.008l-.028.007-.03.008-.028.009-.029.009-.029.008-.029.01-.029.01-.029.01-.028.01-.03.011-.028.011-.03.012-.028.012-.029.011-.029.013c-.01.003-.02.009-.03.013l-.028.013-.029.013c-.01.005-.02.009-.028.015l-.03.014-.03.015-.028.016-.029.014-.029.017-.029.016-.029.017-.029.018-.028.017-.03.018-.028.019-.029.019-.029.02-.029.02-.029.02-.03.022-.028.021-.029.022c-.01.008-.02.015-.028.023l-.03.024-.029.023-.028.024-.029.025-.03.028-.028.026-.029.027c-.01.009-.02.018-.028.028l-.03.028-.03.03-.028.031c-.01.009-.02.019-.029.03l-.029.033-.029.033-.029.034-.029.035-.028.036-.03.037-.028.04-.03.039-.029.042-.028.043-.029.045-.03.046-.028.048-.029.051c-.01.018-.02.035-.028.053l-.03.056-.029.058-.029.062-.028.066-.03.071c-.01.025-.02.052-.028.077l-.03.084-.029.094-.028.107c-.011.041-.021.083-.03.126-.04.197-.061.401-.061.61V6.94l.061-.051.03-.023.028-.023.029-.022.03-.021.028-.022.03-.02.028-.019.029-.02.029-.019.03-.018.028-.018.029-.017.028-.018.03-.016.029-.017.028-.016.029-.016.03-.015.028-.015.03-.016.028-.013.029-.015c.01-.003.02-.009.029-.013l.029-.013.029-.014.029-.013.028-.012.03-.013.03-.012.028-.011.029-.012.028-.012.03-.011.029-.01.028-.011.029-.011.03-.01.028-.01.029-.009.028-.01.03-.01.029-.009.029-.008.029-.01.029-.008.028-.009.03-.007.028-.009.029-.008.029-.008.029-.006.029-.009.029-.006.028-.008.03-.007.03-.006.028-.007.029-.006.028-.007.03-.006.029-.006.029-.006.028-.006.03-.006.028-.004.03-.006.028-.005.029-.005.029-.005.029-.005.029-.005.029-.004.028-.005.03-.004.028-.004.03-.005.029-.004.028-.004.03-.004.029-.003.029-.004.028-.004.03-.003.028-.002.03-.004.028-.004.029-.002.029-.003.029-.003.029-.002.029-.003.028-.002.03-.003.028-.001.03-.004.028-.002.029-.002.029-.001.03-.002.028-.001.029-.003.028-.002.03-.001.03-.001.027-.001.03-.001.029-.002.029-.001.029-.002h.029l.028-.001.03-.001h.028l.029-.001.029-.001h.029l.029-.001h.087l.028-.001h.087l.029.001h.087l.029.001h.029l.03.001h.028l.029.001.029.001.029.001h.058l.028.002.03.001.028.001.03.002.028.001.029.001H4.944l.03.002.028.001.029.003.028.002.03.001.03.002.027.002.03.002.029.003.029.001.029.003.028.002.029.003.03.002.028.003.03.003.028.002.029.004.029.003.029.002.028.004.03.004.028.002.03.004.029.003.028.004.029.004.03.003.028.004.029.004.028.004.03.004.03.003.028.006.029.003.029.004.029.005.029.004.029.003.028.006.03.004.028.005.03.004.028.005.029.005.029.005.029.005.029.005.029.005.028.004.03.005.029.006.029.005.028.006.03.005.029.006.029.004.028.007.029.005.03.006.028.005.03.006.028.006.029.006.029.005.029.007.029.005.029.007.028.006.03.006.029.007.028.006.029.007.029.005.029.007.03.007.027.007.03.006.03.007.028.007.029.007v1.271l-.029-.014-.028-.015-.03-.014-.03-.014-.027-.014-.03-.013-.029-.015-.029-.013-.029-.013-.028-.014-.029-.013-.03-.013-.028-.014-.029-.012-.029-.013-.029-.011-.029-.013-.029-.012-.028-.012-.03-.012-.028-.011-.03-.012-.029-.011-.028-.011-.029-.011-.029-.011-.03-.011-.028-.01-.029-.01-.029-.009-.03-.011-.028-.01-.029-.009-.029-.01-.029-.01-.029-.008-.029-.009-.028-.009-.03-.009-.028-.007-.03-.009-.028-.008-.029-.007-.029-.008-.029-.009-.029-.006-.029-.008-.028-.007-.03-.006-.03-.008-.028-.007-.029-.005-.028-.007-.03-.006-.029-.006-.028-.005-.029-.006-.03-.005-.028-.006-.03-.005-.028-.005-.029-.004-.029-.005-.029-.005-.028-.004-.03-.003-.028-.006-.03-.003-.029-.003-.028-.004-.029-.003-.029-.004-.029-.003-.03-.003-.027-.003-.03-.002-.03-.002-.028-.003-.018-.002-.011-.001-.028-.001-.03-.002-.029-.001-.029-.002-.028-.002-.03-.001H4.8l-.03-.001H4.626l-.029.001h-.028l-.03.001-.029.002-.029.002-.029.001-.028.003-.03.001-.029.002-.028.004-.029.002-.03.004-.028.003-.03.004-.027.004-.03.005-.029.005-.029.004-.029.006-.029.005-.028.006-.03.006-.028.007-.029.007-.029.006-.029.009-.029.008-.03.008-.027.009-.03.009c-.01.002-.02.005-.03.01-.008.002-.018.005-.028.01-.01.002-.02.006-.029.009-.01.004-.019.008-.028.01l-.03.012-.029.012-.029.012-.028.012-.03.014-.028.014-.03.014-.028.015-.029.016c-.01.004-.019.011-.029.015l-.029.017-.029.017-.029.019-.028.018-.03.02-.028.021-.03.021c-.01.007-.02.015-.028.023l-.029.022-.029.025-.03.025-.028.026-.029.028-.03.029-.028.03-.03.033-.028.034-.029.035-.029.037-.029.039-.029.043-.029.045-.028.048-.03.053c-.01.018-.019.037-.028.057-.011.019-.021.041-.03.061l-.028.069-.029.077c-.011.029-.021.059-.029.089-.011.035-.021.071-.03.107-.011.045-.02.089-.028.136-.012.07-.022.14-.029.213-.008.084-.012.171-.012.26s.004.175.012.26c.007.073.017.143.029.212.008.046.017.092.028.137.009.036.019.071.03.106.008.03.018.059.029.088l.029.079.028.068c.009.02.019.041.03.061l.028.057.03.053.028.048.029.045.029.042.029.04.029.038.029.035.028.033.03.032.028.03.03.03.029.027.028.027.03.025c.009.009.019.016.029.024l.029.023c.008.008.018.015.028.022l.03.022.028.021.03.019c.009.007.019.012.028.018.009.008.019.013.029.019l.029.017c.009.007.019.011.029.017l.029.017.029.014.028.015.03.015.028.013.03.014.028.012.029.012.029.012.03.012.028.01.029.01.028.01.03.01.03.009.027.008.03.009.029.008.029.008.029.007.029.007.028.006.03.006.028.006.029.006.029.005.029.005.029.005c.01.001.02.002.03.005l.027.004.03.003.028.003.03.004.029.003.028.003.029.001.03.003.028.003.029.001.029.002h.029l.03.001.028.001.029.002H4.77l.03-.002.028-.001.03-.001h.028l.029-.002.029-.001.03-.002.028-.002.011-.002.018-.001.028-.002.03-.003.03-.002.027-.003.03-.003.029-.003.029-.003.029-.004.028-.003.029-.004.03-.005.028-.003.03-.004.028-.005.029-.005.029-.004.029-.005.028-.004.03-.006.028-.005.03-.006.029-.005.028-.006.029-.006.03-.007.028-.005.029-.007.028-.007.03-.007.03-.007.028-.006.029-.007.029-.008.029-.008.029-.008.029-.008.028-.007.03-.008.028-.009.03-.009.028-.008.029-.009.029-.009.029-.01.029-.008.029-.01.028-.01.03-.01.029-.011.029-.01.028-.01.03-.01.029-.011.029-.012.028-.01.029-.011.03-.011.028-.012.03-.012.028-.012.029-.012.029-.013.029-.011.029-.013.029-.012.028-.013.03-.013.029-.012.028-.014.029-.014.029-.013.029-.013.03-.014.027-.014.03-.015.03-.014.028-.014.029-.014v1.27l-.029.007-.028.007-.03.007-.03.007-.027.006-.03.007-.029.008-.029.005-.029.007-.028.006-.029.007-.03.005-.028.007-.029.006-.029.006-.029.005-.029.007-.029.005-.028.006-.03.006-.028.006-.03.006-.029.005-.028.005-.029.007-.029.004-.03.006-.028.005-.029.005-.029.006-.03.005-.028.005-.029.005-.029.005-.029.004-.029.005-.029.005-.028.005-.03.005-.028.003-.03.006-.028.004-.029.005-.029.004-.029.004-.029.004-.029.005-.028.004-.03.004-.03.004-.028.003-.029.005-.028.003-.03.004-.029.004-.028.003-.029.004-.03.003-.028.003-.03.004-.028.003-.029.003-.029.003-.029.002-.028.004-.03.003-.028.002-.03.003-.029.002-.028.004-.029.001-.029.003-.029.002-.03.003-.027.001-.03.002-.03.002-.028.002-.029.001-.028.001-.03.002-.014.001-.015.001-.029.001-.028.001-.03.001-.028.001h-.03l-.028.001-.029.001-.029.001-.029.001-.029.002h-.029l-.028.001h-.03l-.029.001h-.029l-.029.001h-.259l-.03-.001h-.029l-.029-.001h-.029l-.029-.001-.028-.002h-.03l-.028-.001-.029-.001-.029-.001-.029-.001-.029-.001-.03-.001-.027-.001-.03-.002-.03-.001-.028-.002-.029-.002-.028-.002-.03-.002-.029-.002-.029-.001-.028-.003-.03-.002-.028-.002-.03-.002-.028-.002-.029-.004-.029-.003-.029-.001-.029-.003-.029-.004-.028-.003-.03-.003-.028-.003-.03-.004L3.122 12l-.029-.003-.029-.005-.03-.004-.028-.002-.029-.006-.03-.003-.028-.004-.03-.005-.028-.004-.029-.005-.029-.005-.029-.004-.029-.006-.029-.004-.028-.006-.03-.005-.028-.005-.03-.006-.028-.006-.029-.006-.029-.006-.03-.006-.028-.006-.029-.007-.028-.006-.03-.007-.03-.007-.028-.008-.029-.006-.029-.008-.029-.007-.029-.007-.029-.009-.028-.009-.03-.007-.028-.009-.029-.009-.029-.009-.029-.009-.029-.008-.03-.01c-.01-.002-.018-.006-.028-.01l-.029-.009-.028-.01-.03-.01-.029-.011-.028-.01-.029-.011-.03-.011-.028-.011-.029-.012-.028-.012-.03-.011-.03-.014-.028-.012-.029-.013-.029-.014-.029-.012-.029-.014-.029-.014-.028-.015-.03-.014-.028-.015-.03-.016-.029-.016-.028-.015-.029-.017-.03-.016c-.009-.007-.018-.012-.028-.018l-.029-.017-.028-.018-.03-.018-.029-.019-.029-.02-.028-.02-.03-.02-.028-.02-.03-.022c-.01-.008-.02-.014-.029-.023l-.028-.022c-.01-.008-.02-.014-.03-.023l-.061-.051v6.934H5.12l.026-.001h.03c.009 0 .019 0 .029-.002l.029-.001.029-.001.028-.001.029-.001.03-.002.028-.003.03-.003.028-.002.029-.004.029-.003.029-.004.028-.004.03-.003.028-.006.03-.004.029-.006.028-.005.029-.006.03-.006.028-.007.029-.006.028-.007c.01-.002.02-.004.03-.008l.03-.007.028-.008.029-.008.029-.008c.009-.004.019-.006.029-.009l.029-.01.029-.009.028-.011.03-.01.028-.011.03-.009.028-.011.029-.012.029-.012.029-.013.029-.013c.01-.003.019-.007.029-.012l.028-.014c.01-.003.02-.009.03-.013l.029-.014.029-.015.028-.015.03-.015.029-.016.029-.016.028-.016.029-.017.03-.018.028-.018c.01-.005.02-.011.03-.019l.028-.018.029-.019.029-.02.029-.02.029-.021.029-.021.028-.022.03-.022.029-.024c.009-.008.019-.014.028-.023l.029-.023.029-.026.029-.025.03-.026c.01-.008.019-.018.027-.027l.03-.027.03-.029.028-.029.029-.029.029-.032.029-.03.029-.033.029-.033.028-.034.03-.036.028-.036.03-.039.029-.039c.01-.012.019-.026.028-.04l.029-.042.029-.044.029-.045.029-.047c.01-.015.02-.032.028-.048l.03-.052c.01-.017.02-.035.029-.054l.029-.056c.01-.02.02-.04.028-.06l.029-.063c.011-.022.02-.045.029-.068l.03-.072c.01-.027.02-.053.028-.079.011-.029.02-.058.029-.086l.03-.097.028-.112c.011-.044.021-.09.03-.135.011-.06.02-.119.028-.18.017-.126.025-.256.025-.386V.005h-.025z"/>
    </defs>
    <g fill="none" fill-rule="evenodd">
        <g>
            <path fill="#E2E2E2" d="M36 24.952H2c-1.1 0-2-.898-2-1.996V1.996C0 .898.9 0 2 0h34c1.1 0 2 .898 2 1.996v20.96c0 1.098-.9 1.996-2 1.996"/>
            <path fill="#FFF" d="M35.97 23.384H2.03c-.824 0-1.5-.675-1.5-1.497V2.096c0-.823.676-1.497 1.5-1.497h33.94c.824 0 1.5.674 1.5 1.497v19.79c0 .823-.676 1.498-1.5 1.498"/>
            <path fill="#FFF" d="M32.932 18.186c0 2.316-1.881 4.196-4.203 4.196H5.907V5.797c0-2.317 1.88-4.196 4.204-4.196h22.82v16.585z"/>
        </g>
        <g transform="translate(7 2.994)">
            <g transform="translate(17)">
                <mask id="p7i2d78qzb" fill="#fff">
                    <use xlink:href="#3nvyywjd1a"/>
                </mask>
                <path fill="#007B40" d="M0.023 17.988L0.11 17.988 0.11 0.004 0.023 0.004z" mask="url(#p7i2d78qzb)"/>
                <path fill="#017C40" d="M0.11 17.988L0.197 17.988 0.197 0.004 0.11 0.004z" mask="url(#p7i2d78qzb)"/>
                <path fill="#027C40" d="M0.197 17.988L0.285 17.988 0.285 0.004 0.197 0.004z" mask="url(#p7i2d78qzb)"/>
                <path fill="#037D3F" d="M0.285 17.988L0.372 17.988 0.372 0.004 0.285 0.004z" mask="url(#p7i2d78qzb)"/>
                <path fill="#047E3F" d="M0.372 17.988L0.459 17.988 0.459 0.004 0.372 0.004z" mask="url(#p7i2d78qzb)"/>
                <path fill="#057E3F" d="M0.459 17.988L0.546 17.988 0.546 0.004 0.459 0.004z" mask="url(#p7i2d78qzb)"/>
                <path fill="#067F3F" d="M0.546 17.988L0.634 17.988 0.634 0.004 0.546 0.004z" mask="url(#p7i2d78qzb)"/>
                <path fill="#07803F" d="M0.634 17.988L0.721 17.988 0.721 0.004 0.634 0.004z" mask="url(#p7i2d78qzb)"/>
                <path fill="#08803E" d="M0.721 17.988L0.808 17.988 0.808 0.004 0.721 0.004z" mask="url(#p7i2d78qzb)"/>
                <path fill="#09813E" d="M0.808 17.988L0.895 17.988 0.895 0.004 0.808 0.004z" mask="url(#p7i2d78qzb)"/>
                <path fill="#0A823E" d="M0.894 17.988L0.982 17.988 0.982 0.004 0.894 0.004z" mask="url(#p7i2d78qzb)"/>
                <path fill="#0B823E" d="M0.982 17.988L1.069 17.988 1.069 0.004 0.982 0.004z" mask="url(#p7i2d78qzb)"/>
                <path fill="#0C833E" d="M1.069 17.988L1.156 17.988 1.156 0.004 1.069 0.004z" mask="url(#p7i2d78qzb)"/>
                <path fill="#0D843E" d="M1.156 17.988L1.243 17.988 1.243 0.004 1.156 0.004z" mask="url(#p7i2d78qzb)"/>
                <path fill="#0E843D" d="M1.243 17.988L1.331 17.988 1.331 0.004 1.243 0.004z" mask="url(#p7i2d78qzb)"/>
                <path fill="#0F853D" d="M1.331 17.988L1.418 17.988 1.418 0.004 1.331 0.004z" mask="url(#p7i2d78qzb)"/>
                <path fill="#10863D" d="M1.418 17.988L1.505 17.988 1.505 0.004 1.418 0.004z" mask="url(#p7i2d78qzb)"/>
                <path fill="#11863D" d="M1.505 17.988L1.592 17.988 1.592 0.004 1.505 0.004z" mask="url(#p7i2d78qzb)"/>
                <path fill="#12873D" d="M1.592 17.988L1.679 17.988 1.679 0.004 1.592 0.004z" mask="url(#p7i2d78qzb)"/>
                <path fill="#13883C" d="M1.679 17.988L1.767 17.988 1.767 0.004 1.679 0.004z" mask="url(#p7i2d78qzb)"/>
                <path fill="#14883C" d="M1.767 17.988L1.854 17.988 1.854 0.004 1.767 0.004z" mask="url(#p7i2d78qzb)"/>
                <path fill="#15893C" d="M1.853 17.988L1.94 17.988 1.94 0.004 1.853 0.004z" mask="url(#p7i2d78qzb)"/>
                <path fill="#168A3C" d="M1.94 17.988L2.027 17.988 2.027 0.004 1.94 0.004z" mask="url(#p7i2d78qzb)"/>
                <path fill="#178A3C" d="M2.027 17.988L2.115 17.988 2.115 0.004 2.027 0.004z" mask="url(#p7i2d78qzb)"/>
                <path fill="#188B3B" d="M2.115 17.988L2.202 17.988 2.202 0.004 2.115 0.004z" mask="url(#p7i2d78qzb)"/>
                <path fill="#198C3B" d="M2.202 17.988L2.289 17.988 2.289 0.004 2.202 0.004z" mask="url(#p7i2d78qzb)"/>
                <path fill="#1A8C3B" d="M2.289 17.988L2.376 17.988 2.376 0.004 2.289 0.004z" mask="url(#p7i2d78qzb)"/>
                <path fill="#1B8D3B" d="M2.376 17.988L2.464 17.988 2.464 0.004 2.376 0.004z" mask="url(#p7i2d78qzb)"/>
                <path fill="#1C8E3B" d="M2.464 17.988L2.551 17.988 2.551 0.004 2.464 0.004z" mask="url(#p7i2d78qzb)"/>
                <path fill="#1D8E3A" d="M2.551 17.988L2.638 17.988 2.638 0.004 2.551 0.004z" mask="url(#p7i2d78qzb)"/>
                <path fill="#1E8F3A" d="M2.638 17.988L2.725 17.988 2.725 0.004 2.638 0.004z" mask="url(#p7i2d78qzb)"/>
                <path fill="#1F903A" d="M2.724 17.988L2.812 17.988 2.812 0.004 2.724 0.004z" mask="url(#p7i2d78qzb)"/>
                <path fill="#20903A" d="M2.812 17.988L2.899 17.988 2.899 0.004 2.812 0.004z" mask="url(#p7i2d78qzb)"/>
                <path fill="#21913A" d="M2.899 17.988L2.986 17.988 2.986 0.004 2.899 0.004z" mask="url(#p7i2d78qzb)"/>
                <path fill="#22923A" d="M2.986 17.988L3.073 17.988 3.073 0.004 2.986 0.004z" mask="url(#p7i2d78qzb)"/>
                <path fill="#239239" d="M3.073 17.988L3.161 17.988 3.161 0.004 3.073 0.004z" mask="url(#p7i2d78qzb)"/>
                <path fill="#249339" d="M3.161 17.988L3.248 17.988 3.248 0.004 3.161 0.004z" mask="url(#p7i2d78qzb)"/>
                <path fill="#259439" d="M3.248 17.988L3.335 17.988 3.335 0.004 3.248 0.004z" mask="url(#p7i2d78qzb)"/>
                <path fill="#269439" d="M3.335 17.988L3.422 17.988 3.422 0.004 3.335 0.004z" mask="url(#p7i2d78qzb)"/>
                <path fill="#279539" d="M3.422 17.988L3.509 17.988 3.509 0.004 3.422 0.004z" mask="url(#p7i2d78qzb)"/>
                <path fill="#289638" d="M3.509 17.988L3.597 17.988 3.597 0.004 3.509 0.004z" mask="url(#p7i2d78qzb)"/>
                <path fill="#299638" d="M3.597 17.988L3.684 17.988 3.684 0.004 3.597 0.004z" mask="url(#p7i2d78qzb)"/>
                <path fill="#2B9738" d="M3.684 17.988L3.771 17.988 3.771 0.004 3.684 0.004z" mask="url(#p7i2d78qzb)"/>
                <path fill="#2C9838" d="M3.77 17.988L3.857 17.988 3.857 0.004 3.77 0.004z" mask="url(#p7i2d78qzb)"/>
                <path fill="#2D9838" d="M3.857 17.988L3.945 17.988 3.945 0.004 3.857 0.004z" mask="url(#p7i2d78qzb)"/>
                <path fill="#2E9937" d="M3.945 17.988L4.032 17.988 4.032 0.004 3.945 0.004z" mask="url(#p7i2d78qzb)"/>
                <path fill="#2F9A37" d="M4.032 17.988L4.119 17.988 4.119 0.004 4.032 0.004z" mask="url(#p7i2d78qzb)"/>
                <path fill="#309A37" d="M4.119 17.988L4.206 17.988 4.206 0.004 4.119 0.004z" mask="url(#p7i2d78qzb)"/>
                <path fill="#319B37" d="M4.206 17.988L4.294 17.988 4.294 0.004 4.206 0.004z" mask="url(#p7i2d78qzb)"/>
                <path fill="#329C37" d="M4.294 17.988L4.381 17.988 4.381 0.004 4.294 0.004z" mask="url(#p7i2d78qzb)"/>
                <path fill="#339C36" d="M4.381 17.988L4.468 17.988 4.468 0.004 4.381 0.004z" mask="url(#p7i2d78qzb)"/>
                <path fill="#349D36" d="M4.468 17.988L4.555 17.988 4.555 0.004 4.468 0.004z" mask="url(#p7i2d78qzb)"/>
                <path fill="#359E36" d="M4.555 17.988L4.643 17.988 4.643 0.004 4.555 0.004z" mask="url(#p7i2d78qzb)"/>
                <path fill="#369E36" d="M4.642 17.988L4.729 17.988 4.729 0.004 4.642 0.004z" mask="url(#p7i2d78qzb)"/>
                <path fill="#379F36" d="M4.729 17.988L4.816 17.988 4.816 0.004 4.729 0.004z" mask="url(#p7i2d78qzb)"/>
                <path fill="#38A036" d="M4.816 17.988L4.903 17.988 4.903 0.004 4.816 0.004z" mask="url(#p7i2d78qzb)"/>
                <path fill="#39A035" d="M4.903 17.988L4.991 17.988 4.991 0.004 4.903 0.004z" mask="url(#p7i2d78qzb)"/>
                <path fill="#3AA135" d="M4.991 17.988L5.078 17.988 5.078 0.004 4.991 0.004z" mask="url(#p7i2d78qzb)"/>
                <path fill="#3BA235" d="M5.078 17.988L5.165 17.988 5.165 0.004 5.078 0.004z" mask="url(#p7i2d78qzb)"/>
                <path fill="#3CA235" d="M5.165 17.988L5.252 17.988 5.252 0.004 5.165 0.004z" mask="url(#p7i2d78qzb)"/>
                <path fill="#3DA335" d="M5.252 17.988L5.339 17.988 5.339 0.004 5.252 0.004z" mask="url(#p7i2d78qzb)"/>
                <path fill="#3EA434" d="M5.339 17.988L5.427 17.988 5.427 0.004 5.339 0.004z" mask="url(#p7i2d78qzb)"/>
                <path fill="#3FA434" d="M5.427 17.988L5.514 17.988 5.514 0.004 5.427 0.004z" mask="url(#p7i2d78qzb)"/>
                <path fill="#40A534" d="M5.514 17.988L5.601 17.988 5.601 0.004 5.514 0.004z" mask="url(#p7i2d78qzb)"/>
                <path fill="#41A634" d="M5.6 17.988L5.687 17.988 5.687 0.004 5.6 0.004z" mask="url(#p7i2d78qzb)"/>
                <path fill="#42A634" d="M5.687 17.988L5.775 17.988 5.775 0.004 5.687 0.004z" mask="url(#p7i2d78qzb)"/>
                <path fill="#43A733" d="M5.775 17.988L5.862 17.988 5.862 0.004 5.775 0.004z" mask="url(#p7i2d78qzb)"/>
                <path fill="#44A833" d="M5.862 17.988L5.949 17.988 5.949 0.004 5.862 0.004z" mask="url(#p7i2d78qzb)"/>
                <path fill="#45A833" d="M5.949 17.988L6.036 17.988 6.036 0.004 5.949 0.004z" mask="url(#p7i2d78qzb)"/>
                <path fill="#46A933" d="M6.036 17.988L6.124 17.988 6.124 0.004 6.036 0.004z" mask="url(#p7i2d78qzb)"/>
                <path fill="#47AA33" d="M6.124 17.988L6.211 17.988 6.211 0.004 6.124 0.004z" mask="url(#p7i2d78qzb)"/>
                <path fill="#48AA32" d="M6.211 17.988L6.298 17.988 6.298 0.004 6.211 0.004z" mask="url(#p7i2d78qzb)"/>
                <path fill="#49AB32" d="M6.298 17.988L6.385 17.988 6.385 0.004 6.298 0.004z" mask="url(#p7i2d78qzb)"/>
                <path fill="#4AAC32" d="M6.385 17.988L6.473 17.988 6.473 0.004 6.385 0.004z" mask="url(#p7i2d78qzb)"/>
                <path fill="#4BAC32" d="M6.473 17.988L6.56 17.988 6.56 0.004 6.473 0.004z" mask="url(#p7i2d78qzb)"/>
                <path fill="#4CAD32" d="M6.559 17.988L6.646 17.988 6.646 0.004 6.559 0.004z" mask="url(#p7i2d78qzb)"/>
                <path fill="#4DAE32" d="M6.646 17.988L6.733 17.988 6.733 0.004 6.646 0.004z" mask="url(#p7i2d78qzb)"/>
                <path fill="#4EAE31" d="M6.733 17.988L6.821 17.988 6.821 0.004 6.733 0.004z" mask="url(#p7i2d78qzb)"/>
                <path fill="#4FAF31" d="M6.821 17.988L6.908 17.988 6.908 0.004 6.821 0.004z" mask="url(#p7i2d78qzb)"/>
                <path fill="#50B031" d="M6.908 17.988L6.995 17.988 6.995 0.004 6.908 0.004z" mask="url(#p7i2d78qzb)"/>
                <path fill="#51B031" d="M6.995 17.988L7.082 17.988 7.082 0.004 6.995 0.004z" mask="url(#p7i2d78qzb)"/>
                <path fill="#52B131" d="M7.082 17.988L7.17 17.988 7.17 0.004 7.082 0.004z" mask="url(#p7i2d78qzb)"/>
                <path fill="#53B230" d="M7.17 17.988L7.257 17.988 7.257 0.004 7.17 0.004z" mask="url(#p7i2d78qzb)"/>
                <path fill="#54B230" d="M7.257 17.988L7.344 17.988 7.344 0.004 7.257 0.004z" mask="url(#p7i2d78qzb)"/>
                <path fill="#55B330" d="M7.344 17.989L7.431 17.989 7.431 0.005 7.344 0.005z" mask="url(#p7i2d78qzb)"/>
                <path fill="#10863D" d="M1.491 8.47L1.505 8.47 1.505 7.01 1.491 7.01z" mask="url(#p7i2d78qzb)"/>
                <path fill="#11863D" d="M1.505 8.47L1.592 8.47 1.592 7.01 1.505 7.01z" mask="url(#p7i2d78qzb)"/>
                <path fill="#12873D" d="M1.592 8.47L1.679 8.47 1.679 7.01 1.592 7.01z" mask="url(#p7i2d78qzb)"/>
                <path fill="#13883C" d="M1.679 8.47L1.767 8.47 1.767 7.01 1.679 7.01z" mask="url(#p7i2d78qzb)"/>
                <path fill="#14883C" d="M1.767 8.47L1.854 8.47 1.854 7.01 1.767 7.01z" mask="url(#p7i2d78qzb)"/>
                <path fill="#15893C" d="M1.853 8.47L1.94 8.47 1.94 7.01 1.853 7.01z" mask="url(#p7i2d78qzb)"/>
                <path fill="#168A3C" d="M1.94 8.47L2.027 8.47 2.027 7.01 1.94 7.01z" mask="url(#p7i2d78qzb)"/>
                <path fill="#178A3C" d="M2.027 8.47L2.115 8.47 2.115 7.01 2.027 7.01z" mask="url(#p7i2d78qzb)"/>
                <path fill="#188B3B" d="M2.115 8.47L2.202 8.47 2.202 7.01 2.115 7.01z" mask="url(#p7i2d78qzb)"/>
                <path fill="#198C3B" d="M2.202 8.47L2.289 8.47 2.289 7.01 2.202 7.01z" mask="url(#p7i2d78qzb)"/>
                <path fill="#1A8C3B" d="M2.289 8.47L2.376 8.47 2.376 7.01 2.289 7.01z" mask="url(#p7i2d78qzb)"/>
                <path fill="#1B8D3B" d="M2.376 8.47L2.464 8.47 2.464 7.01 2.376 7.01z" mask="url(#p7i2d78qzb)"/>
                <path fill="#1C8E3B" d="M2.464 8.47L2.551 8.47 2.551 7.01 2.464 7.01z" mask="url(#p7i2d78qzb)"/>
                <path fill="#1D8E3A" d="M2.551 8.47L2.638 8.47 2.638 7.01 2.551 7.01z" mask="url(#p7i2d78qzb)"/>
                <path fill="#1E8F3A" d="M2.638 8.47L2.725 8.47 2.725 7.01 2.638 7.01z" mask="url(#p7i2d78qzb)"/>
                <path fill="#1F903A" d="M2.724 8.47L2.812 8.47 2.812 7.01 2.724 7.01z" mask="url(#p7i2d78qzb)"/>
                <path fill="#20903A" d="M2.812 8.47L2.899 8.47 2.899 7.01 2.812 7.01z" mask="url(#p7i2d78qzb)"/>
                <path fill="#21913A" d="M2.899 8.47L2.986 8.47 2.986 7.01 2.899 7.01z" mask="url(#p7i2d78qzb)"/>
                <path fill="#22923A" d="M2.986 8.47L3.073 8.47 3.073 7.01 2.986 7.01z" mask="url(#p7i2d78qzb)"/>
                <path fill="#239239" d="M3.073 8.47L3.161 8.47 3.161 7.01 3.073 7.01z" mask="url(#p7i2d78qzb)"/>
                <path fill="#249339" d="M3.161 8.47L3.248 8.47 3.248 7.01 3.161 7.01z" mask="url(#p7i2d78qzb)"/>
                <path fill="#259439" d="M3.248 8.47L3.335 8.47 3.335 7.01 3.248 7.01z" mask="url(#p7i2d78qzb)"/>
                <path fill="#269439" d="M3.335 8.47L3.422 8.47 3.422 7.01 3.335 7.01z" mask="url(#p7i2d78qzb)"/>
                <path fill="#279539" d="M3.422 8.47L3.509 8.47 3.509 7.01 3.422 7.01z" mask="url(#p7i2d78qzb)"/>
                <path fill="#289638" d="M3.509 8.47L3.597 8.47 3.597 7.01 3.509 7.01z" mask="url(#p7i2d78qzb)"/>
                <path fill="#299638" d="M3.597 8.47L3.684 8.47 3.684 7.01 3.597 7.01z" mask="url(#p7i2d78qzb)"/>
                <path fill="#2B9738" d="M3.684 8.47L3.771 8.47 3.771 7.01 3.684 7.01z" mask="url(#p7i2d78qzb)"/>
                <path fill="#2C9838" d="M3.771 8.47L3.843 8.47 3.843 7.01 3.771 7.01z" mask="url(#p7i2d78qzb)"/>
                <path fill="#10863D" d="M1.491 10.943L1.505 10.943 1.505 9.361 1.491 9.361z" mask="url(#p7i2d78qzb)"/>
                <path fill="#11863D" d="M1.505 10.943L1.592 10.943 1.592 9.361 1.505 9.361z" mask="url(#p7i2d78qzb)"/>
                <path fill="#12873D" d="M1.592 10.943L1.679 10.943 1.679 9.361 1.592 9.361z" mask="url(#p7i2d78qzb)"/>
                <path fill="#13883C" d="M1.679 10.943L1.767 10.943 1.767 9.361 1.679 9.361z" mask="url(#p7i2d78qzb)"/>
                <path fill="#14883C" d="M1.767 10.943L1.854 10.943 1.854 9.361 1.767 9.361z" mask="url(#p7i2d78qzb)"/>
                <path fill="#15893C" d="M1.853 10.943L1.94 10.943 1.94 9.361 1.853 9.361z" mask="url(#p7i2d78qzb)"/>
                <path fill="#168A3C" d="M1.94 10.943L2.027 10.943 2.027 9.361 1.94 9.361z" mask="url(#p7i2d78qzb)"/>
                <path fill="#178A3C" d="M2.027 10.943L2.115 10.943 2.115 9.361 2.027 9.361z" mask="url(#p7i2d78qzb)"/>
                <path fill="#188B3B" d="M2.115 10.943L2.202 10.943 2.202 9.361 2.115 9.361z" mask="url(#p7i2d78qzb)"/>
                <path fill="#198C3B" d="M2.202 10.943L2.289 10.943 2.289 9.361 2.202 9.361z" mask="url(#p7i2d78qzb)"/>
                <path fill="#1A8C3B" d="M2.289 10.943L2.376 10.943 2.376 9.361 2.289 9.361z" mask="url(#p7i2d78qzb)"/>
                <path fill="#1B8D3B" d="M2.376 10.943L2.464 10.943 2.464 9.361 2.376 9.361z" mask="url(#p7i2d78qzb)"/>
                <path fill="#1C8E3B" d="M2.464 10.943L2.551 10.943 2.551 9.361 2.464 9.361z" mask="url(#p7i2d78qzb)"/>
                <path fill="#1D8E3A" d="M2.551 10.943L2.638 10.943 2.638 9.361 2.551 9.361z" mask="url(#p7i2d78qzb)"/>
                <path fill="#1E8F3A" d="M2.638 10.943L2.725 10.943 2.725 9.361 2.638 9.361z" mask="url(#p7i2d78qzb)"/>
                <path fill="#1F903A" d="M2.724 10.943L2.812 10.943 2.812 9.361 2.724 9.361z" mask="url(#p7i2d78qzb)"/>
                <path fill="#20903A" d="M2.812 10.943L2.899 10.943 2.899 9.361 2.812 9.361z" mask="url(#p7i2d78qzb)"/>
                <path fill="#21913A" d="M2.899 10.943L2.986 10.943 2.986 9.361 2.899 9.361z" mask="url(#p7i2d78qzb)"/>
                <path fill="#22923A" d="M2.986 10.943L3.073 10.943 3.073 9.361 2.986 9.361z" mask="url(#p7i2d78qzb)"/>
                <path fill="#239239" d="M3.073 10.943L3.161 10.943 3.161 9.361 3.073 9.361z" mask="url(#p7i2d78qzb)"/>
                <path fill="#249339" d="M3.161 10.943L3.248 10.943 3.248 9.361 3.161 9.361z" mask="url(#p7i2d78qzb)"/>
                <path fill="#259439" d="M3.248 10.943L3.335 10.943 3.335 9.361 3.248 9.361z" mask="url(#p7i2d78qzb)"/>
                <path fill="#269439" d="M3.335 10.943L3.422 10.943 3.422 9.361 3.335 9.361z" mask="url(#p7i2d78qzb)"/>
                <path fill="#279539" d="M3.422 10.943L3.509 10.943 3.509 9.361 3.422 9.361z" mask="url(#p7i2d78qzb)"/>
                <path fill="#289638" d="M3.509 10.943L3.597 10.943 3.597 9.361 3.509 9.361z" mask="url(#p7i2d78qzb)"/>
                <path fill="#299638" d="M3.597 10.943L3.684 10.943 3.684 9.361 3.597 9.361z" mask="url(#p7i2d78qzb)"/>
                <path fill="#2B9738" d="M3.684 10.943L3.771 10.943 3.771 9.361 3.684 9.361z" mask="url(#p7i2d78qzb)"/>
                <path fill="#2C9838" d="M3.77 10.943L3.857 10.943 3.857 9.361 3.77 9.361z" mask="url(#p7i2d78qzb)"/>
                <path fill="#2D9838" d="M3.857 10.943L3.945 10.943 3.945 9.361 3.857 9.361z" mask="url(#p7i2d78qzb)"/>
                <path fill="#2E9937" d="M3.945 10.943L4.032 10.943 4.032 9.361 3.945 9.361z" mask="url(#p7i2d78qzb)"/>
                <path fill="#2F9A37" d="M4.032 10.943L4.048 10.943 4.048 9.361 4.032 9.361z" mask="url(#p7i2d78qzb)"/>
            </g>
            <mask id="7jmjxdlnzd" fill="#fff">
                <use xlink:href="#xa03t55sac"/>
            </mask>
            <path fill="#1D2970" d="M.407.005v17.984V.005z" mask="url(#7jmjxdlnzd)"/>
            <mask id="s4q8046jtf" fill="#fff">
                <use xlink:href="#n9d7i0762e"/>
            </mask>
            <path fill="#1D2970" d="M0.407 17.988L0.508 17.988 0.508 0.004 0.407 0.004z" mask="url(#s4q8046jtf)"/>
            <path fill="#1D2A71" d="M0.507 17.988L0.607 17.988 0.607 0.004 0.507 0.004z" mask="url(#s4q8046jtf)"/>
            <path fill="#1C2B72" d="M0.607 17.988L0.708 17.988 0.708 0.004 0.607 0.004z" mask="url(#s4q8046jtf)"/>
            <path fill="#1C2C73" d="M0.708 17.988L0.808 17.988 0.808 0.004 0.708 0.004z" mask="url(#s4q8046jtf)"/>
            <path fill="#1B2D74" d="M0.807 17.988L0.908 17.988 0.908 0.004 0.807 0.004z" mask="url(#s4q8046jtf)"/>
            <path fill="#1B2E75" d="M0.908 17.988L1.008 17.988 1.008 0.004 0.908 0.004z" mask="url(#s4q8046jtf)"/>
            <path fill="#1B2F76" d="M1.007 17.988L1.108 17.988 1.108 0.004 1.007 0.004z" mask="url(#s4q8046jtf)"/>
            <path fill="#1A3077" d="M1.108 17.988L1.208 17.988 1.208 0.004 1.108 0.004z" mask="url(#s4q8046jtf)"/>
            <path fill="#1A3078" d="M1.208 17.988L1.309 17.988 1.309 0.004 1.208 0.004z" mask="url(#s4q8046jtf)"/>
            <path fill="#193179" d="M1.308 17.988L1.408 17.988 1.408 0.004 1.308 0.004z" mask="url(#s4q8046jtf)"/>
            <path fill="#19327A" d="M1.408 17.988L1.509 17.988 1.509 0.004 1.408 0.004z" mask="url(#s4q8046jtf)"/>
            <path fill="#19337B" d="M1.508 17.988L1.608 17.988 1.608 0.004 1.508 0.004z" mask="url(#s4q8046jtf)"/>
            <path fill="#18347C" d="M1.608 17.988L1.709 17.988 1.709 0.004 1.608 0.004z" mask="url(#s4q8046jtf)"/>
            <path fill="#18357D" d="M1.709 17.988L1.809 17.988 1.809 0.004 1.709 0.004z" mask="url(#s4q8046jtf)"/>
            <path fill="#17367E" d="M1.808 17.988L1.909 17.988 1.909 0.004 1.808 0.004z" mask="url(#s4q8046jtf)"/>
            <path fill="#17377F" d="M1.909 17.988L2.009 17.988 2.009 0.004 1.909 0.004z" mask="url(#s4q8046jtf)"/>
            <path fill="#173880" d="M2.008 17.988L2.109 17.988 2.109 0.004 2.008 0.004z" mask="url(#s4q8046jtf)"/>
            <path fill="#163981" d="M2.109 17.988L2.209 17.988 2.209 0.004 2.109 0.004z" mask="url(#s4q8046jtf)"/>
            <path fill="#163A82" d="M2.209 17.988L2.31 17.988 2.31 0.004 2.209 0.004z" mask="url(#s4q8046jtf)"/>
            <path fill="#153B83" d="M2.309 17.988L2.409 17.988 2.409 0.004 2.309 0.004z" mask="url(#s4q8046jtf)"/>
            <path fill="#153C84" d="M2.409 17.988L2.51 17.988 2.51 0.004 2.409 0.004z" mask="url(#s4q8046jtf)"/>
            <path fill="#153D85" d="M2.509 17.988L2.609 17.988 2.609 0.004 2.509 0.004z" mask="url(#s4q8046jtf)"/>
            <path fill="#143D86" d="M2.609 17.988L2.71 17.988 2.71 0.004 2.609 0.004z" mask="url(#s4q8046jtf)"/>
            <path fill="#143E87" d="M2.71 17.988L2.81 17.988 2.81 0.004 2.71 0.004z" mask="url(#s4q8046jtf)"/>
            <path fill="#133F88" d="M2.809 17.988L2.91 17.988 2.91 0.004 2.809 0.004z" mask="url(#s4q8046jtf)"/>
            <path fill="#134089" d="M2.91 17.988L3.01 17.988 3.01 0.004 2.91 0.004z" mask="url(#s4q8046jtf)"/>
            <path fill="#13418A" d="M3.009 17.988L3.11 17.988 3.11 0.004 3.009 0.004z" mask="url(#s4q8046jtf)"/>
            <path fill="#12428B" d="M3.11 17.988L3.21 17.988 3.21 0.004 3.11 0.004z" mask="url(#s4q8046jtf)"/>
            <path fill="#12438C" d="M3.21 17.988L3.311 17.988 3.311 0.004 3.21 0.004z" mask="url(#s4q8046jtf)"/>
            <path fill="#11448D" d="M3.31 17.988L3.41 17.988 3.41 0.004 3.31 0.004z" mask="url(#s4q8046jtf)"/>
            <path fill="#11458E" d="M3.41 17.988L3.511 17.988 3.511 0.004 3.41 0.004z" mask="url(#s4q8046jtf)"/>
            <path fill="#11468F" d="M3.51 17.988L3.61 17.988 3.61 0.004 3.51 0.004z" mask="url(#s4q8046jtf)"/>
            <path fill="#104790" d="M3.61 17.988L3.711 17.988 3.711 0.004 3.61 0.004z" mask="url(#s4q8046jtf)"/>
            <path fill="#104891" d="M3.711 17.988L3.811 17.988 3.811 0.004 3.711 0.004z" mask="url(#s4q8046jtf)"/>
            <path fill="#0F4992" d="M3.81 17.988L3.911 17.988 3.911 0.004 3.81 0.004z" mask="url(#s4q8046jtf)"/>
            <path fill="#0F4A93" d="M3.911 17.988L4.011 17.988 4.011 0.004 3.911 0.004z" mask="url(#s4q8046jtf)"/>
            <path fill="#0F4B94" d="M4.01 17.988L4.111 17.988 4.111 0.004 4.01 0.004z" mask="url(#s4q8046jtf)"/>
            <path fill="#0E4B96" d="M4.111 17.988L4.211 17.988 4.211 0.004 4.111 0.004z" mask="url(#s4q8046jtf)"/>
            <path fill="#0E4C97" d="M4.211 17.988L4.312 17.988 4.312 0.004 4.211 0.004z" mask="url(#s4q8046jtf)"/>
            <path fill="#0E4D98" d="M4.311 17.988L4.411 17.988 4.411 0.004 4.311 0.004z" mask="url(#s4q8046jtf)"/>
            <path fill="#0D4E99" d="M4.411 17.988L4.512 17.988 4.512 0.004 4.411 0.004z" mask="url(#s4q8046jtf)"/>
            <path fill="#0D4F9A" d="M4.511 17.988L4.611 17.988 4.611 0.004 4.511 0.004z" mask="url(#s4q8046jtf)"/>
            <path fill="#0C509B" d="M4.611 17.988L4.712 17.988 4.712 0.004 4.611 0.004z" mask="url(#s4q8046jtf)"/>
            <path fill="#0C519C" d="M4.712 17.988L4.812 17.988 4.812 0.004 4.712 0.004z" mask="url(#s4q8046jtf)"/>
            <path fill="#0C529D" d="M4.811 17.988L4.912 17.988 4.912 0.004 4.811 0.004z" mask="url(#s4q8046jtf)"/>
            <path fill="#0B539E" d="M4.912 17.988L5.012 17.988 5.012 0.004 4.912 0.004z" mask="url(#s4q8046jtf)"/>
            <path fill="#0B549F" d="M5.011 17.988L5.112 17.988 5.112 0.004 5.011 0.004z" mask="url(#s4q8046jtf)"/>
            <path fill="#0A55A0" d="M5.112 17.988L5.212 17.988 5.212 0.004 5.112 0.004z" mask="url(#s4q8046jtf)"/>
            <path fill="#0A56A1" d="M5.212 17.988L5.313 17.988 5.313 0.004 5.212 0.004z" mask="url(#s4q8046jtf)"/>
            <path fill="#0A57A2" d="M5.312 17.988L5.412 17.988 5.412 0.004 5.312 0.004z" mask="url(#s4q8046jtf)"/>
            <path fill="#0958A3" d="M5.412 17.988L5.513 17.988 5.513 0.004 5.412 0.004z" mask="url(#s4q8046jtf)"/>
            <path fill="#0959A4" d="M5.512 17.988L5.612 17.988 5.612 0.004 5.512 0.004z" mask="url(#s4q8046jtf)"/>
            <path fill="#0859A5" d="M5.612 17.988L5.713 17.988 5.713 0.004 5.612 0.004z" mask="url(#s4q8046jtf)"/>
            <path fill="#085AA6" d="M5.713 17.988L5.813 17.988 5.813 0.004 5.713 0.004z" mask="url(#s4q8046jtf)"/>
            <path fill="#085BA7" d="M5.812 17.988L5.912 17.988 5.912 0.004 5.812 0.004z" mask="url(#s4q8046jtf)"/>
            <path fill="#075CA8" d="M5.912 17.988L6.013 17.988 6.013 0.004 5.912 0.004z" mask="url(#s4q8046jtf)"/>
            <path fill="#075DA9" d="M6.012 17.988L6.112 17.988 6.112 0.004 6.012 0.004z" mask="url(#s4q8046jtf)"/>
            <path fill="#065EAA" d="M6.112 17.988L6.213 17.988 6.213 0.004 6.112 0.004z" mask="url(#s4q8046jtf)"/>
            <path fill="#065FAB" d="M6.213 17.988L6.313 17.988 6.313 0.004 6.213 0.004z" mask="url(#s4q8046jtf)"/>
            <path fill="#0660AC" d="M6.312 17.988L6.413 17.988 6.413 0.004 6.312 0.004z" mask="url(#s4q8046jtf)"/>
            <path fill="#0561AD" d="M6.413 17.988L6.513 17.988 6.513 0.004 6.413 0.004z" mask="url(#s4q8046jtf)"/>
            <path fill="#0562AE" d="M6.512 17.988L6.613 17.988 6.613 0.004 6.512 0.004z" mask="url(#s4q8046jtf)"/>
            <path fill="#0463AF" d="M6.613 17.988L6.713 17.988 6.713 0.004 6.613 0.004z" mask="url(#s4q8046jtf)"/>
            <path fill="#0464B0" d="M6.712 17.988L6.813 17.988 6.813 0.004 6.712 0.004z" mask="url(#s4q8046jtf)"/>
            <path fill="#0465B1" d="M6.813 17.988L6.913 17.988 6.913 0.004 6.813 0.004z" mask="url(#s4q8046jtf)"/>
            <path fill="#0366B2" d="M6.913 17.988L7.014 17.988 7.014 0.004 6.913 0.004z" mask="url(#s4q8046jtf)"/>
            <path fill="#0366B3" d="M7.013 17.988L7.113 17.988 7.113 0.004 7.013 0.004z" mask="url(#s4q8046jtf)"/>
            <path fill="#0267B4" d="M7.113 17.988L7.214 17.988 7.214 0.004 7.113 0.004z" mask="url(#s4q8046jtf)"/>
            <path fill="#0268B5" d="M7.213 17.988L7.313 17.988 7.313 0.004 7.213 0.004z" mask="url(#s4q8046jtf)"/>
            <path fill="#0269B6" d="M7.313 17.988L7.414 17.988 7.414 0.004 7.313 0.004z" mask="url(#s4q8046jtf)"/>
            <path fill="#016AB7" d="M7.414 17.988L7.514 17.988 7.514 0.004 7.414 0.004z" mask="url(#s4q8046jtf)"/>
            <path fill="#016BB8" d="M7.513 17.988L7.614 17.988 7.614 0.004 7.513 0.004z" mask="url(#s4q8046jtf)"/>
            <path fill="#006CB9" d="M7.614 17.988L7.714 17.988 7.714 0.004 7.614 0.004z" mask="url(#s4q8046jtf)"/>
            <path fill="#006DBA" d="M7.714 17.989L7.815 17.989 7.815 0.005 7.714 0.005z" mask="url(#s4q8046jtf)"/>
            <g transform="translate(8)">
                <mask id="zismoibgph" fill="#fff">
                    <use xlink:href="#2fafaguk1g"/>
                </mask>
                <path fill="#6E2B2F" d="M.716.005v17.984V.005z" mask="url(#zismoibgph)"/>
                <mask id="rytpu7uqzj" fill="#fff">
                    <use xlink:href="#ke6n2q1wvi"/>
                </mask>
                <path fill="#6E2B2F" d="M0.716 17.988L0.779 17.988 0.779 0.004 0.716 0.004z" mask="url(#rytpu7uqzj)"/>
                <path fill="#6F2B2F" d="M0.78 17.988L0.842 17.988 0.842 0.004 0.78 0.004z" mask="url(#rytpu7uqzj)"/>
                <path fill="#702A2F" d="M0.842 17.988L0.905 17.988 0.905 0.004 0.842 0.004z" mask="url(#rytpu7uqzj)"/>
                <path fill="#712A2F" d="M0.906 17.988L0.969 17.988 0.969 0.004 0.906 0.004z" mask="url(#rytpu7uqzj)"/>
                <path fill="#722A2F" d="M0.969 17.988L1.032 17.988 1.032 0.004 0.969 0.004z" mask="url(#rytpu7uqzj)"/>
                <path fill="#73292F" d="M1.033 17.988L1.096 17.988 1.096 0.004 1.033 0.004z" mask="url(#rytpu7uqzj)"/>
                <path fill="#74292F" d="M1.096 17.988L1.158 17.988 1.158 0.004 1.096 0.004z" mask="url(#rytpu7uqzj)"/>
                <path fill="#752830" d="M1.159 17.988L1.222 17.988 1.222 0.004 1.159 0.004z" mask="url(#rytpu7uqzj)"/>
                <path fill="#762830" d="M1.222 17.988L1.285 17.988 1.285 0.004 1.222 0.004z" mask="url(#rytpu7uqzj)"/>
                <path fill="#772830" d="M1.286 17.988L1.349 17.988 1.349 0.004 1.286 0.004z" mask="url(#rytpu7uqzj)"/>
                <path fill="#782730" d="M1.349 17.988L1.412 17.988 1.412 0.004 1.349 0.004z" mask="url(#rytpu7uqzj)"/>
                <path fill="#792730" d="M1.413 17.988L1.476 17.988 1.476 0.004 1.413 0.004z" mask="url(#rytpu7uqzj)"/>
                <path fill="#7A2730" d="M1.476 17.988L1.538 17.988 1.538 0.004 1.476 0.004z" mask="url(#rytpu7uqzj)"/>
                <path fill="#7B2630" d="M1.539 17.988L1.602 17.988 1.602 0.004 1.539 0.004z" mask="url(#rytpu7uqzj)"/>
                <path fill="#7C2630" d="M1.602 17.988L1.665 17.988 1.665 0.004 1.602 0.004z" mask="url(#rytpu7uqzj)"/>
                <path fill="#7D2630" d="M1.666 17.988L1.729 17.988 1.729 0.004 1.666 0.004z" mask="url(#rytpu7uqzj)"/>
                <path fill="#7E2530" d="M1.729 17.988L1.792 17.988 1.792 0.004 1.729 0.004z" mask="url(#rytpu7uqzj)"/>
                <path fill="#7F2530" d="M1.792 17.988L1.855 17.988 1.855 0.004 1.792 0.004z" mask="url(#rytpu7uqzj)"/>
                <path fill="#802430" d="M1.856 17.988L1.918 17.988 1.918 0.004 1.856 0.004z" mask="url(#rytpu7uqzj)"/>
                <path fill="#812430" d="M1.918 17.988L1.981 17.988 1.981 0.004 1.918 0.004z" mask="url(#rytpu7uqzj)"/>
                <path fill="#822431" d="M1.982 17.988L2.045 17.988 2.045 0.004 1.982 0.004z" mask="url(#rytpu7uqzj)"/>
                <path fill="#832331" d="M2.045 17.988L2.108 17.988 2.108 0.004 2.045 0.004z" mask="url(#rytpu7uqzj)"/>
                <path fill="#842331" d="M2.109 17.988L2.172 17.988 2.172 0.004 2.109 0.004z" mask="url(#rytpu7uqzj)"/>
                <path fill="#852331" d="M2.172 17.988L2.235 17.988 2.235 0.004 2.172 0.004z" mask="url(#rytpu7uqzj)"/>
                <path fill="#862231" d="M2.236 17.988L2.298 17.988 2.298 0.004 2.236 0.004z" mask="url(#rytpu7uqzj)"/>
                <path fill="#872231" d="M2.298 17.988L2.361 17.988 2.361 0.004 2.298 0.004z" mask="url(#rytpu7uqzj)"/>
                <path fill="#882231" d="M2.362 17.988L2.425 17.988 2.425 0.004 2.362 0.004z" mask="url(#rytpu7uqzj)"/>
                <path fill="#892131" d="M2.425 17.988L2.488 17.988 2.488 0.004 2.425 0.004z" mask="url(#rytpu7uqzj)"/>
                <path fill="#8A2131" d="M2.489 17.988L2.552 17.988 2.552 0.004 2.489 0.004z" mask="url(#rytpu7uqzj)"/>
                <path fill="#8B2131" d="M2.552 17.988L2.615 17.988 2.615 0.004 2.552 0.004z" mask="url(#rytpu7uqzj)"/>
                <path fill="#8C2031" d="M2.616 17.988L2.678 17.988 2.678 0.004 2.616 0.004z" mask="url(#rytpu7uqzj)"/>
                <path fill="#8D2031" d="M2.678 17.988L2.741 17.988 2.741 0.004 2.678 0.004z" mask="url(#rytpu7uqzj)"/>
                <path fill="#8E1F31" d="M2.742 17.988L2.805 17.988 2.805 0.004 2.742 0.004z" mask="url(#rytpu7uqzj)"/>
                <path fill="#8F1F32" d="M2.805 17.988L2.868 17.988 2.868 0.004 2.805 0.004z" mask="url(#rytpu7uqzj)"/>
                <path fill="#901F32" d="M2.869 17.988L2.932 17.988 2.932 0.004 2.869 0.004z" mask="url(#rytpu7uqzj)"/>
                <path fill="#911E32" d="M2.932 17.988L2.995 17.988 2.995 0.004 2.932 0.004z" mask="url(#rytpu7uqzj)"/>
                <path fill="#921E32" d="M2.996 17.988L3.058 17.988 3.058 0.004 2.996 0.004z" mask="url(#rytpu7uqzj)"/>
                <path fill="#931E32" d="M3.058 17.988L3.121 17.988 3.121 0.004 3.058 0.004z" mask="url(#rytpu7uqzj)"/>
                <path fill="#941D32" d="M3.122 17.988L3.185 17.988 3.185 0.004 3.122 0.004z" mask="url(#rytpu7uqzj)"/>
                <path fill="#951D32" d="M3.185 17.988L3.248 17.988 3.248 0.004 3.185 0.004z" mask="url(#rytpu7uqzj)"/>
                <path fill="#961D32" d="M3.249 17.988L3.312 17.988 3.312 0.004 3.249 0.004z" mask="url(#rytpu7uqzj)"/>
                <path fill="#971C32" d="M3.312 17.988L3.374 17.988 3.374 0.004 3.312 0.004z" mask="url(#rytpu7uqzj)"/>
                <path fill="#981C32" d="M3.374 17.988L3.437 17.988 3.437 0.004 3.374 0.004z" mask="url(#rytpu7uqzj)"/>
                <path fill="#991B32" d="M3.438 17.988L3.501 17.988 3.501 0.004 3.438 0.004z" mask="url(#rytpu7uqzj)"/>
                <path fill="#9A1B32" d="M3.501 17.988L3.564 17.988 3.564 0.004 3.501 0.004z" mask="url(#rytpu7uqzj)"/>
                <path fill="#9B1B32" d="M3.565 17.988L3.628 17.988 3.628 0.004 3.565 0.004z" mask="url(#rytpu7uqzj)"/>
                <path fill="#9C1A33" d="M3.628 17.988L3.691 17.988 3.691 0.004 3.628 0.004z" mask="url(#rytpu7uqzj)"/>
                <path fill="#9D1A33" d="M3.692 17.988L3.754 17.988 3.754 0.004 3.692 0.004z" mask="url(#rytpu7uqzj)"/>
                <path fill="#9E1A33" d="M3.754 17.988L3.817 17.988 3.817 0.004 3.754 0.004z" mask="url(#rytpu7uqzj)"/>
                <path fill="#9F1933" d="M3.818 17.988L3.881 17.988 3.881 0.004 3.818 0.004z" mask="url(#rytpu7uqzj)"/>
                <path fill="#A01933" d="M3.881 17.988L3.944 17.988 3.944 0.004 3.881 0.004z" mask="url(#rytpu7uqzj)"/>
                <path fill="#A11933" d="M3.945 17.988L4.008 17.988 4.008 0.004 3.945 0.004z" mask="url(#rytpu7uqzj)"/>
                <path fill="#A21833" d="M4.008 17.988L4.071 17.988 4.071 0.004 4.008 0.004z" mask="url(#rytpu7uqzj)"/>
                <path fill="#A31833" d="M4.072 17.988L4.134 17.988 4.134 0.004 4.072 0.004z" mask="url(#rytpu7uqzj)"/>
                <path fill="#A41733" d="M4.134 17.988L4.197 17.988 4.197 0.004 4.134 0.004z" mask="url(#rytpu7uqzj)"/>
                <path fill="#A51733" d="M4.198 17.988L4.261 17.988 4.261 0.004 4.198 0.004z" mask="url(#rytpu7uqzj)"/>
                <path fill="#A61733" d="M4.261 17.988L4.324 17.988 4.324 0.004 4.261 0.004z" mask="url(#rytpu7uqzj)"/>
                <path fill="#A71633" d="M4.325 17.988L4.388 17.988 4.388 0.004 4.325 0.004z" mask="url(#rytpu7uqzj)"/>
                <path fill="#A91634" d="M4.388 17.988L4.451 17.988 4.451 0.004 4.388 0.004z" mask="url(#rytpu7uqzj)"/>
                <path fill="#AA1634" d="M4.452 17.988L4.514 17.988 4.514 0.004 4.452 0.004z" mask="url(#rytpu7uqzj)"/>
                <path fill="#AB1534" d="M4.514 17.988L4.577 17.988 4.577 0.004 4.514 0.004z" mask="url(#rytpu7uqzj)"/>
                <path fill="#AC1534" d="M4.578 17.988L4.641 17.988 4.641 0.004 4.578 0.004z" mask="url(#rytpu7uqzj)"/>
                <path fill="#AD1534" d="M4.641 17.988L4.704 17.988 4.704 0.004 4.641 0.004z" mask="url(#rytpu7uqzj)"/>
                <path fill="#AE1434" d="M4.705 17.988L4.768 17.988 4.768 0.004 4.705 0.004z" mask="url(#rytpu7uqzj)"/>
                <path fill="#AF1434" d="M4.768 17.988L4.831 17.988 4.831 0.004 4.768 0.004z" mask="url(#rytpu7uqzj)"/>
                <path fill="#B01334" d="M4.832 17.988L4.894 17.988 4.894 0.004 4.832 0.004z" mask="url(#rytpu7uqzj)"/>
                <path fill="#B11334" d="M4.894 17.988L4.957 17.988 4.957 0.004 4.894 0.004z" mask="url(#rytpu7uqzj)"/>
                <path fill="#B21334" d="M4.958 17.988L5.021 17.988 5.021 0.004 4.958 0.004z" mask="url(#rytpu7uqzj)"/>
                <path fill="#B31234" d="M5.021 17.988L5.084 17.988 5.084 0.004 5.021 0.004z" mask="url(#rytpu7uqzj)"/>
                <path fill="#B41234" d="M5.084 17.988L5.147 17.988 5.147 0.004 5.084 0.004z" mask="url(#rytpu7uqzj)"/>
                <path fill="#B51234" d="M5.148 17.988L5.211 17.988 5.211 0.004 5.148 0.004z" mask="url(#rytpu7uqzj)"/>
                <path fill="#B61135" d="M5.211 17.988L5.273 17.988 5.273 0.004 5.211 0.004z" mask="url(#rytpu7uqzj)"/>
                <path fill="#B71135" d="M5.274 17.988L5.337 17.988 5.337 0.004 5.274 0.004z" mask="url(#rytpu7uqzj)"/>
                <path fill="#B81135" d="M5.337 17.988L5.4 17.988 5.4 0.004 5.337 0.004z" mask="url(#rytpu7uqzj)"/>
                <path fill="#B91035" d="M5.401 17.988L5.464 17.988 5.464 0.004 5.401 0.004z" mask="url(#rytpu7uqzj)"/>
                <path fill="#BA1035" d="M5.464 17.988L5.527 17.988 5.527 0.004 5.464 0.004z" mask="url(#rytpu7uqzj)"/>
                <path fill="#BB0F35" d="M5.528 17.988L5.59 17.988 5.59 0.004 5.528 0.004z" mask="url(#rytpu7uqzj)"/>
                <path fill="#BC0F35" d="M5.59 17.988L5.653 17.988 5.653 0.004 5.59 0.004z" mask="url(#rytpu7uqzj)"/>
                <path fill="#BD0F35" d="M5.654 17.988L5.717 17.988 5.717 0.004 5.654 0.004z" mask="url(#rytpu7uqzj)"/>
                <path fill="#BE0E35" d="M5.717 17.988L5.78 17.988 5.78 0.004 5.717 0.004z" mask="url(#rytpu7uqzj)"/>
                <path fill="#BF0E35" d="M5.781 17.988L5.844 17.988 5.844 0.004 5.781 0.004z" mask="url(#rytpu7uqzj)"/>
                <path fill="#C00E35" d="M5.844 17.988L5.907 17.988 5.907 0.004 5.844 0.004z" mask="url(#rytpu7uqzj)"/>
                <path fill="#C10D35" d="M5.908 17.988L5.97 17.988 5.97 0.004 5.908 0.004z" mask="url(#rytpu7uqzj)"/>
                <path fill="#C20D35" d="M5.97 17.988L6.033 17.988 6.033 0.004 5.97 0.004z" mask="url(#rytpu7uqzj)"/>
                <path fill="#C30D36" d="M6.034 17.988L6.097 17.988 6.097 0.004 6.034 0.004z" mask="url(#rytpu7uqzj)"/>
                <path fill="#C40C36" d="M6.097 17.988L6.16 17.988 6.16 0.004 6.097 0.004z" mask="url(#rytpu7uqzj)"/>
                <path fill="#C50C36" d="M6.161 17.988L6.224 17.988 6.224 0.004 6.161 0.004z" mask="url(#rytpu7uqzj)"/>
                <path fill="#C60C36" d="M6.224 17.988L6.287 17.988 6.287 0.004 6.224 0.004z" mask="url(#rytpu7uqzj)"/>
                <path fill="#C70B36" d="M6.288 17.988L6.35 17.988 6.35 0.004 6.288 0.004z" mask="url(#rytpu7uqzj)"/>
                <path fill="#C80B36" d="M6.35 17.988L6.413 17.988 6.413 0.004 6.35 0.004z" mask="url(#rytpu7uqzj)"/>
                <path fill="#C90A36" d="M6.414 17.988L6.477 17.988 6.477 0.004 6.414 0.004z" mask="url(#rytpu7uqzj)"/>
                <path fill="#CA0A36" d="M6.477 17.988L6.54 17.988 6.54 0.004 6.477 0.004z" mask="url(#rytpu7uqzj)"/>
                <path fill="#CB0A36" d="M6.541 17.988L6.604 17.988 6.604 0.004 6.541 0.004z" mask="url(#rytpu7uqzj)"/>
                <path fill="#CC0936" d="M6.604 17.988L6.667 17.988 6.667 0.004 6.604 0.004z" mask="url(#rytpu7uqzj)"/>
                <path fill="#CD0936" d="M6.667 17.988L6.729 17.988 6.729 0.004 6.667 0.004z" mask="url(#rytpu7uqzj)"/>
                <path fill="#CE0936" d="M6.73 17.988L6.793 17.988 6.793 0.004 6.73 0.004z" mask="url(#rytpu7uqzj)"/>
                <path fill="#CF0836" d="M6.793 17.988L6.856 17.988 6.856 0.004 6.793 0.004z" mask="url(#rytpu7uqzj)"/>
                <path fill="#D00837" d="M6.857 17.988L6.92 17.988 6.92 0.004 6.857 0.004z" mask="url(#rytpu7uqzj)"/>
                <path fill="#D10837" d="M6.92 17.988L6.983 17.988 6.983 0.004 6.92 0.004z" mask="url(#rytpu7uqzj)"/>
                <path fill="#D20737" d="M6.984 17.988L7.047 17.988 7.047 0.004 6.984 0.004z" mask="url(#rytpu7uqzj)"/>
                <path fill="#D30737" d="M7.047 17.988L7.109 17.988 7.109 0.004 7.047 0.004z" mask="url(#rytpu7uqzj)"/>
                <path fill="#D40637" d="M7.11 17.988L7.173 17.988 7.173 0.004 7.11 0.004z" mask="url(#rytpu7uqzj)"/>
                <path fill="#D50637" d="M7.173 17.988L7.236 17.988 7.236 0.004 7.173 0.004z" mask="url(#rytpu7uqzj)"/>
                <path fill="#D60637" d="M7.237 17.988L7.3 17.988 7.3 0.004 7.237 0.004z" mask="url(#rytpu7uqzj)"/>
                <path fill="#D70537" d="M7.3 17.988L7.363 17.988 7.363 0.004 7.3 0.004z" mask="url(#rytpu7uqzj)"/>
                <path fill="#D80537" d="M7.364 17.988L7.427 17.988 7.427 0.004 7.364 0.004z" mask="url(#rytpu7uqzj)"/>
                <path fill="#D90537" d="M7.427 17.988L7.489 17.988 7.489 0.004 7.427 0.004z" mask="url(#rytpu7uqzj)"/>
                <path fill="#DA0437" d="M7.49 17.988L7.553 17.988 7.553 0.004 7.49 0.004z" mask="url(#rytpu7uqzj)"/>
                <path fill="#DB0437" d="M7.553 17.988L7.616 17.988 7.616 0.004 7.553 0.004z" mask="url(#rytpu7uqzj)"/>
                <path fill="#DC0437" d="M7.617 17.988L7.68 17.988 7.68 0.004 7.617 0.004z" mask="url(#rytpu7uqzj)"/>
                <path fill="#DD0338" d="M7.68 17.988L7.743 17.988 7.743 0.004 7.68 0.004z" mask="url(#rytpu7uqzj)"/>
                <path fill="#DE0338" d="M7.744 17.988L7.806 17.988 7.806 0.004 7.744 0.004z" mask="url(#rytpu7uqzj)"/>
                <path fill="#DF0238" d="M7.806 17.988L7.869 17.988 7.869 0.004 7.806 0.004z" mask="url(#rytpu7uqzj)"/>
                <path fill="#E00238" d="M7.87 17.988L7.933 17.988 7.933 0.004 7.87 0.004z" mask="url(#rytpu7uqzj)"/>
                <path fill="#E10238" d="M7.933 17.988L7.996 17.988 7.996 0.004 7.933 0.004z" mask="url(#rytpu7uqzj)"/>
                <path fill="#E20138" d="M7.997 17.988L8.06 17.988 8.06 0.004 7.997 0.004z" mask="url(#rytpu7uqzj)"/>
                <path fill="#E30138" d="M8.06 17.989L8.123 17.989 8.123 0.005 8.06 0.005z" mask="url(#rytpu7uqzj)"/>
            </g>
        </g>
        <g>
            <path fill="#FFF" d="M27.932 17.22c0 2.322-1.881 4.205-4.203 4.205H.907V4.808C.907 2.487 2.787.604 5.11.604h22.82V17.22z" transform="translate(4 1.205)"/>
            <g transform="translate(4 1.205) translate(19 2)">
                <use fill="#B0B0B0" xlink:href="#td4l4zw98k"/>
            </g>
            <g transform="translate(4 1.205) translate(2 2)">
                <mask id="qnjoei5ohm" fill="#fff">
                    <use xlink:href="#e9lffd49hl"/>
                </mask>
                <path fill="#1D2970" d="M.407.005v18.019V.004z" mask="url(#qnjoei5ohm)"/>
                <use fill="#B0B0B0" xlink:href="#cg5kkwwd9n"/>
            </g>
            <g transform="translate(4 1.205) translate(10 2)">
                <mask id="5jqaqnafup" fill="#fff">
                    <use xlink:href="#k2t8ft4cqo"/>
                </mask>
                <path fill="#6E2B2F" d="M.716.005v18.019V.004z" mask="url(#5jqaqnafup)"/>
                <use fill="#B0B0B0" xlink:href="#lrh1v67kcq"/>
            </g>
        </g>
    </g>
</svg>
