<svg xmlns="http://www.w3.org/2000/svg" xmlns:xlink="http://www.w3.org/1999/xlink" width="38" height="25" viewBox="0 0 38 25">
    <defs>
        <path id="joz1qcvlwa" d="M.055 18.024H.024v-6.123H4.695l.028-.001h.029l.029-.001.03-.001.029-.001.028-.001.029-.003.03-.003.028-.002.029-.002.029-.004.029-.003.029-.004.03-.005c.01 0 .019-.003.027-.004l.03-.005.03-.006.028-.004.029-.007.029-.006.029-.006.029-.007.03-.008.027-.008.03-.008.029-.009.029-.009c.01-.002.019-.005.029-.01.01-.002.019-.005.029-.01.01-.002.02-.006.029-.009l.029-.012.029-.01c.01-.005.019-.008.029-.014l.028-.011c.01-.005.02-.008.03-.014.01-.003.02-.009.03-.013l.028-.014.029-.014.029-.016.029-.017.029-.017.029-.017c.01-.006.019-.011.028-.019l.03-.018.029-.02.029-.022.028-.022.03-.023c.01-.008.02-.015.028-.024l.03-.026.029-.027.028-.028c.011-.01.02-.02.029-.031l.03-.031.03-.035.027-.036.03-.038.029-.044.029-.046.029-.051.029-.056.028-.066c.011-.026.021-.051.03-.078.011-.033.02-.065.029-.099.011-.05.021-.099.028-.152.009-.062.013-.126.013-.192 0-.065-.004-.127-.013-.188-.007-.051-.017-.098-.028-.146-.009-.032-.018-.064-.029-.096-.009-.025-.019-.05-.03-.074l-.028-.064-.029-.055-.029-.049-.029-.045-.029-.041-.03-.038-.027-.035-.03-.033-.03-.031-.029-.029-.028-.027-.029-.026-.03-.025-.028-.023-.03-.023-.028-.02c-.009-.008-.019-.015-.029-.021l-.029-.02c-.01-.005-.02-.013-.03-.019l-.028-.017-.029-.018c-.01-.004-.02-.011-.029-.015-.009-.007-.019-.011-.029-.016l-.029-.016c-.01-.004-.019-.01-.029-.013l-.028-.015-.03-.012-.03-.013-.028-.012-.029-.011-.029-.012-.029-.011-.029-.01c-.01-.002-.019-.007-.029-.01-.01-.002-.019-.007-.029-.01l-.029-.009-.029-.007-.03-.009-.027-.008-.03-.006c-.01-.004-.02-.005-.029-.007l-.029-.008-.029-.005c-.009-.002-.019-.005-.029-.006l-.028-.006-.03-.005c-.01-.002-.02-.004-.03-.004l-.027-.005c-.01-.003-.02-.004-.03-.004l-.029-.004-.029-.004-.029-.004-.029-.003-.028-.002-.03-.002-.027-.003v-.035l.027-.004.03-.004.028-.006.029-.005.029-.006.029-.006.029-.007c.01-.003.02-.004.03-.008l.027-.006.03-.009.03-.009c.009-.002.019-.005.028-.009l.029-.008c.01-.005.019-.008.029-.011l.029-.011.029-.011.03-.012.027-.012.03-.013.029-.014c.01-.005.02-.008.029-.014.01-.004.019-.01.029-.015l.029-.016.029-.016.029-.017.029-.019.029-.019.028-.019c.01-.008.02-.016.03-.022l.03-.022.028-.024.029-.024.029-.027.029-.028.029-.03.029-.03.028-.033.03-.037.029-.039.029-.042.028-.046.03-.052c.01-.019.02-.037.028-.057.011-.022.021-.044.03-.067.01-.025.02-.051.029-.079.01-.033.02-.068.028-.102.014-.056.024-.114.029-.172.006-.045.008-.092.008-.139 0-.05-.002-.098-.008-.145-.005-.061-.015-.12-.029-.176-.008-.035-.018-.07-.028-.103l-.029-.079c-.009-.023-.019-.043-.03-.065-.008-.019-.018-.039-.028-.057l-.03-.05c-.008-.015-.018-.03-.028-.044-.009-.015-.019-.028-.029-.042L5.97 6.74c-.01-.012-.019-.024-.03-.035l-.028-.033-.029-.031c-.01-.009-.02-.017-.029-.027l-.029-.027-.029-.026-.029-.023-.028-.023-.03-.022c-.01-.006-.02-.014-.03-.019l-.028-.02-.029-.019-.029-.017-.029-.017-.029-.016-.029-.014-.029-.016c-.009-.004-.019-.01-.029-.013l-.029-.014-.03-.012-.027-.012-.03-.012-.029-.011-.029-.01-.029-.01-.029-.01-.028-.009-.03-.008c-.01-.004-.02-.007-.03-.008-.008-.003-.017-.007-.027-.008l-.03-.008-.029-.007-.029-.006-.029-.006-.029-.007-.028-.004-.03-.007c-.01 0-.019-.002-.029-.004l-.028-.004-.029-.004-.03-.004-.029-.003-.029-.004-.028-.003-.03-.001-.028-.003-.03-.002-.029-.003h-.01l-.018-.001-.03-.001-.029-.002-.029-.001-.028-.002-.03-.001-.028-.001-.03-.001-.028-.001H.024V3.009c0-.211.021-.415.062-.613l.029-.126.028-.106.03-.094c.01-.027.018-.055.029-.083l.029-.078.029-.07.029-.066c.009-.022.018-.043.028-.063l.03-.059.029-.055.028-.053.029-.05.03-.049.028-.047.03-.045.029-.042c.009-.014.018-.028.029-.042l.029-.039.029-.04.029-.037c.008-.012.018-.024.028-.036l.03-.035.029-.034.028-.033L.81.981.84.95.868.92l.03-.029.028-.028.029-.029.029-.027.03-.026.028-.027.029-.025.03-.025.028-.023.03-.024.028-.022.029-.023c.009-.008.019-.014.029-.021l.03-.022.028-.021.029-.019.029-.02.03-.019c.009-.006.018-.013.028-.018l.029-.019.029-.017.029-.018.029-.016.029-.017.028-.016.03-.016.03-.015.028-.014.029-.016.029-.013c.01-.005.02-.008.029-.014l.029-.013.03-.012.027-.013.03-.012.029-.012.03-.012.027-.01c.01-.005.02-.008.03-.011.01-.005.02-.007.029-.01l.029-.011.029-.01.029-.009.028-.009.03-.008.029-.009.028-.008.03-.007.029-.008.029-.008.029-.007.029-.006.028-.006.03-.007.029-.004c.01-.002.019-.005.029-.006L2.52.048l.03-.005.028-.005.03-.003.028-.005.029-.003.029-.003.03-.004.029-.002.028-.003.029-.002.03-.002.029-.003h.028l.03-.001.028-.001h.03l.029-.001H7.431V15.02c0 .091-.004.179-.012.266-.007.077-.017.154-.03.23-.007.051-.017.1-.028.15l-.029.12c-.008.036-.018.07-.029.103l-.029.092-.029.082-.029.074-.028.07-.03.065-.029.061-.029.059-.028.054-.03.052-.028.051-.03.047-.028.046-.03.044-.028.044-.03.041-.029.04-.028.037-.03.038-.029.036-.029.034-.028.035-.03.031-.028.033-.03.031-.029.031-.028.028-.029.029-.03.028-.028.026-.029.027-.029.026-.029.025-.029.024-.03.023-.027.024c-.01.008-.02.016-.03.022l-.03.023c-.009.007-.019.015-.029.021l-.028.022-.029.02-.03.02c-.008.007-.018.013-.028.019l-.03.019c-.01.006-.018.013-.028.018-.009.007-.019.014-.029.019l-.029.018-.03.016-.028.018-.029.016-.029.016-.029.015-.029.015-.029.015c-.01.005-.019.01-.028.013l-.03.016-.03.012-.028.014c-.01.003-.019.009-.029.012l-.029.013-.029.012-.029.011c-.01.005-.019.008-.029.011l-.029.012-.029.011c-.01.002-.019.007-.029.009-.01.004-.02.008-.03.01l-.027.01-.03.01-.029.008-.029.009c-.01.003-.019.007-.029.008l-.029.008-.028.008-.03.008-.03.006-.027.007-.03.007-.029.006-.029.006-.029.006-.029.005-.028.005-.03.004-.029.005-.028.004-.029.004-.03.003-.029.004-.029.002-.028.004-.03.002-.028.002-.03.002-.029.001-.028.001-.03.001-.029.002h-.029l-.028.001H.055zM3.071 7.023h.013l.017.002.029.002.028.002.029.002.03.003.021.003.007.001.03.006.028.007.029.007.029.01c.01.005.02.007.03.011l.028.013c.009.004.019.008.029.014l.03.014.028.017.03.019.028.021.029.023.029.026.03.029.028.033.029.038.029.042.029.053c.011.022.021.044.029.067.011.032.021.063.029.098.012.054.017.109.017.169 0 .059-.005.115-.017.169-.008.034-.018.067-.029.098-.008.023-.018.045-.029.067l-.029.052-.029.044-.029.037-.028.033-.03.028c-.01.009-.018.018-.029.026l-.029.024-.028.02c-.01.008-.02.013-.03.019l-.028.016c-.01.007-.02.011-.03.017l-.029.013-.028.012-.03.011-.029.01-.029.007-.028.008-.03.005-.007.002-.021.003-.03.002-.029.003c-.009.002-.019.003-.028.003l-.029.002H1.492V7.023h1.579zm.169 2.356h.005l.03.002.028.002.029.002.029.002.03.005.028.003.018.004.011.003.03.007.028.009.03.01.028.011c.01.003.019.007.029.012l.029.014.03.015.028.018.029.019.029.02.029.023.029.026.029.028c.01.01.02.021.028.032.011.01.02.022.03.035l.029.038.029.046c.01.018.02.036.028.055.011.023.021.045.03.069.012.031.022.065.028.099.014.057.021.119.021.183 0 .065-.007.127-.021.186-.006.034-.016.066-.028.098-.009.023-.019.046-.03.068-.008.019-.018.038-.028.055l-.029.046-.029.041-.03.034-.028.03-.029.029-.029.025-.029.023-.029.021-.029.018c-.009.007-.019.012-.028.018l-.03.015-.029.013c-.01.006-.019.009-.029.013l-.028.013-.03.009-.028.008c-.01.002-.02.004-.03.008l-.011.001-.018.004-.028.005-.03.003-.029.003-.029.002-.028.002-.03.001-.015.001H1.492V9.379H3.24z"/>
        <path id="3vp6c7m85c" d="M1.407.771l-.012.011-.029.027-.028.026-.029.028-.03.029-.028.03-.03.031c-.009.009-.019.019-.027.03l-.03.033c-.01.01-.02.021-.029.033l-.029.034-.029.035-.029.035-.028.038-.03.04-.028.038-.029.043-.03.043-.028.045-.03.046-.029.048-.028.051-.029.053-.029.056c-.011.019-.019.038-.029.058l-.029.061-.028.067c-.011.023-.02.048-.03.071l-.029.077-.029.084-.028.094-.029.105c-.011.042-.021.085-.029.126-.039.187-.06.379-.063.577v7.451l.063.03.029.014.029.013.028.013.029.014.029.012.03.014.028.013.029.013.029.013.029.012.029.013.028.012.029.012.03.012.028.011.03.012.029.012.028.012.03.01.028.012.029.011.029.011.029.01.029.011.03.011.027.01.03.011.028.009.03.01.029.01.028.01.029.009.012.004V.77zm0 11.128l-.012-.002-.029-.005-.028-.005-.029-.004-.03-.005-.028-.006-.03-.005-.027-.005-.03-.004-.029-.006-.029-.005-.029-.005-.029-.006-.028-.006-.03-.004-.028-.007-.029-.005-.03-.007-.028-.005-.03-.006-.029-.006-.028-.006-.029-.006-.029-.007-.029-.007-.029-.005-.028-.007-.03-.007-.029-.007-.029-.006-.028-.007-.029-.008-.029-.006-.063-.017v6.33h1v-6.125z"/>
        <path id="g4cxfccvte" d="M7.79.005H3.391l-.028.001h-.029l-.029.001-.029.001-.029.001-.028.003-.029.002-.03.002-.028.002-.03.002-.029.005-.028.002-.03.004-.028.004-.029.004-.029.005L2.9.049l-.029.004-.029.006-.028.005-.03.007-.029.006c-.009.003-.019.004-.029.006l-.029.008-.028.007c-.01.001-.019.005-.029.008l-.03.007-.028.008-.029.009c-.01.003-.02.005-.029.009l-.029.008-.029.01-.029.009-.028.011-.03.01-.028.011-.03.011-.029.012-.028.012-.03.011-.028.013c-.01.003-.02.008-.03.013-.009.003-.018.009-.028.013l-.029.013-.029.015-.03.014-.028.015-.029.014-.028.016-.03.017-.029.016-.029.017-.028.017-.03.018-.028.018-.03.018-.028.02-.029.02-.029.02-.029.02-.029.021-.029.021-.029.023-.029.023-.03.023c-.008.009-.018.016-.028.024L1.453.73l-.028.025-.03.027-.029.027-.028.026-.029.028-.03.029-.028.03-.03.031c-.009.009-.019.019-.027.03l-.03.033c-.01.01-.02.021-.029.033l-.029.034-.029.035-.029.035-.028.038-.03.04-.028.038-.029.043-.03.043-.028.045-.03.046-.029.048-.028.051-.029.053-.029.056c-.011.019-.019.038-.029.058l-.029.061-.028.067c-.011.023-.02.048-.03.071l-.029.077-.029.084-.028.094-.029.105c-.011.042-.021.085-.029.126-.041.198-.063.401-.063.612v7.416l.063.03.029.014.029.013.028.013.029.014.029.012.03.014.028.013.029.013.029.013.029.012.029.013.028.012.029.012.03.012.028.011.03.012.029.012.028.012.03.01.028.012.029.011.029.011.029.01.029.011.03.011.027.01.03.011.028.009.03.01.029.01.028.01.029.009.03.009.028.009.029.009.028.009.03.009.029.008.029.009.029.009.029.008.029.007.029.008.029.008.028.007.03.007.028.007.03.008.028.007.029.006.029.007.03.006.028.006.029.006.028.006.03.006.029.006.029.004.028.007.03.004.028.005.03.004.028.005.029.005.03.003.028.005.03.004.028.003.029.004.029.003.029.003.029.003.029.003.028.002.03.003.029.002.028.001.029.003.029.002.029.001.03.002.028.001h.029l.029.001h.029l.029.001h.087l.028-.001.029-.001h.03l.028-.002.03-.002.029-.003c.009-.002.019-.002.028-.003l.029-.003.029-.004c.01 0 .019-.001.029-.004l.029-.004.028-.004.03-.006.029-.005c.01-.004.019-.005.029-.007l.029-.007.028-.007.029-.008.03-.009c.01-.002.02-.004.028-.008l.029-.009.029-.01.029-.011.03-.011.028-.012.029-.013c.009-.003.019-.009.029-.012l.029-.015.029-.015c.01-.004.02-.011.029-.015.01-.007.018-.011.028-.016l.03-.018.028-.019.03-.019.028-.021c.01-.007.02-.013.029-.021l.029-.024.03-.023.028-.026.029-.028.029-.029.029-.032.029-.033.029-.036.028-.039.03-.042c.01-.014.02-.031.028-.045l.03-.05.029-.056.028-.064c.011-.024.021-.049.03-.073l.028-.089c.012-.038.021-.077.03-.116.013-.064.023-.129.028-.195.004-.054.008-.107.008-.162V6.127H7.197v3.484c0 .102-.005.201-.015.299-.007.07-.016.14-.029.207-.009.046-.018.092-.029.137-.008.036-.018.071-.028.107l-.03.09c-.008.026-.018.052-.029.078l-.029.07-.028.062-.029.058-.029.054-.03.049-.027.046-.03.043c-.01.015-.018.029-.029.042l-.029.038-.029.037-.028.035-.029.033-.03.033-.028.031-.029.028-.03.029-.028.026-.03.026-.028.026-.029.024-.029.023-.029.023-.029.022-.03.02-.027.021-.03.019-.029.019-.029.019-.028.018-.029.017-.029.018-.03.016-.028.015-.029.016-.029.015c-.009.006-.019.01-.029.015l-.029.014-.029.014-.028.013-.03.013-.028.013-.03.012-.029.013-.028.011c-.01.005-.02.008-.03.011-.009.005-.018.008-.028.012l-.03.011-.028.01c-.01.004-.019.008-.029.01-.009.004-.019.008-.029.01l-.03.01-.028.01-.029.01-.028.008-.03.009-.029.009-.028.008-.029.008-.03.008-.028.008-.03.007-.027.008-.03.007-.03.006c-.009.002-.019.004-.028.008l-.029.005-.029.007-.029.006-.029.006-.03.006-.027.006-.03.005-.028.005-.03.006-.029.005-.028.005c-.01.001-.019.002-.029.005l-.03.005-.028.003-.029.005-.028.004-.03.004-.029.004-.029.004-.028.003-.03.004-.028.004-.03.002-.028.004-.029.003-.03.002-.028.004-.03.003-.028.002-.029.002-.029.003-.029.002-.029.002-.029.003-.028.002-.03.002-.029.001-.029.001-.028.003-.03.001-.028.002-.03.001-.028.001-.029.001-.029.001-.029.001-.029.001h-.029l-.028.002-.03.001h-.029l-.029.001h-.029l-.028.001h-.204l-.028-.001h-.058l-.029-.001h-.029l-.028-.001-.029-.002h-.03l-.028-.001-.03-.001-.029-.001-.028-.001h-.03l-.028-.001-.029-.002-.029-.001-.029-.001-.029-.003h-.029l-.028-.002-.03-.001-.029-.002-.029-.002-.029-.002-.028-.002-.029-.002-.03-.002-.028-.002-.029-.001-.029-.002-.029-.003-.029-.003-.029-.002-.028-.002-.03-.002-.028-.004-.03-.002-.029-.002-.028-.003-.03-.003-.028-.003-.03-.003-.028-.002-.029-.004-.029-.003-.03-.002-.028-.005-.029-.003-.028-.003-.03-.003-.029-.005-.029-.002-.028-.004-.03-.004-.028-.004-.03-.004-.028-.003-.029-.004-.029-.004-.029-.005-.029-.003-.029-.004-.029-.005-.029-.004-.03-.004-.028-.005-.029-.004-.028-.005-.03-.004-.029-.005-.028-.005-.029-.004-.03-.005-.028-.006-.03-.005-.027-.005-.03-.004-.029-.006-.029-.005-.029-.005-.029-.006-.028-.006-.03-.004-.028-.007-.029-.005-.03-.007-.028-.005-.03-.006-.029-.006-.028-.006-.029-.006-.029-.007-.029-.007-.029-.005-.028-.007-.03-.007-.029-.007-.029-.006-.028-.007-.029-.008-.029-.006-.063-.017v6.33H4.812l.027-.001h.028c.01 0 .019 0 .029-.002l.03-.001.028-.001.03-.001.027-.001.03-.002.029-.003.029-.003.029-.002.029-.004.028-.003.03-.004.03-.004.027-.003.03-.006.028-.004.03-.006.029-.005.028-.006.029-.006.03-.007.028-.006.029-.007c.01-.002.019-.004.028-.008l.03-.007.029-.008.029-.008.028-.008.03-.009.028-.01.03-.009.028-.011.029-.01c.01-.002.02-.006.03-.011l.028-.009c.01-.005.02-.008.03-.011l.028-.012.029-.012.029-.013.029-.013.029-.012.029-.014c.01-.003.019-.009.028-.013l.03-.014.029-.015.029-.015.028-.015.029-.016.029-.016.03-.015.027-.018.03-.018.029-.018c.009-.005.019-.011.029-.019.01-.005.02-.012.029-.018l.029-.019.028-.02.03-.02.028-.021.03-.021.029-.022.028-.022.03-.024.029-.022.028-.024.029-.025.029-.026.029-.026.03-.027.027-.027.03-.029c.01-.01.019-.02.029-.028.009-.011.019-.02.029-.03l.028-.031.029-.031.029-.033.03-.033.028-.034.029-.035.029-.037.029-.038.029-.04c.01-.012.02-.026.029-.04l.029-.042.029-.043.029-.046.029-.047.029-.048.028-.051.03-.055.028-.055.03-.061.028-.062c.01-.023.02-.045.029-.069.011-.023.019-.048.029-.072l.03-.079.028-.086.029-.097.029-.112.029-.135c.012-.06.022-.119.029-.18.016-.126.025-.256.025-.386V.005H7.79z"/>
        <path id="n0yzem2cxg" d="M1.716.771l-.013.012-.028.026-.029.027c-.01.009-.02.018-.028.028l-.03.028-.03.03-.028.031c-.01.009-.02.019-.029.03l-.029.033-.029.033-.029.034-.029.035-.028.036-.03.037-.028.04-.03.039-.029.042-.028.043-.029.045-.03.046-.028.048-.029.051c-.01.018-.02.035-.028.053l-.03.056-.029.058-.029.062-.028.066-.03.071c-.01.025-.02.052-.028.077l-.03.084-.029.094-.028.107c-.011.041-.021.083-.03.126-.04.197-.061.401-.061.61V6.94l.061-.051.03-.023.028-.023.029-.022.03-.021.028-.022.03-.02.028-.019.029-.02.029-.019.03-.018.028-.018.029-.017.028-.018.03-.016.029-.017.028-.016.029-.016.03-.015.028-.015.03-.016.028-.013.029-.015c.01-.003.02-.009.029-.013l.029-.013.029-.014.029-.013.028-.012.03-.013.03-.012.028-.011.029-.012.028-.012.013-.004V.77zm0 10.898l-.013-.005-.028-.011-.029-.012-.028-.012-.03-.011-.03-.014-.028-.012-.029-.013-.029-.014-.029-.012-.029-.014-.029-.014-.028-.015-.03-.014-.028-.015-.03-.016-.029-.016-.028-.015-.029-.017-.03-.016c-.009-.007-.018-.012-.028-.018l-.029-.017-.028-.018-.03-.018-.029-.019-.029-.02-.028-.02-.03-.02-.028-.02-.03-.022c-.01-.008-.02-.014-.029-.023l-.028-.022c-.01-.008-.02-.014-.03-.023l-.061-.051v6.934h1v-6.355z"/>
        <path id="zwosjg803i" d="M8.098.005H3.7l-.029.001h-.028l-.03.001-.029.001-.029.001-.028.003-.03.002-.028.002-.03.002-.028.002-.029.005-.029.002-.029.004-.029.004-.029.004-.028.005-.03.005-.028.004-.03.006-.028.005-.029.007-.029.006-.03.006-.028.008-.029.007c-.01.001-.02.005-.03.008l-.028.007-.03.008-.028.009-.029.009-.029.008-.029.01-.029.01-.029.01-.028.01-.03.011-.028.011-.03.012-.028.012-.029.011-.029.013c-.01.003-.02.009-.03.013l-.028.013-.029.013c-.01.005-.02.009-.028.015l-.03.014-.03.015-.028.016-.029.014-.029.017-.029.016-.029.017-.029.018-.028.017-.03.018-.028.019-.029.019-.029.02-.029.02-.029.02-.03.022-.028.021-.029.022c-.01.008-.02.015-.028.023l-.03.024-.029.023-.028.024-.029.025-.03.028-.028.026-.029.027c-.01.009-.02.018-.028.028l-.03.028-.03.03-.028.031c-.01.009-.02.019-.029.03l-.029.033-.029.033-.029.034-.029.035-.028.036-.03.037-.028.04-.03.039-.029.042-.028.043-.029.045-.03.046-.028.048-.029.051c-.01.018-.02.035-.028.053l-.03.056-.029.058-.029.062-.028.066-.03.071c-.01.025-.02.052-.028.077l-.03.084-.029.094-.028.107c-.011.041-.021.083-.03.126-.04.197-.061.401-.061.61V6.94l.061-.051.03-.023.028-.023.029-.022.03-.021.028-.022.03-.02.028-.019.029-.02.029-.019.03-.018.028-.018.029-.017.028-.018.03-.016.029-.017.028-.016.029-.016.03-.015.028-.015.03-.016.028-.013.029-.015c.01-.003.02-.009.029-.013l.029-.013.029-.014.029-.013.028-.012.03-.013.03-.012.028-.011.029-.012.028-.012.03-.011.029-.01.028-.011.029-.011.03-.01.028-.01.029-.009.028-.01.03-.01.029-.009.029-.008.029-.01.029-.008.028-.009.03-.007.028-.009.029-.008.029-.008.029-.006.029-.009.029-.006.028-.008.03-.007.03-.006.028-.007.029-.006.028-.007.03-.006.029-.006.029-.006.028-.006.03-.006.028-.004.03-.006.028-.005.029-.005.029-.005.029-.005.029-.005.029-.004.028-.005.03-.004.028-.004.03-.005.029-.004.028-.004.03-.004.029-.003.029-.004.028-.004.03-.003.028-.002.03-.004.028-.004.029-.002.029-.003.029-.003.029-.002.029-.003.028-.002.03-.003.028-.001.03-.004.028-.002.029-.002.029-.001.03-.002.028-.001.029-.003.028-.002.03-.001.03-.001.027-.001.03-.001.029-.002.029-.001.029-.002h.029l.028-.001.03-.001h.028l.029-.001.029-.001h.029l.029-.001h.087l.028-.001h.087l.029.001h.087l.029.001h.029l.03.001h.028l.029.001.029.001.029.001h.058l.028.002.03.001.028.001.03.002.028.001.029.001H4.944l.03.002.028.001.029.003.028.002.03.001.03.002.027.002.03.002.029.003.029.001.029.003.028.002.029.003.03.002.028.003.03.003.028.002.029.004.029.003.029.002.028.004.03.004.028.002.03.004.029.003.028.004.029.004.03.003.028.004.029.004.028.004.03.004.03.003.028.006.029.003.029.004.029.005.029.004.029.003.028.006.03.004.028.005.03.004.028.005.029.005.029.005.029.005.029.005.029.005.028.004.03.005.029.006.029.005.028.006.03.005.029.006.029.004.028.007.029.005.03.006.028.005.03.006.028.006.029.006.029.005.029.007.029.005.029.007.028.006.03.006.029.007.028.006.029.007.029.005.029.007.03.007.027.007.03.006.03.007.028.007.029.007v1.271l-.029-.014-.028-.015-.03-.014-.03-.014-.027-.014-.03-.013-.029-.015-.029-.013-.029-.013-.028-.014-.029-.013-.03-.013-.028-.014-.029-.012-.029-.013-.029-.011-.029-.013-.029-.012-.028-.012-.03-.012-.028-.011-.03-.012-.029-.011-.028-.011-.029-.011-.029-.011-.03-.011-.028-.01-.029-.01-.029-.009-.03-.011-.028-.01-.029-.009-.029-.01-.029-.01-.029-.008-.029-.009-.028-.009-.03-.009-.028-.007-.03-.009-.028-.008-.029-.007-.029-.008-.029-.009-.029-.006-.029-.008-.028-.007-.03-.006-.03-.008-.028-.007-.029-.005-.028-.007-.03-.006-.029-.006-.028-.005-.029-.006-.03-.005-.028-.006-.03-.005-.028-.005-.029-.004-.029-.005-.029-.005-.028-.004-.03-.003-.028-.006-.03-.003-.029-.003-.028-.004-.029-.003-.029-.004-.029-.003-.03-.003-.027-.003-.03-.002-.03-.002-.028-.003-.018-.002-.011-.001-.028-.001-.03-.002-.029-.001-.029-.002-.028-.002-.03-.001H4.8l-.03-.001H4.626l-.029.001h-.028l-.03.001-.029.002-.029.002-.029.001-.028.003-.03.001-.029.002-.028.004-.029.002-.03.004-.028.003-.03.004-.027.004-.03.005-.029.005-.029.004-.029.006-.029.005-.028.006-.03.006-.028.007-.029.007-.029.006-.029.009-.029.008-.03.008-.027.009-.03.009c-.01.002-.02.005-.03.01-.008.002-.018.005-.028.01-.01.002-.02.006-.029.009-.01.004-.019.008-.028.01l-.03.012-.029.012-.029.012-.028.012-.03.014-.028.014-.03.014-.028.015-.029.016c-.01.004-.019.011-.029.015l-.029.017-.029.017-.029.019-.028.018-.03.02-.028.021-.03.021c-.01.007-.02.015-.028.023l-.029.022-.029.025-.03.025-.028.026-.029.028-.03.029-.028.03-.03.033-.028.034-.029.035-.029.037-.029.039-.029.043-.029.045-.028.048-.03.053c-.01.018-.019.037-.028.057-.011.019-.021.041-.03.061l-.028.069-.029.077c-.011.029-.021.059-.029.089-.011.035-.021.071-.03.107-.011.045-.02.089-.028.136-.012.07-.022.14-.029.213-.008.084-.012.171-.012.26s.004.175.012.26c.007.073.017.143.029.212.008.046.017.092.028.137.009.036.019.071.03.106.008.03.018.059.029.088l.029.079.028.068c.009.02.019.041.03.061l.028.057.03.053.028.048.029.045.029.042.029.04.029.038.029.035.028.033.03.032.028.03.03.03.029.027.028.027.03.025c.009.009.019.016.029.024l.029.023c.008.008.018.015.028.022l.03.022.028.021.03.019c.009.007.019.012.028.018.009.008.019.013.029.019l.029.017c.009.007.019.011.029.017l.029.017.029.014.028.015.03.015.028.013.03.014.028.012.029.012.029.012.03.012.028.01.029.01.028.01.03.01.03.009.027.008.03.009.029.008.029.008.029.007.029.007.028.006.03.006.028.006.029.006.029.005.029.005.029.005c.01.001.02.002.03.005l.027.004.03.003.028.003.03.004.029.003.028.003.029.001.03.003.028.003.029.001.029.002h.029l.03.001.028.001.029.002H4.77l.03-.002.028-.001.03-.001h.028l.029-.002.029-.001.03-.002.028-.002.011-.002.018-.001.028-.002.03-.003.03-.002.027-.003.03-.003.029-.003.029-.003.029-.004.028-.003.029-.004.03-.005.028-.003.03-.004.028-.005.029-.005.029-.004.029-.005.028-.004.03-.006.028-.005.03-.006.029-.005.028-.006.029-.006.03-.007.028-.005.029-.007.028-.007.03-.007.03-.007.028-.006.029-.007.029-.008.029-.008.029-.008.029-.008.028-.007.03-.008.028-.009.03-.009.028-.008.029-.009.029-.009.029-.01.029-.008.029-.01.028-.01.03-.01.029-.011.029-.01.028-.01.03-.01.029-.011.029-.012.028-.01.029-.011.03-.011.028-.012.03-.012.028-.012.029-.012.029-.013.029-.011.029-.013.029-.012.028-.013.03-.013.029-.012.028-.014.029-.014.029-.013.029-.013.03-.014.027-.014.03-.015.03-.014.028-.014.029-.014v1.27l-.029.007-.028.007-.03.007-.03.007-.027.006-.03.007-.029.008-.029.005-.029.007-.028.006-.029.007-.03.005-.028.007-.029.006-.029.006-.029.005-.029.007-.029.005-.028.006-.03.006-.028.006-.03.006-.029.005-.028.005-.029.007-.029.004-.03.006-.028.005-.029.005-.029.006-.03.005-.028.005-.029.005-.029.005-.029.004-.029.005-.029.005-.028.005-.03.005-.028.003-.03.006-.028.004-.029.005-.029.004-.029.004-.029.004-.029.005-.028.004-.03.004-.03.004-.028.003-.029.005-.028.003-.03.004-.029.004-.028.003-.029.004-.03.003-.028.003-.03.004-.028.003-.029.003-.029.003-.029.002-.028.004-.03.003-.028.002-.03.003-.029.002-.028.004-.029.001-.029.003-.029.002-.03.003-.027.001-.03.002-.03.002-.028.002-.029.001-.028.001-.03.002-.014.001-.015.001-.029.001-.028.001-.03.001-.028.001h-.03l-.028.001-.029.001-.029.001-.029.001-.029.002h-.029l-.028.001h-.03l-.029.001h-.029l-.029.001h-.259l-.03-.001h-.029l-.029-.001h-.029l-.029-.001-.028-.002h-.03l-.028-.001-.029-.001-.029-.001-.029-.001-.029-.001-.03-.001-.027-.001-.03-.002-.03-.001-.028-.002-.029-.002-.028-.002-.03-.002-.029-.002-.029-.001-.028-.003-.03-.002-.028-.002-.03-.002-.028-.002-.029-.004-.029-.003-.029-.001-.029-.003-.029-.004-.028-.003-.03-.003-.028-.003-.03-.004L3.122 12l-.029-.003-.029-.005-.03-.004-.028-.002-.029-.006-.03-.003-.028-.004-.03-.005-.028-.004-.029-.005-.029-.005-.029-.004-.029-.006-.029-.004-.028-.006-.03-.005-.028-.005-.03-.006-.028-.006-.029-.006-.029-.006-.03-.006-.028-.006-.029-.007-.028-.006-.03-.007-.03-.007-.028-.008-.029-.006-.029-.008-.029-.007-.029-.007-.029-.009-.028-.009-.03-.007-.028-.009-.029-.009-.029-.009-.029-.009-.029-.008-.03-.01c-.01-.002-.018-.006-.028-.01l-.029-.009-.028-.01-.03-.01-.029-.011-.028-.01-.029-.011-.03-.011-.028-.011-.029-.012-.028-.012-.03-.011-.03-.014-.028-.012-.029-.013-.029-.014-.029-.012-.029-.014-.029-.014-.028-.015-.03-.014-.028-.015-.03-.016-.029-.016-.028-.015-.029-.017-.03-.016c-.009-.007-.018-.012-.028-.018l-.029-.017-.028-.018-.03-.018-.029-.019-.029-.02-.028-.02-.03-.02-.028-.02-.03-.022c-.01-.008-.02-.014-.029-.023l-.028-.022c-.01-.008-.02-.014-.03-.023l-.061-.051v6.934H5.12l.026-.001h.03c.009 0 .019 0 .029-.002l.029-.001.029-.001.028-.001.029-.001.03-.002.028-.003.03-.003.028-.002.029-.004.029-.003.029-.004.028-.004.03-.003.028-.006.03-.004.029-.006.028-.005.029-.006.03-.006.028-.007.029-.006.028-.007c.01-.002.02-.004.03-.008l.03-.007.028-.008.029-.008.029-.008c.009-.004.019-.006.029-.009l.029-.01.029-.009.028-.011.03-.01.028-.011.03-.009.028-.011.029-.012.029-.012.029-.013.029-.013c.01-.003.019-.007.029-.012l.028-.014c.01-.003.02-.009.03-.013l.029-.014.029-.015.028-.015.03-.015.029-.016.029-.016.028-.016.029-.017.03-.018.028-.018c.01-.005.02-.011.03-.019l.028-.018.029-.019.029-.02.029-.02.029-.021.029-.021.028-.022.03-.022.029-.024c.009-.008.019-.014.028-.023l.029-.023.029-.026.029-.025.03-.026c.01-.008.019-.018.027-.027l.03-.027.03-.029.028-.029.029-.029.029-.032.029-.03.029-.033.029-.033.028-.034.03-.036.028-.036.03-.039.029-.039c.01-.012.019-.026.028-.04l.029-.042.029-.044.029-.045.029-.047c.01-.015.02-.032.028-.048l.03-.052c.01-.017.02-.035.029-.054l.029-.056c.01-.02.02-.04.028-.06l.029-.063c.011-.022.02-.045.029-.068l.03-.072c.01-.027.02-.053.028-.079.011-.029.02-.058.029-.086l.03-.097.028-.112c.011-.044.021-.09.03-.135.011-.06.02-.119.028-.18.017-.126.025-.256.025-.386V.005h-.025z"/>
    </defs>
    <g fill="none" fill-rule="evenodd">
        <g>
            <path fill="#E2E2E2" d="M36 25H2c-1.1 0-2-.9-2-2V2C0 .9.9 0 2 0h34c1.1 0 2 .9 2 2v21c0 1.1-.9 2-2 2"/>
            <path fill="#FFF" d="M35.97 23.429H2.03c-.824 0-1.5-.676-1.5-1.5V2.099c0-.823.676-1.5 1.5-1.5h33.94c.824 0 1.5.677 1.5 1.5v19.83c0 .824-.676 1.5-1.5 1.5"/>
            <path fill="#FFF" d="M32.932 18.22c0 2.322-1.881 4.205-4.203 4.205H5.907V5.808c0-2.321 1.88-4.204 4.204-4.204h22.82V18.22z"/>
        </g>
        <g transform="translate(7 3)">
            <g transform="translate(17)">
                <mask id="7ydgvbvghb" fill="#fff">
                    <use xlink:href="#joz1qcvlwa"/>
                </mask>
                <path fill="#007B40" d="M0.023 18.023L0.11 18.023 0.11 0.004 0.023 0.004z" mask="url(#7ydgvbvghb)"/>
                <path fill="#017C40" d="M0.11 18.023L0.197 18.023 0.197 0.004 0.11 0.004z" mask="url(#7ydgvbvghb)"/>
                <path fill="#027C40" d="M0.197 18.023L0.285 18.023 0.285 0.004 0.197 0.004z" mask="url(#7ydgvbvghb)"/>
                <path fill="#037D3F" d="M0.285 18.023L0.372 18.023 0.372 0.004 0.285 0.004z" mask="url(#7ydgvbvghb)"/>
                <path fill="#047E3F" d="M0.372 18.023L0.459 18.023 0.459 0.004 0.372 0.004z" mask="url(#7ydgvbvghb)"/>
                <path fill="#057E3F" d="M0.459 18.023L0.546 18.023 0.546 0.004 0.459 0.004z" mask="url(#7ydgvbvghb)"/>
                <path fill="#067F3F" d="M0.546 18.023L0.634 18.023 0.634 0.004 0.546 0.004z" mask="url(#7ydgvbvghb)"/>
                <path fill="#07803F" d="M0.634 18.023L0.721 18.023 0.721 0.004 0.634 0.004z" mask="url(#7ydgvbvghb)"/>
                <path fill="#08803E" d="M0.721 18.023L0.808 18.023 0.808 0.004 0.721 0.004z" mask="url(#7ydgvbvghb)"/>
                <path fill="#09813E" d="M0.808 18.023L0.895 18.023 0.895 0.004 0.808 0.004z" mask="url(#7ydgvbvghb)"/>
                <path fill="#0A823E" d="M0.894 18.023L0.982 18.023 0.982 0.004 0.894 0.004z" mask="url(#7ydgvbvghb)"/>
                <path fill="#0B823E" d="M0.982 18.023L1.069 18.023 1.069 0.004 0.982 0.004z" mask="url(#7ydgvbvghb)"/>
                <path fill="#0C833E" d="M1.069 18.023L1.156 18.023 1.156 0.004 1.069 0.004z" mask="url(#7ydgvbvghb)"/>
                <path fill="#0D843E" d="M1.156 18.023L1.243 18.023 1.243 0.004 1.156 0.004z" mask="url(#7ydgvbvghb)"/>
                <path fill="#0E843D" d="M1.243 18.023L1.331 18.023 1.331 0.004 1.243 0.004z" mask="url(#7ydgvbvghb)"/>
                <path fill="#0F853D" d="M1.331 18.023L1.418 18.023 1.418 0.004 1.331 0.004z" mask="url(#7ydgvbvghb)"/>
                <path fill="#10863D" d="M1.418 18.023L1.505 18.023 1.505 0.004 1.418 0.004z" mask="url(#7ydgvbvghb)"/>
                <path fill="#11863D" d="M1.505 18.023L1.592 18.023 1.592 0.004 1.505 0.004z" mask="url(#7ydgvbvghb)"/>
                <path fill="#12873D" d="M1.592 18.023L1.679 18.023 1.679 0.004 1.592 0.004z" mask="url(#7ydgvbvghb)"/>
                <path fill="#13883C" d="M1.679 18.023L1.767 18.023 1.767 0.004 1.679 0.004z" mask="url(#7ydgvbvghb)"/>
                <path fill="#14883C" d="M1.767 18.023L1.854 18.023 1.854 0.004 1.767 0.004z" mask="url(#7ydgvbvghb)"/>
                <path fill="#15893C" d="M1.853 18.023L1.94 18.023 1.94 0.004 1.853 0.004z" mask="url(#7ydgvbvghb)"/>
                <path fill="#168A3C" d="M1.94 18.023L2.027 18.023 2.027 0.004 1.94 0.004z" mask="url(#7ydgvbvghb)"/>
                <path fill="#178A3C" d="M2.027 18.023L2.115 18.023 2.115 0.004 2.027 0.004z" mask="url(#7ydgvbvghb)"/>
                <path fill="#188B3B" d="M2.115 18.023L2.202 18.023 2.202 0.004 2.115 0.004z" mask="url(#7ydgvbvghb)"/>
                <path fill="#198C3B" d="M2.202 18.023L2.289 18.023 2.289 0.004 2.202 0.004z" mask="url(#7ydgvbvghb)"/>
                <path fill="#1A8C3B" d="M2.289 18.023L2.376 18.023 2.376 0.004 2.289 0.004z" mask="url(#7ydgvbvghb)"/>
                <path fill="#1B8D3B" d="M2.376 18.023L2.464 18.023 2.464 0.004 2.376 0.004z" mask="url(#7ydgvbvghb)"/>
                <path fill="#1C8E3B" d="M2.464 18.023L2.551 18.023 2.551 0.004 2.464 0.004z" mask="url(#7ydgvbvghb)"/>
                <path fill="#1D8E3A" d="M2.551 18.023L2.638 18.023 2.638 0.004 2.551 0.004z" mask="url(#7ydgvbvghb)"/>
                <path fill="#1E8F3A" d="M2.638 18.023L2.725 18.023 2.725 0.004 2.638 0.004z" mask="url(#7ydgvbvghb)"/>
                <path fill="#1F903A" d="M2.724 18.023L2.812 18.023 2.812 0.004 2.724 0.004z" mask="url(#7ydgvbvghb)"/>
                <path fill="#20903A" d="M2.812 18.023L2.899 18.023 2.899 0.004 2.812 0.004z" mask="url(#7ydgvbvghb)"/>
                <path fill="#21913A" d="M2.899 18.023L2.986 18.023 2.986 0.004 2.899 0.004z" mask="url(#7ydgvbvghb)"/>
                <path fill="#22923A" d="M2.986 18.023L3.073 18.023 3.073 0.004 2.986 0.004z" mask="url(#7ydgvbvghb)"/>
                <path fill="#239239" d="M3.073 18.023L3.161 18.023 3.161 0.004 3.073 0.004z" mask="url(#7ydgvbvghb)"/>
                <path fill="#249339" d="M3.161 18.023L3.248 18.023 3.248 0.004 3.161 0.004z" mask="url(#7ydgvbvghb)"/>
                <path fill="#259439" d="M3.248 18.023L3.335 18.023 3.335 0.004 3.248 0.004z" mask="url(#7ydgvbvghb)"/>
                <path fill="#269439" d="M3.335 18.023L3.422 18.023 3.422 0.004 3.335 0.004z" mask="url(#7ydgvbvghb)"/>
                <path fill="#279539" d="M3.422 18.023L3.509 18.023 3.509 0.004 3.422 0.004z" mask="url(#7ydgvbvghb)"/>
                <path fill="#289638" d="M3.509 18.023L3.597 18.023 3.597 0.004 3.509 0.004z" mask="url(#7ydgvbvghb)"/>
                <path fill="#299638" d="M3.597 18.023L3.684 18.023 3.684 0.004 3.597 0.004z" mask="url(#7ydgvbvghb)"/>
                <path fill="#2B9738" d="M3.684 18.023L3.771 18.023 3.771 0.004 3.684 0.004z" mask="url(#7ydgvbvghb)"/>
                <path fill="#2C9838" d="M3.77 18.023L3.857 18.023 3.857 0.004 3.77 0.004z" mask="url(#7ydgvbvghb)"/>
                <path fill="#2D9838" d="M3.857 18.023L3.945 18.023 3.945 0.004 3.857 0.004z" mask="url(#7ydgvbvghb)"/>
                <path fill="#2E9937" d="M3.945 18.023L4.032 18.023 4.032 0.004 3.945 0.004z" mask="url(#7ydgvbvghb)"/>
                <path fill="#2F9A37" d="M4.032 18.023L4.119 18.023 4.119 0.004 4.032 0.004z" mask="url(#7ydgvbvghb)"/>
                <path fill="#309A37" d="M4.119 18.023L4.206 18.023 4.206 0.004 4.119 0.004z" mask="url(#7ydgvbvghb)"/>
                <path fill="#319B37" d="M4.206 18.023L4.294 18.023 4.294 0.004 4.206 0.004z" mask="url(#7ydgvbvghb)"/>
                <path fill="#329C37" d="M4.294 18.023L4.381 18.023 4.381 0.004 4.294 0.004z" mask="url(#7ydgvbvghb)"/>
                <path fill="#339C36" d="M4.381 18.023L4.468 18.023 4.468 0.004 4.381 0.004z" mask="url(#7ydgvbvghb)"/>
                <path fill="#349D36" d="M4.468 18.023L4.555 18.023 4.555 0.004 4.468 0.004z" mask="url(#7ydgvbvghb)"/>
                <path fill="#359E36" d="M4.555 18.023L4.643 18.023 4.643 0.004 4.555 0.004z" mask="url(#7ydgvbvghb)"/>
                <path fill="#369E36" d="M4.642 18.023L4.729 18.023 4.729 0.004 4.642 0.004z" mask="url(#7ydgvbvghb)"/>
                <path fill="#379F36" d="M4.729 18.023L4.816 18.023 4.816 0.004 4.729 0.004z" mask="url(#7ydgvbvghb)"/>
                <path fill="#38A036" d="M4.816 18.023L4.903 18.023 4.903 0.004 4.816 0.004z" mask="url(#7ydgvbvghb)"/>
                <path fill="#39A035" d="M4.903 18.023L4.991 18.023 4.991 0.004 4.903 0.004z" mask="url(#7ydgvbvghb)"/>
                <path fill="#3AA135" d="M4.991 18.023L5.078 18.023 5.078 0.004 4.991 0.004z" mask="url(#7ydgvbvghb)"/>
                <path fill="#3BA235" d="M5.078 18.023L5.165 18.023 5.165 0.004 5.078 0.004z" mask="url(#7ydgvbvghb)"/>
                <path fill="#3CA235" d="M5.165 18.023L5.252 18.023 5.252 0.004 5.165 0.004z" mask="url(#7ydgvbvghb)"/>
                <path fill="#3DA335" d="M5.252 18.023L5.339 18.023 5.339 0.004 5.252 0.004z" mask="url(#7ydgvbvghb)"/>
                <path fill="#3EA434" d="M5.339 18.023L5.427 18.023 5.427 0.004 5.339 0.004z" mask="url(#7ydgvbvghb)"/>
                <path fill="#3FA434" d="M5.427 18.023L5.514 18.023 5.514 0.004 5.427 0.004z" mask="url(#7ydgvbvghb)"/>
                <path fill="#40A534" d="M5.514 18.023L5.601 18.023 5.601 0.004 5.514 0.004z" mask="url(#7ydgvbvghb)"/>
                <path fill="#41A634" d="M5.6 18.023L5.687 18.023 5.687 0.004 5.6 0.004z" mask="url(#7ydgvbvghb)"/>
                <path fill="#42A634" d="M5.687 18.023L5.775 18.023 5.775 0.004 5.687 0.004z" mask="url(#7ydgvbvghb)"/>
                <path fill="#43A733" d="M5.775 18.023L5.862 18.023 5.862 0.004 5.775 0.004z" mask="url(#7ydgvbvghb)"/>
                <path fill="#44A833" d="M5.862 18.023L5.949 18.023 5.949 0.004 5.862 0.004z" mask="url(#7ydgvbvghb)"/>
                <path fill="#45A833" d="M5.949 18.023L6.036 18.023 6.036 0.004 5.949 0.004z" mask="url(#7ydgvbvghb)"/>
                <path fill="#46A933" d="M6.036 18.023L6.124 18.023 6.124 0.004 6.036 0.004z" mask="url(#7ydgvbvghb)"/>
                <path fill="#47AA33" d="M6.124 18.023L6.211 18.023 6.211 0.004 6.124 0.004z" mask="url(#7ydgvbvghb)"/>
                <path fill="#48AA32" d="M6.211 18.023L6.298 18.023 6.298 0.004 6.211 0.004z" mask="url(#7ydgvbvghb)"/>
                <path fill="#49AB32" d="M6.298 18.023L6.385 18.023 6.385 0.004 6.298 0.004z" mask="url(#7ydgvbvghb)"/>
                <path fill="#4AAC32" d="M6.385 18.023L6.473 18.023 6.473 0.004 6.385 0.004z" mask="url(#7ydgvbvghb)"/>
                <path fill="#4BAC32" d="M6.473 18.023L6.56 18.023 6.56 0.004 6.473 0.004z" mask="url(#7ydgvbvghb)"/>
                <path fill="#4CAD32" d="M6.559 18.023L6.646 18.023 6.646 0.004 6.559 0.004z" mask="url(#7ydgvbvghb)"/>
                <path fill="#4DAE32" d="M6.646 18.023L6.733 18.023 6.733 0.004 6.646 0.004z" mask="url(#7ydgvbvghb)"/>
                <path fill="#4EAE31" d="M6.733 18.023L6.821 18.023 6.821 0.004 6.733 0.004z" mask="url(#7ydgvbvghb)"/>
                <path fill="#4FAF31" d="M6.821 18.023L6.908 18.023 6.908 0.004 6.821 0.004z" mask="url(#7ydgvbvghb)"/>
                <path fill="#50B031" d="M6.908 18.023L6.995 18.023 6.995 0.004 6.908 0.004z" mask="url(#7ydgvbvghb)"/>
                <path fill="#51B031" d="M6.995 18.023L7.082 18.023 7.082 0.004 6.995 0.004z" mask="url(#7ydgvbvghb)"/>
                <path fill="#52B131" d="M7.082 18.023L7.17 18.023 7.17 0.004 7.082 0.004z" mask="url(#7ydgvbvghb)"/>
                <path fill="#53B230" d="M7.17 18.023L7.257 18.023 7.257 0.004 7.17 0.004z" mask="url(#7ydgvbvghb)"/>
                <path fill="#54B230" d="M7.257 18.023L7.344 18.023 7.344 0.004 7.257 0.004z" mask="url(#7ydgvbvghb)"/>
                <path fill="#55B330" d="M7.344 18.024L7.431 18.024 7.431 0.005 7.344 0.005z" mask="url(#7ydgvbvghb)"/>
                <path fill="#10863D" d="M1.491 8.486L1.505 8.486 1.505 7.023 1.491 7.023z" mask="url(#7ydgvbvghb)"/>
                <path fill="#11863D" d="M1.505 8.486L1.592 8.486 1.592 7.023 1.505 7.023z" mask="url(#7ydgvbvghb)"/>
                <path fill="#12873D" d="M1.592 8.486L1.679 8.486 1.679 7.023 1.592 7.023z" mask="url(#7ydgvbvghb)"/>
                <path fill="#13883C" d="M1.679 8.486L1.767 8.486 1.767 7.023 1.679 7.023z" mask="url(#7ydgvbvghb)"/>
                <path fill="#14883C" d="M1.767 8.486L1.854 8.486 1.854 7.023 1.767 7.023z" mask="url(#7ydgvbvghb)"/>
                <path fill="#15893C" d="M1.853 8.486L1.94 8.486 1.94 7.023 1.853 7.023z" mask="url(#7ydgvbvghb)"/>
                <path fill="#168A3C" d="M1.94 8.486L2.027 8.486 2.027 7.023 1.94 7.023z" mask="url(#7ydgvbvghb)"/>
                <path fill="#178A3C" d="M2.027 8.486L2.115 8.486 2.115 7.023 2.027 7.023z" mask="url(#7ydgvbvghb)"/>
                <path fill="#188B3B" d="M2.115 8.486L2.202 8.486 2.202 7.023 2.115 7.023z" mask="url(#7ydgvbvghb)"/>
                <path fill="#198C3B" d="M2.202 8.486L2.289 8.486 2.289 7.023 2.202 7.023z" mask="url(#7ydgvbvghb)"/>
                <path fill="#1A8C3B" d="M2.289 8.486L2.376 8.486 2.376 7.023 2.289 7.023z" mask="url(#7ydgvbvghb)"/>
                <path fill="#1B8D3B" d="M2.376 8.486L2.464 8.486 2.464 7.023 2.376 7.023z" mask="url(#7ydgvbvghb)"/>
                <path fill="#1C8E3B" d="M2.464 8.486L2.551 8.486 2.551 7.023 2.464 7.023z" mask="url(#7ydgvbvghb)"/>
                <path fill="#1D8E3A" d="M2.551 8.486L2.638 8.486 2.638 7.023 2.551 7.023z" mask="url(#7ydgvbvghb)"/>
                <path fill="#1E8F3A" d="M2.638 8.486L2.725 8.486 2.725 7.023 2.638 7.023z" mask="url(#7ydgvbvghb)"/>
                <path fill="#1F903A" d="M2.724 8.486L2.812 8.486 2.812 7.023 2.724 7.023z" mask="url(#7ydgvbvghb)"/>
                <path fill="#20903A" d="M2.812 8.486L2.899 8.486 2.899 7.023 2.812 7.023z" mask="url(#7ydgvbvghb)"/>
                <path fill="#21913A" d="M2.899 8.486L2.986 8.486 2.986 7.023 2.899 7.023z" mask="url(#7ydgvbvghb)"/>
                <path fill="#22923A" d="M2.986 8.486L3.073 8.486 3.073 7.023 2.986 7.023z" mask="url(#7ydgvbvghb)"/>
                <path fill="#239239" d="M3.073 8.486L3.161 8.486 3.161 7.023 3.073 7.023z" mask="url(#7ydgvbvghb)"/>
                <path fill="#249339" d="M3.161 8.486L3.248 8.486 3.248 7.023 3.161 7.023z" mask="url(#7ydgvbvghb)"/>
                <path fill="#259439" d="M3.248 8.486L3.335 8.486 3.335 7.023 3.248 7.023z" mask="url(#7ydgvbvghb)"/>
                <path fill="#269439" d="M3.335 8.486L3.422 8.486 3.422 7.023 3.335 7.023z" mask="url(#7ydgvbvghb)"/>
                <path fill="#279539" d="M3.422 8.486L3.509 8.486 3.509 7.023 3.422 7.023z" mask="url(#7ydgvbvghb)"/>
                <path fill="#289638" d="M3.509 8.486L3.597 8.486 3.597 7.023 3.509 7.023z" mask="url(#7ydgvbvghb)"/>
                <path fill="#299638" d="M3.597 8.486L3.684 8.486 3.684 7.023 3.597 7.023z" mask="url(#7ydgvbvghb)"/>
                <path fill="#2B9738" d="M3.684 8.486L3.771 8.486 3.771 7.023 3.684 7.023z" mask="url(#7ydgvbvghb)"/>
                <path fill="#2C9838" d="M3.771 8.486L3.843 8.486 3.843 7.023 3.771 7.023z" mask="url(#7ydgvbvghb)"/>
                <path fill="#10863D" d="M1.491 10.964L1.505 10.964 1.505 9.379 1.491 9.379z" mask="url(#7ydgvbvghb)"/>
                <path fill="#11863D" d="M1.505 10.964L1.592 10.964 1.592 9.379 1.505 9.379z" mask="url(#7ydgvbvghb)"/>
                <path fill="#12873D" d="M1.592 10.964L1.679 10.964 1.679 9.379 1.592 9.379z" mask="url(#7ydgvbvghb)"/>
                <path fill="#13883C" d="M1.679 10.964L1.767 10.964 1.767 9.379 1.679 9.379z" mask="url(#7ydgvbvghb)"/>
                <path fill="#14883C" d="M1.767 10.964L1.854 10.964 1.854 9.379 1.767 9.379z" mask="url(#7ydgvbvghb)"/>
                <path fill="#15893C" d="M1.853 10.964L1.94 10.964 1.94 9.379 1.853 9.379z" mask="url(#7ydgvbvghb)"/>
                <path fill="#168A3C" d="M1.94 10.964L2.027 10.964 2.027 9.379 1.94 9.379z" mask="url(#7ydgvbvghb)"/>
                <path fill="#178A3C" d="M2.027 10.964L2.115 10.964 2.115 9.379 2.027 9.379z" mask="url(#7ydgvbvghb)"/>
                <path fill="#188B3B" d="M2.115 10.964L2.202 10.964 2.202 9.379 2.115 9.379z" mask="url(#7ydgvbvghb)"/>
                <path fill="#198C3B" d="M2.202 10.964L2.289 10.964 2.289 9.379 2.202 9.379z" mask="url(#7ydgvbvghb)"/>
                <path fill="#1A8C3B" d="M2.289 10.964L2.376 10.964 2.376 9.379 2.289 9.379z" mask="url(#7ydgvbvghb)"/>
                <path fill="#1B8D3B" d="M2.376 10.964L2.464 10.964 2.464 9.379 2.376 9.379z" mask="url(#7ydgvbvghb)"/>
                <path fill="#1C8E3B" d="M2.464 10.964L2.551 10.964 2.551 9.379 2.464 9.379z" mask="url(#7ydgvbvghb)"/>
                <path fill="#1D8E3A" d="M2.551 10.964L2.638 10.964 2.638 9.379 2.551 9.379z" mask="url(#7ydgvbvghb)"/>
                <path fill="#1E8F3A" d="M2.638 10.964L2.725 10.964 2.725 9.379 2.638 9.379z" mask="url(#7ydgvbvghb)"/>
                <path fill="#1F903A" d="M2.724 10.964L2.812 10.964 2.812 9.379 2.724 9.379z" mask="url(#7ydgvbvghb)"/>
                <path fill="#20903A" d="M2.812 10.964L2.899 10.964 2.899 9.379 2.812 9.379z" mask="url(#7ydgvbvghb)"/>
                <path fill="#21913A" d="M2.899 10.964L2.986 10.964 2.986 9.379 2.899 9.379z" mask="url(#7ydgvbvghb)"/>
                <path fill="#22923A" d="M2.986 10.964L3.073 10.964 3.073 9.379 2.986 9.379z" mask="url(#7ydgvbvghb)"/>
                <path fill="#239239" d="M3.073 10.964L3.161 10.964 3.161 9.379 3.073 9.379z" mask="url(#7ydgvbvghb)"/>
                <path fill="#249339" d="M3.161 10.964L3.248 10.964 3.248 9.379 3.161 9.379z" mask="url(#7ydgvbvghb)"/>
                <path fill="#259439" d="M3.248 10.964L3.335 10.964 3.335 9.379 3.248 9.379z" mask="url(#7ydgvbvghb)"/>
                <path fill="#269439" d="M3.335 10.964L3.422 10.964 3.422 9.379 3.335 9.379z" mask="url(#7ydgvbvghb)"/>
                <path fill="#279539" d="M3.422 10.964L3.509 10.964 3.509 9.379 3.422 9.379z" mask="url(#7ydgvbvghb)"/>
                <path fill="#289638" d="M3.509 10.964L3.597 10.964 3.597 9.379 3.509 9.379z" mask="url(#7ydgvbvghb)"/>
                <path fill="#299638" d="M3.597 10.964L3.684 10.964 3.684 9.379 3.597 9.379z" mask="url(#7ydgvbvghb)"/>
                <path fill="#2B9738" d="M3.684 10.964L3.771 10.964 3.771 9.379 3.684 9.379z" mask="url(#7ydgvbvghb)"/>
                <path fill="#2C9838" d="M3.77 10.964L3.857 10.964 3.857 9.379 3.77 9.379z" mask="url(#7ydgvbvghb)"/>
                <path fill="#2D9838" d="M3.857 10.964L3.945 10.964 3.945 9.379 3.857 9.379z" mask="url(#7ydgvbvghb)"/>
                <path fill="#2E9937" d="M3.945 10.964L4.032 10.964 4.032 9.379 3.945 9.379z" mask="url(#7ydgvbvghb)"/>
                <path fill="#2F9A37" d="M4.032 10.964L4.048 10.964 4.048 9.379 4.032 9.379z" mask="url(#7ydgvbvghb)"/>
            </g>
            <mask id="39vfc7f47d" fill="#fff">
                <use xlink:href="#3vp6c7m85c"/>
            </mask>
            <path fill="#1D2970" d="M.407.005v18.019V.004z" mask="url(#39vfc7f47d)"/>
            <mask id="jzxz59x4kf" fill="#fff">
                <use xlink:href="#g4cxfccvte"/>
            </mask>
            <path fill="#1D2970" d="M0.407 18.023L0.508 18.023 0.508 0.004 0.407 0.004z" mask="url(#jzxz59x4kf)"/>
            <path fill="#1D2A71" d="M0.507 18.023L0.607 18.023 0.607 0.004 0.507 0.004z" mask="url(#jzxz59x4kf)"/>
            <path fill="#1C2B72" d="M0.607 18.023L0.708 18.023 0.708 0.004 0.607 0.004z" mask="url(#jzxz59x4kf)"/>
            <path fill="#1C2C73" d="M0.708 18.023L0.808 18.023 0.808 0.004 0.708 0.004z" mask="url(#jzxz59x4kf)"/>
            <path fill="#1B2D74" d="M0.807 18.023L0.908 18.023 0.908 0.004 0.807 0.004z" mask="url(#jzxz59x4kf)"/>
            <path fill="#1B2E75" d="M0.908 18.023L1.008 18.023 1.008 0.004 0.908 0.004z" mask="url(#jzxz59x4kf)"/>
            <path fill="#1B2F76" d="M1.007 18.023L1.108 18.023 1.108 0.004 1.007 0.004z" mask="url(#jzxz59x4kf)"/>
            <path fill="#1A3077" d="M1.108 18.023L1.208 18.023 1.208 0.004 1.108 0.004z" mask="url(#jzxz59x4kf)"/>
            <path fill="#1A3078" d="M1.208 18.023L1.309 18.023 1.309 0.004 1.208 0.004z" mask="url(#jzxz59x4kf)"/>
            <path fill="#193179" d="M1.308 18.023L1.408 18.023 1.408 0.004 1.308 0.004z" mask="url(#jzxz59x4kf)"/>
            <path fill="#19327A" d="M1.408 18.023L1.509 18.023 1.509 0.004 1.408 0.004z" mask="url(#jzxz59x4kf)"/>
            <path fill="#19337B" d="M1.508 18.023L1.608 18.023 1.608 0.004 1.508 0.004z" mask="url(#jzxz59x4kf)"/>
            <path fill="#18347C" d="M1.608 18.023L1.709 18.023 1.709 0.004 1.608 0.004z" mask="url(#jzxz59x4kf)"/>
            <path fill="#18357D" d="M1.709 18.023L1.809 18.023 1.809 0.004 1.709 0.004z" mask="url(#jzxz59x4kf)"/>
            <path fill="#17367E" d="M1.808 18.023L1.909 18.023 1.909 0.004 1.808 0.004z" mask="url(#jzxz59x4kf)"/>
            <path fill="#17377F" d="M1.909 18.023L2.009 18.023 2.009 0.004 1.909 0.004z" mask="url(#jzxz59x4kf)"/>
            <path fill="#173880" d="M2.008 18.023L2.109 18.023 2.109 0.004 2.008 0.004z" mask="url(#jzxz59x4kf)"/>
            <path fill="#163981" d="M2.109 18.023L2.209 18.023 2.209 0.004 2.109 0.004z" mask="url(#jzxz59x4kf)"/>
            <path fill="#163A82" d="M2.209 18.023L2.31 18.023 2.31 0.004 2.209 0.004z" mask="url(#jzxz59x4kf)"/>
            <path fill="#153B83" d="M2.309 18.023L2.409 18.023 2.409 0.004 2.309 0.004z" mask="url(#jzxz59x4kf)"/>
            <path fill="#153C84" d="M2.409 18.023L2.51 18.023 2.51 0.004 2.409 0.004z" mask="url(#jzxz59x4kf)"/>
            <path fill="#153D85" d="M2.509 18.023L2.609 18.023 2.609 0.004 2.509 0.004z" mask="url(#jzxz59x4kf)"/>
            <path fill="#143D86" d="M2.609 18.023L2.71 18.023 2.71 0.004 2.609 0.004z" mask="url(#jzxz59x4kf)"/>
            <path fill="#143E87" d="M2.71 18.023L2.81 18.023 2.81 0.004 2.71 0.004z" mask="url(#jzxz59x4kf)"/>
            <path fill="#133F88" d="M2.809 18.023L2.91 18.023 2.91 0.004 2.809 0.004z" mask="url(#jzxz59x4kf)"/>
            <path fill="#134089" d="M2.91 18.023L3.01 18.023 3.01 0.004 2.91 0.004z" mask="url(#jzxz59x4kf)"/>
            <path fill="#13418A" d="M3.009 18.023L3.11 18.023 3.11 0.004 3.009 0.004z" mask="url(#jzxz59x4kf)"/>
            <path fill="#12428B" d="M3.11 18.023L3.21 18.023 3.21 0.004 3.11 0.004z" mask="url(#jzxz59x4kf)"/>
            <path fill="#12438C" d="M3.21 18.023L3.311 18.023 3.311 0.004 3.21 0.004z" mask="url(#jzxz59x4kf)"/>
            <path fill="#11448D" d="M3.31 18.023L3.41 18.023 3.41 0.004 3.31 0.004z" mask="url(#jzxz59x4kf)"/>
            <path fill="#11458E" d="M3.41 18.023L3.511 18.023 3.511 0.004 3.41 0.004z" mask="url(#jzxz59x4kf)"/>
            <path fill="#11468F" d="M3.51 18.023L3.61 18.023 3.61 0.004 3.51 0.004z" mask="url(#jzxz59x4kf)"/>
            <path fill="#104790" d="M3.61 18.023L3.711 18.023 3.711 0.004 3.61 0.004z" mask="url(#jzxz59x4kf)"/>
            <path fill="#104891" d="M3.711 18.023L3.811 18.023 3.811 0.004 3.711 0.004z" mask="url(#jzxz59x4kf)"/>
            <path fill="#0F4992" d="M3.81 18.023L3.911 18.023 3.911 0.004 3.81 0.004z" mask="url(#jzxz59x4kf)"/>
            <path fill="#0F4A93" d="M3.911 18.023L4.011 18.023 4.011 0.004 3.911 0.004z" mask="url(#jzxz59x4kf)"/>
            <path fill="#0F4B94" d="M4.01 18.023L4.111 18.023 4.111 0.004 4.01 0.004z" mask="url(#jzxz59x4kf)"/>
            <path fill="#0E4B96" d="M4.111 18.023L4.211 18.023 4.211 0.004 4.111 0.004z" mask="url(#jzxz59x4kf)"/>
            <path fill="#0E4C97" d="M4.211 18.023L4.312 18.023 4.312 0.004 4.211 0.004z" mask="url(#jzxz59x4kf)"/>
            <path fill="#0E4D98" d="M4.311 18.023L4.411 18.023 4.411 0.004 4.311 0.004z" mask="url(#jzxz59x4kf)"/>
            <path fill="#0D4E99" d="M4.411 18.023L4.512 18.023 4.512 0.004 4.411 0.004z" mask="url(#jzxz59x4kf)"/>
            <path fill="#0D4F9A" d="M4.511 18.023L4.611 18.023 4.611 0.004 4.511 0.004z" mask="url(#jzxz59x4kf)"/>
            <path fill="#0C509B" d="M4.611 18.023L4.712 18.023 4.712 0.004 4.611 0.004z" mask="url(#jzxz59x4kf)"/>
            <path fill="#0C519C" d="M4.712 18.023L4.812 18.023 4.812 0.004 4.712 0.004z" mask="url(#jzxz59x4kf)"/>
            <path fill="#0C529D" d="M4.811 18.023L4.912 18.023 4.912 0.004 4.811 0.004z" mask="url(#jzxz59x4kf)"/>
            <path fill="#0B539E" d="M4.912 18.023L5.012 18.023 5.012 0.004 4.912 0.004z" mask="url(#jzxz59x4kf)"/>
            <path fill="#0B549F" d="M5.011 18.023L5.112 18.023 5.112 0.004 5.011 0.004z" mask="url(#jzxz59x4kf)"/>
            <path fill="#0A55A0" d="M5.112 18.023L5.212 18.023 5.212 0.004 5.112 0.004z" mask="url(#jzxz59x4kf)"/>
            <path fill="#0A56A1" d="M5.212 18.023L5.313 18.023 5.313 0.004 5.212 0.004z" mask="url(#jzxz59x4kf)"/>
            <path fill="#0A57A2" d="M5.312 18.023L5.412 18.023 5.412 0.004 5.312 0.004z" mask="url(#jzxz59x4kf)"/>
            <path fill="#0958A3" d="M5.412 18.023L5.513 18.023 5.513 0.004 5.412 0.004z" mask="url(#jzxz59x4kf)"/>
            <path fill="#0959A4" d="M5.512 18.023L5.612 18.023 5.612 0.004 5.512 0.004z" mask="url(#jzxz59x4kf)"/>
            <path fill="#0859A5" d="M5.612 18.023L5.713 18.023 5.713 0.004 5.612 0.004z" mask="url(#jzxz59x4kf)"/>
            <path fill="#085AA6" d="M5.713 18.023L5.813 18.023 5.813 0.004 5.713 0.004z" mask="url(#jzxz59x4kf)"/>
            <path fill="#085BA7" d="M5.812 18.023L5.912 18.023 5.912 0.004 5.812 0.004z" mask="url(#jzxz59x4kf)"/>
            <path fill="#075CA8" d="M5.912 18.023L6.013 18.023 6.013 0.004 5.912 0.004z" mask="url(#jzxz59x4kf)"/>
            <path fill="#075DA9" d="M6.012 18.023L6.112 18.023 6.112 0.004 6.012 0.004z" mask="url(#jzxz59x4kf)"/>
            <path fill="#065EAA" d="M6.112 18.023L6.213 18.023 6.213 0.004 6.112 0.004z" mask="url(#jzxz59x4kf)"/>
            <path fill="#065FAB" d="M6.213 18.023L6.313 18.023 6.313 0.004 6.213 0.004z" mask="url(#jzxz59x4kf)"/>
            <path fill="#0660AC" d="M6.312 18.023L6.413 18.023 6.413 0.004 6.312 0.004z" mask="url(#jzxz59x4kf)"/>
            <path fill="#0561AD" d="M6.413 18.023L6.513 18.023 6.513 0.004 6.413 0.004z" mask="url(#jzxz59x4kf)"/>
            <path fill="#0562AE" d="M6.512 18.023L6.613 18.023 6.613 0.004 6.512 0.004z" mask="url(#jzxz59x4kf)"/>
            <path fill="#0463AF" d="M6.613 18.023L6.713 18.023 6.713 0.004 6.613 0.004z" mask="url(#jzxz59x4kf)"/>
            <path fill="#0464B0" d="M6.712 18.023L6.813 18.023 6.813 0.004 6.712 0.004z" mask="url(#jzxz59x4kf)"/>
            <path fill="#0465B1" d="M6.813 18.023L6.913 18.023 6.913 0.004 6.813 0.004z" mask="url(#jzxz59x4kf)"/>
            <path fill="#0366B2" d="M6.913 18.023L7.014 18.023 7.014 0.004 6.913 0.004z" mask="url(#jzxz59x4kf)"/>
            <path fill="#0366B3" d="M7.013 18.023L7.113 18.023 7.113 0.004 7.013 0.004z" mask="url(#jzxz59x4kf)"/>
            <path fill="#0267B4" d="M7.113 18.023L7.214 18.023 7.214 0.004 7.113 0.004z" mask="url(#jzxz59x4kf)"/>
            <path fill="#0268B5" d="M7.213 18.023L7.313 18.023 7.313 0.004 7.213 0.004z" mask="url(#jzxz59x4kf)"/>
            <path fill="#0269B6" d="M7.313 18.023L7.414 18.023 7.414 0.004 7.313 0.004z" mask="url(#jzxz59x4kf)"/>
            <path fill="#016AB7" d="M7.414 18.023L7.514 18.023 7.514 0.004 7.414 0.004z" mask="url(#jzxz59x4kf)"/>
            <path fill="#016BB8" d="M7.513 18.023L7.614 18.023 7.614 0.004 7.513 0.004z" mask="url(#jzxz59x4kf)"/>
            <path fill="#006CB9" d="M7.614 18.023L7.714 18.023 7.714 0.004 7.614 0.004z" mask="url(#jzxz59x4kf)"/>
            <path fill="#006DBA" d="M7.714 18.024L7.815 18.024 7.815 0.005 7.714 0.005z" mask="url(#jzxz59x4kf)"/>
            <g transform="translate(8)">
                <mask id="qfhlqhww1h" fill="#fff">
                    <use xlink:href="#n0yzem2cxg"/>
                </mask>
                <path fill="#6E2B2F" d="M.716.005v18.019V.004z" mask="url(#qfhlqhww1h)"/>
                <mask id="nbwt3jblej" fill="#fff">
                    <use xlink:href="#zwosjg803i"/>
                </mask>
                <path fill="#6E2B2F" d="M0.716 18.023L0.779 18.023 0.779 0.004 0.716 0.004z" mask="url(#nbwt3jblej)"/>
                <path fill="#6F2B2F" d="M0.78 18.023L0.842 18.023 0.842 0.004 0.78 0.004z" mask="url(#nbwt3jblej)"/>
                <path fill="#702A2F" d="M0.842 18.023L0.905 18.023 0.905 0.004 0.842 0.004z" mask="url(#nbwt3jblej)"/>
                <path fill="#712A2F" d="M0.906 18.023L0.969 18.023 0.969 0.004 0.906 0.004z" mask="url(#nbwt3jblej)"/>
                <path fill="#722A2F" d="M0.969 18.023L1.032 18.023 1.032 0.004 0.969 0.004z" mask="url(#nbwt3jblej)"/>
                <path fill="#73292F" d="M1.033 18.023L1.096 18.023 1.096 0.004 1.033 0.004z" mask="url(#nbwt3jblej)"/>
                <path fill="#74292F" d="M1.096 18.023L1.158 18.023 1.158 0.004 1.096 0.004z" mask="url(#nbwt3jblej)"/>
                <path fill="#752830" d="M1.159 18.023L1.222 18.023 1.222 0.004 1.159 0.004z" mask="url(#nbwt3jblej)"/>
                <path fill="#762830" d="M1.222 18.023L1.285 18.023 1.285 0.004 1.222 0.004z" mask="url(#nbwt3jblej)"/>
                <path fill="#772830" d="M1.286 18.023L1.349 18.023 1.349 0.004 1.286 0.004z" mask="url(#nbwt3jblej)"/>
                <path fill="#782730" d="M1.349 18.023L1.412 18.023 1.412 0.004 1.349 0.004z" mask="url(#nbwt3jblej)"/>
                <path fill="#792730" d="M1.413 18.023L1.476 18.023 1.476 0.004 1.413 0.004z" mask="url(#nbwt3jblej)"/>
                <path fill="#7A2730" d="M1.476 18.023L1.538 18.023 1.538 0.004 1.476 0.004z" mask="url(#nbwt3jblej)"/>
                <path fill="#7B2630" d="M1.539 18.023L1.602 18.023 1.602 0.004 1.539 0.004z" mask="url(#nbwt3jblej)"/>
                <path fill="#7C2630" d="M1.602 18.023L1.665 18.023 1.665 0.004 1.602 0.004z" mask="url(#nbwt3jblej)"/>
                <path fill="#7D2630" d="M1.666 18.023L1.729 18.023 1.729 0.004 1.666 0.004z" mask="url(#nbwt3jblej)"/>
                <path fill="#7E2530" d="M1.729 18.023L1.792 18.023 1.792 0.004 1.729 0.004z" mask="url(#nbwt3jblej)"/>
                <path fill="#7F2530" d="M1.792 18.023L1.855 18.023 1.855 0.004 1.792 0.004z" mask="url(#nbwt3jblej)"/>
                <path fill="#802430" d="M1.856 18.023L1.918 18.023 1.918 0.004 1.856 0.004z" mask="url(#nbwt3jblej)"/>
                <path fill="#812430" d="M1.918 18.023L1.981 18.023 1.981 0.004 1.918 0.004z" mask="url(#nbwt3jblej)"/>
                <path fill="#822431" d="M1.982 18.023L2.045 18.023 2.045 0.004 1.982 0.004z" mask="url(#nbwt3jblej)"/>
                <path fill="#832331" d="M2.045 18.023L2.108 18.023 2.108 0.004 2.045 0.004z" mask="url(#nbwt3jblej)"/>
                <path fill="#842331" d="M2.109 18.023L2.172 18.023 2.172 0.004 2.109 0.004z" mask="url(#nbwt3jblej)"/>
                <path fill="#852331" d="M2.172 18.023L2.235 18.023 2.235 0.004 2.172 0.004z" mask="url(#nbwt3jblej)"/>
                <path fill="#862231" d="M2.236 18.023L2.298 18.023 2.298 0.004 2.236 0.004z" mask="url(#nbwt3jblej)"/>
                <path fill="#872231" d="M2.298 18.023L2.361 18.023 2.361 0.004 2.298 0.004z" mask="url(#nbwt3jblej)"/>
                <path fill="#882231" d="M2.362 18.023L2.425 18.023 2.425 0.004 2.362 0.004z" mask="url(#nbwt3jblej)"/>
                <path fill="#892131" d="M2.425 18.023L2.488 18.023 2.488 0.004 2.425 0.004z" mask="url(#nbwt3jblej)"/>
                <path fill="#8A2131" d="M2.489 18.023L2.552 18.023 2.552 0.004 2.489 0.004z" mask="url(#nbwt3jblej)"/>
                <path fill="#8B2131" d="M2.552 18.023L2.615 18.023 2.615 0.004 2.552 0.004z" mask="url(#nbwt3jblej)"/>
                <path fill="#8C2031" d="M2.616 18.023L2.678 18.023 2.678 0.004 2.616 0.004z" mask="url(#nbwt3jblej)"/>
                <path fill="#8D2031" d="M2.678 18.023L2.741 18.023 2.741 0.004 2.678 0.004z" mask="url(#nbwt3jblej)"/>
                <path fill="#8E1F31" d="M2.742 18.023L2.805 18.023 2.805 0.004 2.742 0.004z" mask="url(#nbwt3jblej)"/>
                <path fill="#8F1F32" d="M2.805 18.023L2.868 18.023 2.868 0.004 2.805 0.004z" mask="url(#nbwt3jblej)"/>
                <path fill="#901F32" d="M2.869 18.023L2.932 18.023 2.932 0.004 2.869 0.004z" mask="url(#nbwt3jblej)"/>
                <path fill="#911E32" d="M2.932 18.023L2.995 18.023 2.995 0.004 2.932 0.004z" mask="url(#nbwt3jblej)"/>
                <path fill="#921E32" d="M2.996 18.023L3.058 18.023 3.058 0.004 2.996 0.004z" mask="url(#nbwt3jblej)"/>
                <path fill="#931E32" d="M3.058 18.023L3.121 18.023 3.121 0.004 3.058 0.004z" mask="url(#nbwt3jblej)"/>
                <path fill="#941D32" d="M3.122 18.023L3.185 18.023 3.185 0.004 3.122 0.004z" mask="url(#nbwt3jblej)"/>
                <path fill="#951D32" d="M3.185 18.023L3.248 18.023 3.248 0.004 3.185 0.004z" mask="url(#nbwt3jblej)"/>
                <path fill="#961D32" d="M3.249 18.023L3.312 18.023 3.312 0.004 3.249 0.004z" mask="url(#nbwt3jblej)"/>
                <path fill="#971C32" d="M3.312 18.023L3.374 18.023 3.374 0.004 3.312 0.004z" mask="url(#nbwt3jblej)"/>
                <path fill="#981C32" d="M3.374 18.023L3.437 18.023 3.437 0.004 3.374 0.004z" mask="url(#nbwt3jblej)"/>
                <path fill="#991B32" d="M3.438 18.023L3.501 18.023 3.501 0.004 3.438 0.004z" mask="url(#nbwt3jblej)"/>
                <path fill="#9A1B32" d="M3.501 18.023L3.564 18.023 3.564 0.004 3.501 0.004z" mask="url(#nbwt3jblej)"/>
                <path fill="#9B1B32" d="M3.565 18.023L3.628 18.023 3.628 0.004 3.565 0.004z" mask="url(#nbwt3jblej)"/>
                <path fill="#9C1A33" d="M3.628 18.023L3.691 18.023 3.691 0.004 3.628 0.004z" mask="url(#nbwt3jblej)"/>
                <path fill="#9D1A33" d="M3.692 18.023L3.754 18.023 3.754 0.004 3.692 0.004z" mask="url(#nbwt3jblej)"/>
                <path fill="#9E1A33" d="M3.754 18.023L3.817 18.023 3.817 0.004 3.754 0.004z" mask="url(#nbwt3jblej)"/>
                <path fill="#9F1933" d="M3.818 18.023L3.881 18.023 3.881 0.004 3.818 0.004z" mask="url(#nbwt3jblej)"/>
                <path fill="#A01933" d="M3.881 18.023L3.944 18.023 3.944 0.004 3.881 0.004z" mask="url(#nbwt3jblej)"/>
                <path fill="#A11933" d="M3.945 18.023L4.008 18.023 4.008 0.004 3.945 0.004z" mask="url(#nbwt3jblej)"/>
                <path fill="#A21833" d="M4.008 18.023L4.071 18.023 4.071 0.004 4.008 0.004z" mask="url(#nbwt3jblej)"/>
                <path fill="#A31833" d="M4.072 18.023L4.134 18.023 4.134 0.004 4.072 0.004z" mask="url(#nbwt3jblej)"/>
                <path fill="#A41733" d="M4.134 18.023L4.197 18.023 4.197 0.004 4.134 0.004z" mask="url(#nbwt3jblej)"/>
                <path fill="#A51733" d="M4.198 18.023L4.261 18.023 4.261 0.004 4.198 0.004z" mask="url(#nbwt3jblej)"/>
                <path fill="#A61733" d="M4.261 18.023L4.324 18.023 4.324 0.004 4.261 0.004z" mask="url(#nbwt3jblej)"/>
                <path fill="#A71633" d="M4.325 18.023L4.388 18.023 4.388 0.004 4.325 0.004z" mask="url(#nbwt3jblej)"/>
                <path fill="#A91634" d="M4.388 18.023L4.451 18.023 4.451 0.004 4.388 0.004z" mask="url(#nbwt3jblej)"/>
                <path fill="#AA1634" d="M4.452 18.023L4.514 18.023 4.514 0.004 4.452 0.004z" mask="url(#nbwt3jblej)"/>
                <path fill="#AB1534" d="M4.514 18.023L4.577 18.023 4.577 0.004 4.514 0.004z" mask="url(#nbwt3jblej)"/>
                <path fill="#AC1534" d="M4.578 18.023L4.641 18.023 4.641 0.004 4.578 0.004z" mask="url(#nbwt3jblej)"/>
                <path fill="#AD1534" d="M4.641 18.023L4.704 18.023 4.704 0.004 4.641 0.004z" mask="url(#nbwt3jblej)"/>
                <path fill="#AE1434" d="M4.705 18.023L4.768 18.023 4.768 0.004 4.705 0.004z" mask="url(#nbwt3jblej)"/>
                <path fill="#AF1434" d="M4.768 18.023L4.831 18.023 4.831 0.004 4.768 0.004z" mask="url(#nbwt3jblej)"/>
                <path fill="#B01334" d="M4.832 18.023L4.894 18.023 4.894 0.004 4.832 0.004z" mask="url(#nbwt3jblej)"/>
                <path fill="#B11334" d="M4.894 18.023L4.957 18.023 4.957 0.004 4.894 0.004z" mask="url(#nbwt3jblej)"/>
                <path fill="#B21334" d="M4.958 18.023L5.021 18.023 5.021 0.004 4.958 0.004z" mask="url(#nbwt3jblej)"/>
                <path fill="#B31234" d="M5.021 18.023L5.084 18.023 5.084 0.004 5.021 0.004z" mask="url(#nbwt3jblej)"/>
                <path fill="#B41234" d="M5.084 18.023L5.147 18.023 5.147 0.004 5.084 0.004z" mask="url(#nbwt3jblej)"/>
                <path fill="#B51234" d="M5.148 18.023L5.211 18.023 5.211 0.004 5.148 0.004z" mask="url(#nbwt3jblej)"/>
                <path fill="#B61135" d="M5.211 18.023L5.273 18.023 5.273 0.004 5.211 0.004z" mask="url(#nbwt3jblej)"/>
                <path fill="#B71135" d="M5.274 18.023L5.337 18.023 5.337 0.004 5.274 0.004z" mask="url(#nbwt3jblej)"/>
                <path fill="#B81135" d="M5.337 18.023L5.4 18.023 5.4 0.004 5.337 0.004z" mask="url(#nbwt3jblej)"/>
                <path fill="#B91035" d="M5.401 18.023L5.464 18.023 5.464 0.004 5.401 0.004z" mask="url(#nbwt3jblej)"/>
                <path fill="#BA1035" d="M5.464 18.023L5.527 18.023 5.527 0.004 5.464 0.004z" mask="url(#nbwt3jblej)"/>
                <path fill="#BB0F35" d="M5.528 18.023L5.59 18.023 5.59 0.004 5.528 0.004z" mask="url(#nbwt3jblej)"/>
                <path fill="#BC0F35" d="M5.59 18.023L5.653 18.023 5.653 0.004 5.59 0.004z" mask="url(#nbwt3jblej)"/>
                <path fill="#BD0F35" d="M5.654 18.023L5.717 18.023 5.717 0.004 5.654 0.004z" mask="url(#nbwt3jblej)"/>
                <path fill="#BE0E35" d="M5.717 18.023L5.78 18.023 5.78 0.004 5.717 0.004z" mask="url(#nbwt3jblej)"/>
                <path fill="#BF0E35" d="M5.781 18.023L5.844 18.023 5.844 0.004 5.781 0.004z" mask="url(#nbwt3jblej)"/>
                <path fill="#C00E35" d="M5.844 18.023L5.907 18.023 5.907 0.004 5.844 0.004z" mask="url(#nbwt3jblej)"/>
                <path fill="#C10D35" d="M5.908 18.023L5.97 18.023 5.97 0.004 5.908 0.004z" mask="url(#nbwt3jblej)"/>
                <path fill="#C20D35" d="M5.97 18.023L6.033 18.023 6.033 0.004 5.97 0.004z" mask="url(#nbwt3jblej)"/>
                <path fill="#C30D36" d="M6.034 18.023L6.097 18.023 6.097 0.004 6.034 0.004z" mask="url(#nbwt3jblej)"/>
                <path fill="#C40C36" d="M6.097 18.023L6.16 18.023 6.16 0.004 6.097 0.004z" mask="url(#nbwt3jblej)"/>
                <path fill="#C50C36" d="M6.161 18.023L6.224 18.023 6.224 0.004 6.161 0.004z" mask="url(#nbwt3jblej)"/>
                <path fill="#C60C36" d="M6.224 18.023L6.287 18.023 6.287 0.004 6.224 0.004z" mask="url(#nbwt3jblej)"/>
                <path fill="#C70B36" d="M6.288 18.023L6.35 18.023 6.35 0.004 6.288 0.004z" mask="url(#nbwt3jblej)"/>
                <path fill="#C80B36" d="M6.35 18.023L6.413 18.023 6.413 0.004 6.35 0.004z" mask="url(#nbwt3jblej)"/>
                <path fill="#C90A36" d="M6.414 18.023L6.477 18.023 6.477 0.004 6.414 0.004z" mask="url(#nbwt3jblej)"/>
                <path fill="#CA0A36" d="M6.477 18.023L6.54 18.023 6.54 0.004 6.477 0.004z" mask="url(#nbwt3jblej)"/>
                <path fill="#CB0A36" d="M6.541 18.023L6.604 18.023 6.604 0.004 6.541 0.004z" mask="url(#nbwt3jblej)"/>
                <path fill="#CC0936" d="M6.604 18.023L6.667 18.023 6.667 0.004 6.604 0.004z" mask="url(#nbwt3jblej)"/>
                <path fill="#CD0936" d="M6.667 18.023L6.729 18.023 6.729 0.004 6.667 0.004z" mask="url(#nbwt3jblej)"/>
                <path fill="#CE0936" d="M6.73 18.023L6.793 18.023 6.793 0.004 6.73 0.004z" mask="url(#nbwt3jblej)"/>
                <path fill="#CF0836" d="M6.793 18.023L6.856 18.023 6.856 0.004 6.793 0.004z" mask="url(#nbwt3jblej)"/>
                <path fill="#D00837" d="M6.857 18.023L6.92 18.023 6.92 0.004 6.857 0.004z" mask="url(#nbwt3jblej)"/>
                <path fill="#D10837" d="M6.92 18.023L6.983 18.023 6.983 0.004 6.92 0.004z" mask="url(#nbwt3jblej)"/>
                <path fill="#D20737" d="M6.984 18.023L7.047 18.023 7.047 0.004 6.984 0.004z" mask="url(#nbwt3jblej)"/>
                <path fill="#D30737" d="M7.047 18.023L7.109 18.023 7.109 0.004 7.047 0.004z" mask="url(#nbwt3jblej)"/>
                <path fill="#D40637" d="M7.11 18.023L7.173 18.023 7.173 0.004 7.11 0.004z" mask="url(#nbwt3jblej)"/>
                <path fill="#D50637" d="M7.173 18.023L7.236 18.023 7.236 0.004 7.173 0.004z" mask="url(#nbwt3jblej)"/>
                <path fill="#D60637" d="M7.237 18.023L7.3 18.023 7.3 0.004 7.237 0.004z" mask="url(#nbwt3jblej)"/>
                <path fill="#D70537" d="M7.3 18.023L7.363 18.023 7.363 0.004 7.3 0.004z" mask="url(#nbwt3jblej)"/>
                <path fill="#D80537" d="M7.364 18.023L7.427 18.023 7.427 0.004 7.364 0.004z" mask="url(#nbwt3jblej)"/>
                <path fill="#D90537" d="M7.427 18.023L7.489 18.023 7.489 0.004 7.427 0.004z" mask="url(#nbwt3jblej)"/>
                <path fill="#DA0437" d="M7.49 18.023L7.553 18.023 7.553 0.004 7.49 0.004z" mask="url(#nbwt3jblej)"/>
                <path fill="#DB0437" d="M7.553 18.023L7.616 18.023 7.616 0.004 7.553 0.004z" mask="url(#nbwt3jblej)"/>
                <path fill="#DC0437" d="M7.617 18.023L7.68 18.023 7.68 0.004 7.617 0.004z" mask="url(#nbwt3jblej)"/>
                <path fill="#DD0338" d="M7.68 18.023L7.743 18.023 7.743 0.004 7.68 0.004z" mask="url(#nbwt3jblej)"/>
                <path fill="#DE0338" d="M7.744 18.023L7.806 18.023 7.806 0.004 7.744 0.004z" mask="url(#nbwt3jblej)"/>
                <path fill="#DF0238" d="M7.806 18.023L7.869 18.023 7.869 0.004 7.806 0.004z" mask="url(#nbwt3jblej)"/>
                <path fill="#E00238" d="M7.87 18.023L7.933 18.023 7.933 0.004 7.87 0.004z" mask="url(#nbwt3jblej)"/>
                <path fill="#E10238" d="M7.933 18.023L7.996 18.023 7.996 0.004 7.933 0.004z" mask="url(#nbwt3jblej)"/>
                <path fill="#E20138" d="M7.997 18.023L8.06 18.023 8.06 0.004 7.997 0.004z" mask="url(#nbwt3jblej)"/>
                <path fill="#E30138" d="M8.06 18.024L8.123 18.024 8.123 0.005 8.06 0.005z" mask="url(#nbwt3jblej)"/>
            </g>
        </g>
    </g>
</svg>
