<svg xmlns="http://www.w3.org/2000/svg" xmlns:xlink="http://www.w3.org/1999/xlink" width="25" height="15" viewBox="0 0 25 15">
    <defs>
        <path id="hhdyvbkoia" d="M0 0L11.948 0 11.948 14.769 0 14.769z"/>
    </defs>
    <g fill="none" fill-rule="evenodd">
        <path fill="#F16522" d="M8.717 13.19L15.178 13.19 15.178 1.579 8.717 1.579z"/>
        <mask id="5wxe5vy89b" fill="#fff">
            <use xlink:href="#hhdyvbkoia"/>
        </mask>
        <path fill="#E41B24" d="M9.127 7.385c0-2.356 1.103-4.454 2.82-5.806C10.693.589 9.108 0 7.385 0 3.306 0 0 3.306 0 7.385c0 4.078 3.306 7.384 7.384 7.384 1.723 0 3.308-.59 4.564-1.579-1.718-1.352-2.82-3.45-2.82-5.805" mask="url(#5wxe5vy89b)"/>
        <path fill="#F89E1B" d="M23.895 7.385c0 4.078-3.305 7.384-7.384 7.384-1.722 0-3.307-.59-4.563-1.579 1.717-1.352 2.82-3.45 2.82-5.805 0-2.356-1.103-4.454-2.82-5.806C13.204.589 14.788 0 16.51 0c4.079 0 7.384 3.306 7.384 7.385"/>
        <path fill="#231F20" d="M24.043 12.674v-1h-.12l-.139.687-.138-.687h-.12v1h.084v-.755l.13.65h.088l.13-.652v.757h.085zm-.762 0v-.83h.154v-.169h-.392v.17h.154v.829h.084z"/>
    </g>
</svg>
