<svg xmlns="http://www.w3.org/2000/svg" xmlns:xlink="http://www.w3.org/1999/xlink" width="38" height="25" viewBox="0 0 38 25">
    <defs>
        <path id="93as7ekova" d="M0 0L11.948 0 11.948 14.741 0 14.741z"/>
    </defs>
    <g fill="none" fill-rule="evenodd">
        <path fill="#E2E2E2" d="M36 24.952H2c-1.1 0-2-.898-2-1.996V1.996C0 .898.9 0 2 0h34c1.1 0 2 .898 2 1.996v20.96c0 1.098-.9 1.996-2 1.996"/>
        <path fill="#FFF" d="M35.97 23.384H2.03c-.824 0-1.5-.675-1.5-1.497V2.096c0-.823.676-1.497 1.5-1.497h33.94c.824 0 1.5.674 1.5 1.497v19.79c0 .823-.676 1.498-1.5 1.498"/>
        <g transform="translate(7 4.99)">
            <path fill="silver" d="M8.717 13.165L15.178 13.165 15.178 1.576 8.717 1.576z"/>
            <mask id="xz75u4m7ab" fill="#fff">
                <use xlink:href="#93as7ekova"/>
            </mask>
            <path fill="#959595" d="M9.127 7.37c0-2.35 1.103-4.445 2.82-5.794C10.693.589 9.108 0 7.385 0 3.306 0 0 3.3 0 7.37c0 4.071 3.306 7.37 7.384 7.37 1.723 0 3.308-.588 4.564-1.575-1.718-1.35-2.82-3.444-2.82-5.795" mask="url(#xz75u4m7ab)"/>
            <path fill="#D4D4D4" d="M23.895 7.37c0 4.071-3.305 7.37-7.384 7.37-1.722 0-3.307-.588-4.563-1.575 1.717-1.35 2.82-3.444 2.82-5.795 0-2.35-1.103-4.445-2.82-5.794C13.204.589 14.788 0 16.51 0c4.079 0 7.384 3.3 7.384 7.37"/>
            <path fill="#231F20" d="M24.043 12.652v-1h-.12l-.139.687-.138-.687h-.12v1h.084v-.755l.13.65h.088l.13-.652v.757h.085zm-.762 0v-.83h.154v-.169h-.392v.169h.154v.83h.084z"/>
        </g>
    </g>
</svg>
