<svg xmlns="http://www.w3.org/2000/svg" xmlns:xlink="http://www.w3.org/1999/xlink" width="38" height="25" viewBox="0 0 38 25">
    <defs>
        <path id="40zpgjkjea" d="M0 0L11.948 0 11.948 14.769 0 14.769z"/>
    </defs>
    <g fill="none" fill-rule="evenodd">
        <path fill="#E2E2E2" d="M36 25H2c-1.1 0-2-.9-2-2V2C0 .9.9 0 2 0h34c1.1 0 2 .9 2 2v21c0 1.1-.9 2-2 2"/>
        <path fill="#FFF" d="M35.97 23.429H2.03c-.824 0-1.5-.676-1.5-1.5V2.099c0-.823.676-1.5 1.5-1.5h33.94c.824 0 1.5.677 1.5 1.5v19.83c0 .824-.676 1.5-1.5 1.5"/>
        <g transform="translate(7 5)">
            <path fill="#F16522" d="M8.717 13.19L15.178 13.19 15.178 1.579 8.717 1.579z"/>
            <mask id="smqrd8xygb" fill="#fff">
                <use xlink:href="#40zpgjkjea"/>
            </mask>
            <path fill="#E41B24" d="M9.127 7.385c0-2.356 1.103-4.454 2.82-5.806C10.693.589 9.108 0 7.385 0 3.306 0 0 3.306 0 7.385c0 4.078 3.306 7.384 7.384 7.384 1.723 0 3.308-.59 4.564-1.579-1.718-1.352-2.82-3.45-2.82-5.805" mask="url(#smqrd8xygb)"/>
            <path fill="#F89E1B" d="M23.895 7.385c0 4.078-3.305 7.384-7.384 7.384-1.722 0-3.307-.59-4.563-1.579 1.717-1.352 2.82-3.45 2.82-5.805 0-2.356-1.103-4.454-2.82-5.806C13.204.589 14.788 0 16.51 0c4.079 0 7.384 3.306 7.384 7.385"/>
            <path fill="#231F20" d="M24.043 12.674v-1h-.12l-.139.687-.138-.687h-.12v1h.084v-.755l.13.65h.088l.13-.652v.757h.085zm-.762 0v-.83h.154v-.169h-.392v.17h.154v.829h.084z"/>
        </g>
    </g>
</svg>
