<svg xmlns="http://www.w3.org/2000/svg" width="28" height="10" viewBox="0 0 28 10">
    <g fill="none" fill-rule="evenodd">
        <g>
            <g>
                <path fill="#2566AF" d="M19.98 2.259l.325-1.878S19.302 0 18.257 0c-1.13 0-3.812.493-3.812 2.895 0 2.259 3.148 2.287 3.148 3.473 0 1.187-2.824.975-3.757.226l-.337 1.964s1.016.493 2.569.493c1.554 0 3.897-.804 3.897-2.993 0-2.274-3.176-2.486-3.176-3.474 0-.989 2.216-.862 3.19-.325zm3.325 3.548L24.5 2.535l.673 3.272h-1.87zm2.506 3.094h2.09L26.079.155h-1.83c-.845 0-1.051.653-1.051.653l-3.396 8.093h2.373l.475-1.299h2.894l.267 1.299zM7.904.156L5.733 6.17l-.257-1.295v.001L4.71.944S4.618.156 3.63.156H.043L0 .304s1.096.228 2.38 1L4.36 8.901h2.372L10.354.156h-2.45zm4.19 8.745H9.82L11.242.156h2.277l-1.424 8.745z" transform="translate(-29 -256) translate(29 256)"/>
                <path fill="#E6A540" d="M5.476 4.875L4.71.943S4.618.155 3.63.155H.042L0 .305S1.725.66 3.379 2C4.96 3.28 5.476 4.875 5.476 4.875" transform="translate(-29 -256) translate(29 256)"/>
            </g>
        </g>
    </g>
</svg>
