<svg xmlns="http://www.w3.org/2000/svg" width="38" height="25" viewBox="0 0 38 25">
    <g fill="none" fill-rule="evenodd">
        <path fill="#E2E2E2" d="M36 25H2c-1.1 0-2-.9-2-2V2C0 .9.9 0 2 0h34c1.1 0 2 .9 2 2v21c0 1.1-.9 2-2 2"/>
        <path fill="#FFF" d="M35.97 23.429H2.03c-.824 0-1.5-.676-1.5-1.5V2.099c0-.823.676-1.5 1.5-1.5h33.94c.824 0 1.5.677 1.5 1.5v19.83c0 .824-.676 1.5-1.5 1.5"/>
        <path fill="#959595" d="M25.03 10.233l.324-1.878s-1.003-.38-2.048-.38c-1.13 0-3.812.492-3.812 2.894 0 2.26 3.148 2.287 3.148 3.473 0 1.187-2.824.975-3.757.226l-.337 1.964s1.016.493 2.57.493c1.553 0 3.896-.804 3.896-2.993 0-2.274-3.176-2.486-3.176-3.474 0-.989 2.216-.862 3.191-.325zm3.324 3.548l1.196-3.272.673 3.272h-1.869zm2.506 3.094h2.09L31.128 8.13h-1.83c-.845 0-1.05.653-1.05.653l-3.397 8.093h2.373l.475-1.299h2.894l.267 1.3zM12.953 8.13l-2.17 6.014-.258-1.295v.001L9.76 8.918s-.092-.788-1.08-.788H5.092l-.042.148s1.096.228 2.38 1l1.98 7.597h2.371l3.622-8.745h-2.45zm4.191 8.745h-2.276l1.423-8.745h2.277l-1.424 8.745z"/>
        <path fill="#D4D4D4" d="M10.525 12.85L9.76 8.918s-.092-.788-1.08-.788H5.091l-.042.149s1.725.357 3.38 1.696c1.58 1.28 2.096 2.875 2.096 2.875"/>
    </g>
</svg>
